<svg xmlns="http://www.w3.org/2000/svg" xmlns:xlink="http://www.w3.org/1999/xlink" width="500" zoomAndPan="magnify" viewBox="0 0 375 374.999991" height="500" preserveAspectRatio="xMidYMid meet" version="1.0"><defs><g/><clipPath id="5bb1f61f97"><path d="M 266 80 L 276 80 L 276 89 L 266 89 Z M 266 80 " clip-rule="nonzero"/></clipPath><clipPath id="ff21787135"><path d="M 264.878906 72.722656 L 306 76.007812 L 302.65625 117.875 L 261.535156 114.589844 Z M 264.878906 72.722656 " clip-rule="nonzero"/></clipPath><clipPath id="325a5f9644"><path d="M 264.878906 72.722656 L 306 76.007812 L 302.65625 117.875 L 261.535156 114.589844 Z M 264.878906 72.722656 " clip-rule="nonzero"/></clipPath><clipPath id="e8bcbeca71"><path d="M 278 74 L 289 74 L 289 86 L 278 86 Z M 278 74 " clip-rule="nonzero"/></clipPath><clipPath id="92d1e2bcf6"><path d="M 264.878906 72.722656 L 306 76.007812 L 302.65625 117.875 L 261.535156 114.589844 Z M 264.878906 72.722656 " clip-rule="nonzero"/></clipPath><clipPath id="c2f51643af"><path d="M 264.878906 72.722656 L 306 76.007812 L 302.65625 117.875 L 261.535156 114.589844 Z M 264.878906 72.722656 " clip-rule="nonzero"/></clipPath><clipPath id="c778134220"><path d="M 263 89 L 304 89 L 304 103 L 263 103 Z M 263 89 " clip-rule="nonzero"/></clipPath><clipPath id="815d45f494"><path d="M 264.878906 72.722656 L 306 76.007812 L 302.65625 117.875 L 261.535156 114.589844 Z M 264.878906 72.722656 " clip-rule="nonzero"/></clipPath><clipPath id="3f43a68234"><path d="M 264.878906 72.722656 L 306 76.007812 L 302.65625 117.875 L 261.535156 114.589844 Z M 264.878906 72.722656 " clip-rule="nonzero"/></clipPath><clipPath id="af93600fb7"><path d="M 279 90 L 293 90 L 293 101 L 279 101 Z M 279 90 " clip-rule="nonzero"/></clipPath><clipPath id="e5d8ba6b71"><path d="M 264.878906 72.722656 L 306 76.007812 L 302.65625 117.875 L 261.535156 114.589844 Z M 264.878906 72.722656 " clip-rule="nonzero"/></clipPath><clipPath id="bbbdf3ab04"><path d="M 264.878906 72.722656 L 306 76.007812 L 302.65625 117.875 L 261.535156 114.589844 Z M 264.878906 72.722656 " clip-rule="nonzero"/></clipPath><clipPath id="c87bdf6f3e"><path d="M 283 90 L 292 90 L 292 101 L 283 101 Z M 283 90 " clip-rule="nonzero"/></clipPath><clipPath id="6336eacb7d"><path d="M 264.878906 72.722656 L 306 76.007812 L 302.65625 117.875 L 261.535156 114.589844 Z M 264.878906 72.722656 " clip-rule="nonzero"/></clipPath><clipPath id="34a9ba5eec"><path d="M 264.878906 72.722656 L 306 76.007812 L 302.65625 117.875 L 261.535156 114.589844 Z M 264.878906 72.722656 " clip-rule="nonzero"/></clipPath><clipPath id="8f08b17ab1"><path d="M 289 75 L 301 75 L 301 93 L 289 93 Z M 289 75 " clip-rule="nonzero"/></clipPath><clipPath id="17cfab037d"><path d="M 264.878906 72.722656 L 306 76.007812 L 302.65625 117.875 L 261.535156 114.589844 Z M 264.878906 72.722656 " clip-rule="nonzero"/></clipPath><clipPath id="1d6905757a"><path d="M 264.878906 72.722656 L 306 76.007812 L 302.65625 117.875 L 261.535156 114.589844 Z M 264.878906 72.722656 " clip-rule="nonzero"/></clipPath><clipPath id="b53b6b7d60"><path d="M 263 93 L 304 93 L 304 117 L 263 117 Z M 263 93 " clip-rule="nonzero"/></clipPath><clipPath id="4360c6249f"><path d="M 264.878906 72.722656 L 306 76.007812 L 302.65625 117.875 L 261.535156 114.589844 Z M 264.878906 72.722656 " clip-rule="nonzero"/></clipPath><clipPath id="60853d2797"><path d="M 264.878906 72.722656 L 306 76.007812 L 302.65625 117.875 L 261.535156 114.589844 Z M 264.878906 72.722656 " clip-rule="nonzero"/></clipPath></defs><g fill="#e12c2c" fill-opacity="1"><g transform="translate(48.090107, 62.488109)"><g><path d="M 0.78125 -37.453125 C 0.78125 -38.171875 1.050781 -38.632812 1.59375 -38.84375 C 2.132812 -39.050781 2.816406 -39.15625 3.640625 -39.15625 C 4.617188 -39.15625 5.6875 -39.078125 6.84375 -38.921875 C 8.007812 -38.765625 9.082031 -38.6875 10.0625 -38.6875 C 11.144531 -38.6875 12.132812 -38.773438 13.03125 -38.953125 C 13.9375 -39.140625 14.800781 -39.234375 15.625 -39.234375 C 16.5 -39.234375 17.3125 -38.988281 18.0625 -38.5 C 18.8125 -38.007812 19.472656 -37.015625 20.046875 -35.515625 C 20.046875 -35.515625 20.414062 -34.363281 21.15625 -32.0625 C 21.90625 -29.769531 22.875 -26.921875 24.0625 -23.515625 C 24.476562 -22.378906 24.890625 -22.378906 25.296875 -23.515625 C 26.535156 -26.921875 27.515625 -29.769531 28.234375 -32.0625 C 28.960938 -34.363281 29.328125 -35.515625 29.328125 -35.515625 C 29.890625 -37.015625 30.53125 -38.007812 31.25 -38.5 C 31.976562 -38.988281 32.753906 -39.234375 33.578125 -39.234375 C 34.296875 -39.234375 35.039062 -39.140625 35.8125 -38.953125 C 36.59375 -38.773438 37.394531 -38.6875 38.21875 -38.6875 C 39.25 -38.6875 40.332031 -38.765625 41.46875 -38.921875 C 42.601562 -39.078125 43.660156 -39.15625 44.640625 -39.15625 C 45.515625 -39.15625 46.210938 -39.050781 46.734375 -38.84375 C 47.253906 -38.632812 47.515625 -38.171875 47.515625 -37.453125 C 47.515625 -36.773438 47.382812 -36.253906 47.125 -35.890625 C 46.863281 -35.535156 46.550781 -35.148438 46.1875 -34.734375 C 45.832031 -34.328125 45.523438 -33.671875 45.265625 -32.765625 C 45.003906 -31.867188 44.875 -30.515625 44.875 -28.703125 L 44.875 -9.984375 C 44.875 -8.171875 45.003906 -6.800781 45.265625 -5.875 C 45.523438 -4.945312 45.832031 -4.265625 46.1875 -3.828125 C 46.550781 -3.390625 46.863281 -3.03125 47.125 -2.75 C 47.382812 -2.46875 47.515625 -2.039062 47.515625 -1.46875 C 47.515625 -0.695312 47.21875 -0.179688 46.625 0.078125 C 46.03125 0.335938 45.289062 0.46875 44.40625 0.46875 C 43.476562 0.46875 42.484375 0.390625 41.421875 0.234375 C 40.367188 0.078125 39.457031 0 38.6875 0 C 37.914062 0 37 0.078125 35.9375 0.234375 C 34.882812 0.390625 33.894531 0.46875 32.96875 0.46875 C 32.082031 0.46875 31.34375 0.335938 30.75 0.078125 C 30.15625 -0.179688 29.859375 -0.695312 29.859375 -1.46875 C 29.859375 -2.039062 29.988281 -2.46875 30.25 -2.75 C 30.507812 -3.03125 30.816406 -3.390625 31.171875 -3.828125 C 31.535156 -4.265625 31.847656 -4.945312 32.109375 -5.875 C 32.367188 -6.800781 32.5 -8.171875 32.5 -9.984375 C 32.5 -10.910156 32.5 -12.144531 32.5 -13.6875 C 32.5 -15.238281 32.484375 -16.90625 32.453125 -18.6875 C 32.429688 -20.46875 32.421875 -22.234375 32.421875 -23.984375 C 32.421875 -25.734375 32.421875 -27.253906 32.421875 -28.546875 C 32.421875 -28.648438 32.34375 -28.753906 32.1875 -28.859375 C 32.03125 -28.960938 31.898438 -28.882812 31.796875 -28.625 C 31.441406 -27.488281 30.914062 -25.898438 30.21875 -23.859375 C 29.519531 -21.828125 28.753906 -19.585938 27.921875 -17.140625 C 27.097656 -14.691406 26.25 -12.203125 25.375 -9.671875 C 24.5 -7.140625 23.703125 -4.816406 22.984375 -2.703125 C 22.617188 -1.566406 22.253906 -0.753906 21.890625 -0.265625 C 21.535156 0.222656 20.992188 0.46875 20.265625 0.46875 C 19.753906 0.46875 19.304688 0.1875 18.921875 -0.375 C 18.535156 -0.945312 18.160156 -1.722656 17.796875 -2.703125 C 17.023438 -4.816406 16.222656 -7.125 15.390625 -9.625 C 14.566406 -12.132812 13.742188 -14.625 12.921875 -17.09375 C 12.097656 -19.570312 11.363281 -21.828125 10.71875 -23.859375 C 10.070312 -25.898438 9.539062 -27.488281 9.125 -28.625 C 9.070312 -28.882812 8.957031 -28.960938 8.78125 -28.859375 C 8.601562 -28.753906 8.515625 -28.648438 8.515625 -28.546875 L 8.515625 -9.984375 C 8.515625 -8.171875 8.640625 -6.773438 8.890625 -5.796875 C 9.148438 -4.816406 9.460938 -4.082031 9.828125 -3.59375 C 10.191406 -3.101562 10.5 -2.691406 10.75 -2.359375 C 11.007812 -2.023438 11.140625 -1.570312 11.140625 -1 C 11.140625 -0.4375 10.984375 -0.0507812 10.671875 0.15625 C 10.367188 0.363281 9.984375 0.46875 9.515625 0.46875 C 8.953125 0.46875 8.320312 0.390625 7.625 0.234375 C 6.925781 0.078125 6.316406 0 5.796875 0 C 5.285156 0 4.71875 0.078125 4.09375 0.234375 C 3.476562 0.390625 2.890625 0.46875 2.328125 0.46875 C 1.910156 0.46875 1.546875 0.363281 1.234375 0.15625 C 0.929688 -0.0507812 0.78125 -0.4375 0.78125 -1 C 0.78125 -1.570312 0.90625 -2.023438 1.15625 -2.359375 C 1.414062 -2.691406 1.722656 -3.101562 2.078125 -3.59375 C 2.441406 -4.082031 2.753906 -4.816406 3.015625 -5.796875 C 3.273438 -6.773438 3.40625 -8.171875 3.40625 -9.984375 L 3.40625 -28.703125 C 3.40625 -30.515625 3.273438 -31.867188 3.015625 -32.765625 C 2.753906 -33.671875 2.441406 -34.328125 2.078125 -34.734375 C 1.722656 -35.148438 1.414062 -35.535156 1.15625 -35.890625 C 0.90625 -36.253906 0.78125 -36.773438 0.78125 -37.453125 Z M 0.78125 -37.453125 "/></g></g></g><g fill="#e12c2c" fill-opacity="1"><g transform="translate(92.197497, 62.488109)"><g><path d="M 18.640625 0.46875 C 15.910156 0.46875 13.226562 -0.0703125 10.59375 -1.15625 C 7.96875 -2.238281 5.800781 -3.941406 4.09375 -6.265625 C 2.394531 -8.585938 1.546875 -11.628906 1.546875 -15.390625 C 1.546875 -18.585938 2.238281 -21.382812 3.625 -23.78125 C 5.019531 -26.1875 6.957031 -28.0625 9.4375 -29.40625 C 11.914062 -30.75 14.78125 -31.421875 18.03125 -31.421875 C 21.226562 -31.421875 23.832031 -31.03125 25.84375 -30.25 C 27.851562 -29.476562 29.410156 -28.484375 30.515625 -27.265625 C 31.628906 -26.054688 32.390625 -24.820312 32.796875 -23.5625 C 33.210938 -22.300781 33.421875 -21.203125 33.421875 -20.265625 C 33.421875 -17.691406 32.617188 -15.59375 31.015625 -13.96875 C 29.421875 -12.34375 27.382812 -11.15625 24.90625 -10.40625 C 22.4375 -9.65625 19.910156 -9.28125 17.328125 -9.28125 C 16.609375 -9.28125 16.082031 -9.019531 15.75 -8.5 C 15.414062 -7.988281 15.3125 -7.394531 15.4375 -6.71875 C 15.5625 -6.050781 15.972656 -5.457031 16.671875 -4.9375 C 17.367188 -4.425781 18.363281 -4.171875 19.65625 -4.171875 C 21.507812 -4.171875 22.976562 -4.503906 24.0625 -5.171875 C 25.144531 -5.847656 26.007812 -6.625 26.65625 -7.5 C 27.300781 -8.382812 27.921875 -9.160156 28.515625 -9.828125 C 29.109375 -10.492188 29.894531 -10.828125 30.875 -10.828125 C 31.75 -10.828125 32.40625 -10.554688 32.84375 -10.015625 C 33.28125 -9.472656 33.5 -8.867188 33.5 -8.203125 C 33.5 -6.453125 32.816406 -4.929688 31.453125 -3.640625 C 30.085938 -2.347656 28.269531 -1.335938 26 -0.609375 C 23.726562 0.109375 21.273438 0.46875 18.640625 0.46875 Z M 18.03125 -27.46875 C 16.945312 -27.46875 16.082031 -26.820312 15.4375 -25.53125 C 14.789062 -24.238281 14.46875 -22.507812 14.46875 -20.34375 C 14.46875 -18.175781 14.789062 -16.445312 15.4375 -15.15625 C 16.082031 -13.875 16.945312 -13.234375 18.03125 -13.234375 C 19.113281 -13.234375 19.976562 -13.875 20.625 -15.15625 C 21.269531 -16.445312 21.59375 -18.175781 21.59375 -20.34375 C 21.59375 -22.507812 21.269531 -24.238281 20.625 -25.53125 C 19.976562 -26.820312 19.113281 -27.46875 18.03125 -27.46875 Z M 18.03125 -27.46875 "/></g></g></g><g fill="#e12c2c" fill-opacity="1"><g transform="translate(123.072626, 62.488109)"><g><path d="M 9.984375 0 C 9.210938 0 8.296875 0.078125 7.234375 0.234375 C 6.171875 0.390625 5.175781 0.46875 4.25 0.46875 C 3.375 0.46875 2.640625 0.335938 2.046875 0.078125 C 1.453125 -0.179688 1.15625 -0.695312 1.15625 -1.46875 C 1.15625 -2.039062 1.285156 -2.46875 1.546875 -2.75 C 1.804688 -3.03125 2.113281 -3.390625 2.46875 -3.828125 C 2.832031 -4.265625 3.144531 -4.945312 3.40625 -5.875 C 3.664062 -6.800781 3.796875 -8.171875 3.796875 -9.984375 C 3.796875 -12.359375 3.804688 -14.070312 3.828125 -15.125 C 3.859375 -16.1875 3.875 -16.960938 3.875 -17.453125 C 3.875 -17.941406 3.875 -18.492188 3.875 -19.109375 C 3.875 -20.503906 3.648438 -21.472656 3.203125 -22.015625 C 2.765625 -22.554688 2.328125 -22.976562 1.890625 -23.28125 C 1.453125 -23.59375 1.234375 -24.085938 1.234375 -24.765625 C 1.234375 -25.535156 1.488281 -26.0625 2 -26.34375 C 2.519531 -26.625 3.253906 -26.867188 4.203125 -27.078125 C 5.160156 -27.285156 6.3125 -27.625 7.65625 -28.09375 C 9.3125 -28.707031 10.445312 -29.257812 11.0625 -29.75 C 11.6875 -30.238281 12.148438 -30.640625 12.453125 -30.953125 C 12.765625 -31.265625 13.253906 -31.421875 13.921875 -31.421875 C 14.847656 -31.421875 15.46875 -31.003906 15.78125 -30.171875 C 16.09375 -29.347656 16.25 -28.367188 16.25 -27.234375 L 16.25 -26.609375 C 16.25 -25.890625 16.378906 -25.53125 16.640625 -25.53125 C 16.890625 -25.53125 17.296875 -25.828125 17.859375 -26.421875 C 18.429688 -27.015625 19.171875 -27.695312 20.078125 -28.46875 C 20.984375 -29.25 22.066406 -29.9375 23.328125 -30.53125 C 24.585938 -31.125 26.019531 -31.421875 27.625 -31.421875 C 29.21875 -31.421875 30.53125 -31.125 31.5625 -30.53125 C 32.59375 -29.9375 33.40625 -29.25 34 -28.46875 C 34.59375 -27.695312 35.070312 -27.015625 35.4375 -26.421875 C 35.800781 -25.828125 36.082031 -25.53125 36.28125 -25.53125 C 36.644531 -25.53125 37.109375 -25.8125 37.671875 -26.375 C 38.242188 -26.945312 38.96875 -27.632812 39.84375 -28.4375 C 40.71875 -29.238281 41.785156 -29.9375 43.046875 -30.53125 C 44.316406 -31.125 45.828125 -31.421875 47.578125 -31.421875 C 50.003906 -31.421875 51.835938 -30.898438 53.078125 -29.859375 C 54.316406 -28.828125 55.15625 -27.535156 55.59375 -25.984375 C 56.03125 -24.441406 56.25 -22.875 56.25 -21.28125 L 56.25 -9.984375 C 56.25 -8.171875 56.378906 -6.800781 56.640625 -5.875 C 56.898438 -4.945312 57.195312 -4.265625 57.53125 -3.828125 C 57.863281 -3.390625 58.171875 -3.03125 58.453125 -2.75 C 58.734375 -2.46875 58.875 -2.039062 58.875 -1.46875 C 58.875 -0.695312 58.65625 -0.179688 58.21875 0.078125 C 57.78125 0.335938 57.203125 0.46875 56.484375 0.46875 C 55.765625 0.46875 54.925781 0.390625 53.96875 0.234375 C 53.007812 0.078125 52.09375 0 51.21875 0 C 50.394531 0 49.6875 0.0351562 49.09375 0.109375 C 48.5 0.191406 47.867188 0.285156 47.203125 0.390625 C 46.171875 0.492188 45.332031 0.265625 44.6875 -0.296875 C 44.039062 -0.867188 43.71875 -1.671875 43.71875 -2.703125 L 43.71875 -15.390625 C 43.71875 -17.867188 43.472656 -19.753906 42.984375 -21.046875 C 42.492188 -22.335938 41.578125 -22.984375 40.234375 -22.984375 C 39.148438 -22.984375 38.21875 -22.503906 37.4375 -21.546875 C 36.664062 -20.597656 36.28125 -18.675781 36.28125 -15.78125 L 36.28125 -9.984375 C 36.28125 -8.171875 36.410156 -6.800781 36.671875 -5.875 C 36.929688 -4.945312 37.238281 -4.265625 37.59375 -3.828125 C 37.957031 -3.390625 38.269531 -3.03125 38.53125 -2.75 C 38.789062 -2.46875 38.921875 -2.039062 38.921875 -1.46875 C 38.921875 -0.695312 38.703125 -0.179688 38.265625 0.078125 C 37.828125 0.335938 37.242188 0.46875 36.515625 0.46875 C 35.796875 0.46875 34.957031 0.390625 34 0.234375 C 33.050781 0.078125 32.140625 0 31.265625 0 C 30.429688 0 29.71875 0.0351562 29.125 0.109375 C 28.53125 0.191406 27.898438 0.285156 27.234375 0.390625 C 26.203125 0.492188 25.363281 0.265625 24.71875 -0.296875 C 24.070312 -0.867188 23.75 -1.671875 23.75 -2.703125 L 23.75 -15.390625 C 23.75 -17.867188 23.488281 -19.753906 22.96875 -21.046875 C 22.457031 -22.335938 21.53125 -22.984375 20.1875 -22.984375 C 19.007812 -22.984375 18.054688 -22.375 17.328125 -21.15625 C 16.609375 -19.945312 16.25 -17.460938 16.25 -13.703125 L 16.25 -9.984375 C 16.25 -8.171875 16.375 -6.800781 16.625 -5.875 C 16.882812 -4.945312 17.195312 -4.265625 17.5625 -3.828125 C 17.925781 -3.390625 18.234375 -3.03125 18.484375 -2.75 C 18.742188 -2.46875 18.875 -2.039062 18.875 -1.46875 C 18.875 -0.695312 18.578125 -0.179688 17.984375 0.078125 C 17.390625 0.335938 16.65625 0.46875 15.78125 0.46875 C 14.800781 0.46875 13.78125 0.390625 12.71875 0.234375 C 11.664062 0.078125 10.753906 0 9.984375 0 Z M 9.984375 0 "/></g></g></g><g fill="#e12c2c" fill-opacity="1"><g transform="translate(178.942025, 62.488109)"><g><path d="M 17.953125 0.46875 C 12.796875 0.46875 8.707031 -0.9375 5.6875 -3.75 C 2.664062 -6.5625 1.15625 -10.46875 1.15625 -15.46875 C 1.15625 -20.53125 2.664062 -24.453125 5.6875 -27.234375 C 8.707031 -30.023438 12.796875 -31.421875 17.953125 -31.421875 C 23.109375 -31.421875 27.191406 -30.023438 30.203125 -27.234375 C 33.222656 -24.453125 34.734375 -20.53125 34.734375 -15.46875 C 34.734375 -10.46875 33.222656 -6.5625 30.203125 -3.75 C 27.191406 -0.9375 23.109375 0.46875 17.953125 0.46875 Z M 13.921875 -15.46875 C 13.921875 -13.351562 14.035156 -11.40625 14.265625 -9.625 C 14.503906 -7.851562 14.921875 -6.453125 15.515625 -5.421875 C 16.109375 -4.390625 16.921875 -3.875 17.953125 -3.875 C 19.035156 -3.875 19.875 -4.390625 20.46875 -5.421875 C 21.0625 -6.453125 21.457031 -7.851562 21.65625 -9.625 C 21.863281 -11.40625 21.96875 -13.351562 21.96875 -15.46875 C 21.96875 -17.632812 21.863281 -19.59375 21.65625 -21.34375 C 21.457031 -23.101562 21.0625 -24.5 20.46875 -25.53125 C 19.875 -26.5625 19.035156 -27.078125 17.953125 -27.078125 C 16.921875 -27.078125 16.109375 -26.5625 15.515625 -25.53125 C 14.921875 -24.5 14.503906 -23.101562 14.265625 -21.34375 C 14.035156 -19.59375 13.921875 -17.632812 13.921875 -15.46875 Z M 11.453125 -34.203125 C 11.191406 -34.460938 11.085938 -34.734375 11.140625 -35.015625 C 11.191406 -35.296875 11.398438 -35.4375 11.765625 -35.4375 C 13.773438 -35.488281 15.539062 -35.9375 17.0625 -36.78125 C 18.582031 -37.632812 19.804688 -38.65625 20.734375 -39.84375 C 21.203125 -40.46875 21.613281 -40.78125 21.96875 -40.78125 C 22.226562 -40.78125 22.535156 -40.570312 22.890625 -40.15625 C 23.253906 -39.738281 23.59375 -39.296875 23.90625 -38.828125 C 24.21875 -38.367188 24.425781 -38.039062 24.53125 -37.84375 C 24.9375 -37.113281 24.726562 -36.363281 23.90625 -35.59375 C 23.082031 -34.820312 21.984375 -34.175781 20.609375 -33.65625 C 19.242188 -33.144531 17.894531 -32.890625 16.5625 -32.890625 C 15.582031 -32.890625 14.625 -32.976562 13.6875 -33.15625 C 12.757812 -33.332031 12.015625 -33.679688 11.453125 -34.203125 Z M 11.453125 -34.203125 "/></g></g></g><g fill="#e12c2c" fill-opacity="1"><g transform="translate(210.668363, 62.488109)"><g><path d="M 0.78125 -1.46875 C 0.78125 -2.039062 0.90625 -2.46875 1.15625 -2.75 C 1.414062 -3.03125 1.722656 -3.390625 2.078125 -3.828125 C 2.441406 -4.265625 2.753906 -4.945312 3.015625 -5.875 C 3.273438 -6.800781 3.40625 -8.171875 3.40625 -9.984375 C 3.40625 -12.359375 3.414062 -14.070312 3.4375 -15.125 C 3.46875 -16.1875 3.484375 -16.960938 3.484375 -17.453125 C 3.484375 -17.941406 3.484375 -18.492188 3.484375 -19.109375 C 3.484375 -20.503906 3.265625 -21.472656 2.828125 -22.015625 C 2.390625 -22.554688 1.945312 -22.976562 1.5 -23.28125 C 1.0625 -23.59375 0.84375 -24.085938 0.84375 -24.765625 C 0.84375 -25.535156 1.101562 -26.0625 1.625 -26.34375 C 2.144531 -26.625 2.878906 -26.867188 3.828125 -27.078125 C 4.785156 -27.285156 5.929688 -27.625 7.265625 -28.09375 C 8.921875 -28.707031 10.054688 -29.257812 10.671875 -29.75 C 11.296875 -30.238281 11.757812 -30.640625 12.0625 -30.953125 C 12.375 -31.265625 12.867188 -31.421875 13.546875 -31.421875 C 14.472656 -31.421875 15.085938 -31.003906 15.390625 -30.171875 C 15.703125 -29.347656 15.859375 -28.367188 15.859375 -27.234375 L 15.859375 -26.921875 C 15.859375 -25.628906 15.882812 -24.992188 15.9375 -25.015625 C 15.988281 -25.046875 16.347656 -25.628906 17.015625 -26.765625 C 17.898438 -28.265625 19.128906 -29.414062 20.703125 -30.21875 C 22.273438 -31.019531 23.78125 -31.421875 25.21875 -31.421875 C 28.0625 -31.421875 29.894531 -30.8125 30.71875 -29.59375 C 31.539062 -28.382812 31.566406 -26.617188 30.796875 -24.296875 C 30.171875 -22.441406 29.613281 -21.164062 29.125 -20.46875 C 28.632812 -19.769531 28.160156 -19.421875 27.703125 -19.421875 C 27.179688 -19.421875 26.609375 -19.726562 25.984375 -20.34375 C 25.367188 -20.96875 24.6875 -21.578125 23.9375 -22.171875 C 23.195312 -22.765625 22.285156 -23.0625 21.203125 -23.0625 C 20.578125 -23.0625 19.835938 -22.851562 18.984375 -22.4375 C 18.140625 -22.019531 17.40625 -21.269531 16.78125 -20.1875 C 16.164062 -19.101562 15.859375 -17.582031 15.859375 -15.625 L 15.859375 -9.984375 C 15.859375 -8.171875 15.988281 -6.800781 16.25 -5.875 C 16.507812 -4.945312 16.816406 -4.265625 17.171875 -3.828125 C 17.535156 -3.390625 17.847656 -3.03125 18.109375 -2.75 C 18.367188 -2.46875 18.5 -2.039062 18.5 -1.46875 C 18.5 -0.695312 18.203125 -0.179688 17.609375 0.078125 C 17.015625 0.335938 16.273438 0.46875 15.390625 0.46875 C 14.410156 0.46875 13.390625 0.390625 12.328125 0.234375 C 11.273438 0.078125 10.363281 0 9.59375 0 C 8.820312 0 7.90625 0.078125 6.84375 0.234375 C 5.789062 0.390625 4.800781 0.46875 3.875 0.46875 C 2.988281 0.46875 2.25 0.335938 1.65625 0.078125 C 1.070312 -0.179688 0.78125 -0.695312 0.78125 -1.46875 Z M 0.78125 -1.46875 "/></g></g></g><g fill="#e12c2c" fill-opacity="1"><g transform="translate(238.989891, 62.488109)"><g><path d="M 9.828125 0 C 9.054688 0 8.140625 0.078125 7.078125 0.234375 C 6.023438 0.390625 5.03125 0.46875 4.09375 0.46875 C 3.21875 0.46875 2.484375 0.335938 1.890625 0.078125 C 1.296875 -0.179688 1 -0.695312 1 -1.46875 C 1 -2.039062 1.128906 -2.46875 1.390625 -2.75 C 1.648438 -3.03125 1.957031 -3.390625 2.3125 -3.828125 C 2.675781 -4.265625 2.988281 -4.945312 3.25 -5.875 C 3.507812 -6.800781 3.640625 -8.171875 3.640625 -9.984375 C 3.640625 -12.359375 3.648438 -14.070312 3.671875 -15.125 C 3.703125 -16.1875 3.71875 -16.960938 3.71875 -17.453125 C 3.71875 -17.941406 3.71875 -18.492188 3.71875 -19.109375 C 3.71875 -20.503906 3.5 -21.472656 3.0625 -22.015625 C 2.625 -22.554688 2.179688 -22.976562 1.734375 -23.28125 C 1.296875 -23.59375 1.078125 -24.085938 1.078125 -24.765625 C 1.078125 -25.535156 1.332031 -26.0625 1.84375 -26.34375 C 2.363281 -26.625 3.101562 -26.867188 4.0625 -27.078125 C 5.019531 -27.285156 6.164062 -27.625 7.5 -28.09375 C 9.15625 -28.707031 10.289062 -29.257812 10.90625 -29.75 C 11.53125 -30.238281 11.992188 -30.640625 12.296875 -30.953125 C 12.609375 -31.265625 13.097656 -31.421875 13.765625 -31.421875 C 14.703125 -31.421875 15.320312 -31.003906 15.625 -30.171875 C 15.9375 -29.347656 16.09375 -28.367188 16.09375 -27.234375 L 16.09375 -9.984375 C 16.09375 -8.171875 16.222656 -6.800781 16.484375 -5.875 C 16.742188 -4.945312 17.050781 -4.265625 17.40625 -3.828125 C 17.769531 -3.390625 18.078125 -3.03125 18.328125 -2.75 C 18.585938 -2.46875 18.71875 -2.039062 18.71875 -1.46875 C 18.71875 -0.695312 18.421875 -0.179688 17.828125 0.078125 C 17.234375 0.335938 16.5 0.46875 15.625 0.46875 C 14.644531 0.46875 13.625 0.390625 12.5625 0.234375 C 11.507812 0.078125 10.597656 0 9.828125 0 Z M 1 -33.578125 C 0.488281 -35.128906 0.757812 -36.804688 1.8125 -38.609375 C 2.875 -40.410156 4.488281 -41.878906 6.65625 -43.015625 C 8.457031 -43.941406 10.109375 -44.40625 11.609375 -44.40625 C 13.878906 -44.40625 15.347656 -43.476562 16.015625 -41.625 C 16.585938 -40.03125 16.34375 -38.351562 15.28125 -36.59375 C 14.226562 -34.84375 12.617188 -33.375 10.453125 -32.1875 C 8.585938 -31.257812 6.910156 -30.796875 5.421875 -30.796875 C 3.203125 -30.796875 1.726562 -31.722656 1 -33.578125 Z M 1 -33.578125 "/></g></g></g><g fill="#e12c2c" fill-opacity="1"><g transform="translate(254.233918, 62.488109)"><g><path d="M 10.0625 0.46875 C 7.164062 0.46875 5.019531 -0.378906 3.625 -2.078125 C 2.238281 -3.785156 1.546875 -5.828125 1.546875 -8.203125 C 1.546875 -11.660156 2.832031 -14.378906 5.40625 -16.359375 C 7.988281 -18.347656 11.34375 -19.78125 15.46875 -20.65625 C 19.394531 -21.476562 21.359375 -22.769531 21.359375 -24.53125 C 21.359375 -25.195312 21.070312 -25.851562 20.5 -26.5 C 19.9375 -27.144531 18.957031 -27.46875 17.5625 -27.46875 C 16.164062 -27.46875 15.03125 -27.09375 14.15625 -26.34375 C 13.28125 -25.59375 12.503906 -24.738281 11.828125 -23.78125 C 11.160156 -22.832031 10.425781 -21.984375 9.625 -21.234375 C 8.832031 -20.492188 7.765625 -20.125 6.421875 -20.125 C 5.546875 -20.125 4.785156 -20.429688 4.140625 -21.046875 C 3.492188 -21.660156 3.171875 -22.410156 3.171875 -23.296875 C 3.171875 -25.046875 3.863281 -26.523438 5.25 -27.734375 C 6.644531 -28.953125 8.460938 -29.867188 10.703125 -30.484375 C 12.953125 -31.109375 15.394531 -31.421875 18.03125 -31.421875 C 20.863281 -31.421875 23.441406 -30.96875 25.765625 -30.0625 C 28.085938 -29.15625 29.941406 -27.644531 31.328125 -25.53125 C 32.722656 -23.414062 33.421875 -20.53125 33.421875 -16.875 L 33.421875 -9.984375 C 33.421875 -8.171875 33.550781 -6.800781 33.8125 -5.875 C 34.070312 -4.945312 34.378906 -4.265625 34.734375 -3.828125 C 35.097656 -3.390625 35.410156 -3.03125 35.671875 -2.75 C 35.929688 -2.46875 36.0625 -2.039062 36.0625 -1.46875 C 36.0625 -0.695312 35.828125 -0.179688 35.359375 0.078125 C 34.890625 0.335938 34.296875 0.46875 33.578125 0.46875 C 32.804688 0.46875 31.957031 0.390625 31.03125 0.234375 C 30.101562 0.078125 29.25 0 28.46875 0 C 27.644531 0 26.921875 0.0351562 26.296875 0.109375 C 25.679688 0.191406 25.039062 0.285156 24.375 0.390625 C 23.550781 0.492188 22.816406 0.390625 22.171875 0.078125 C 21.523438 -0.234375 21.148438 -0.800781 21.046875 -1.625 C 20.992188 -2.445312 20.863281 -3 20.65625 -3.28125 C 20.445312 -3.570312 20.191406 -3.71875 19.890625 -3.71875 C 19.316406 -3.71875 18.578125 -3.367188 17.671875 -2.671875 C 16.773438 -1.972656 15.691406 -1.273438 14.421875 -0.578125 C 13.160156 0.117188 11.707031 0.46875 10.0625 0.46875 Z M 13.546875 -11.375 C 13.546875 -9.875 13.914062 -8.800781 14.65625 -8.15625 C 15.40625 -7.519531 16.296875 -7.203125 17.328125 -7.203125 C 18.617188 -7.203125 19.597656 -7.753906 20.265625 -8.859375 C 20.941406 -9.960938 21.28125 -11.265625 21.28125 -12.765625 L 21.28125 -16.484375 C 21.28125 -17.867188 20.632812 -18.226562 19.34375 -17.5625 C 18.519531 -17.144531 17.65625 -16.691406 16.75 -16.203125 C 15.84375 -15.710938 15.082031 -15.109375 14.46875 -14.390625 C 13.851562 -13.671875 13.546875 -12.664062 13.546875 -11.375 Z M 13.546875 -11.375 "/></g></g></g><g fill="#e12c2c" fill-opacity="1"><g transform="translate(286.888813, 62.488109)"><g><path d="M 1.546875 -7.421875 C 1.546875 -8.453125 1.84375 -9.273438 2.4375 -9.890625 C 3.03125 -10.515625 3.894531 -10.828125 5.03125 -10.828125 C 6.007812 -10.828125 6.804688 -10.46875 7.421875 -9.75 C 8.046875 -9.03125 8.691406 -8.203125 9.359375 -7.265625 C 10.035156 -6.335938 10.890625 -5.515625 11.921875 -4.796875 C 12.953125 -4.078125 14.34375 -3.71875 16.09375 -3.71875 C 17.4375 -3.71875 18.492188 -3.859375 19.265625 -4.140625 C 20.035156 -4.421875 20.421875 -5.078125 20.421875 -6.109375 C 20.421875 -6.929688 19.96875 -7.597656 19.0625 -8.109375 C 18.164062 -8.628906 17.019531 -9.109375 15.625 -9.546875 C 14.238281 -9.992188 12.757812 -10.488281 11.1875 -11.03125 C 9.613281 -11.570312 8.128906 -12.253906 6.734375 -13.078125 C 5.335938 -13.898438 4.1875 -14.96875 3.28125 -16.28125 C 2.382812 -17.601562 1.9375 -19.269531 1.9375 -21.28125 C 1.9375 -23.550781 2.453125 -25.367188 3.484375 -26.734375 C 4.515625 -28.097656 5.800781 -29.113281 7.34375 -29.78125 C 8.894531 -30.457031 10.429688 -30.898438 11.953125 -31.109375 C 13.472656 -31.316406 14.722656 -31.421875 15.703125 -31.421875 C 18.335938 -31.421875 20.789062 -31.109375 23.0625 -30.484375 C 25.332031 -29.867188 27.160156 -28.953125 28.546875 -27.734375 C 29.941406 -26.523438 30.640625 -25.046875 30.640625 -23.296875 C 30.640625 -22.410156 30.316406 -21.660156 29.671875 -21.046875 C 29.023438 -20.429688 28.265625 -20.125 27.390625 -20.125 C 26.046875 -20.125 24.960938 -20.492188 24.140625 -21.234375 C 23.316406 -21.984375 22.566406 -22.832031 21.890625 -23.78125 C 21.222656 -24.738281 20.453125 -25.59375 19.578125 -26.34375 C 18.703125 -27.09375 17.566406 -27.46875 16.171875 -27.46875 C 14.773438 -27.46875 13.859375 -27.144531 13.421875 -26.5 C 12.984375 -25.851562 12.765625 -25.195312 12.765625 -24.53125 C 12.765625 -23.550781 13.203125 -22.800781 14.078125 -22.28125 C 14.953125 -21.769531 16.085938 -21.34375 17.484375 -21 C 18.878906 -20.664062 20.347656 -20.289062 21.890625 -19.875 C 23.441406 -19.46875 24.910156 -18.914062 26.296875 -18.21875 C 27.691406 -17.519531 28.828125 -16.539062 29.703125 -15.28125 C 30.585938 -14.019531 31.03125 -12.359375 31.03125 -10.296875 C 31.03125 -7.660156 30.269531 -5.554688 28.75 -3.984375 C 27.226562 -2.410156 25.28125 -1.273438 22.90625 -0.578125 C 20.53125 0.117188 18.023438 0.46875 15.390625 0.46875 C 14.304688 0.46875 12.988281 0.335938 11.4375 0.078125 C 9.894531 -0.179688 8.363281 -0.609375 6.84375 -1.203125 C 5.320312 -1.796875 4.054688 -2.59375 3.046875 -3.59375 C 2.046875 -4.601562 1.546875 -5.878906 1.546875 -7.421875 Z M 1.546875 -7.421875 "/></g></g></g><g fill="#e12c2c" fill-opacity="1"><g transform="translate(315.293802, 62.488109)"><g/></g></g><g fill="#e12c2c" fill-opacity="1"><g transform="translate(57.469, 108.72545)"><g><path d="M 9.671875 0.46875 C 6.785156 0.46875 4.644531 -0.378906 3.25 -2.078125 C 1.851562 -3.785156 1.15625 -5.828125 1.15625 -8.203125 C 1.15625 -11.660156 2.441406 -14.378906 5.015625 -16.359375 C 7.597656 -18.347656 10.957031 -19.78125 15.09375 -20.65625 C 19.007812 -21.476562 20.96875 -22.769531 20.96875 -24.53125 C 20.96875 -25.195312 20.679688 -25.851562 20.109375 -26.5 C 19.546875 -27.144531 18.566406 -27.46875 17.171875 -27.46875 C 15.785156 -27.46875 14.648438 -27.09375 13.765625 -26.34375 C 12.890625 -25.59375 12.117188 -24.738281 11.453125 -23.78125 C 10.785156 -22.832031 10.050781 -21.984375 9.25 -21.234375 C 8.445312 -20.492188 7.375 -20.125 6.03125 -20.125 C 5.15625 -20.125 4.394531 -20.429688 3.75 -21.046875 C 3.101562 -21.660156 2.78125 -22.410156 2.78125 -23.296875 C 2.78125 -25.046875 3.476562 -26.523438 4.875 -27.734375 C 6.269531 -28.953125 8.085938 -29.867188 10.328125 -30.484375 C 12.578125 -31.109375 15.015625 -31.421875 17.640625 -31.421875 C 20.472656 -31.421875 23.050781 -30.96875 25.375 -30.0625 C 27.695312 -29.15625 29.554688 -27.644531 30.953125 -25.53125 C 32.347656 -23.414062 33.046875 -20.53125 33.046875 -16.875 L 33.046875 -9.984375 C 33.046875 -8.171875 33.171875 -6.800781 33.421875 -5.875 C 33.679688 -4.945312 33.988281 -4.265625 34.34375 -3.828125 C 34.707031 -3.390625 35.019531 -3.03125 35.28125 -2.75 C 35.539062 -2.46875 35.671875 -2.039062 35.671875 -1.46875 C 35.671875 -0.695312 35.4375 -0.179688 34.96875 0.078125 C 34.507812 0.335938 33.914062 0.46875 33.1875 0.46875 C 32.414062 0.46875 31.566406 0.390625 30.640625 0.234375 C 29.710938 0.078125 28.863281 0 28.09375 0 C 27.257812 0 26.53125 0.0351562 25.90625 0.109375 C 25.289062 0.191406 24.648438 0.285156 23.984375 0.390625 C 23.160156 0.492188 22.425781 0.390625 21.78125 0.078125 C 21.132812 -0.234375 20.757812 -0.800781 20.65625 -1.625 C 20.601562 -2.445312 20.472656 -3 20.265625 -3.28125 C 20.066406 -3.570312 19.8125 -3.71875 19.5 -3.71875 C 18.925781 -3.71875 18.1875 -3.367188 17.28125 -2.671875 C 16.382812 -1.972656 15.300781 -1.273438 14.03125 -0.578125 C 12.769531 0.117188 11.316406 0.46875 9.671875 0.46875 Z M 13.15625 -11.375 C 13.15625 -9.875 13.523438 -8.800781 14.265625 -8.15625 C 15.015625 -7.519531 15.90625 -7.203125 16.9375 -7.203125 C 18.226562 -7.203125 19.207031 -7.753906 19.875 -8.859375 C 20.550781 -9.960938 20.890625 -11.265625 20.890625 -12.765625 L 20.890625 -16.484375 C 20.890625 -17.867188 20.242188 -18.226562 18.953125 -17.5625 C 18.128906 -17.144531 17.265625 -16.691406 16.359375 -16.203125 C 15.460938 -15.710938 14.703125 -15.109375 14.078125 -14.390625 C 13.460938 -13.671875 13.15625 -12.664062 13.15625 -11.375 Z M 19.8125 -32.890625 C 18.519531 -32.890625 17.164062 -33.160156 15.75 -33.703125 C 14.332031 -34.242188 13.222656 -34.898438 12.421875 -35.671875 C 11.617188 -36.441406 11.425781 -37.164062 11.84375 -37.84375 C 12.09375 -38.25 12.304688 -38.582031 12.484375 -38.84375 C 12.671875 -39.101562 13.023438 -39.566406 13.546875 -40.234375 C 13.847656 -40.597656 14.128906 -40.78125 14.390625 -40.78125 C 14.753906 -40.78125 15.164062 -40.46875 15.625 -39.84375 C 16.5 -38.65625 17.710938 -37.632812 19.265625 -36.78125 C 20.816406 -35.9375 22.597656 -35.488281 24.609375 -35.4375 C 25.015625 -35.4375 25.226562 -35.296875 25.25 -35.015625 C 25.28125 -34.734375 25.171875 -34.460938 24.921875 -34.203125 C 24.347656 -33.679688 23.609375 -33.332031 22.703125 -33.15625 C 21.804688 -32.976562 20.84375 -32.890625 19.8125 -32.890625 Z M 19.8125 -32.890625 "/></g></g></g><g fill="#e12c2c" fill-opacity="1"><g transform="translate(90.123903, 108.72545)"><g/></g></g><g fill="#e12c2c" fill-opacity="1"><g transform="translate(97.552396, 108.72545)"><g><path d="M 9.984375 0 C 9.210938 0 8.296875 0.078125 7.234375 0.234375 C 6.171875 0.390625 5.175781 0.46875 4.25 0.46875 C 3.375 0.46875 2.640625 0.335938 2.046875 0.078125 C 1.453125 -0.179688 1.15625 -0.695312 1.15625 -1.46875 C 1.15625 -2.039062 1.285156 -2.46875 1.546875 -2.75 C 1.804688 -3.03125 2.113281 -3.390625 2.46875 -3.828125 C 2.832031 -4.265625 3.144531 -4.945312 3.40625 -5.875 C 3.664062 -6.800781 3.796875 -8.171875 3.796875 -9.984375 C 3.796875 -12.359375 3.804688 -14.070312 3.828125 -15.125 C 3.859375 -16.1875 3.875 -16.960938 3.875 -17.453125 C 3.875 -17.941406 3.875 -18.492188 3.875 -19.109375 C 3.875 -20.503906 3.648438 -21.472656 3.203125 -22.015625 C 2.765625 -22.554688 2.328125 -22.976562 1.890625 -23.28125 C 1.453125 -23.59375 1.234375 -24.085938 1.234375 -24.765625 C 1.234375 -25.535156 1.488281 -26.0625 2 -26.34375 C 2.519531 -26.625 3.253906 -26.867188 4.203125 -27.078125 C 5.160156 -27.285156 6.3125 -27.625 7.65625 -28.09375 C 9.3125 -28.707031 10.445312 -29.257812 11.0625 -29.75 C 11.6875 -30.238281 12.148438 -30.640625 12.453125 -30.953125 C 12.765625 -31.265625 13.253906 -31.421875 13.921875 -31.421875 C 14.847656 -31.421875 15.46875 -31.003906 15.78125 -30.171875 C 16.09375 -29.347656 16.25 -28.367188 16.25 -27.234375 L 16.25 -26.609375 C 16.25 -25.890625 16.378906 -25.53125 16.640625 -25.53125 C 16.890625 -25.53125 17.296875 -25.828125 17.859375 -26.421875 C 18.429688 -27.015625 19.171875 -27.695312 20.078125 -28.46875 C 20.984375 -29.25 22.066406 -29.9375 23.328125 -30.53125 C 24.585938 -31.125 26.019531 -31.421875 27.625 -31.421875 C 29.21875 -31.421875 30.53125 -31.125 31.5625 -30.53125 C 32.59375 -29.9375 33.40625 -29.25 34 -28.46875 C 34.59375 -27.695312 35.070312 -27.015625 35.4375 -26.421875 C 35.800781 -25.828125 36.082031 -25.53125 36.28125 -25.53125 C 36.644531 -25.53125 37.109375 -25.8125 37.671875 -26.375 C 38.242188 -26.945312 38.96875 -27.632812 39.84375 -28.4375 C 40.71875 -29.238281 41.785156 -29.9375 43.046875 -30.53125 C 44.316406 -31.125 45.828125 -31.421875 47.578125 -31.421875 C 50.003906 -31.421875 51.835938 -30.898438 53.078125 -29.859375 C 54.316406 -28.828125 55.15625 -27.535156 55.59375 -25.984375 C 56.03125 -24.441406 56.25 -22.875 56.25 -21.28125 L 56.25 -9.984375 C 56.25 -8.171875 56.378906 -6.800781 56.640625 -5.875 C 56.898438 -4.945312 57.195312 -4.265625 57.53125 -3.828125 C 57.863281 -3.390625 58.171875 -3.03125 58.453125 -2.75 C 58.734375 -2.46875 58.875 -2.039062 58.875 -1.46875 C 58.875 -0.695312 58.65625 -0.179688 58.21875 0.078125 C 57.78125 0.335938 57.203125 0.46875 56.484375 0.46875 C 55.765625 0.46875 54.925781 0.390625 53.96875 0.234375 C 53.007812 0.078125 52.09375 0 51.21875 0 C 50.394531 0 49.6875 0.0351562 49.09375 0.109375 C 48.5 0.191406 47.867188 0.285156 47.203125 0.390625 C 46.171875 0.492188 45.332031 0.265625 44.6875 -0.296875 C 44.039062 -0.867188 43.71875 -1.671875 43.71875 -2.703125 L 43.71875 -15.390625 C 43.71875 -17.867188 43.472656 -19.753906 42.984375 -21.046875 C 42.492188 -22.335938 41.578125 -22.984375 40.234375 -22.984375 C 39.148438 -22.984375 38.21875 -22.503906 37.4375 -21.546875 C 36.664062 -20.597656 36.28125 -18.675781 36.28125 -15.78125 L 36.28125 -9.984375 C 36.28125 -8.171875 36.410156 -6.800781 36.671875 -5.875 C 36.929688 -4.945312 37.238281 -4.265625 37.59375 -3.828125 C 37.957031 -3.390625 38.269531 -3.03125 38.53125 -2.75 C 38.789062 -2.46875 38.921875 -2.039062 38.921875 -1.46875 C 38.921875 -0.695312 38.703125 -0.179688 38.265625 0.078125 C 37.828125 0.335938 37.242188 0.46875 36.515625 0.46875 C 35.796875 0.46875 34.957031 0.390625 34 0.234375 C 33.050781 0.078125 32.140625 0 31.265625 0 C 30.429688 0 29.71875 0.0351562 29.125 0.109375 C 28.53125 0.191406 27.898438 0.285156 27.234375 0.390625 C 26.203125 0.492188 25.363281 0.265625 24.71875 -0.296875 C 24.070312 -0.867188 23.75 -1.671875 23.75 -2.703125 L 23.75 -15.390625 C 23.75 -17.867188 23.488281 -19.753906 22.96875 -21.046875 C 22.457031 -22.335938 21.53125 -22.984375 20.1875 -22.984375 C 19.007812 -22.984375 18.054688 -22.375 17.328125 -21.15625 C 16.609375 -19.945312 16.25 -17.460938 16.25 -13.703125 L 16.25 -9.984375 C 16.25 -8.171875 16.375 -6.800781 16.625 -5.875 C 16.882812 -4.945312 17.195312 -4.265625 17.5625 -3.828125 C 17.925781 -3.390625 18.234375 -3.03125 18.484375 -2.75 C 18.742188 -2.46875 18.875 -2.039062 18.875 -1.46875 C 18.875 -0.695312 18.578125 -0.179688 17.984375 0.078125 C 17.390625 0.335938 16.65625 0.46875 15.78125 0.46875 C 14.800781 0.46875 13.78125 0.390625 12.71875 0.234375 C 11.664062 0.078125 10.753906 0 9.984375 0 Z M 9.984375 0 "/></g></g></g><g fill="#e12c2c" fill-opacity="1"><g transform="translate(153.421795, 108.72545)"><g><path d="M 18.640625 0.46875 C 15.910156 0.46875 13.226562 -0.0703125 10.59375 -1.15625 C 7.96875 -2.238281 5.800781 -3.941406 4.09375 -6.265625 C 2.394531 -8.585938 1.546875 -11.628906 1.546875 -15.390625 C 1.546875 -18.585938 2.238281 -21.382812 3.625 -23.78125 C 5.019531 -26.1875 6.957031 -28.0625 9.4375 -29.40625 C 11.914062 -30.75 14.78125 -31.421875 18.03125 -31.421875 C 21.226562 -31.421875 23.832031 -31.03125 25.84375 -30.25 C 27.851562 -29.476562 29.410156 -28.484375 30.515625 -27.265625 C 31.628906 -26.054688 32.390625 -24.820312 32.796875 -23.5625 C 33.210938 -22.300781 33.421875 -21.203125 33.421875 -20.265625 C 33.421875 -17.691406 32.617188 -15.59375 31.015625 -13.96875 C 29.421875 -12.34375 27.382812 -11.15625 24.90625 -10.40625 C 22.4375 -9.65625 19.910156 -9.28125 17.328125 -9.28125 C 16.609375 -9.28125 16.082031 -9.019531 15.75 -8.5 C 15.414062 -7.988281 15.3125 -7.394531 15.4375 -6.71875 C 15.5625 -6.050781 15.972656 -5.457031 16.671875 -4.9375 C 17.367188 -4.425781 18.363281 -4.171875 19.65625 -4.171875 C 21.507812 -4.171875 22.976562 -4.503906 24.0625 -5.171875 C 25.144531 -5.847656 26.007812 -6.625 26.65625 -7.5 C 27.300781 -8.382812 27.921875 -9.160156 28.515625 -9.828125 C 29.109375 -10.492188 29.894531 -10.828125 30.875 -10.828125 C 31.75 -10.828125 32.40625 -10.554688 32.84375 -10.015625 C 33.28125 -9.472656 33.5 -8.867188 33.5 -8.203125 C 33.5 -6.453125 32.816406 -4.929688 31.453125 -3.640625 C 30.085938 -2.347656 28.269531 -1.335938 26 -0.609375 C 23.726562 0.109375 21.273438 0.46875 18.640625 0.46875 Z M 18.03125 -27.46875 C 16.945312 -27.46875 16.082031 -26.820312 15.4375 -25.53125 C 14.789062 -24.238281 14.46875 -22.507812 14.46875 -20.34375 C 14.46875 -18.175781 14.789062 -16.445312 15.4375 -15.15625 C 16.082031 -13.875 16.945312 -13.234375 18.03125 -13.234375 C 19.113281 -13.234375 19.976562 -13.875 20.625 -15.15625 C 21.269531 -16.445312 21.59375 -18.175781 21.59375 -20.34375 C 21.59375 -22.507812 21.269531 -24.238281 20.625 -25.53125 C 19.976562 -26.820312 19.113281 -27.46875 18.03125 -27.46875 Z M 18.03125 -27.46875 "/></g></g></g><g fill="#e12c2c" fill-opacity="1"><g transform="translate(184.296924, 108.72545)"><g><path d="M 1.546875 -7.421875 C 1.546875 -8.453125 1.84375 -9.273438 2.4375 -9.890625 C 3.03125 -10.515625 3.894531 -10.828125 5.03125 -10.828125 C 6.007812 -10.828125 6.804688 -10.46875 7.421875 -9.75 C 8.046875 -9.03125 8.691406 -8.203125 9.359375 -7.265625 C 10.035156 -6.335938 10.890625 -5.515625 11.921875 -4.796875 C 12.953125 -4.078125 14.34375 -3.71875 16.09375 -3.71875 C 17.4375 -3.71875 18.492188 -3.859375 19.265625 -4.140625 C 20.035156 -4.421875 20.421875 -5.078125 20.421875 -6.109375 C 20.421875 -6.929688 19.96875 -7.597656 19.0625 -8.109375 C 18.164062 -8.628906 17.019531 -9.109375 15.625 -9.546875 C 14.238281 -9.992188 12.757812 -10.488281 11.1875 -11.03125 C 9.613281 -11.570312 8.128906 -12.253906 6.734375 -13.078125 C 5.335938 -13.898438 4.1875 -14.96875 3.28125 -16.28125 C 2.382812 -17.601562 1.9375 -19.269531 1.9375 -21.28125 C 1.9375 -23.550781 2.453125 -25.367188 3.484375 -26.734375 C 4.515625 -28.097656 5.800781 -29.113281 7.34375 -29.78125 C 8.894531 -30.457031 10.429688 -30.898438 11.953125 -31.109375 C 13.472656 -31.316406 14.722656 -31.421875 15.703125 -31.421875 C 18.335938 -31.421875 20.789062 -31.109375 23.0625 -30.484375 C 25.332031 -29.867188 27.160156 -28.953125 28.546875 -27.734375 C 29.941406 -26.523438 30.640625 -25.046875 30.640625 -23.296875 C 30.640625 -22.410156 30.316406 -21.660156 29.671875 -21.046875 C 29.023438 -20.429688 28.265625 -20.125 27.390625 -20.125 C 26.046875 -20.125 24.960938 -20.492188 24.140625 -21.234375 C 23.316406 -21.984375 22.566406 -22.832031 21.890625 -23.78125 C 21.222656 -24.738281 20.453125 -25.59375 19.578125 -26.34375 C 18.703125 -27.09375 17.566406 -27.46875 16.171875 -27.46875 C 14.773438 -27.46875 13.859375 -27.144531 13.421875 -26.5 C 12.984375 -25.851562 12.765625 -25.195312 12.765625 -24.53125 C 12.765625 -23.550781 13.203125 -22.800781 14.078125 -22.28125 C 14.953125 -21.769531 16.085938 -21.34375 17.484375 -21 C 18.878906 -20.664062 20.347656 -20.289062 21.890625 -19.875 C 23.441406 -19.46875 24.910156 -18.914062 26.296875 -18.21875 C 27.691406 -17.519531 28.828125 -16.539062 29.703125 -15.28125 C 30.585938 -14.019531 31.03125 -12.359375 31.03125 -10.296875 C 31.03125 -7.660156 30.269531 -5.554688 28.75 -3.984375 C 27.226562 -2.410156 25.28125 -1.273438 22.90625 -0.578125 C 20.53125 0.117188 18.023438 0.46875 15.390625 0.46875 C 14.304688 0.46875 12.988281 0.335938 11.4375 0.078125 C 9.894531 -0.179688 8.363281 -0.609375 6.84375 -1.203125 C 5.320312 -1.796875 4.054688 -2.59375 3.046875 -3.59375 C 2.046875 -4.601562 1.546875 -5.878906 1.546875 -7.421875 Z M 1.546875 -7.421875 "/></g></g></g><g fill="#e12c2c" fill-opacity="1"><g transform="translate(212.695845, 108.72545)"><g><path d="M 10.0625 0.46875 C 7.164062 0.46875 5.019531 -0.378906 3.625 -2.078125 C 2.238281 -3.785156 1.546875 -5.828125 1.546875 -8.203125 C 1.546875 -11.660156 2.832031 -14.378906 5.40625 -16.359375 C 7.988281 -18.347656 11.34375 -19.78125 15.46875 -20.65625 C 19.394531 -21.476562 21.359375 -22.769531 21.359375 -24.53125 C 21.359375 -25.195312 21.070312 -25.851562 20.5 -26.5 C 19.9375 -27.144531 18.957031 -27.46875 17.5625 -27.46875 C 16.164062 -27.46875 15.03125 -27.09375 14.15625 -26.34375 C 13.28125 -25.59375 12.503906 -24.738281 11.828125 -23.78125 C 11.160156 -22.832031 10.425781 -21.984375 9.625 -21.234375 C 8.832031 -20.492188 7.765625 -20.125 6.421875 -20.125 C 5.546875 -20.125 4.785156 -20.429688 4.140625 -21.046875 C 3.492188 -21.660156 3.171875 -22.410156 3.171875 -23.296875 C 3.171875 -25.046875 3.863281 -26.523438 5.25 -27.734375 C 6.644531 -28.953125 8.460938 -29.867188 10.703125 -30.484375 C 12.953125 -31.109375 15.394531 -31.421875 18.03125 -31.421875 C 20.863281 -31.421875 23.441406 -30.96875 25.765625 -30.0625 C 28.085938 -29.15625 29.941406 -27.644531 31.328125 -25.53125 C 32.722656 -23.414062 33.421875 -20.53125 33.421875 -16.875 L 33.421875 -9.984375 C 33.421875 -8.171875 33.550781 -6.800781 33.8125 -5.875 C 34.070312 -4.945312 34.378906 -4.265625 34.734375 -3.828125 C 35.097656 -3.390625 35.410156 -3.03125 35.671875 -2.75 C 35.929688 -2.46875 36.0625 -2.039062 36.0625 -1.46875 C 36.0625 -0.695312 35.828125 -0.179688 35.359375 0.078125 C 34.890625 0.335938 34.296875 0.46875 33.578125 0.46875 C 32.804688 0.46875 31.957031 0.390625 31.03125 0.234375 C 30.101562 0.078125 29.25 0 28.46875 0 C 27.644531 0 26.921875 0.0351562 26.296875 0.109375 C 25.679688 0.191406 25.039062 0.285156 24.375 0.390625 C 23.550781 0.492188 22.816406 0.390625 22.171875 0.078125 C 21.523438 -0.234375 21.148438 -0.800781 21.046875 -1.625 C 20.992188 -2.445312 20.863281 -3 20.65625 -3.28125 C 20.445312 -3.570312 20.191406 -3.71875 19.890625 -3.71875 C 19.316406 -3.71875 18.578125 -3.367188 17.671875 -2.671875 C 16.773438 -1.972656 15.691406 -1.273438 14.421875 -0.578125 C 13.160156 0.117188 11.707031 0.46875 10.0625 0.46875 Z M 13.546875 -11.375 C 13.546875 -9.875 13.914062 -8.800781 14.65625 -8.15625 C 15.40625 -7.519531 16.296875 -7.203125 17.328125 -7.203125 C 18.617188 -7.203125 19.597656 -7.753906 20.265625 -8.859375 C 20.941406 -9.960938 21.28125 -11.265625 21.28125 -12.765625 L 21.28125 -16.484375 C 21.28125 -17.867188 20.632812 -18.226562 19.34375 -17.5625 C 18.519531 -17.144531 17.65625 -16.691406 16.75 -16.203125 C 15.84375 -15.710938 15.082031 -15.109375 14.46875 -14.390625 C 13.851562 -13.671875 13.546875 -12.664062 13.546875 -11.375 Z M 13.546875 -11.375 "/></g></g></g><g clip-path="url(#5bb1f61f97)"><g clip-path="url(#ff21787135)"><g clip-path="url(#325a5f9644)"><path fill="#e12c2c" d="M 272.730469 88.796875 C 272.710938 88.796875 272.691406 88.792969 272.671875 88.789062 C 272.1875 88.707031 267.914062 87.914062 266.851562 85.574219 C 266.476562 84.75 266.472656 83.910156 266.839844 83.207031 C 267.230469 82.476562 267.835938 82.042969 268.652344 81.902344 C 268.835938 81.871094 269.007812 81.90625 269.164062 82.015625 C 269.320312 82.121094 269.417969 82.269531 269.449219 82.457031 C 269.484375 82.644531 269.449219 82.8125 269.339844 82.96875 C 269.230469 83.125 269.085938 83.222656 268.898438 83.253906 C 268.523438 83.316406 268.242188 83.511719 268.058594 83.84375 C 267.890625 84.167969 267.902344 84.570312 268.101562 85.003906 C 268.671875 86.265625 271.105469 87.042969 272.4375 87.34375 C 273.085938 86.144531 274.097656 83.800781 273.523438 82.539062 C 273.246094 81.933594 272.78125 81.636719 272.242188 81.734375 C 271.929688 81.800781 271.667969 81.957031 271.464844 82.203125 C 271.261719 82.449219 271.152344 82.730469 271.144531 83.050781 C 271.132812 83.242188 271.050781 83.398438 270.910156 83.519531 C 270.765625 83.644531 270.597656 83.699219 270.410156 83.683594 L 270.40625 83.683594 C 270.21875 83.667969 270.0625 83.589844 269.9375 83.445312 C 269.816406 83.300781 269.761719 83.136719 269.777344 82.945312 C 269.792969 82.640625 269.859375 82.34375 269.976562 82.058594 C 270.089844 81.773438 270.25 81.515625 270.449219 81.28125 C 270.652344 81.050781 270.886719 80.855469 271.152344 80.703125 C 271.417969 80.546875 271.703125 80.441406 272.003906 80.378906 C 273.171875 80.171875 274.234375 80.78125 274.777344 81.96875 C 275.839844 84.3125 273.628906 88.050781 273.371094 88.46875 C 273.226562 88.710938 273.011719 88.820312 272.730469 88.796875 Z M 272.730469 88.796875 " fill-opacity="1" fill-rule="nonzero"/></g></g></g><g clip-path="url(#e8bcbeca71)"><g clip-path="url(#92d1e2bcf6)"><g clip-path="url(#c2f51643af)"><path fill="#e12c2c" d="M 282.003906 85.042969 C 281.835938 85.03125 281.6875 84.964844 281.570312 84.839844 C 281.148438 84.40625 277.460938 80.53125 278.085938 77.464844 C 278.398438 75.945312 279.460938 74.957031 280.863281 74.886719 C 282.320312 74.816406 283.660156 75.796875 284.121094 77.273438 C 284.175781 77.457031 284.160156 77.628906 284.074219 77.796875 C 283.984375 77.964844 283.847656 78.078125 283.667969 78.132812 C 283.488281 78.191406 283.3125 78.175781 283.144531 78.085938 C 282.976562 78 282.863281 77.863281 282.808594 77.683594 C 282.488281 76.652344 281.632812 76.226562 280.929688 76.261719 C 280.164062 76.300781 279.617188 76.839844 279.433594 77.738281 C 279.0625 79.550781 281.09375 82.269531 282.226562 83.535156 C 283.765625 82.816406 286.703125 81.105469 287.070312 79.296875 C 287.195312 78.683594 287.101562 78.15625 286.796875 77.769531 C 286.480469 77.382812 286.078125 77.1875 285.582031 77.179688 C 285.390625 77.175781 285.230469 77.101562 285.097656 76.964844 C 284.96875 76.824219 284.90625 76.660156 284.914062 76.46875 C 284.917969 76.277344 284.992188 76.117188 285.132812 75.988281 C 285.273438 75.859375 285.4375 75.800781 285.628906 75.808594 C 286.550781 75.832031 287.300781 76.199219 287.875 76.917969 C 288.429688 77.621094 288.625 78.566406 288.417969 79.570312 C 287.792969 82.636719 282.882812 84.761719 282.324219 84.992188 C 282.222656 85.035156 282.117188 85.054688 282.003906 85.042969 Z M 282.003906 85.042969 " fill-opacity="1" fill-rule="nonzero"/></g></g></g><g clip-path="url(#c778134220)"><g clip-path="url(#815d45f494)"><g clip-path="url(#3f43a68234)"><path fill="#e12c2c" d="M 283.085938 101.886719 C 273.195312 101.097656 262.859375 98.09375 263.179688 94.078125 C 263.5 90.0625 274.183594 88.734375 284.074219 89.523438 C 293.960938 90.316406 304.300781 93.320312 303.976562 97.335938 C 303.65625 101.351562 292.972656 102.679688 283.085938 101.886719 Z M 283.964844 90.894531 C 272.171875 89.953125 264.710938 92.179688 264.550781 94.1875 C 264.386719 96.195312 271.402344 99.578125 283.195312 100.519531 C 294.984375 101.460938 302.449219 99.234375 302.609375 97.226562 C 302.769531 95.21875 295.753906 91.835938 283.964844 90.894531 Z M 283.964844 90.894531 " fill-opacity="1" fill-rule="nonzero"/></g></g></g><g clip-path="url(#af93600fb7)"><g clip-path="url(#e5d8ba6b71)"><g clip-path="url(#bbbdf3ab04)"><path fill="#e12c2c" d="M 280.625 99.710938 C 280.503906 99.703125 280.394531 99.664062 280.296875 99.597656 C 280.199219 99.53125 280.121094 99.445312 280.066406 99.339844 C 280.011719 99.234375 279.988281 99.125 279.992188 99.003906 C 279.996094 98.886719 280.027344 98.773438 280.089844 98.671875 C 281.648438 96.132812 283.648438 94.003906 286.085938 92.285156 C 286.941406 91.691406 289.847656 89.8125 291.351562 90.601562 C 293.066406 91.5 293.3125 96.035156 292.5625 99.898438 C 292.527344 100.085938 292.429688 100.230469 292.269531 100.339844 C 292.113281 100.445312 291.941406 100.480469 291.753906 100.445312 C 291.566406 100.410156 291.421875 100.3125 291.316406 100.152344 C 291.207031 99.992188 291.175781 99.820312 291.210938 99.632812 C 292.027344 95.449219 291.34375 92.148438 290.714844 91.820312 C 290.4375 91.675781 289.085938 91.875 286.871094 93.414062 C 284.59375 95.015625 282.726562 97.007812 281.265625 99.382812 C 281.121094 99.625 280.90625 99.734375 280.625 99.710938 Z M 280.625 99.710938 " fill-opacity="1" fill-rule="nonzero"/></g></g></g><g clip-path="url(#c87bdf6f3e)"><g clip-path="url(#6336eacb7d)"><g clip-path="url(#34a9ba5eec)"><path fill="#e12c2c" d="M 284.308594 100.105469 C 284.191406 100.097656 284.082031 100.058594 283.984375 99.992188 C 283.886719 99.925781 283.808594 99.84375 283.753906 99.738281 C 283.699219 99.632812 283.675781 99.519531 283.675781 99.402344 C 283.679688 99.285156 283.710938 99.171875 283.773438 99.070312 C 285.03125 96.921875 286.453125 94.886719 288.035156 92.964844 C 290.238281 90.335938 290.878906 90.355469 291.351562 90.601562 C 291.894531 90.886719 292.085938 91.542969 291.457031 94.054688 C 290.929688 96.0625 290.261719 98.027344 289.453125 99.941406 C 289.378906 100.117188 289.257812 100.242188 289.082031 100.3125 C 288.90625 100.386719 288.730469 100.386719 288.554688 100.3125 C 288.378906 100.238281 288.253906 100.117188 288.183594 99.941406 C 288.109375 99.765625 288.109375 99.589844 288.183594 99.414062 C 289.484375 96.289062 290.191406 93.714844 290.40625 92.402344 C 289.289062 93.484375 287.128906 96.09375 284.957031 99.769531 C 284.808594 100.015625 284.59375 100.128906 284.308594 100.105469 Z M 284.308594 100.105469 " fill-opacity="1" fill-rule="nonzero"/></g></g></g><g clip-path="url(#8f08b17ab1)"><g clip-path="url(#17cfab037d)"><g clip-path="url(#1d6905757a)"><path fill="#e12c2c" d="M 291.714844 92.875 C 291.601562 92.867188 291.492188 92.828125 291.394531 92.765625 C 291.296875 92.703125 291.21875 92.617188 291.164062 92.515625 C 291.109375 92.410156 291.082031 92.300781 291.085938 92.183594 C 291.085938 92.066406 291.113281 91.957031 291.171875 91.855469 L 298.722656 78.359375 C 298.832031 78.148438 298.851562 77.933594 298.78125 77.710938 C 298.710938 77.484375 298.570312 77.320312 298.363281 77.210938 C 298.15625 77.101562 297.9375 77.082031 297.714844 77.152344 C 297.492188 77.222656 297.324219 77.359375 297.214844 77.570312 L 290.421875 91.460938 C 290.335938 91.628906 290.207031 91.746094 290.027344 91.804688 C 289.847656 91.867188 289.675781 91.855469 289.503906 91.773438 C 289.335938 91.6875 289.21875 91.558594 289.160156 91.378906 C 289.097656 91.203125 289.105469 91.027344 289.1875 90.859375 L 295.988281 76.953125 C 295.988281 76.949219 295.992188 76.941406 295.996094 76.9375 C 296.132812 76.675781 296.3125 76.453125 296.539062 76.261719 C 296.765625 76.074219 297.019531 75.933594 297.300781 75.847656 C 297.582031 75.757812 297.871094 75.730469 298.164062 75.753906 C 298.457031 75.78125 298.734375 75.863281 298.996094 76 C 299.257812 76.136719 299.484375 76.320312 299.671875 76.542969 C 299.859375 76.769531 300 77.023438 300.085938 77.304688 C 300.175781 77.585938 300.207031 77.875 300.179688 78.167969 C 300.152344 78.460938 300.074219 78.738281 299.9375 79 C 299.933594 79.007812 299.929688 79.011719 299.925781 79.019531 L 292.371094 92.527344 C 292.226562 92.78125 292.007812 92.898438 291.714844 92.875 Z M 291.714844 92.875 " fill-opacity="1" fill-rule="nonzero"/></g></g></g><g clip-path="url(#b53b6b7d60)"><g clip-path="url(#4360c6249f)"><g clip-path="url(#60853d2797)"><path fill="#e12c2c" d="M 281.949219 116.105469 C 281.28125 116.050781 280.617188 115.964844 279.960938 115.847656 C 279.300781 115.726562 278.648438 115.578125 278.003906 115.394531 C 277.359375 115.210938 276.726562 114.996094 276.101562 114.75 C 275.476562 114.503906 274.867188 114.230469 274.269531 113.925781 C 273.675781 113.621094 273.09375 113.285156 272.53125 112.921875 C 271.96875 112.5625 271.421875 112.171875 270.898438 111.757812 C 270.371094 111.339844 269.867188 110.902344 269.386719 110.4375 C 268.902344 109.972656 268.445312 109.484375 268.007812 108.972656 C 267.574219 108.464844 267.167969 107.933594 266.785156 107.382812 C 266.402344 106.832031 266.046875 106.265625 265.71875 105.679688 C 265.394531 105.097656 265.09375 104.496094 264.828125 103.882812 C 264.558594 103.269531 264.320312 102.644531 264.113281 102.003906 C 263.910156 101.367188 263.734375 100.722656 263.589844 100.066406 C 263.445312 99.414062 263.335938 98.753906 263.257812 98.085938 C 263.179688 97.421875 263.132812 96.753906 263.121094 96.085938 C 263.105469 95.414062 263.125 94.746094 263.179688 94.078125 C 263.195312 93.890625 263.273438 93.734375 263.417969 93.609375 C 263.5625 93.488281 263.730469 93.433594 263.917969 93.449219 C 264.109375 93.464844 264.265625 93.542969 264.386719 93.6875 C 264.511719 93.832031 264.5625 94 264.550781 94.1875 C 264.386719 96.195312 271.402344 99.578125 283.195312 100.519531 C 294.984375 101.460938 302.449219 99.234375 302.609375 97.226562 C 302.625 97.039062 302.703125 96.882812 302.847656 96.757812 C 302.992188 96.636719 303.160156 96.582031 303.347656 96.597656 C 303.539062 96.613281 303.695312 96.691406 303.816406 96.835938 C 303.9375 96.980469 303.992188 97.148438 303.976562 97.335938 C 303.925781 98.003906 303.835938 98.667969 303.71875 99.328125 C 303.597656 99.984375 303.449219 100.636719 303.265625 101.28125 C 303.082031 101.925781 302.867188 102.5625 302.621094 103.183594 C 302.375 103.808594 302.101562 104.417969 301.796875 105.015625 C 301.492188 105.609375 301.15625 106.191406 300.796875 106.753906 C 300.433594 107.320312 300.042969 107.863281 299.628906 108.390625 C 299.214844 108.914062 298.773438 109.417969 298.308594 109.902344 C 297.84375 110.382812 297.355469 110.839844 296.84375 111.277344 C 296.335938 111.710938 295.804688 112.121094 295.253906 112.503906 C 294.707031 112.882812 294.136719 113.238281 293.554688 113.566406 C 292.96875 113.894531 292.367188 114.191406 291.753906 114.457031 C 291.140625 114.726562 290.515625 114.964844 289.878906 115.171875 C 289.238281 115.378906 288.59375 115.550781 287.941406 115.695312 C 287.285156 115.839844 286.625 115.949219 285.960938 116.027344 C 285.292969 116.105469 284.625 116.152344 283.957031 116.164062 C 283.285156 116.179688 282.617188 116.160156 281.949219 116.105469 Z M 264.511719 96.671875 C 264.570312 97.816406 264.730469 98.953125 264.992188 100.070312 C 265.253906 101.1875 265.617188 102.273438 266.074219 103.328125 C 266.535156 104.382812 267.082031 105.386719 267.722656 106.339844 C 268.363281 107.292969 269.082031 108.183594 269.882812 109.007812 C 270.683594 109.832031 271.550781 110.578125 272.488281 111.246094 C 273.421875 111.914062 274.410156 112.492188 275.449219 112.980469 C 276.488281 113.46875 277.566406 113.863281 278.675781 114.15625 C 279.785156 114.453125 280.914062 114.644531 282.058594 114.738281 C 283.203125 114.828125 284.347656 114.816406 285.492188 114.703125 C 286.636719 114.585938 287.757812 114.371094 288.863281 114.050781 C 289.96875 113.734375 291.035156 113.320312 292.0625 112.808594 C 293.09375 112.296875 294.070312 111.699219 294.988281 111.011719 C 295.910156 110.324219 296.761719 109.5625 297.546875 108.722656 C 298.328125 107.878906 299.03125 106.976562 299.652344 106.007812 C 300.273438 105.042969 300.800781 104.027344 301.238281 102.964844 C 301.675781 101.902344 302.011719 100.808594 302.253906 99.683594 C 298.792969 101.847656 290.703125 102.496094 283.085938 101.886719 C 275.46875 101.28125 267.585938 99.355469 264.511719 96.671875 Z M 264.511719 96.671875 " fill-opacity="1" fill-rule="nonzero"/></g></g></g></svg>