<svg xmlns="http://www.w3.org/2000/svg" xmlns:xlink="http://www.w3.org/1999/xlink" width="500" zoomAndPan="magnify" viewBox="0 0 375 374.999991" height="500" preserveAspectRatio="xMidYMid meet" version="1.0"><path fill="#ffcec8" d="M 362.75 62.039062 C 358.835938 85.707031 351.820312 108.609375 338.5625 129.039062 C 332.433594 138.492188 324.214844 145.824219 314.851562 152.121094 C 299.9375 162.15625 283.523438 163.984375 266.542969 160.976562 C 260.800781 159.957031 258.242188 161.667969 255.351562 165.777344 C 242.730469 183.710938 230.546875 202.007812 217.027344 219.242188 C 193.992188 248.617188 170.09375 277.304688 146.511719 306.242188 C 137.875 316.847656 129.125 327.363281 120.394531 337.886719 C 118.257812 340.464844 115.984375 342.925781 113.003906 346.320312 C 106.105469 340.820312 99.765625 335.761719 92.84375 330.238281 C 96.375 324.972656 99.320312 320.132812 102.699219 315.617188 C 127.636719 282.3125 152.410156 248.878906 177.75 215.882812 C 193.539062 195.320312 210.25 175.46875 226.496094 155.253906 C 228.625 152.601562 230.503906 149.734375 232.359375 146.875 C 234.179688 144.082031 234.246094 141.320312 232.984375 138.007812 C 220.304688 104.816406 225.914062 74.042969 246.917969 46.179688 C 261.335938 27.058594 280.578125 14.976562 304.875 11.882812 C 321.039062 9.816406 335.96875 13.621094 350.050781 21.175781 C 355.464844 24.082031 359.679688 28.710938 360.550781 35.035156 C 361.777344 44.003906 364.179688 53.382812 362.75 62.039062 Z M 248.117188 232.292969 C 271.328125 261.570312 296.855469 288.71875 323.65625 315.570312 C 318.085938 322.972656 312.484375 330.425781 305.980469 339.078125 C 273.707031 307.308594 242.101562 276.203125 210.339844 244.941406 C 217.75 235.183594 224.773438 225.941406 232.394531 215.910156 C 238 221.699219 243.585938 226.578125 248.117188 232.292969 Z M 154.871094 188.101562 C 167.023438 184.835938 175.796875 179.457031 174.640625 163.695312 C 182.03125 170.121094 187.503906 174.882812 193.40625 180.015625 C 186.617188 188.570312 180.296875 196.53125 173.289062 205.363281 C 167.101562 199.566406 161.410156 194.230469 154.871094 188.101562 Z M 63.878906 81.742188 C 72.039062 82.695312 79.117188 86.128906 85.644531 90.410156 C 114.292969 109.199219 136.730469 133.835938 153.507812 163.660156 C 153.871094 164.304688 153.925781 165.117188 154.152344 165.957031 C 113.585938 158.929688 68.027344 116.582031 63.878906 81.742188 Z M 132.058594 178.425781 C 98.746094 172.304688 69.046875 159.070312 46.425781 132.839844 C 39.542969 124.855469 33.632812 116.195312 32.160156 104.785156 C 65.21875 137.808594 104.503906 160.59375 149.859375 176.679688 C 142.886719 179.882812 137.210938 179.371094 132.058594 178.425781 Z M 26.34375 81.625 C 22.503906 77.347656 18.65625 71.550781 16.398438 64.949219 C 13.164062 55.488281 19.527344 46.382812 30.3125 45.050781 C 38.523438 44.035156 46.683594 44.78125 54.507812 47.761719 C 52.894531 55.632812 51.484375 62.519531 50.210938 68.734375 C 42.453125 72.925781 34.875 77.015625 26.34375 81.625 Z M 60.34375 102.65625 C 63.816406 109.789062 68.109375 116.523438 72.042969 123.433594 C 58.207031 114.722656 45.679688 104.195312 34.855469 91.859375 C 39.5625 83.988281 42.089844 82.328125 51.390625 80.992188 C 54.3125 88.15625 56.914062 95.609375 60.34375 102.65625 Z M 64.726562 52.914062 C 75.386719 55.734375 99.589844 78.363281 106.964844 92.941406 C 93.285156 82.261719 78.644531 73.527344 61.128906 70.414062 C 60.726562 63.804688 61.539062 58.117188 64.726562 52.914062 Z M 99.917969 51.277344 C 119.390625 62.664062 133.660156 79.070312 144.550781 98.46875 C 153.632812 114.648438 160.0625 131.957031 164.15625 150.082031 C 164.710938 152.523438 164.78125 155.070312 165.316406 159.632812 C 162.738281 156.433594 161.257812 154.910156 160.136719 153.152344 C 148.796875 135.425781 137.695312 117.542969 126.167969 99.933594 C 113.773438 81.007812 98.734375 64.375 81.203125 50.023438 C 79.957031 49.003906 78.753906 47.925781 76.125 45.667969 C 86.109375 44.792969 93.183594 47.339844 99.917969 51.277344 Z M 370.054688 31.296875 C 368.066406 23.816406 363.539062 17.90625 357.070312 13.835938 C 342.148438 4.453125 325.484375 -0.0078125 308.171875 1.519531 C 272.433594 4.675781 246.425781 23.828125 229.417969 54.714844 C 215.011719 80.867188 212.332031 108.738281 221.664062 137.421875 C 222.53125 140.097656 223.976562 142.558594 221.660156 145.386719 C 214.488281 154.140625 207.484375 163.027344 200.070312 172.292969 C 195.65625 168.535156 192 165.390625 188.304688 162.292969 C 185.035156 159.546875 182.007812 156.328125 178.335938 154.296875 C 175.394531 152.667969 174.433594 150.648438 173.8125 147.714844 C 169.953125 129.476562 163.417969 112.148438 154.542969 95.835938 C 142.34375 73.402344 126.058594 54.546875 103.464844 41.878906 C 91.773438 35.320312 79.476562 32.570312 66.746094 38.695312 C 63.289062 40.355469 60.613281 39.136719 57.792969 38.183594 C 48.71875 35.121094 39.402344 34.105469 29.960938 34.972656 C 10.539062 36.765625 0.128906 54.898438 8.652344 72.265625 C 11.394531 77.851562 15.429688 82.792969 18.542969 88.214844 C 19.867188 90.527344 21.273438 93.398438 21.054688 95.882812 C 20.136719 106.3125 23.042969 115.652344 28.222656 124.417969 C 34.503906 135.054688 42.144531 144.683594 51.695312 152.53125 C 78.429688 174.5 108.898438 187.332031 141.027344 189.238281 C 150.691406 197.882812 158.945312 205.265625 167.453125 212.871094 C 159.644531 223.226562 152.609375 232.507812 145.625 241.828125 C 127.324219 266.238281 109.03125 290.652344 90.785156 315.097656 C 88.914062 317.605469 87.300781 320.316406 85.664062 322.988281 C 81.007812 330.59375 81.070312 332.496094 87.597656 338.328125 C 94.796875 344.761719 102.359375 350.78125 109.714844 357.03125 C 112.082031 359.042969 114.460938 358.914062 116.65625 357.082031 C 118.390625 355.632812 119.886719 353.867188 121.339844 352.121094 C 146.3125 322.078125 171.257812 292.015625 196.226562 261.96875 C 198.683594 259.015625 201.257812 256.15625 204.101562 252.878906 C 217.707031 266.246094 230.515625 278.796875 243.289062 291.386719 C 260.554688 308.402344 277.734375 325.511719 295.121094 342.40625 C 297.925781 345.136719 301.46875 347.1875 304.890625 349.175781 C 308.058594 351.019531 310.804688 350.089844 313.023438 347.0625 C 319.921875 337.632812 327.046875 328.359375 333.847656 318.855469 C 337.105469 314.292969 336.582031 312.371094 332.308594 308.710938 C 328.414062 305.375 324.136719 302.390625 320.707031 298.628906 C 301.875 277.996094 283.222656 257.191406 264.558594 236.394531 C 256.035156 226.894531 247.636719 217.28125 239.117188 207.652344 C 245.863281 197.675781 252.980469 187.734375 259.421875 177.367188 C 262.417969 172.546875 265.71875 171.257812 271.289062 171.621094 C 282.039062 172.320312 292.863281 172.863281 303.371094 168.769531 C 322.050781 161.496094 337.199219 149.902344 347.898438 132.957031 C 361.492188 111.414062 368.605469 87.414062 372.984375 62.578125 C 374.847656 52.023438 372.769531 41.542969 370.054688 31.296875 " fill-opacity="1" fill-rule="nonzero"/></svg>