<svg xmlns="http://www.w3.org/2000/svg" xmlns:xlink="http://www.w3.org/1999/xlink" width="500" zoomAndPan="magnify" viewBox="0 0 375 374.999991" height="500" preserveAspectRatio="xMidYMid meet" version="1.0"><path fill="#e12c2c" d="M 373.34375 263.457031 C 368.035156 250.300781 367.644531 236.097656 365.753906 222.191406 C 365.589844 220.855469 363.996094 219.292969 362.691406 219.128906 C 345.984375 216.785156 330.96875 209.457031 315.269531 203.757812 C 301.003906 198.578125 286.347656 193.886719 273.90625 184.964844 C 275.375 180.144531 276.742188 175.324219 277.980469 170.46875 C 281.234375 157.800781 281.691406 151.546875 271.464844 142.65625 C 243.160156 118.164062 216.160156 92.007812 188.152344 67.160156 C 159.195312 41.492188 127.703125 21.886719 94.707031 1.953125 C 91.222656 -0.164062 87.414062 3.289062 88.195312 6.9375 C 94.351562 35.304688 84.546875 65.988281 75.621094 92.824219 C 74.679688 95.691406 73.570312 98.523438 72.429688 101.292969 C 58.589844 130.898438 35.984375 155.617188 9.800781 175.289062 C 0.972656 180.730469 5.042969 191.769531 8.203125 201.933594 C 11.167969 211.410156 11.621094 213.527344 19.050781 220.433594 C 27.320312 228.152344 35.59375 235.839844 43.703125 243.753906 C 60.023438 259.648438 75.882812 276.027344 92.265625 291.824219 C 109.953125 308.859375 128.808594 323.15625 148.125 338.105469 C 158.023438 345.761719 166.980469 358.332031 180.789062 354.585938 C 189.617188 352.175781 198.347656 344.554688 205.902344 339.605469 C 215.542969 333.320312 225.117188 326.871094 234.824219 320.683594 C 275.925781 294.367188 322.402344 278.601562 370.085938 269.191406 C 372.398438 268.765625 374.253906 265.703125 373.34375 263.457031 Z M 358.65625 238.996094 C 351.554688 239.160156 344.617188 239.972656 337.84375 241.375 C 344.550781 239.550781 351.425781 238.183594 358.523438 237.464844 C 358.558594 237.988281 358.621094 238.507812 358.65625 238.996094 Z M 308.886719 211.246094 C 321.65625 215.613281 334.453125 221.148438 347.582031 224.796875 C 315.171875 231.667969 284.070312 243.621094 254.691406 258.929688 C 243.714844 264.628906 233.261719 271.242188 223.066406 278.242188 C 222.96875 278.179688 222.871094 278.082031 222.742188 278.015625 C 221.894531 277.625 221.015625 277.460938 220.167969 277.429688 C 221.242188 276.226562 222.316406 275.019531 223.390625 273.816406 C 224.695312 273.976562 226.03125 274.171875 227.300781 274.5 C 229.546875 275.085938 230.523438 271.601562 228.246094 271.011719 C 227.5625 270.816406 226.875 270.6875 226.191406 270.589844 C 226.976562 269.679688 227.722656 268.765625 228.472656 267.820312 C 229.972656 267.984375 231.4375 268.210938 232.933594 268.472656 C 234.695312 268.765625 236.417969 269.125 237.984375 268.113281 C 238.535156 267.757812 238.503906 267.039062 237.984375 266.648438 C 236.582031 265.671875 234.953125 265.738281 233.324219 265.640625 C 232.347656 265.574219 231.402344 265.507812 230.425781 265.445312 C 231.242188 264.433594 232.054688 263.390625 232.871094 262.351562 C 235.378906 263.132812 238.179688 263.71875 240.71875 263.878906 C 241.175781 263.914062 241.597656 263.621094 241.828125 263.261719 C 241.957031 263.066406 241.988281 262.871094 241.988281 262.609375 C 241.988281 262.1875 241.730469 261.699219 241.371094 261.503906 C 239.285156 260.492188 236.84375 260.527344 234.53125 260.234375 C 235.996094 258.34375 237.398438 256.453125 238.796875 254.53125 C 240.035156 254.859375 241.304688 255.121094 242.574219 255.347656 C 243.945312 255.574219 245.570312 256.355469 246.941406 256 C 247.394531 255.867188 247.492188 255.316406 247.199219 254.957031 C 246.289062 253.945312 244.660156 254.011719 243.390625 253.847656 C 242.152344 253.6875 240.914062 253.554688 239.675781 253.328125 C 245.3125 245.542969 250.425781 237.53125 255.050781 229.488281 C 254.953125 229.976562 255.148438 230.527344 255.703125 230.625 C 259.738281 231.277344 263.648438 232.320312 267.621094 233.234375 C 270.8125 233.949219 274.136719 235.121094 277.359375 234.371094 C 278.238281 234.175781 278.371094 232.90625 277.621094 232.484375 C 274.460938 230.789062 270.421875 230.757812 266.90625 230.171875 C 263.289062 229.550781 259.609375 229.128906 255.960938 228.738281 C 255.734375 228.707031 255.539062 228.804688 255.375 228.902344 C 255.734375 228.28125 256.125 227.628906 256.484375 227.011719 C 262.28125 216.621094 266.9375 205.613281 270.847656 194.34375 C 282.277344 202.421875 295.730469 206.753906 308.886719 211.246094 Z M 165.15625 340.289062 C 151.769531 329.214844 137.277344 319.640625 124.019531 308.4375 C 109.070312 295.832031 95.035156 282.121094 81.09375 268.441406 C 67.1875 254.761719 53.378906 241.015625 39.046875 227.792969 C 33.707031 222.875 18.886719 214.34375 16.867188 207.339844 C 15.5 202.519531 10.613281 193.203125 10.808594 185.910156 C 36.636719 205.644531 57.15625 231.605469 83.539062 250.625 C 112.816406 271.699219 140.792969 294.464844 169.847656 315.828125 C 169.847656 315.828125 169.878906 315.828125 169.914062 315.863281 C 170.304688 318.664062 170.695312 321.464844 171.148438 324.265625 C 171.085938 324.363281 171.117188 324.492188 171.214844 324.589844 C 172.324219 331.332031 173.527344 338.074219 174.601562 344.816406 C 171.636719 344.457031 168.542969 343.125 165.15625 340.289062 Z M 166.492188 301.238281 C 158.480469 295.441406 150.632812 289.449219 142.78125 283.390625 C 120.210938 265.933594 96.304688 249.453125 74.90625 230.625 C 56.144531 214.148438 39.40625 195.710938 19.832031 180.207031 C 25.5625 175.617188 30.9375 170.796875 36.019531 165.746094 C 36.570312 165.648438 37.09375 165.355469 37.386719 164.769531 C 37.546875 164.445312 37.777344 164.152344 37.9375 163.824219 C 40.804688 160.894531 43.542969 157.898438 46.210938 154.835938 C 47.089844 154.023438 47.972656 153.242188 48.816406 152.460938 C 53.964844 147.507812 58.261719 141.253906 62.464844 135.492188 C 72.171875 122.265625 79.335938 107.089844 84.742188 91.652344 C 93.210938 67.613281 100.898438 40.386719 98.257812 14.429688 C 115.066406 24.589844 131.871094 34.71875 148.023438 45.890625 C 166.523438 58.660156 182.746094 74.683594 199.453125 89.664062 C 216.976562 105.363281 234.464844 120.867188 251.433594 137.152344 C 259.578125 144.96875 273.027344 151.613281 269.867188 164.054688 C 266.285156 178.253906 261.792969 192.195312 256.09375 205.679688 C 245.539062 230.625 228.894531 251.992188 210.820312 271.925781 C 201.636719 282.054688 191.605469 291.46875 180.757812 299.773438 C 174.472656 304.65625 173.167969 306.058594 166.492188 301.238281 Z M 219.417969 280.785156 C 218.179688 281.664062 216.941406 282.542969 215.671875 283.421875 C 215.511719 283.359375 215.378906 283.324219 215.183594 283.324219 C 214.988281 283.324219 214.824219 283.324219 214.628906 283.324219 C 215.476562 282.445312 216.324219 281.566406 217.171875 280.6875 C 217.203125 280.6875 217.203125 280.6875 217.234375 280.6875 C 217.984375 280.621094 218.734375 280.6875 219.417969 280.785156 Z M 211.894531 286.125 C 211.828125 286.160156 211.765625 286.222656 211.730469 286.257812 C 211.765625 286.222656 211.828125 286.160156 211.863281 286.125 C 211.863281 286.125 211.894531 286.125 211.894531 286.125 Z M 177.46875 317.554688 C 188.28125 308.792969 201.570312 302.117188 212.9375 294.367188 C 227.136719 284.691406 241.273438 275.183594 256.386719 267.039062 C 250.488281 270.949219 244.660156 274.921875 238.863281 278.894531 C 219.058594 292.445312 197.238281 304.59375 177.925781 319.019531 C 177.792969 318.5 177.664062 318.011719 177.46875 317.554688 Z M 178.867188 321.824219 C 199.582031 312.703125 218.148438 296.058594 236.222656 283.226562 C 251.304688 272.511719 266.613281 262.839844 282.667969 254.371094 C 283.058594 254.207031 283.449219 254.042969 283.808594 253.882812 C 275.570312 259.320312 267.816406 265.605469 261.140625 271.761719 C 260.816406 272.054688 261.238281 272.609375 261.597656 272.382812 C 269.054688 267.300781 276.578125 262.316406 284.265625 257.5625 C 291.496094 253.101562 299.507812 249.613281 306.769531 245.152344 C 314.132812 242.644531 321.589844 240.429688 329.113281 238.378906 C 308.074219 245.804688 288.367188 257.660156 269.316406 268.863281 C 253.617188 278.082031 237.722656 286.972656 222.089844 296.289062 C 213.589844 301.367188 205.25 306.675781 197.011719 312.183594 C 194.371094 313.941406 182.453125 320.292969 179.683594 325.078125 C 179.421875 324.039062 179.164062 322.929688 178.867188 321.824219 Z M 180.300781 328.011719 C 205.25 310.945312 231.011719 295.570312 257.199219 280.523438 C 231.925781 297.65625 207.691406 315.894531 180.824219 330.679688 C 180.660156 329.800781 180.464844 328.921875 180.300781 328.011719 Z M 182.808594 343.351562 C 182.679688 342.570312 182.550781 341.789062 182.417969 340.972656 C 185.058594 341.167969 188.085938 340.09375 191.015625 338.695312 C 188.152344 340.582031 185.449219 342.242188 182.808594 343.351562 Z M 213.523438 321.496094 C 207.496094 325.273438 201.210938 328.597656 194.859375 331.820312 C 192.90625 332.796875 190.953125 333.777344 188.964844 334.6875 C 187.597656 335.339844 186.195312 335.957031 184.828125 336.640625 C 183.6875 336.773438 182.941406 336.933594 182.515625 337.128906 C 182.320312 337.097656 182.09375 337.128906 181.929688 337.261719 C 181.898438 337.292969 181.867188 337.292969 181.832031 337.324219 C 181.671875 336.25 181.507812 335.207031 181.34375 334.132812 C 243.648438 308.175781 286.871094 245.707031 359.273438 244.597656 C 359.46875 246.261719 359.730469 247.921875 359.988281 249.550781 C 324.652344 252.121094 294.132812 270.363281 264.167969 287.980469 C 246.710938 298.273438 230.6875 310.714844 213.523438 321.496094 Z M 265.34375 293.292969 C 263.03125 294.332031 260.75 295.441406 258.503906 296.582031 C 289.183594 276.09375 324.195312 256.519531 360.933594 254.433594 C 361.097656 255.152344 361.261719 255.835938 361.421875 256.550781 C 345.269531 254.925781 324.976562 263.816406 311.722656 271.664062 C 311.332031 271.894531 311.589844 272.609375 312.046875 272.445312 C 320.058594 269.386719 328.203125 266.683594 336.441406 264.371094 C 345.007812 261.992188 353.769531 261.699219 362.335938 259.972656 C 362.464844 260.394531 362.5625 260.820312 362.691406 261.242188 C 329.082031 268.210938 296.609375 279.027344 265.34375 293.292969 Z M 265.34375 293.292969 " fill-opacity="1" fill-rule="nonzero"/><path fill="#e12c2c" d="M 81.550781 181.871094 C 76.566406 183.269531 71.484375 184.117188 66.339844 184.867188 C 68.195312 180.109375 68.816406 174.738281 65.199219 170.699219 C 61.683594 166.789062 55.851562 165.128906 51.03125 167.539062 C 45.789062 170.144531 44.09375 176.789062 46.960938 181.773438 C 49.011719 185.386719 53.183594 187.960938 56.472656 190.304688 C 60.445312 193.140625 65.753906 194.667969 69.433594 197.765625 C 70.800781 198.9375 72.722656 197.113281 71.453125 195.746094 C 69.824219 194.050781 68.328125 192.355469 66.796875 190.761719 C 72.300781 190.011719 77.804688 189.132812 83.210938 187.765625 C 87.023438 186.820312 85.359375 180.796875 81.550781 181.871094 Z M 59.925781 184.769531 C 56.796875 182.488281 52.433594 179.101562 53.183594 175.746094 C 53.769531 173.140625 57.742188 173.238281 59.53125 174.085938 C 63.570312 176.007812 61.746094 181.25 59.925781 184.769531 Z M 59.925781 184.769531 " fill-opacity="1" fill-rule="nonzero"/><path fill="#e12c2c" d="M 106.726562 168.253906 C 107.800781 164.054688 101.515625 162.328125 100.246094 166.464844 C 97.640625 175.09375 92.917969 175.03125 86.664062 171.742188 C 86.566406 170.992188 86.371094 170.242188 86.109375 169.558594 C 86.566406 168.875 86.988281 168.125 87.574219 167.472656 C 88.8125 166.074219 90.375 165.097656 91.777344 163.890625 C 94.351562 161.675781 91.0625 157.800781 88.257812 159.332031 C 85.554688 160.796875 83.179688 163.433594 81.714844 166.203125 C 79.140625 163.238281 75.71875 160.765625 72.464844 158.515625 C 74.546875 155.714844 76.339844 153.144531 79.921875 151.417969 C 83.699219 149.59375 80.378906 143.894531 76.632812 145.78125 C 71.746094 148.226562 67.023438 152.816406 66.046875 158.417969 C 65.101562 158.90625 64.613281 160.308594 65.492188 161.285156 C 75.460938 171.9375 100.148438 194.148438 106.726562 168.253906 Z M 106.726562 168.253906 " fill-opacity="1" fill-rule="nonzero"/><path fill="#e12c2c" d="M 99.332031 152.914062 C 103.730469 155.128906 109.527344 156.074219 113.761719 153.011719 C 119.398438 148.972656 120.667969 139.429688 117.246094 133.632812 C 115.910156 131.355469 112.066406 131.648438 111.449219 134.382812 C 110.601562 138.292969 112.035156 144.023438 109.332031 146.660156 C 108.941406 147.050781 107.964844 147.3125 107.050781 147.347656 C 105.78125 147.378906 104.347656 147.050781 103.046875 146.464844 C 100.113281 145.195312 97.574219 143.113281 96.109375 140.410156 C 95.554688 139.367188 95.523438 138.519531 95.71875 137.609375 C 95.980469 136.273438 97.3125 134.9375 97.964844 133.535156 C 98.648438 132.101562 97.835938 130.246094 96.109375 130.277344 C 90.3125 130.378906 87.707031 136.695312 89.042969 141.679688 C 90.375 146.660156 94.902344 150.699219 99.332031 152.914062 Z M 99.332031 152.914062 " fill-opacity="1" fill-rule="nonzero"/><path fill="#e12c2c" d="M 105.488281 113.179688 C 103.308594 111.941406 101.351562 114.742188 102.917969 116.535156 C 108.324219 122.691406 115.8125 127.738281 122.914062 131.710938 C 126.691406 133.828125 130.015625 128.128906 126.300781 125.914062 C 119.332031 121.714844 112.523438 117.25 105.488281 113.179688 Z M 105.488281 113.179688 " fill-opacity="1" fill-rule="nonzero"/><path fill="#e12c2c" d="M 111.449219 106.796875 C 119.820312 112.039062 131.089844 117.511719 141.152344 117.804688 C 142.683594 117.835938 143.757812 115.65625 142.488281 114.613281 C 138.222656 111.09375 133.074219 108.914062 128.125 106.601562 C 126.691406 105.949219 125.097656 105.234375 123.402344 104.484375 C 125.421875 97.90625 124.117188 89.242188 118.613281 85.269531 C 113.535156 81.585938 106.238281 83.574219 103.40625 89.078125 C 99.527344 96.632812 105.457031 103.082031 111.449219 106.796875 Z M 113.792969 91.292969 C 117.378906 91.976562 117.214844 96.832031 116.691406 101.097656 C 114.414062 99.695312 112.394531 98.101562 111.027344 96.210938 C 109.496094 94.0625 111.058594 90.773438 113.792969 91.292969 Z M 113.792969 91.292969 " fill-opacity="1" fill-rule="nonzero"/><path fill="#e12c2c" d="M 118.160156 76.214844 C 127.605469 81.71875 134.3125 90.707031 144.117188 95.753906 C 145.714844 96.570312 147.503906 96.144531 148.480469 94.617188 C 151.445312 89.925781 156.167969 84.355469 154.929688 78.460938 C 154.441406 76.148438 150.730469 75.53125 149.6875 77.777344 C 147.960938 81.488281 146.363281 85.136719 144.441406 88.71875 C 141.382812 86.992188 138.480469 84.976562 135.648438 82.890625 C 136.070312 82.140625 136.464844 81.359375 136.660156 80.414062 C 137.015625 78.6875 137.734375 77.15625 138.546875 75.59375 C 140.175781 72.53125 135.714844 69.925781 133.890625 72.890625 C 132.847656 74.550781 132.230469 76.472656 131.839844 78.394531 C 131.707031 78.917969 131.644531 79.4375 131.609375 79.957031 C 128.710938 77.875 125.746094 75.886719 122.523438 74.257812 C 123.175781 72.988281 123.761719 71.6875 124.25 70.382812 C 125.0625 68.136719 125.878906 66.28125 127.148438 64.195312 C 128.839844 61.425781 124.707031 58.070312 122.589844 60.675781 C 119.886719 63.96875 118.222656 68.59375 119.101562 72.792969 C 117.441406 72.628906 116.59375 75.300781 118.160156 76.214844 Z M 118.160156 76.214844 " fill-opacity="1" fill-rule="nonzero"/><path fill="#e12c2c" d="M 186.132812 250.039062 C 188.605469 249.875 190.269531 247.824219 189.714844 245.347656 C 187.5 235.480469 185.675781 225.578125 184.40625 215.578125 C 203.460938 214.570312 246.515625 212.160156 236.125 185.519531 C 235.441406 183.792969 234.074219 182.359375 232.054688 182.421875 C 215.316406 182.878906 199.09375 187.570312 182.484375 189.261719 C 182.320312 180.632812 182.613281 171.96875 183.558594 163.304688 C 184.40625 155.585938 183.167969 138.714844 173.691406 135.882812 C 152.257812 129.496094 140.339844 172.097656 160.628906 180.304688 C 161.019531 184.214844 161.347656 188.15625 161.605469 192.097656 C 152.226562 192.617188 138.253906 196.167969 132.75 188.480469 C 130.242188 184.996094 131.742188 179.589844 126.429688 178.089844 C 112.816406 174.28125 97.445312 182.683594 92.949219 195.84375 C 92.234375 197.960938 94.089844 200.042969 96.175781 200.078125 C 100.210938 200.140625 109.039062 197.308594 113.566406 199.523438 C 107.445312 201.378906 99.527344 204.667969 101.320312 211.148438 C 102.589844 215.742188 108.226562 216.6875 113.730469 216.523438 C 109.886719 218.414062 105.261719 220.007812 103.046875 221.964844 C 101.449219 223.363281 101.972656 226.066406 103.699219 227.078125 C 110.863281 231.3125 118.777344 230.625 126.464844 227.957031 C 130.40625 226.589844 133.824219 222.808594 137.308594 220.691406 C 144.605469 216.261719 153.074219 215.578125 161.347656 214.832031 C 162.03125 214.765625 162.617188 214.539062 163.074219 214.179688 C 164.015625 226.003906 165.515625 237.726562 168.933594 249.09375 C 169.519531 251.046875 171.34375 251.925781 173.300781 251.570312 C 175.125 251.210938 176.554688 250.722656 177.761719 250.007812 C 180.5625 250.363281 183.101562 250.265625 186.132812 250.039062 Z M 228.765625 191.023438 C 230.070312 205.679688 196.683594 206.460938 183.460938 206.980469 C 183.136719 203.5625 182.90625 200.175781 182.710938 196.753906 C 198.214844 196.820312 213.296875 191.964844 228.765625 191.023438 Z M 161.347656 208.054688 C 153.269531 208.871094 145.515625 209.816406 137.960938 212.941406 C 129.199219 216.558594 122.035156 225.414062 112.425781 223.59375 C 117.996094 221.050781 123.726562 220.496094 125.910156 213.234375 C 126.691406 210.628906 124.21875 208.933594 121.9375 209.261719 C 117.867188 210.074219 113.761719 210.207031 109.691406 209.652344 C 107.246094 209.328125 119.070312 204.734375 119.984375 204.472656 C 121.578125 204.050781 122.847656 202.160156 122.230469 200.5 C 118.875 191.121094 110.960938 192.292969 102.851562 193.074219 C 109.398438 186.558594 122.75 178.449219 124.671875 187.832031 C 125.453125 191.609375 127.667969 195.160156 130.992188 197.242188 C 139.980469 202.8125 151.769531 200.078125 161.996094 198.285156 C 162.191406 201.574219 162.421875 204.898438 162.648438 208.1875 C 162.257812 208.054688 161.835938 208.023438 161.347656 208.054688 Z M 179.292969 241.308594 C 178.640625 241.992188 178.054688 242.449219 177.535156 242.777344 C 177.339844 242.777344 177.144531 242.777344 176.980469 242.742188 C 176.359375 242.679688 175.839844 242.808594 175.382812 243.035156 C 173.234375 241.796875 173.265625 235.382812 172.910156 233.492188 C 171.539062 225.902344 171.050781 218.085938 170.5 210.402344 C 169.71875 199.425781 169.164062 188.417969 167.894531 177.472656 C 167.699219 175.8125 166.882812 174.25 165.125 173.824219 C 151.28125 170.566406 157.863281 149.363281 165.875 143.46875 C 177.046875 135.230469 176.6875 161.417969 176.132812 165.550781 C 172.910156 190.597656 176.003906 216.261719 181.179688 240.917969 C 180.53125 240.691406 179.8125 240.757812 179.292969 241.308594 Z M 179.292969 241.308594 " fill-opacity="1" fill-rule="nonzero"/><path fill="#e12c2c" d="M 251.890625 247.042969 C 249.902344 246.714844 247.917969 246.359375 245.929688 245.871094 C 245.3125 245.707031 245.117188 246.585938 245.667969 246.8125 C 247.363281 247.5 249.058594 248.148438 250.71875 248.867188 C 252.054688 249.417969 253.976562 250.625 255.375 249.777344 C 255.765625 249.550781 255.832031 249.125 255.636719 248.703125 C 255.082031 247.367188 253.160156 247.238281 251.890625 247.042969 Z M 251.890625 247.042969 " fill-opacity="1" fill-rule="nonzero"/><path fill="#e12c2c" d="M 261.53125 239.550781 C 260.097656 239.226562 258.664062 239.386719 257.199219 239.386719 C 254.953125 239.386719 252.703125 239.160156 250.488281 238.703125 C 250.097656 238.605469 249.902344 239.226562 250.328125 239.324219 C 253.714844 240.203125 258.078125 241.050781 261.53125 240.300781 C 261.890625 240.203125 261.890625 239.617188 261.53125 239.550781 Z M 261.53125 239.550781 " fill-opacity="1" fill-rule="nonzero"/><path fill="#e12c2c" d="M 263.875 219 C 269.964844 220.171875 275.765625 221.929688 281.527344 224.210938 C 287.976562 226.75 293.972656 230.855469 300.550781 232.875 C 301.753906 233.234375 302.699219 231.636719 301.789062 230.757812 C 292.375 222.160156 276.449219 218.347656 264.167969 216.71875 C 262.867188 216.523438 262.605469 218.738281 263.875 219 Z M 263.875 219 " fill-opacity="1" fill-rule="nonzero"/></svg>