<svg xmlns="http://www.w3.org/2000/svg" xmlns:xlink="http://www.w3.org/1999/xlink" width="500" zoomAndPan="magnify" viewBox="0 0 375 374.999991" height="500" preserveAspectRatio="xMidYMid meet" version="1.0"><defs><clipPath id="12c61fe791"><path d="M 0 25 L 375 25 L 375 365.554688 L 0 365.554688 Z M 0 25 " clip-rule="nonzero"/></clipPath></defs><path fill="#ffcec8" d="M 265.6875 328.597656 C 263.191406 327.421875 260.210938 328.5 259.039062 331 L 255.179688 339.226562 C 254.007812 341.726562 255.082031 344.703125 257.582031 345.875 C 258.269531 346.199219 258.992188 346.351562 259.703125 346.351562 C 261.582031 346.351562 263.382812 345.285156 264.234375 343.472656 L 268.09375 335.246094 C 269.265625 332.746094 268.191406 329.769531 265.6875 328.597656 " fill-opacity="1" fill-rule="nonzero"/><path fill="#ffcec8" d="M 153.421875 265.886719 C 150.921875 264.714844 147.945312 265.792969 146.773438 268.289062 L 142.910156 276.519531 C 141.738281 279.015625 142.816406 281.996094 145.316406 283.167969 C 146 283.488281 146.726562 283.644531 147.4375 283.644531 C 149.3125 283.644531 151.113281 282.578125 151.964844 280.765625 L 155.824219 272.539062 C 157 270.039062 155.921875 267.0625 153.421875 265.886719 " fill-opacity="1" fill-rule="nonzero"/><g clip-path="url(#12c61fe791)"><path fill="#ffcec8" d="M 299.078125 355.5 C 291.691406 356.226562 268.390625 353.277344 225.035156 341.683594 C 223.847656 341.367188 222.667969 341.046875 221.488281 340.726562 C 223.082031 338.535156 224.527344 336.246094 225.757812 333.859375 C 227.019531 331.421875 228.09375 328.863281 228.953125 326.261719 C 229.816406 323.636719 228.394531 320.8125 225.769531 319.945312 C 223.148438 319.078125 220.320312 320.503906 219.457031 323.125 C 218.761719 325.230469 217.890625 327.296875 216.875 329.269531 C 215.296875 332.320312 213.335938 335.199219 211.046875 337.828125 C 200.507812 334.839844 190.128906 331.707031 180.171875 328.519531 L 182.027344 325.695312 C 183.542969 323.386719 182.902344 320.289062 180.59375 318.773438 C 178.289062 317.253906 175.1875 317.898438 173.671875 320.203125 L 170.324219 325.296875 C 165.652344 323.738281 161.101562 322.175781 156.703125 320.613281 C 159.75 316.542969 162.460938 312.242188 164.773438 307.761719 C 166.949219 303.550781 168.796875 299.144531 170.277344 294.664062 C 171.144531 292.039062 169.714844 289.210938 167.09375 288.347656 C 164.46875 287.480469 161.644531 288.910156 160.777344 291.527344 C 159.464844 295.515625 157.820312 299.429688 155.890625 303.175781 C 153.367188 308.058594 150.324219 312.699219 146.828125 317.027344 C 135.675781 312.867188 125.765625 308.796875 117.699219 305.011719 C 100.5625 296.972656 96.15625 291.933594 95.480469 289.125 C 94.835938 286.457031 97.652344 282.816406 100.910156 278.605469 C 102.089844 277.082031 103.339844 275.457031 104.558594 273.722656 C 104.574219 273.699219 104.59375 273.675781 104.609375 273.648438 C 106.132812 271.472656 107.609375 269.113281 108.835938 266.5 C 111.054688 261.769531 112.132812 256.929688 113.082031 252.664062 C 114.238281 247.464844 115.238281 242.972656 117.699219 241.761719 C 118.410156 241.414062 119.429688 241.171875 120.886719 241.171875 C 122.957031 241.171875 125.925781 241.667969 130.140625 243.019531 C 129.03125 248.492188 127.519531 253.90625 125.625 259.144531 C 123.253906 265.707031 120.257812 272.085938 116.730469 278.105469 C 115.332031 280.488281 116.132812 283.550781 118.511719 284.945312 C 119.308594 285.414062 120.179688 285.636719 121.039062 285.636719 C 122.753906 285.636719 124.421875 284.75 125.355469 283.164062 C 129.195312 276.621094 132.449219 269.683594 135.03125 262.546875 C 136.898438 257.371094 138.429688 252.042969 139.601562 246.652344 C 141.019531 247.269531 142.523438 247.949219 144.121094 248.699219 C 159.628906 255.972656 180.339844 267.679688 202.058594 281.289062 C 201.855469 284.328125 201.429688 287.363281 200.753906 290.332031 C 199.539062 295.714844 197.558594 300.921875 194.875 305.816406 C 193.542969 308.234375 194.429688 311.273438 196.851562 312.605469 C 197.613281 313.023438 198.441406 313.222656 199.253906 313.222656 C 201.019531 313.222656 202.730469 312.285156 203.640625 310.625 C 206.773438 304.917969 209.085938 298.832031 210.507812 292.542969 C 210.902344 290.800781 211.214844 289.039062 211.472656 287.265625 C 221.527344 293.734375 231.664062 300.527344 241.484375 307.394531 C 278.4375 333.253906 295.292969 349.339844 299.078125 355.5 Z M 19.441406 272.636719 C 23.382812 271.375 29.527344 269.425781 34.734375 267.84375 C 44.804688 264.785156 69.5 261.21875 69.746094 261.183594 C 72.113281 260.84375 73.910156 258.875 74.027344 256.484375 C 74.148438 254.097656 72.558594 251.957031 70.238281 251.382812 L 11.230469 236.757812 L 13.464844 228.941406 L 40.121094 237.640625 C 42.394531 238.382812 44.878906 237.410156 46.042969 235.316406 C 47.207031 233.226562 46.722656 230.605469 44.894531 229.0625 L 27.4375 214.351562 L 28.925781 212.714844 L 74.390625 244.789062 C 76.445312 246.238281 79.257812 245.9375 80.957031 244.082031 C 82.65625 242.230469 82.714844 239.398438 81.09375 237.480469 C 80.953125 237.308594 66.925781 220.609375 60.972656 206.902344 C 58.101562 200.277344 56.0625 195.019531 54.769531 191.507812 L 61.179688 189.824219 C 75.425781 221.507812 96.082031 248.597656 101.988281 256.050781 C 101.410156 258.167969 100.71875 260.261719 99.785156 262.253906 C 99.171875 263.558594 98.453125 264.8125 97.679688 266.027344 C 71.179688 266.816406 45.175781 270.882812 20.269531 278.152344 Z M 305.957031 185.632812 C 286.722656 180.371094 265.449219 176.316406 246.761719 179.894531 C 245.726562 175.859375 243.808594 172.238281 240.984375 169.105469 C 234.441406 161.839844 222.089844 158.328125 210.945312 160.574219 C 209.085938 160.949219 207.273438 161.445312 205.519531 162.03125 C 203.703125 156.503906 202.75 150.851562 202.671875 145.230469 C 202.976562 142.679688 203.136719 140.109375 203.109375 137.554688 C 203.753906 132.535156 205.089844 127.601562 207.152344 122.871094 C 208.828125 119.015625 210.851562 115.464844 213.15625 112.320312 C 222.707031 99.285156 237.769531 92.59375 255.550781 93.472656 C 256.078125 93.5 256.597656 93.511719 257.117188 93.511719 C 273.148438 93.507812 286.765625 81.328125 288.460938 65.152344 L 288.53125 64.5 C 290.75 42.597656 287.09375 29.289062 286.933594 28.734375 C 286.1875 26.082031 283.433594 24.542969 280.78125 25.28125 C 278.125 26.019531 276.574219 28.777344 277.308594 31.433594 C 277.339844 31.554688 280.589844 43.652344 278.578125 63.492188 L 278.519531 64.105469 C 277.320312 75.535156 267.425781 84.050781 256.042969 83.484375 C 234.796875 82.433594 216.695312 90.574219 205.09375 106.40625 C 202.417969 110.054688 200.085938 114.136719 198.140625 118.535156 C 192.535156 109.585938 177.582031 100.984375 165.179688 102.550781 C 156.324219 103.671875 148.152344 106.734375 142.621094 109.25 C 141.585938 102.816406 138.597656 93.273438 130.511719 82.074219 C 122.761719 71.335938 111.9375 64.953125 100.054688 64.105469 L 99.808594 64.089844 C 87.421875 63.277344 75.640625 69.828125 69.796875 80.785156 C 69.792969 80.785156 69.753906 80.867188 69.753906 80.867188 L 69.691406 80.984375 C 60.992188 97.53125 67.570312 113.519531 68.976562 116.558594 C 74.730469 128.972656 81.167969 136.5 85.863281 140.792969 C 80.789062 144.15625 73.730469 149.550781 68.007812 156.609375 C 67.214844 157.585938 66.472656 158.675781 65.800781 159.84375 C 64.421875 162.238281 65.246094 165.292969 67.640625 166.671875 C 70.035156 168.050781 73.089844 167.226562 74.46875 164.832031 C 74.875 164.121094 75.316406 163.476562 75.777344 162.90625 C 84.347656 152.332031 96.941406 145.78125 97.0625 145.714844 C 98.742188 144.859375 99.820312 143.136719 99.808594 141.246094 C 99.796875 139.359375 98.746094 137.652344 97.054688 136.8125 C 96.953125 136.757812 86.828125 131.292969 78.050781 112.355469 C 77.402344 110.953125 71.894531 98.28125 78.542969 85.636719 C 78.546875 85.628906 78.617188 85.496094 78.621094 85.488281 C 82.617188 77.992188 90.695312 73.511719 99.175781 74.066406 L 99.320312 74.078125 C 108.21875 74.714844 116.417969 79.632812 122.40625 87.929688 C 134.5 104.6875 133.089844 116.367188 133.085938 116.421875 C 132.777344 118.34375 133.613281 120.269531 135.226562 121.355469 C 136.835938 122.445312 138.9375 122.5 140.605469 121.496094 C 140.726562 121.421875 152.851562 114.1875 166.433594 112.472656 C 174.820312 111.417969 186.339844 118.019531 189.871094 124.171875 C 192 127.878906 192.957031 132.15625 193.140625 136.644531 C 192.792969 139.457031 192.632812 142.289062 192.664062 145.132812 C 190.375 161.253906 181.242188 177.1875 181.109375 177.414062 C 179.851562 179.570312 180.378906 182.324219 182.339844 183.867188 C 184.304688 185.40625 187.101562 185.265625 188.898438 183.53125 C 189.007812 183.425781 199.949219 172.988281 212.917969 170.375 C 221.582031 168.632812 230.015625 171.867188 233.554688 175.796875 C 235.324219 177.761719 236.496094 179.992188 237.125 182.539062 C 223.09375 187.695312 211.222656 198.410156 203.851562 217.933594 C 199.824219 228.597656 198 240.390625 198.570312 252.039062 C 198.703125 254.796875 201.070312 256.929688 203.808594 256.789062 C 206.566406 256.652344 208.691406 254.304688 208.554688 251.546875 C 208.054688 241.261719 209.660156 230.859375 213.207031 221.464844 C 219.347656 205.195312 228.894531 195.144531 243.285156 190.878906 C 243.746094 190.824219 244.183594 190.699219 244.597656 190.523438 C 259.007812 186.679688 278.113281 188.386719 303.316406 195.28125 C 352.625 208.765625 370.152344 228.273438 363.824219 262.613281 C 357.316406 297.894531 326.5 329.941406 280.007812 323.578125 C 271.832031 317.023438 262.160156 309.773438 251.34375 302.105469 C 234.320312 290.042969 216.277344 278.183594 199.164062 267.714844 L 170.566406 216.308594 C 170.5625 216.308594 170.5625 216.308594 170.5625 216.304688 L 152.671875 184.144531 L 165.820312 144.886719 C 166.699219 142.265625 165.289062 139.433594 162.671875 138.558594 C 160.054688 137.679688 157.214844 139.089844 156.339844 141.710938 L 146.089844 172.3125 L 127.378906 138.675781 C 126.035156 136.261719 122.988281 135.394531 120.574219 136.738281 C 118.164062 138.078125 117.296875 141.125 118.636719 143.539062 L 157.21875 212.890625 L 144.347656 211.730469 C 141.605469 211.476562 139.167969 213.511719 138.917969 216.261719 C 138.671875 219.011719 140.699219 221.441406 143.449219 221.691406 L 163.101562 223.460938 L 182.054688 257.539062 C 169.597656 250.339844 158.070312 244.199219 148.367188 239.644531 C 130.789062 231.398438 120.296875 229.347656 113.289062 232.785156 C 108.742188 235.019531 106.519531 239.054688 105.070312 243.601562 C 96.179688 231.65625 79.710938 207.871094 68.640625 181.941406 C 67.667969 179.660156 65.171875 178.441406 62.773438 179.066406 L 46.992188 183.210938 C 45.671875 183.558594 44.546875 184.433594 43.886719 185.628906 C 43.226562 186.828125 43.082031 188.246094 43.496094 189.550781 C 43.597656 189.878906 46.09375 197.730469 51.800781 210.882812 C 53.085938 213.839844 54.675781 216.878906 56.40625 219.863281 L 31.089844 202 C 29.027344 200.546875 26.207031 200.855469 24.507812 202.71875 L 16.542969 211.457031 C 15.625 212.464844 15.160156 213.796875 15.25 215.15625 C 15.339844 216.511719 15.976562 217.773438 17.015625 218.648438 L 18.816406 220.167969 L 11.636719 217.824219 C 10.34375 217.402344 8.9375 217.523438 7.738281 218.160156 C 6.539062 218.800781 5.648438 219.898438 5.277344 221.203125 L 0.191406 238.992188 C -0.179688 240.296875 -0.0078125 241.695312 0.671875 242.871094 C 1.351562 244.042969 2.480469 244.894531 3.796875 245.21875 L 44.496094 255.304688 C 39.691406 256.25 35.117188 257.277344 31.828125 258.277344 C 23.347656 260.851562 12.433594 264.382812 12.324219 264.417969 C 9.996094 265.171875 8.554688 267.5 8.921875 269.917969 L 11.242188 285.351562 C 11.457031 286.796875 12.296875 288.074219 13.53125 288.847656 C 14.335938 289.351562 15.257812 289.609375 16.183594 289.609375 C 16.6875 289.609375 17.191406 289.535156 17.679688 289.378906 C 40.945312 282.097656 65.257812 277.726562 90.097656 276.351562 C 86.847656 280.917969 84.382812 285.765625 85.757812 291.472656 C 87.589844 299.058594 95.871094 305.816406 113.453125 314.0625 C 139.285156 326.183594 184.101562 341.351562 227.628906 352.710938 C 248.375 358.125 266.464844 362.042969 279.9375 364.046875 C 286.945312 365.085938 292.261719 365.554688 296.324219 365.554688 C 304.707031 365.554688 307.734375 363.558594 309.175781 360.488281 C 311.855469 354.777344 307.480469 347.644531 293.574219 335.046875 C 293.335938 334.835938 293.082031 334.609375 292.839844 334.394531 C 337.574219 333.929688 366.972656 300.695312 373.65625 264.425781 C 383.035156 213.566406 342.402344 195.601562 305.957031 185.632812 " fill-opacity="1" fill-rule="nonzero"/></g><path fill="#ffcec8" d="M 291.558594 304.363281 C 288.824219 304.75 286.921875 307.28125 287.304688 310.011719 C 287.660156 312.511719 289.800781 314.316406 292.25 314.316406 C 292.484375 314.316406 292.71875 314.300781 292.957031 314.265625 C 293.535156 314.183594 294.15625 314.105469 294.8125 314.019531 C 303.578125 312.902344 319.890625 310.816406 335.941406 291.300781 C 343.136719 282.558594 348.046875 272.109375 350.335938 266.664062 C 351.40625 264.117188 350.210938 261.183594 347.664062 260.117188 C 345.125 259.046875 342.1875 260.242188 341.121094 262.789062 C 339.042969 267.734375 334.605469 277.191406 328.222656 284.949219 C 314.6875 301.402344 301.964844 303.027344 293.546875 304.101562 C 292.84375 304.191406 292.179688 304.277344 291.558594 304.363281 " fill-opacity="1" fill-rule="nonzero"/><path fill="#ffcec8" d="M 280.757812 205.855469 C 279.199219 203.574219 276.085938 202.992188 273.808594 204.550781 C 271.527344 206.105469 270.945312 209.21875 272.503906 211.5 C 275.160156 215.386719 279.890625 220.746094 287.324219 224.203125 C 292.496094 226.609375 297.539062 227.429688 302.015625 227.429688 C 309.546875 227.429688 315.488281 225.101562 317.769531 224.0625 C 320.277344 222.914062 321.382812 219.945312 320.234375 217.433594 C 319.085938 214.921875 316.125 213.820312 313.609375 214.96875 C 310.957031 216.179688 301.527344 219.777344 291.542969 215.136719 C 286.164062 212.636719 282.710938 208.707031 280.757812 205.855469 " fill-opacity="1" fill-rule="nonzero"/><path fill="#ffcec8" d="M 290.691406 207.246094 C 297.183594 207.195312 302.089844 208.488281 305.316406 211.03125 C 306.230469 211.75 307.324219 212.101562 308.40625 212.101562 C 309.886719 212.101562 311.351562 211.449219 312.335938 210.199219 C 314.046875 208.027344 313.675781 204.886719 311.507812 203.175781 C 306.515625 199.242188 299.597656 197.246094 290.929688 197.246094 C 290.835938 197.246094 290.738281 197.25 290.640625 197.25 C 287.878906 197.261719 285.652344 199.511719 285.667969 202.273438 C 285.679688 205.027344 287.914062 207.246094 290.664062 207.246094 C 290.671875 207.246094 290.683594 207.246094 290.691406 207.246094 " fill-opacity="1" fill-rule="nonzero"/><path fill="#ffcec8" d="M 305.332031 71.820312 L 304.902344 72.308594 C 293.859375 84.96875 294.589844 104.027344 306.566406 115.699219 C 321.3125 130.066406 326.011719 148.105469 319.800781 166.492188 C 319.28125 168.039062 318.671875 169.613281 317.996094 171.164062 C 316.894531 173.695312 318.050781 176.644531 320.585938 177.746094 C 321.234375 178.027344 321.910156 178.164062 322.578125 178.164062 C 324.503906 178.164062 326.34375 177.039062 327.164062 175.15625 C 327.953125 173.34375 328.664062 171.503906 329.277344 169.691406 C 336.675781 147.777344 330.941406 125.488281 313.546875 108.535156 C 305.371094 100.566406 304.882812 87.542969 312.433594 78.886719 L 312.84375 78.417969 C 326.003906 63.4375 337.078125 57.582031 337.191406 57.523438 C 339.636719 56.257812 340.601562 53.25 339.34375 50.796875 C 338.082031 48.34375 335.070312 47.371094 332.613281 48.632812 C 332.097656 48.898438 319.859375 55.28125 305.332031 71.820312 " fill-opacity="1" fill-rule="nonzero"/><path fill="#ffcec8" d="M 297.234375 68.441406 C 297.773438 68.628906 298.324219 68.71875 298.867188 68.71875 C 300.941406 68.71875 302.875 67.417969 303.589844 65.347656 C 306.726562 56.273438 309.242188 46.890625 311.070312 37.464844 C 313.121094 26.890625 314.339844 16.074219 314.699219 5.308594 C 314.792969 2.546875 312.628906 0.238281 309.871094 0.144531 C 307.085938 0.0429688 304.796875 2.214844 304.707031 4.972656 C 304.363281 15.214844 303.203125 25.503906 301.253906 35.5625 C 299.515625 44.527344 297.121094 53.453125 294.140625 62.082031 C 293.238281 64.695312 294.625 67.542969 297.234375 68.441406 " fill-opacity="1" fill-rule="nonzero"/><path fill="#ffcec8" d="M 218.0625 136.0625 C 215.335938 135.640625 212.78125 137.507812 212.355469 140.234375 C 211.652344 144.738281 211.488281 149.355469 211.867188 153.957031 C 212.082031 156.570312 214.265625 158.546875 216.84375 158.546875 C 216.980469 158.546875 217.121094 158.542969 217.257812 158.53125 C 220.011719 158.304688 222.058594 155.890625 221.832031 153.136719 C 221.519531 149.324219 221.652344 145.496094 222.234375 141.773438 C 222.660156 139.042969 220.792969 136.488281 218.0625 136.0625 " fill-opacity="1" fill-rule="nonzero"/><path fill="#ffcec8" d="M 226.738281 127.816406 C 230.347656 120.792969 235.589844 115.457031 241.890625 112.390625 C 244.375 111.179688 245.40625 108.191406 244.199219 105.707031 C 242.992188 103.226562 239.996094 102.191406 237.511719 103.398438 C 229.253906 107.417969 222.453125 114.28125 217.84375 123.246094 C 216.582031 125.703125 217.550781 128.714844 220.003906 129.976562 C 220.738281 130.355469 221.519531 130.53125 222.285156 130.53125 C 224.101562 130.53125 225.851562 129.542969 226.738281 127.816406 " fill-opacity="1" fill-rule="nonzero"/><path fill="#ffcec8" d="M 301.726562 170.929688 C 302.359375 171.195312 303.015625 171.320312 303.660156 171.320312 C 305.613281 171.320312 307.46875 170.171875 308.273438 168.257812 C 311.625 160.289062 312.945312 151.613281 312.195312 142.46875 C 311.90625 138.910156 311.265625 135.355469 310.285156 131.902344 C 309.53125 129.246094 306.769531 127.703125 304.113281 128.457031 C 301.457031 129.210938 299.910156 131.972656 300.664062 134.628906 C 301.464844 137.457031 301.992188 140.367188 302.230469 143.28125 C 302.847656 150.8125 301.777344 157.910156 299.054688 164.378906 C 297.984375 166.925781 299.179688 169.859375 301.726562 170.929688 " fill-opacity="1" fill-rule="nonzero"/><path fill="#ffcec8" d="M 273.371094 160.375 C 272.054688 163.460938 270.445312 166.503906 268.589844 169.417969 C 267.109375 171.746094 267.792969 174.835938 270.125 176.320312 C 270.957031 176.851562 271.886719 177.101562 272.804688 177.101562 C 274.457031 177.101562 276.074219 176.285156 277.027344 174.785156 C 279.171875 171.414062 281.035156 167.890625 282.566406 164.304688 C 283.652344 161.765625 282.476562 158.828125 279.933594 157.742188 C 277.394531 156.65625 274.457031 157.835938 273.371094 160.375 " fill-opacity="1" fill-rule="nonzero"/><path fill="#ffcec8" d="M 262.910156 127.496094 C 260.421875 126.300781 257.433594 127.34375 256.234375 129.832031 C 251.421875 139.820312 249.5625 147.203125 248.765625 150.355469 L 248.585938 151.0625 C 247.882812 153.734375 249.480469 156.46875 252.152344 157.167969 C 252.578125 157.28125 253.003906 157.335938 253.425781 157.335938 C 255.644531 157.335938 257.667969 155.847656 258.257812 153.601562 L 258.464844 152.800781 C 259.183594 149.941406 260.871094 143.246094 265.242188 134.171875 C 266.441406 131.683594 265.394531 128.695312 262.910156 127.496094 " fill-opacity="1" fill-rule="nonzero"/><path fill="#ffcec8" d="M 281.804688 90.140625 C 278.085938 97.769531 275.320312 100.632812 272.648438 103.402344 C 270.066406 106.074219 267.402344 108.835938 264.835938 114.722656 C 263.734375 117.253906 264.890625 120.203125 267.421875 121.304688 C 268.074219 121.589844 268.75 121.722656 269.417969 121.722656 C 271.347656 121.722656 273.183594 120.601562 274.003906 118.71875 C 275.847656 114.484375 277.523438 112.75 279.839844 110.347656 C 282.753906 107.328125 286.378906 103.574219 290.792969 94.523438 C 292.003906 92.039062 290.972656 89.046875 288.488281 87.835938 C 286.011719 86.628906 283.015625 87.65625 281.804688 90.140625 " fill-opacity="1" fill-rule="nonzero"/><path fill="#ffcec8" d="M 99.078125 225.132812 C 100.035156 226.621094 101.644531 227.429688 103.289062 227.429688 C 104.21875 227.429688 105.152344 227.175781 105.988281 226.636719 C 114.351562 221.265625 123.835938 219.5625 123.921875 219.546875 C 126.457031 219.113281 128.25 216.828125 128.066406 214.265625 C 127.886719 211.703125 125.789062 209.691406 123.21875 209.621094 C 123.078125 209.617188 109.253906 209.1875 95.691406 204.671875 C 93.070312 203.800781 90.242188 205.21875 89.367188 207.839844 C 88.496094 210.457031 89.914062 213.289062 92.53125 214.160156 C 95.984375 215.308594 99.433594 216.21875 102.699219 216.9375 C 101.992188 217.34375 101.285156 217.773438 100.582031 218.222656 C 98.261719 219.71875 97.585938 222.8125 99.078125 225.132812 " fill-opacity="1" fill-rule="nonzero"/></svg>