<svg xmlns="http://www.w3.org/2000/svg" xmlns:xlink="http://www.w3.org/1999/xlink" width="500" zoomAndPan="magnify" viewBox="0 0 375 374.999991" height="500" preserveAspectRatio="xMidYMid meet" version="1.0"><path fill="#e12c2c" d="M 275.113281 149.496094 C 278.59375 145.308594 282.515625 140.585938 285.058594 131.039062 C 287.972656 120.121094 286.902344 107.660156 286.066406 96.539062 C 285.664062 91.179688 285.160156 85.820312 284.257812 80.527344 C 283.789062 77.644531 281.207031 68.667969 278.292969 75.167969 C 275.78125 80.761719 276.117188 89.070312 275.445312 95.03125 C 275.847656 91.515625 275.648438 87.660156 275.511719 84.109375 C 275.378906 81.164062 275.613281 73.828125 272.433594 72.121094 C 266.601562 68.96875 265.164062 95.96875 264.863281 99.25 C 264.660156 92.988281 265.0625 86.722656 264.726562 80.460938 C 264.59375 77.78125 264.558594 74.566406 263.253906 72.152344 C 262.28125 70.378906 263.21875 68.097656 262.984375 66.15625 C 261.980469 57.683594 253.640625 54.601562 246.238281 53.761719 C 245.332031 53.664062 235.25 52.757812 235.25 52.558594 C 235.585938 44.183594 233.777344 34.902344 229.855469 26.695312 C 224.164062 14.839844 215.019531 6.765625 204.03125 3.984375 C 188.253906 0 168.523438 3.886719 153.75 13.933594 C 144.707031 20.066406 133.453125 31.285156 131.039062 49.742188 C 128.628906 68.46875 137.941406 81.902344 149.164062 91.179688 C 140.417969 95.566406 135.292969 104.140625 135.292969 114.863281 C 135.292969 117.742188 135.730469 120.757812 136.632812 124.339844 C 140.417969 139.28125 149.027344 151.574219 157.371094 163.5 C 158.242188 164.738281 159.109375 165.976562 159.980469 167.21875 C 155.324219 168.1875 151.003906 169.394531 147.085938 170.769531 C 143.402344 163.53125 140.117188 156.734375 138.746094 153.183594 C 137.035156 148.726562 136.398438 143.703125 135.765625 138.375 C 134.992188 132.078125 134.121094 124.910156 131.242188 117.375 C 127.488281 107.558594 117.472656 90.910156 107.792969 86.390625 C 104.042969 84.613281 99.519531 85.417969 96.570312 88.398438 C 89.804688 95.164062 87.027344 104.34375 88.566406 114.894531 C 90.8125 130.269531 102.199219 146.25 110.976562 150.972656 C 117.207031 154.320312 126.820312 166.582031 134.691406 177.667969 C 131.34375 179.8125 127.390625 182.457031 126.550781 186.644531 C 125.511719 191.90625 128.828125 197.03125 131.34375 201.351562 C 136.03125 209.355469 140.453125 216.925781 131.308594 225.738281 C 126.015625 230.828125 124.777344 239.707031 123.9375 246.605469 C 122.632812 257.390625 122.867188 268.34375 123.4375 279.164062 C 124.441406 298.226562 126.785156 317.21875 129.902344 336.042969 C 132.75 353.195312 156.128906 362.640625 170.96875 366.792969 C 200.277344 375 233.308594 371.015625 259.503906 355.4375 C 264.023438 352.722656 269.417969 350.378906 273 346.292969 C 275.546875 343.378906 275.144531 339.996094 275.3125 336.378906 C 275.714844 327.703125 276.082031 318.992188 276.417969 310.316406 C 277.289062 288.746094 278.226562 267.171875 278.496094 245.601562 C 278.5625 241.144531 278.929688 236.421875 278.226562 232 C 276.988281 224.328125 269.082031 219.773438 268.8125 211.902344 C 268.648438 206.609375 272.902344 202.054688 276.652344 198.035156 C 278.996094 195.523438 281.007812 193.378906 281.742188 191.203125 C 282.449219 189.125 283.152344 185.976562 281.34375 182.425781 C 279.265625 178.304688 274.273438 174.886719 266.570312 172.207031 C 267.640625 166.246094 268.78125 160.652344 269.851562 157.671875 C 270.992188 154.421875 272.902344 152.144531 275.113281 149.496094 Z M 264.996094 121.996094 C 266.601562 120.722656 267.238281 117.171875 269.28125 98.347656 C 269.753906 93.960938 270.320312 88.765625 270.890625 84.414062 C 271.191406 90.375 271.292969 97.980469 271.359375 103.472656 C 271.425781 107.792969 271.492188 111.847656 271.59375 114.761719 C 271.761719 119.28125 271.828125 121.527344 274.242188 121.527344 C 276.519531 121.527344 276.785156 119.484375 277.589844 113.453125 C 278.09375 109.667969 278.664062 104.679688 279.265625 99.386719 C 279.734375 95.230469 280.269531 90.410156 280.804688 86.222656 C 282.3125 98.816406 283.621094 119.917969 280.972656 129.902344 C 278.695312 138.511719 275.042969 142.863281 271.863281 146.71875 C 269.484375 149.566406 267.273438 152.246094 265.867188 156.128906 C 262.953125 164.269531 259.535156 189.292969 258.964844 193.746094 C 257.191406 194.753906 255.011719 195.757812 252.402344 196.660156 C 253.90625 187.148438 257.457031 162.058594 253.707031 153.984375 C 252.769531 151.976562 251.53125 149.898438 250.191406 147.6875 C 245.230469 139.480469 239.101562 129.265625 241.816406 111.210938 C 244.027344 96.4375 246.40625 85.851562 248.179688 79.824219 C 248.3125 84.980469 248.28125 92.21875 248.28125 98.148438 C 248.214844 118.8125 248.414062 120.691406 249.519531 121.796875 C 249.921875 122.199219 250.523438 122.464844 251.09375 122.464844 C 253.339844 122.464844 253.707031 120.121094 254.277344 116.269531 C 254.710938 113.523438 255.148438 109.804688 255.71875 105.515625 C 256.753906 97.308594 258.496094 83.375 260.238281 77.175781 C 260.84375 82.703125 260.675781 93.792969 260.539062 101.027344 C 260.238281 119.683594 260.371094 122.0625 263.21875 122.433594 C 263.824219 122.597656 264.460938 122.398438 264.996094 121.996094 Z M 246.503906 149.933594 C 247.777344 152.042969 248.949219 154.019531 249.789062 155.828125 C 250.828125 158.039062 251.128906 162.261719 251.0625 167.285156 C 247.980469 166.75 244.664062 166.246094 241.113281 165.84375 C 242.519531 161.457031 244.226562 155.761719 246.035156 149.195312 C 246.203125 149.429688 246.371094 149.699219 246.503906 149.933594 Z M 239.839844 169.964844 C 243.824219 170.433594 247.542969 170.96875 250.925781 171.570312 C 250.894531 172.140625 250.859375 172.675781 250.828125 173.246094 C 247.277344 172.410156 243.492188 171.671875 239.503906 171.070312 C 239.605469 170.703125 239.707031 170.332031 239.839844 169.964844 Z M 238.296875 175.191406 C 242.621094 175.859375 246.707031 176.628906 250.492188 177.535156 C 249.789062 185.304688 248.648438 193.179688 247.84375 198.035156 C 244.898438 198.804688 241.515625 199.476562 237.695312 200.042969 C 236.253906 200.246094 234.746094 200.445312 233.207031 200.613281 C 233.542969 196.660156 234.714844 187.984375 238.296875 175.191406 Z M 234.816406 56.777344 C 236.992188 57.011719 240.8125 57.480469 241.949219 57.582031 L 243.589844 57.75 C 252.835938 58.753906 259.636719 59.457031 259.03125 70.78125 C 256.488281 72.320312 254.945312 78.550781 252.5 96.90625 C 252.535156 91.113281 252.535156 85.214844 252.433594 80.695312 C 252.265625 72.789062 251.964844 70.746094 249.789062 70.410156 C 249.085938 70.308594 248.382812 70.476562 247.777344 70.914062 C 243.257812 74.195312 238.464844 104.578125 237.5625 110.640625 C 235.25 125.914062 238.933594 136.234375 243.054688 143.96875 C 240.777344 152.378906 238.667969 159.613281 236.957031 164.871094 C 236.757812 165.441406 236.589844 166.011719 236.421875 166.546875 C 236.253906 166.816406 236.15625 167.082031 236.121094 167.417969 C 236.121094 167.453125 236.121094 167.484375 236.121094 167.519531 C 230.558594 185.304688 229.1875 196.761719 228.851562 201.082031 C 226.273438 201.285156 223.59375 201.453125 220.8125 201.585938 C 220.644531 201.050781 220.445312 200.378906 220.242188 199.574219 C 220.8125 195.421875 224.800781 165.644531 222.890625 155.257812 C 222.6875 154.1875 222.421875 152.679688 222.050781 150.804688 C 219.941406 139.683594 215.585938 116.703125 213.34375 96.671875 C 220.007812 88.164062 227.011719 77.445312 232.167969 66.289062 C 233.476562 63.410156 234.34375 60.195312 234.816406 56.777344 Z M 212.941406 173.011719 C 214.882812 173.078125 216.828125 173.148438 218.734375 173.246094 C 218.367188 178.707031 217.796875 184.367188 217.261719 189.023438 C 215.957031 184.367188 214.449219 178.90625 212.941406 173.011719 Z M 209.589844 101.195312 C 211.96875 120.320312 215.890625 141.089844 217.863281 151.507812 C 218.234375 153.382812 218.5 154.890625 218.703125 155.929688 C 219.070312 157.90625 219.171875 160.753906 219.136719 164 C 217.261719 163.902344 215.351562 163.835938 213.375 163.765625 C 212.4375 163.734375 211.5 163.699219 210.5625 163.667969 C 210.09375 161.757812 209.625 159.847656 209.15625 157.90625 C 198.839844 114.960938 201.988281 109.234375 202.722656 108.53125 C 204.835938 106.554688 207.144531 104.042969 209.589844 101.195312 Z M 211.632812 167.988281 C 212.171875 168.019531 212.671875 168.019531 213.210938 168.019531 C 215.183594 168.089844 217.128906 168.1875 219.003906 168.257812 C 219.003906 168.492188 218.96875 168.726562 218.96875 168.925781 C 216.59375 168.792969 214.214844 168.726562 211.800781 168.65625 C 211.769531 168.457031 211.703125 168.222656 211.632812 167.988281 Z M 135.261719 50.3125 C 137.4375 33.398438 147.824219 23.113281 156.128906 17.484375 C 169.929688 8.105469 188.320312 4.421875 202.992188 8.140625 C 212.707031 10.585938 220.878906 17.855469 225.972656 28.507812 C 231.632812 40.398438 232.605469 55.167969 228.316406 64.449219 C 220.476562 81.398438 208.320312 97.277344 199.777344 105.515625 C 197.933594 107.292969 193.613281 111.445312 205.003906 158.976562 C 209.089844 176.0625 213.8125 192.742188 215.988281 200.246094 C 215.988281 200.246094 215.988281 200.246094 215.988281 200.277344 C 216.15625 200.816406 216.289062 201.285156 216.390625 201.71875 C 212.605469 201.820312 208.753906 201.851562 204.835938 201.785156 C 203.929688 195.925781 200.847656 176.09375 196.863281 156.097656 C 187.113281 107.125 181.820312 104.8125 179.578125 103.808594 L 178.472656 103.304688 C 174.183594 101.460938 166.714844 98.214844 159.179688 93.257812 C 159.179688 93.257812 159.144531 93.222656 159.144531 93.222656 C 157.671875 92.25 156.164062 91.210938 154.691406 90.105469 C 154.65625 90.074219 154.589844 90.039062 154.554688 90.007812 C 143.097656 81.332031 132.917969 68.5 135.261719 50.3125 Z M 161.019531 197.433594 C 159.78125 195.085938 155.796875 187.617188 151.472656 179.277344 C 153.351562 178.574219 154.855469 178.171875 155.160156 178.070312 C 158.777344 177.367188 162.359375 176.730469 165.976562 176.160156 C 169.730469 182.058594 173.113281 188.21875 175.625 194.820312 C 175.660156 195.085938 175.691406 195.355469 175.757812 195.621094 C 175.925781 196.257812 176.0625 197.0625 176.261719 197.96875 C 176.394531 198.570312 176.53125 199.242188 176.664062 199.945312 C 170.9375 199.273438 165.675781 198.4375 161.019531 197.433594 Z M 166.210938 159.179688 C 162.394531 152.109375 158.441406 144.808594 154.65625 136.601562 C 151.070312 128.863281 148.960938 119.082031 149.027344 110.40625 C 149.0625 105.550781 150 99.152344 154.054688 94.929688 C 154.554688 95.265625 155.058594 95.632812 155.527344 95.96875 C 152.914062 104.445312 152.378906 113.722656 154.1875 121.09375 C 156.933594 132.378906 158.675781 136.5 161.859375 144.003906 C 162.660156 145.878906 163.566406 148.023438 164.605469 150.535156 L 166.816406 155.894531 C 168.1875 159.210938 169.496094 162.359375 170.734375 165.410156 C 170.367188 165.441406 170.03125 165.507812 169.664062 165.542969 C 168.492188 163.433594 167.351562 161.320312 166.210938 159.179688 Z M 161.890625 99.921875 C 164.203125 106.519531 167.753906 120.621094 169.160156 127.925781 C 170.332031 133.953125 171.335938 140.085938 172.308594 146.015625 C 173.3125 152.175781 174.351562 158.507812 175.625 164.804688 C 175.425781 164.839844 175.222656 164.839844 175.054688 164.871094 C 173.683594 161.457031 172.242188 158.003906 170.703125 154.253906 L 168.492188 148.894531 C 167.453125 146.382812 166.546875 144.238281 165.742188 142.328125 C 162.660156 135.058594 160.953125 131.039062 158.308594 120.085938 C 156.765625 113.757812 157.136719 105.816406 159.277344 98.382812 C 160.148438 98.917969 161.054688 99.453125 161.890625 99.921875 Z M 189.425781 168.054688 C 191.203125 167.988281 193.011719 167.921875 194.851562 167.886719 C 194.917969 168.222656 194.988281 168.589844 195.054688 168.925781 C 193.210938 169.027344 191.335938 169.125 189.460938 169.261719 C 189.425781 168.859375 189.425781 168.457031 189.425781 168.054688 Z M 189.492188 163.800781 C 189.628906 160.117188 189.894531 155.628906 190.128906 150.871094 C 190.230469 149.195312 190.296875 147.519531 190.398438 145.847656 C 191.132812 149.230469 191.90625 152.878906 192.675781 156.867188 C 193.109375 159.144531 193.578125 161.390625 193.980469 163.632812 C 192.507812 163.699219 191 163.734375 189.492188 163.800781 Z M 185.910156 150.636719 C 185.640625 155.558594 185.371094 160.214844 185.238281 164 C 185.207031 164 185.171875 164 185.171875 164 C 185.003906 162.292969 184.835938 160.585938 184.703125 158.777344 L 182.324219 131.207031 C 181.65625 123.671875 179.980469 115.128906 177.667969 107.558594 L 177.9375 107.660156 C 178.640625 107.960938 181.621094 110.441406 186.8125 130.4375 C 186.710938 135.832031 186.3125 143.335938 185.910156 150.636719 Z M 172.410156 105.28125 C 175.15625 113.289062 177.300781 123.269531 178.035156 131.609375 L 180.414062 159.179688 C 180.582031 160.953125 180.71875 162.660156 180.882812 164.335938 C 180.550781 164.371094 180.214844 164.402344 179.914062 164.402344 C 178.640625 158.003906 177.566406 151.574219 176.53125 145.308594 C 175.558594 139.347656 174.519531 133.21875 173.347656 127.121094 C 172.140625 120.890625 169.496094 110.238281 167.285156 102.835938 C 169.125 103.742188 170.867188 104.542969 172.410156 105.28125 Z M 181.085938 200.414062 C 180.816406 199.207031 180.582031 198.136719 180.382812 197.128906 C 180.179688 196.160156 180.011719 195.320312 179.847656 194.617188 C 179.777344 194.382812 179.914062 194.148438 180.148438 194.046875 C 185.070312 192.074219 187.984375 191.871094 188.855469 192.074219 C 189.191406 193.109375 190.195312 196.425781 191.535156 201.21875 C 187.984375 201.050781 184.46875 200.75 181.085938 200.414062 Z M 196.058594 201.484375 C 194.382812 195.554688 193.011719 190.933594 192.777344 190.296875 C 192.742188 190.164062 192.675781 190.027344 192.574219 189.894531 C 191.101562 184.234375 190.0625 179.140625 189.628906 173.515625 C 191.703125 173.382812 193.746094 173.246094 195.789062 173.179688 C 198.101562 186.007812 199.84375 196.964844 200.546875 201.6875 C 199.039062 201.617188 197.53125 201.550781 196.058594 201.484375 Z M 160.851562 161.054688 C 152.378906 148.929688 144.371094 137.472656 140.753906 123.304688 C 139.949219 120.085938 139.550781 117.40625 139.550781 114.894531 C 139.550781 107.59375 142.363281 101.496094 147.285156 97.476562 C 145.34375 101.765625 144.773438 106.519531 144.742188 110.40625 C 144.675781 119.683594 146.917969 130.136719 150.769531 138.410156 C 154.621094 146.71875 158.609375 154.085938 162.460938 161.222656 C 163.367188 162.929688 164.269531 164.605469 165.175781 166.28125 C 164.972656 166.3125 164.773438 166.347656 164.539062 166.378906 C 163.296875 164.570312 162.09375 162.828125 160.851562 161.054688 Z M 162.59375 171.035156 C 162.863281 171.4375 163.164062 171.875 163.433594 172.277344 C 160.382812 172.777344 157.335938 173.3125 154.253906 173.917969 C 154.21875 173.917969 154.1875 173.949219 154.121094 173.949219 C 154.019531 173.984375 152.042969 174.488281 149.496094 175.492188 C 149.363281 175.191406 149.195312 174.921875 149.0625 174.621094 C 153.113281 173.214844 157.636719 172.007812 162.59375 171.035156 Z M 112.984375 147.1875 C 106.019531 143.433594 94.929688 129.0625 92.753906 114.226562 C 91.378906 104.914062 93.691406 97.242188 99.554688 91.347656 C 101.261719 89.636719 103.808594 89.203125 105.953125 90.207031 C 113.386719 93.691406 123.136719 108.128906 127.253906 118.847656 C 129.933594 125.914062 130.738281 132.515625 131.507812 138.84375 C 132.179688 144.441406 132.816406 149.730469 134.757812 154.691406 C 137.90625 162.828125 150.335938 186.410156 155.460938 196.058594 C 153.953125 195.621094 152.546875 195.1875 151.238281 194.71875 C 148.191406 189.828125 125.414062 153.886719 112.984375 147.1875 Z M 277.558594 184.300781 C 278.628906 186.410156 278.226562 188.253906 277.722656 189.792969 C 277.289062 191.101562 275.480469 193.042969 273.570312 195.085938 C 269.449219 199.476562 264.359375 204.96875 264.59375 212.003906 C 264.792969 217.796875 267.40625 221.148438 269.71875 224.09375 C 271.628906 226.539062 273.46875 228.886719 274.074219 232.636719 C 275.144531 239.371094 274.308594 246.839844 274.140625 253.605469 C 273.839844 266.636719 273.402344 279.699219 272.902344 292.730469 C 272.433594 305.125 271.492188 317.71875 271.394531 330.179688 C 271.359375 334.066406 272.128906 338.355469 270.054688 341.90625 C 268.613281 344.351562 266.203125 345.925781 263.824219 347.398438 C 261.34375 348.9375 258.964844 350.679688 256.453125 352.15625 C 251.363281 355.101562 246.035156 357.613281 240.542969 359.660156 C 227.011719 364.714844 212.472656 366.996094 198.035156 366.492188 C 186.476562 366.089844 174.921875 364.078125 164.136719 359.925781 C 154.421875 356.175781 142.363281 350.113281 136.433594 341.167969 C 132.984375 335.941406 132.882812 329.277344 132.113281 323.246094 C 129.0625 299.328125 125.648438 274.476562 127.757812 250.355469 C 128.328125 243.558594 128.964844 233.875 134.257812 228.785156 C 145.847656 217.664062 139.851562 207.414062 135.027344 199.171875 C 132.113281 194.183594 129.566406 189.828125 131.109375 186.242188 C 131.410156 185.808594 133.015625 183.699219 137.136719 181.152344 C 137.605469 181.820312 138.042969 182.492188 138.511719 183.128906 C 137.136719 185.441406 136.300781 189.257812 140.6875 193.648438 C 147.957031 200.914062 161.1875 202.089844 170.835938 203.394531 C 195.457031 206.777344 222.121094 207.882812 246.570312 202.589844 C 254.578125 200.847656 267.507812 197.296875 269.519531 187.785156 C 270.289062 184.199219 268.78125 180.71875 265.53125 178.171875 C 265.632812 177.601562 265.734375 177 265.832031 176.429688 C 272.03125 178.640625 276.050781 181.351562 277.558594 184.300781 Z M 151.070312 217.664062 C 151.070312 224.964844 148.390625 228.585938 145.542969 232.4375 C 143.636719 235.050781 141.625 237.730469 139.917969 242.015625 C 137.972656 246.90625 137.972656 260.976562 137.972656 267.003906 L 137.972656 267.640625 C 137.972656 281.074219 138.242188 291.425781 139.683594 304.554688 C 139.816406 305.726562 138.980469 306.765625 137.808594 306.898438 C 137.738281 306.898438 137.640625 306.898438 137.574219 306.898438 C 136.5 306.898438 135.5625 306.097656 135.460938 304.992188 C 134.023438 291.660156 133.753906 281.207031 133.753906 267.640625 L 133.753906 267.003906 C 133.753906 260.207031 133.753906 246.101562 135.964844 240.441406 C 137.875 235.617188 140.117188 232.570312 142.128906 229.890625 C 144.839844 226.207031 146.816406 223.558594 146.816406 217.664062 C 146.816406 216.492188 147.753906 215.519531 148.960938 215.519531 C 150.101562 215.554688 151.070312 216.492188 151.070312 217.664062 Z M 262.953125 223.894531 C 270.65625 231.867188 270.121094 243.792969 269.652344 254.308594 C 269.550781 256.855469 269.417969 259.234375 269.417969 261.511719 C 269.417969 269.015625 269.015625 276.753906 268.578125 284.925781 C 268.210938 291.859375 267.84375 298.996094 267.707031 306.5 C 267.675781 307.671875 266.738281 308.574219 265.566406 308.574219 C 265.566406 308.574219 265.53125 308.574219 265.53125 308.574219 C 264.359375 308.542969 263.421875 307.570312 263.453125 306.398438 C 263.621094 298.828125 263.992188 291.625 264.359375 284.691406 C 264.792969 276.585938 265.195312 268.914062 265.195312 261.476562 C 265.195312 259.101562 265.296875 256.65625 265.429688 254.074219 C 265.898438 243.925781 266.367188 233.441406 259.9375 226.808594 C 259.132812 225.972656 259.132812 224.597656 259.972656 223.792969 C 260.808594 223.023438 262.148438 223.058594 262.953125 223.894531 Z M 125.847656 127.054688 C 126.117188 128.195312 125.378906 129.332031 124.242188 129.601562 C 124.074219 129.632812 123.9375 129.667969 123.773438 129.667969 C 122.800781 129.667969 121.929688 128.996094 121.695312 127.992188 C 119.820312 119.550781 112.851562 106.789062 104.914062 100.894531 C 103.976562 100.191406 103.773438 98.851562 104.476562 97.910156 C 105.179688 96.972656 106.519531 96.773438 107.457031 97.476562 C 116.269531 104.042969 123.738281 117.675781 125.847656 127.054688 Z M 222.921875 128.09375 C 224.0625 127.824219 225.199219 128.5625 225.46875 129.699219 C 227.914062 140.351562 229.121094 147.421875 229.523438 153.351562 C 230.492188 167.652344 228.652344 180.851562 226.507812 192.976562 C 226.339844 194.015625 225.433594 194.753906 224.398438 194.753906 C 224.261719 194.753906 224.164062 194.753906 224.027344 194.71875 C 222.855469 194.519531 222.085938 193.414062 222.285156 192.238281 C 224.363281 180.382812 226.171875 167.484375 225.234375 153.652344 C 224.867188 147.957031 223.660156 141.054688 221.28125 130.636719 C 221.046875 129.5 221.785156 128.359375 222.921875 128.09375 Z M 257.726562 206.609375 C 258.261719 207.648438 257.859375 208.953125 256.789062 209.492188 C 248.28125 213.84375 238.835938 214.816406 229.691406 215.722656 C 228.617188 215.820312 227.578125 215.921875 226.539062 216.054688 C 217.597656 217.027344 208.585938 217.496094 199.675781 217.496094 C 196.929688 217.496094 194.214844 217.464844 191.503906 217.363281 C 182.15625 217.0625 172.878906 215.386719 163.902344 213.777344 C 161.1875 213.308594 158.476562 212.808594 155.796875 212.371094 C 154.621094 212.171875 153.851562 211.097656 154.054688 209.925781 C 154.253906 208.753906 155.359375 207.984375 156.5 208.183594 C 159.210938 208.621094 161.957031 209.121094 164.671875 209.625 C 173.515625 211.199219 182.660156 212.839844 191.671875 213.140625 C 202.992188 213.511719 214.582031 213.109375 226.105469 211.867188 C 227.175781 211.769531 228.214844 211.632812 229.289062 211.535156 C 238.03125 210.628906 247.074219 209.726562 254.878906 205.738281 C 255.917969 205.136719 257.191406 205.539062 257.726562 206.609375 Z M 215.957031 50.582031 C 215.957031 48.972656 217.261719 47.667969 218.871094 47.667969 C 220.476562 47.667969 221.785156 48.972656 221.785156 50.582031 C 221.785156 52.1875 220.476562 53.496094 218.871094 53.496094 C 217.261719 53.496094 215.957031 52.1875 215.957031 50.582031 Z M 209.960938 34.46875 C 209.960938 32.859375 211.265625 31.554688 212.875 31.554688 C 214.480469 31.554688 215.789062 32.859375 215.789062 34.46875 C 215.789062 36.078125 214.480469 37.382812 212.875 37.382812 C 211.265625 37.382812 209.960938 36.078125 209.960938 34.46875 Z M 203.996094 18.324219 C 203.996094 16.714844 205.304688 15.410156 206.910156 15.410156 C 208.519531 15.410156 209.824219 16.714844 209.824219 18.324219 C 209.824219 19.929688 208.519531 21.238281 206.910156 21.238281 C 205.304688 21.238281 203.996094 19.964844 203.996094 18.324219 Z M 203.996094 71.851562 C 203.996094 70.242188 205.304688 68.9375 206.910156 68.9375 C 208.519531 68.9375 209.824219 70.242188 209.824219 71.851562 C 209.824219 73.460938 208.519531 74.765625 206.910156 74.765625 C 205.304688 74.765625 203.996094 73.460938 203.996094 71.851562 Z M 146.816406 66.023438 C 146.816406 67.628906 145.511719 68.9375 143.902344 68.9375 C 142.296875 68.9375 140.988281 67.628906 140.988281 66.023438 C 140.988281 64.414062 142.296875 63.109375 143.902344 63.109375 C 145.511719 63.074219 146.816406 64.414062 146.816406 66.023438 Z M 153.351562 36.007812 C 153.351562 37.617188 152.042969 38.921875 150.433594 38.921875 C 148.828125 38.921875 147.519531 37.617188 147.519531 36.007812 C 147.519531 34.402344 148.828125 33.09375 150.433594 33.09375 C 152.042969 33.09375 153.351562 34.402344 153.351562 36.007812 Z M 153.484375 52.15625 C 153.484375 50.546875 154.789062 49.242188 156.398438 49.242188 C 158.003906 49.242188 159.3125 50.546875 159.3125 52.15625 C 159.3125 53.761719 158.003906 55.070312 156.398438 55.070312 C 154.789062 55.070312 153.484375 53.761719 153.484375 52.15625 Z M 159.445312 68.265625 C 159.445312 66.660156 160.753906 65.351562 162.359375 65.351562 C 163.96875 65.351562 165.273438 66.660156 165.273438 68.265625 C 165.273438 69.875 163.96875 71.179688 162.359375 71.179688 C 160.753906 71.179688 159.445312 69.875 159.445312 68.265625 Z M 165.441406 84.414062 C 165.441406 82.804688 166.75 81.5 168.355469 81.5 C 169.964844 81.5 171.269531 82.804688 171.269531 84.414062 C 171.269531 86.019531 169.964844 87.328125 168.355469 87.328125 C 166.75 87.328125 165.441406 86.019531 165.441406 84.414062 Z M 165.8125 29.308594 C 165.8125 27.703125 167.117188 26.394531 168.726562 26.394531 C 170.332031 26.394531 171.640625 27.703125 171.640625 29.308594 C 171.640625 30.917969 170.332031 32.222656 168.726562 32.222656 C 167.117188 32.222656 165.8125 30.953125 165.8125 29.308594 Z M 171.804688 45.457031 C 171.804688 43.847656 173.113281 42.542969 174.722656 42.542969 C 176.328125 42.542969 177.636719 43.847656 177.636719 45.457031 C 177.636719 47.0625 176.328125 48.371094 174.722656 48.371094 C 173.113281 48.371094 171.804688 47.0625 171.804688 45.457031 Z M 177.769531 61.566406 C 177.769531 59.960938 179.074219 58.652344 180.683594 58.652344 C 182.292969 58.652344 183.597656 59.960938 183.597656 61.566406 C 183.597656 63.175781 182.292969 64.480469 180.683594 64.480469 C 179.074219 64.480469 177.769531 63.175781 177.769531 61.566406 Z M 183.765625 77.679688 C 183.765625 76.070312 185.070312 74.765625 186.679688 74.765625 C 188.289062 74.765625 189.59375 76.070312 189.59375 77.679688 C 189.59375 79.289062 188.289062 80.59375 186.679688 80.59375 C 185.070312 80.628906 183.765625 79.320312 183.765625 77.679688 Z M 186.042969 23.480469 C 186.042969 21.875 187.347656 20.566406 188.957031 20.566406 C 190.566406 20.566406 191.871094 21.875 191.871094 23.480469 C 191.871094 25.089844 190.566406 26.394531 188.957031 26.394531 C 187.347656 26.394531 186.042969 25.089844 186.042969 23.480469 Z M 192.039062 39.59375 C 192.039062 37.984375 193.34375 36.679688 194.953125 36.679688 C 196.5625 36.679688 197.867188 37.984375 197.867188 39.59375 C 197.867188 41.203125 196.5625 42.507812 194.953125 42.507812 C 193.34375 42.507812 192.039062 41.203125 192.039062 39.59375 Z M 198 55.738281 C 198 54.132812 199.308594 52.824219 200.914062 52.824219 C 202.523438 52.824219 203.828125 54.132812 203.828125 55.738281 C 203.828125 57.347656 202.523438 58.652344 200.914062 58.652344 C 199.308594 58.652344 198 57.347656 198 55.738281 Z M 198 55.738281 " fill-opacity="1" fill-rule="nonzero"/></svg>