<svg xmlns="http://www.w3.org/2000/svg" xmlns:xlink="http://www.w3.org/1999/xlink" width="500" zoomAndPan="magnify" viewBox="0 0 375 374.999991" height="500" preserveAspectRatio="xMidYMid meet" version="1.0"><defs><clipPath id="cb722a4314"><path d="M 16.171875 12 L 131 12 L 131 127 L 16.171875 127 Z M 16.171875 12 " clip-rule="nonzero"/></clipPath><clipPath id="2b07c2c415"><path d="M 163 71 L 358.921875 71 L 358.921875 283 L 163 283 Z M 163 71 " clip-rule="nonzero"/></clipPath></defs><path fill="#e12c2c" d="M 113.125 375.007812 C 63.214844 375.007812 22.605469 334.398438 22.605469 284.488281 C 22.605469 263.785156 29.472656 244.285156 42.449219 228.105469 C 46.390625 223.199219 48.46875 217.652344 48.46875 212.050781 C 48.46875 207.234375 47.3125 202.433594 45.132812 198.152344 L 39.699219 187.460938 L 66.714844 167.671875 L 70.621094 171.132812 C 77.816406 177.523438 87.035156 181.039062 96.578125 181.039062 C 106.671875 181.039062 110.867188 179.6875 115.722656 178.121094 C 120.890625 176.460938 126.75 174.570312 138.980469 174.570312 C 188.890625 174.570312 229.5 215.175781 229.5 265.089844 C 229.5 293.78125 216.265625 320.160156 193.183594 337.464844 L 167.320312 356.863281 C 151.511719 368.734375 132.765625 375.007812 113.125 375.007812 Z M 56.207031 191.40625 L 56.664062 192.289062 C 59.765625 198.371094 61.40625 205.203125 61.40625 212.050781 C 61.40625 220.621094 58.34375 228.972656 52.550781 236.203125 C 41.421875 250.058594 35.542969 266.761719 35.542969 284.488281 C 35.542969 327.273438 70.347656 362.070312 113.125 362.070312 C 129.949219 362.070312 146.007812 356.691406 159.5625 346.515625 L 185.429688 327.117188 C 205.21875 312.269531 216.566406 289.664062 216.566406 265.082031 C 216.566406 222.296875 181.765625 187.5 138.984375 187.5 C 128.792969 187.5 124.570312 188.859375 119.6875 190.429688 C 114.539062 192.085938 108.699219 193.96875 96.578125 193.96875 C 85.632812 193.96875 75.007812 190.5 66.160156 184.105469 L 56.199219 191.398438 Z M 56.207031 191.40625 " fill-opacity="1" fill-rule="nonzero"/><path fill="#e12c2c" d="M 81.8125 325.625 C 68.652344 316.152344 61.40625 301.539062 61.40625 284.488281 C 61.40625 279.6875 62.054688 274.980469 63.328125 270.480469 L 75.765625 274.019531 C 74.8125 277.367188 74.335938 280.890625 74.335938 284.488281 C 74.335938 297.453125 79.53125 308.042969 89.363281 315.128906 Z M 81.8125 325.625 " fill-opacity="1" fill-rule="nonzero"/><path fill="#e12c2c" d="M 113.125 336.214844 C 108.230469 336.214844 103.382812 335.53125 98.714844 334.171875 L 102.3125 321.757812 C 105.816406 322.765625 109.453125 323.285156 113.125 323.285156 Z M 113.125 336.214844 " fill-opacity="1" fill-rule="nonzero"/><path fill="#e12c2c" d="M 202.339844 172.566406 L 190.269531 167.917969 C 195.460938 154.453125 204.691406 141.863281 216.972656 131.523438 L 225.300781 141.40625 C 214.683594 150.355469 206.738281 161.128906 202.339844 172.566406 Z M 202.339844 172.566406 " fill-opacity="1" fill-rule="nonzero"/><path fill="#e12c2c" d="M 296.652344 175.464844 C 293.839844 166.992188 290.765625 161.09375 285.671875 154.429688 L 295.9375 146.578125 C 301.902344 154.382812 305.667969 161.570312 308.929688 171.394531 L 296.65625 175.464844 Z M 296.652344 175.464844 " fill-opacity="1" fill-rule="nonzero"/><path fill="#e12c2c" d="M 288.8125 262.601562 L 279.519531 253.609375 C 293.328125 239.34375 300.625 220.953125 300.625 200.445312 C 300.625 196.585938 300.34375 192.710938 299.769531 188.910156 L 312.558594 187.003906 C 313.21875 191.425781 313.546875 195.953125 313.546875 200.4375 C 313.546875 224.382812 304.996094 245.871094 288.804688 262.59375 Z M 288.8125 262.601562 " fill-opacity="1" fill-rule="nonzero"/><path fill="#e12c2c" d="M 266.789062 237.621094 L 255.082031 232.113281 C 259.75 222.1875 261.835938 212.414062 261.835938 200.4375 C 261.835938 185.140625 257.28125 170.1875 248.882812 157.53125 C 240.101562 170.601562 235.972656 185.394531 235.972656 203.4375 L 223.042969 203.4375 C 223.042969 179.402344 229.875 159.507812 243.933594 142.609375 L 248.902344 136.640625 L 253.871094 142.609375 C 267.347656 158.808594 274.765625 179.34375 274.765625 200.429688 C 274.765625 214.222656 272.230469 226.035156 266.789062 237.613281 Z M 266.789062 237.621094 " fill-opacity="1" fill-rule="nonzero"/><g clip-path="url(#cb722a4314)"><path fill="#e12c2c" d="M 98.117188 126.917969 L 22.773438 51.566406 C 18.5 47.304688 16.144531 41.621094 16.144531 35.570312 C 16.144531 23.097656 26.296875 12.945312 38.769531 12.945312 C 44.828125 12.945312 50.511719 15.296875 54.773438 19.582031 L 130.109375 94.910156 L 120.964844 104.054688 L 45.628906 28.710938 C 43.800781 26.882812 41.367188 25.867188 38.769531 25.867188 C 33.425781 25.867188 29.074219 30.21875 29.074219 35.5625 C 29.074219 38.160156 30.082031 40.585938 31.914062 42.414062 L 107.261719 117.765625 L 98.117188 126.910156 Z M 98.117188 126.917969 " fill-opacity="1" fill-rule="nonzero"/></g><path fill="#e12c2c" d="M 126.054688 0.015625 L 138.984375 0.015625 L 138.984375 32.34375 L 126.054688 32.34375 Z M 126.054688 0.015625 " fill-opacity="1" fill-rule="nonzero"/><path fill="#e12c2c" d="M 189.179688 37.667969 L 215.34375 11.503906 L 224.488281 20.648438 L 198.320312 46.8125 Z M 189.179688 37.667969 " fill-opacity="1" fill-rule="nonzero"/><path fill="#e12c2c" d="M 338.667969 336.214844 C 293.011719 336.214844 249.710938 318.832031 216.730469 287.269531 L 225.671875 277.925781 C 256.238281 307.175781 296.367188 323.285156 338.667969 323.285156 C 339.058594 323.285156 339.414062 322.929688 339.414062 322.546875 L 125.539062 108.621094 L 90.929688 143.242188 L 126.195312 178.511719 L 117.050781 187.65625 L 72.640625 143.242188 L 125.53125 90.335938 L 348.257812 313.058594 C 350.851562 315.667969 352.339844 319.117188 352.339844 322.539062 C 352.339844 330.078125 346.199219 336.207031 338.664062 336.207031 Z M 338.667969 336.214844 " fill-opacity="1" fill-rule="nonzero"/><g clip-path="url(#2b07c2c415)"><path fill="#e12c2c" d="M 305.726562 282.875 L 300.375 271.105469 C 328.023438 258.53125 345.882812 230.796875 345.882812 200.445312 C 345.882812 163.960938 321.039062 132.867188 285.460938 124.84375 C 272.632812 121.953125 262.957031 112.488281 260.226562 100.160156 L 256.65625 84.0625 L 241.164062 84.0625 L 237.585938 100.203125 C 234.878906 112.394531 225.121094 122.035156 212.742188 124.757812 C 197.667969 128.074219 184.023438 135.773438 173.304688 147.019531 L 163.945312 138.09375 C 176.445312 124.980469 192.363281 115.996094 209.957031 112.128906 C 217.449219 110.484375 223.339844 104.699219 224.953125 97.398438 L 230.796875 71.132812 L 267.023438 71.132812 L 272.863281 97.359375 C 274.496094 104.761719 280.417969 110.449219 288.3125 112.230469 C 329.835938 121.589844 358.828125 157.867188 358.828125 200.445312 C 358.828125 235.859375 337.992188 268.214844 305.742188 282.878906 Z M 305.726562 282.875 " fill-opacity="1" fill-rule="nonzero"/></g></svg>