<svg xmlns="http://www.w3.org/2000/svg" xmlns:xlink="http://www.w3.org/1999/xlink" width="500" zoomAndPan="magnify" viewBox="0 0 375 374.999991" height="500" preserveAspectRatio="xMidYMid meet" version="1.0"><path fill="#e12c2c" d="M 329.914062 237.234375 C 329.613281 238.433594 329.539062 239.554688 329.089844 240.457031 C 327.964844 242.480469 325.941406 243.078125 323.617188 242.328125 C 323.167969 242.179688 322.644531 242.253906 322.195312 242.40625 C 320.320312 243.078125 318.519531 242.78125 316.648438 242.253906 C 315.824219 244.429688 314.097656 244.726562 312 244.277344 C 310.425781 243.980469 308.777344 243.753906 307.128906 243.453125 C 307.128906 243.679688 307.054688 243.902344 307.054688 244.128906 C 307.726562 248.402344 306.828125 252.523438 305.480469 256.496094 C 304.054688 260.617188 303.003906 264.816406 300.53125 268.488281 C 299.78125 269.613281 299.109375 270.738281 298.207031 271.710938 C 294.984375 275.085938 291.011719 276.132812 286.589844 275.085938 C 280.070312 273.511719 273.472656 272.3125 266.800781 271.5625 C 263.355469 271.1875 259.832031 271.039062 256.382812 270.8125 C 249.339844 270.4375 242.59375 268.488281 236.070312 265.941406 C 233.972656 265.117188 232.097656 263.765625 230.074219 262.71875 C 229.773438 262.566406 229.550781 262.34375 229.101562 262.042969 C 229.25 262.941406 229.25 263.691406 229.398438 264.441406 C 231.5 274.109375 233.523438 283.703125 235.695312 293.375 C 236.296875 296.148438 237.496094 298.695312 238.019531 301.46875 C 238.769531 305.367188 239.21875 309.414062 239.667969 313.386719 C 240.042969 316.835938 240.34375 320.359375 240.566406 323.804688 C 240.644531 325.304688 240.566406 326.878906 240.417969 328.378906 C 240.34375 329.578125 240.269531 330.777344 239.96875 331.902344 C 239.667969 333.023438 239.144531 334 238.769531 335.050781 C 238.621094 335.5 238.394531 335.949219 238.46875 336.398438 C 239.820312 343.96875 240.417969 351.539062 240.117188 359.183594 C 240.042969 362.558594 240.042969 365.929688 240.042969 369.226562 C 240.042969 369.828125 240.195312 370.425781 240.34375 371.027344 C 240.71875 372.453125 239.894531 373.5 238.46875 373.5 C 227.152344 373.574219 215.90625 373.574219 204.589844 373.726562 C 172.882812 374.101562 141.101562 374.550781 109.398438 375 C 107.148438 375 104.898438 375 102.652344 374.851562 C 100.628906 374.773438 100.253906 374.175781 100.253906 372.226562 C 100.253906 370.054688 100.027344 367.878906 99.878906 365.707031 C 99.277344 356.710938 99.726562 347.640625 100.253906 338.648438 C 100.253906 338.421875 100.253906 338.121094 100.175781 337.972656 C 99.128906 336.996094 99.054688 335.648438 98.828125 334.300781 C 97.855469 328.453125 97.929688 322.53125 98.453125 316.609375 C 99.277344 307.316406 100.253906 297.945312 101.226562 288.652344 C 101.375 286.851562 101.902344 285.128906 102.203125 283.328125 C 102.050781 283.328125 101.902344 283.253906 101.828125 283.328125 C 95.90625 284.527344 90.808594 283.03125 86.460938 278.90625 C 85.335938 277.785156 84.0625 276.808594 82.863281 275.757812 C 80.765625 273.960938 79.488281 271.5625 78.441406 269.011719 C 75.96875 263.316406 74.394531 257.320312 74.019531 251.097656 C 73.570312 242.554688 72.144531 234.160156 70.195312 225.839844 C 69.597656 223.140625 69.296875 220.367188 69.222656 217.59375 C 69.144531 212.273438 69.070312 206.949219 69.519531 201.628906 C 69.820312 198.257812 70.945312 194.957031 71.917969 191.660156 C 74.242188 183.789062 76.867188 175.996094 79.113281 168.125 C 81.511719 159.878906 83.914062 151.632812 87.886719 143.988281 C 88.410156 143.015625 89.007812 142.039062 89.609375 141.066406 C 90.882812 139.042969 92.980469 137.84375 94.78125 136.417969 C 106.546875 127.125 118.992188 119.027344 132.183594 111.90625 C 134.65625 110.558594 137.054688 109.132812 139.527344 107.710938 C 140.277344 107.261719 141.027344 106.886719 141.703125 106.511719 C 140.878906 105.835938 140.054688 105.085938 139.078125 104.261719 C 138.480469 104.789062 137.804688 105.3125 137.128906 105.988281 C 134.808594 108.085938 131.132812 107.109375 130.234375 104.335938 C 128.808594 104.789062 127.460938 105.386719 126.035156 105.6875 C 124.914062 105.835938 123.636719 105.761719 122.589844 105.386719 C 121.164062 104.9375 120.941406 103.8125 121.613281 102.539062 C 121.839844 102.089844 122.0625 101.714844 122.363281 101.339844 C 125.289062 97.742188 126.9375 93.542969 128.210938 89.269531 C 129.484375 84.925781 130.683594 80.5 131.882812 76.078125 C 129.636719 75.855469 127.984375 74.582031 126.410156 73.230469 C 124.539062 71.582031 123.113281 69.632812 122.515625 67.160156 C 122.214844 65.886719 121.613281 64.761719 120.339844 64.085938 C 117.34375 62.664062 115.242188 60.414062 114.117188 57.339844 C 112.84375 54.042969 112.621094 50.667969 113.292969 47.222656 C 113.59375 45.796875 113.96875 44.296875 114.570312 42.949219 C 115.617188 40.550781 115.917969 38.078125 115.84375 35.527344 C 115.769531 31.707031 116.066406 27.882812 117.34375 24.210938 C 118.992188 19.488281 122.289062 15.964844 126.035156 12.816406 C 132.109375 7.871094 139.078125 4.871094 146.351562 2.472656 C 149.648438 1.347656 153.019531 0.601562 156.542969 0.300781 C 160.214844 0 163.515625 0.75 166.4375 3.148438 C 167.636719 4.121094 168.910156 4.347656 170.335938 3.972656 C 174.683594 2.921875 179.179688 2.699219 183.601562 3.449219 C 189.75 4.570312 194.621094 7.945312 198.519531 12.816406 C 200.167969 14.839844 201.890625 16.863281 203.765625 18.589844 C 206.839844 21.363281 208.414062 25.035156 210.0625 28.707031 C 212.160156 33.503906 212.160156 38.226562 210.0625 43.023438 C 209.011719 45.496094 208.5625 47.972656 209.085938 50.667969 C 209.3125 51.792969 209.238281 53.066406 209.3125 54.191406 C 209.761719 59.066406 207.363281 62.511719 203.464844 64.984375 C 202.042969 65.886719 200.390625 66.484375 198.816406 66.933594 C 197.769531 67.234375 196.570312 67.011719 195.371094 67.011719 C 194.84375 67.683594 194.246094 68.507812 193.570312 69.332031 C 195.671875 72.855469 194.996094 76.527344 193.722656 80.125 C 193.644531 80.277344 193.570312 80.425781 193.570312 80.578125 C 193.421875 86.949219 194.320312 92.945312 198.519531 98.042969 C 199.566406 99.316406 199.941406 100.738281 199.117188 102.3125 C 198.292969 103.960938 196.945312 104.636719 195.070312 104.414062 C 194.394531 104.335938 193.871094 104.488281 193.421875 105.085938 C 193.046875 105.613281 192.371094 106.0625 191.921875 106.4375 C 193.046875 107.636719 194.171875 108.984375 195.445312 110.109375 C 196.269531 110.785156 197.394531 111.082031 198.445312 111.53125 C 201.816406 112.808594 205.1875 114.007812 208.5625 115.207031 C 213.285156 116.929688 217.78125 119.027344 222.054688 121.578125 C 225.578125 123.675781 229.25 125.699219 232.699219 127.949219 C 234.121094 128.921875 235.695312 130.046875 236.519531 131.546875 C 237.496094 133.421875 239.070312 134.84375 239.96875 136.71875 C 241.242188 139.117188 242.441406 141.589844 243.265625 144.136719 C 244.992188 149.386719 246.714844 154.632812 248.964844 159.730469 C 250.164062 162.503906 251.136719 165.351562 252.109375 168.199219 C 254.136719 174.195312 257.207031 179.742188 260.730469 184.988281 C 263.054688 188.4375 264.480469 192.109375 265.304688 196.082031 C 265.527344 197.058594 265.304688 198.179688 265.304688 199.304688 C 272.425781 199.003906 278.34375 201.554688 281.867188 208.523438 C 284.566406 207.324219 287.265625 207.476562 290.039062 207.402344 C 291.914062 207.402344 293.410156 208.148438 294.910156 209.125 C 300.457031 212.871094 305.328125 217.371094 310.203125 221.867188 C 310.726562 222.316406 311.175781 222.464844 311.925781 222.390625 C 316.648438 221.941406 321.21875 222.316406 324.96875 225.765625 C 325.34375 226.0625 325.941406 226.214844 326.464844 226.289062 C 328.714844 226.515625 331.039062 226.589844 333.136719 227.5625 C 336.4375 229.0625 337.335938 232.511719 335.011719 235.285156 C 333.960938 236.558594 332.464844 237.007812 330.890625 237.15625 C 330.515625 237.308594 330.066406 237.234375 329.914062 237.234375 Z M 134.433594 114.90625 C 134.355469 114.832031 134.28125 114.757812 134.207031 114.679688 C 129.710938 117.230469 125.136719 119.703125 120.714844 122.476562 C 111.421875 128.246094 102.351562 134.320312 93.507812 140.765625 C 93.207031 140.992188 92.832031 141.363281 92.683594 141.738281 C 90.65625 147.0625 88.558594 152.382812 86.683594 157.707031 C 84.0625 165.050781 81.738281 172.472656 79.113281 179.816406 C 77.390625 184.6875 75.292969 189.484375 73.492188 194.285156 C 72.144531 197.882812 71.542969 201.628906 71.996094 205.601562 C 72.445312 209.5 72.59375 213.398438 73.042969 217.21875 C 73.34375 220.144531 73.71875 223.066406 74.46875 225.914062 C 76.640625 234.382812 77.617188 243.003906 77.691406 251.699219 C 77.691406 257.394531 78.816406 262.867188 81.0625 268.113281 C 81.964844 270.136719 82.9375 272.085938 84.8125 273.4375 C 86.535156 274.710938 88.183594 276.058594 90.058594 277.109375 C 91.558594 278.007812 93.132812 278.832031 94.78125 279.132812 C 101.375 280.257812 106.546875 277.109375 111.570312 273.285156 C 109.996094 272.835938 108.421875 272.613281 107.074219 272.011719 C 101.527344 269.386719 96.953125 265.566406 93.804688 260.242188 C 91.859375 257.019531 90.285156 253.648438 90.207031 249.75 C 89.984375 242.554688 92.082031 235.882812 95.230469 229.585938 C 95.457031 229.210938 95.679688 228.835938 95.980469 228.3125 C 94.179688 228.613281 92.757812 229.210938 91.40625 230.1875 C 88.335938 232.285156 86.3125 235.285156 84.660156 238.582031 C 83.613281 240.679688 82.863281 242.855469 81.886719 245.027344 C 81.738281 245.402344 81.289062 245.703125 80.988281 246.003906 C 80.839844 245.550781 80.539062 245.101562 80.613281 244.652344 C 80.839844 243.304688 81.140625 241.953125 81.589844 240.605469 C 83.460938 234.757812 86.535156 229.8125 91.933594 226.589844 C 92.308594 226.363281 92.757812 226.140625 93.355469 225.765625 C 89.910156 226.0625 86.835938 226.664062 84.0625 228.464844 C 83.011719 229.136719 81.964844 229.960938 80.914062 230.636719 C 80.613281 230.785156 80.164062 230.785156 79.789062 230.863281 C 79.789062 230.488281 79.640625 229.960938 79.789062 229.664062 C 80.613281 228.6875 81.363281 227.636719 82.414062 226.8125 C 87.359375 222.839844 93.207031 222.089844 99.277344 222.242188 C 99.800781 222.242188 100.402344 222.167969 100.925781 221.941406 C 102.949219 220.890625 105.050781 220.667969 107.148438 221.71875 C 107.375 221.792969 107.671875 221.867188 107.898438 221.71875 C 109.847656 220.742188 111.796875 219.917969 114.34375 219.992188 C 113.445312 217.371094 112.695312 214.820312 111.796875 212.347656 C 110.445312 208.675781 108.574219 205.078125 107.671875 201.328125 C 106.324219 195.332031 105.347656 189.113281 104.601562 182.964844 C 103.25 172.695312 100.925781 162.726562 97.328125 152.984375 C 96.355469 150.359375 95.53125 147.660156 94.707031 144.964844 C 94.628906 144.589844 95.003906 144.0625 95.15625 143.6875 C 95.53125 143.914062 96.054688 143.988281 96.28125 144.289062 C 96.730469 144.964844 97.105469 145.710938 97.480469 146.535156 C 98.378906 148.5625 99.203125 150.507812 100.027344 152.535156 C 103.851562 161.976562 106.324219 171.796875 107.074219 181.992188 C 107.375 185.515625 107.671875 189.113281 108.199219 192.632812 C 108.945312 197.28125 110.820312 201.554688 113.21875 205.675781 C 115.542969 209.648438 117.265625 213.773438 118.390625 218.269531 C 118.617188 219.09375 118.917969 219.992188 118.765625 220.742188 C 118.617188 221.792969 119.066406 222.390625 119.589844 223.140625 C 120.414062 224.414062 121.316406 224.789062 122.8125 224.492188 C 125.511719 224.039062 128.210938 223.890625 130.910156 223.589844 C 131.285156 223.515625 131.660156 223.367188 131.882812 223.140625 C 133.90625 220.816406 136.53125 219.167969 139.304688 217.820312 C 142.152344 216.46875 144.777344 214.746094 147.175781 212.648438 C 150.023438 210.097656 153.246094 208.300781 157.21875 208.300781 C 157.816406 208.300781 158.417969 207.925781 159.015625 207.625 C 161.039062 206.5 162.988281 205.375 165.089844 204.253906 C 166.289062 203.578125 167.636719 203.128906 169.0625 202.527344 C 169.0625 200.355469 169.136719 198.179688 169.0625 196.007812 C 168.835938 188.585938 167.636719 181.242188 166.4375 173.894531 C 166.0625 171.496094 165.988281 169.171875 166.4375 166.851562 C 166.585938 165.949219 166.4375 164.675781 165.914062 164 C 164.640625 162.425781 163.890625 160.777344 163.140625 158.90625 C 161.414062 154.257812 159.839844 149.535156 157.894531 145.039062 C 154.820312 137.917969 151.746094 130.722656 148.296875 123.75 C 146.273438 119.628906 144.625 115.28125 142.828125 111.082031 C 142.675781 110.785156 142.527344 110.410156 142.378906 110.035156 C 140.578125 111.082031 138.929688 111.984375 137.207031 112.957031 C 136.980469 113.105469 136.90625 113.40625 136.832031 113.632812 C 136.15625 116.332031 135.554688 119.105469 134.808594 121.800781 C 133.683594 125.699219 133.832031 129.523438 135.707031 133.121094 C 137.28125 136.191406 139.453125 138.816406 142.453125 140.691406 C 143.953125 141.589844 145.375 142.640625 146.722656 143.765625 C 149.046875 145.710938 151.222656 147.738281 153.46875 149.683594 C 154.894531 150.882812 156.394531 152.007812 157.742188 153.28125 C 159.617188 155.082031 161.039062 157.179688 162.015625 159.652344 C 162.316406 160.328125 162.316406 161.226562 161.566406 161.527344 C 161.039062 161.753906 160.140625 161.679688 159.617188 161.304688 C 158.941406 160.851562 158.492188 160.105469 157.96875 159.429688 C 157.066406 158.304688 156.394531 157.03125 155.417969 155.980469 C 152.570312 153.132812 149.722656 150.285156 146.648438 147.660156 C 144.476562 145.789062 141.925781 144.214844 139.605469 142.488281 C 132.933594 137.542969 129.183594 129.074219 132.257812 120.675781 C 132.78125 119.253906 133.308594 117.902344 133.832031 116.480469 C 133.980469 116.105469 134.207031 115.503906 134.433594 114.90625 Z M 171.984375 252.671875 C 157.367188 254.398438 143.050781 256.046875 128.886719 257.695312 C 128.585938 259.195312 128.359375 260.542969 128.136719 261.894531 C 127.460938 266.839844 124.914062 270.4375 120.492188 272.835938 C 118.242188 274.035156 115.992188 275.460938 113.894531 277.035156 C 111.269531 279.132812 108.574219 280.929688 105.425781 282.207031 C 104.898438 282.429688 104.675781 282.730469 104.675781 283.328125 C 104.074219 292.625 103.476562 301.917969 102.726562 311.214844 C 102.050781 318.859375 101.152344 326.503906 101.828125 334.222656 C 101.976562 336.023438 102.125 336.25 103.851562 336.773438 C 104.074219 336.847656 104.300781 336.921875 104.523438 336.921875 C 107 337.597656 109.472656 338.195312 111.871094 338.871094 C 118.617188 340.894531 125.4375 342.769531 132.484375 343.59375 C 142.75 344.792969 153.019531 345.167969 163.363281 345.019531 C 167.1875 344.941406 171.085938 344.417969 174.90625 344.195312 C 175.507812 344.117188 175.808594 343.894531 175.957031 343.292969 C 176.40625 341.796875 177.082031 340.445312 177.679688 339.023438 C 177.757812 338.722656 177.832031 338.421875 177.757812 338.121094 C 177.382812 336.546875 177.082031 334.972656 176.554688 333.476562 C 173.933594 326.128906 172.359375 318.632812 172.359375 310.839844 C 172.285156 293.972656 172.058594 277.035156 171.910156 260.167969 C 171.910156 257.769531 171.984375 255.296875 171.984375 252.671875 Z M 172.210938 202.230469 C 173.035156 202.304688 173.785156 202.304688 174.53125 202.453125 C 175.132812 202.527344 175.28125 202.304688 175.65625 201.855469 C 176.554688 200.503906 177.53125 199.082031 178.582031 197.882812 C 181.503906 194.582031 185.402344 192.785156 189.375 191.285156 C 191.472656 190.535156 193.722656 190.011719 195.96875 189.636719 C 199.492188 189.113281 203.015625 189.636719 206.464844 190.234375 C 208.710938 190.609375 210.585938 191.808594 212.011719 193.609375 C 213.660156 195.632812 214.707031 197.957031 215.308594 200.503906 C 215.535156 201.402344 215.683594 202.230469 215.832031 202.976562 C 217.933594 202.230469 220.03125 201.402344 221.828125 200.730469 C 221.753906 197.957031 221.679688 195.257812 221.605469 192.484375 C 221.53125 190.160156 221.605469 187.835938 221.53125 185.4375 C 221.230469 176.371094 220.855469 167.300781 220.554688 158.15625 C 220.554688 157.78125 220.480469 157.332031 220.628906 156.957031 C 220.707031 156.730469 220.929688 156.429688 221.15625 156.355469 C 221.304688 156.28125 221.679688 156.582031 221.753906 156.730469 C 221.980469 157.179688 222.128906 157.707031 222.203125 158.15625 C 222.730469 162.054688 223.253906 166.023438 223.777344 169.921875 C 223.929688 170.972656 224.003906 172.023438 224.152344 172.996094 C 225.050781 170.898438 225.726562 168.796875 226.550781 166.773438 C 230.074219 157.707031 233.074219 148.5625 234.046875 138.890625 C 234.046875 138.59375 234.496094 138.140625 234.648438 138.140625 C 234.945312 138.140625 235.320312 138.441406 235.546875 138.742188 C 235.695312 138.890625 235.695312 139.265625 235.695312 139.492188 C 235.695312 141.441406 235.769531 143.390625 235.546875 145.261719 C 234.871094 151.183594 233.523438 156.957031 231.875 162.652344 C 230.75 166.550781 229.101562 170.296875 228.425781 174.269531 C 227.449219 179.96875 227.226562 185.738281 226.625 191.433594 C 226.328125 194.285156 226.402344 197.132812 227 199.980469 C 228.277344 199.980469 229.625 199.980469 230.898438 199.980469 C 236.371094 199.90625 240.644531 202.230469 243.792969 206.652344 C 244.089844 207.101562 244.390625 207.476562 244.691406 208 C 249.710938 202.902344 255.710938 200.128906 262.53125 199.304688 C 262.15625 198.179688 261.855469 197.207031 261.554688 196.230469 C 260.65625 192.785156 259.382812 189.484375 257.359375 186.488281 C 253.835938 181.242188 250.988281 175.621094 248.964844 169.625 C 247.839844 166.324219 246.566406 163.101562 245.289062 159.953125 C 243.492188 155.382812 241.542969 150.808594 239.894531 146.164062 C 238.769531 142.9375 237.570312 139.792969 235.847656 136.867188 C 234.421875 134.542969 232.921875 132.21875 230.375 130.796875 C 227.75 129.371094 225.203125 127.722656 222.578125 126.222656 C 219.65625 124.574219 216.734375 122.851562 213.734375 121.425781 C 208.414062 119.027344 202.941406 116.855469 197.542969 114.605469 C 197.46875 114.605469 197.320312 114.605469 197.320312 114.605469 C 197.09375 116.480469 196.871094 118.355469 196.570312 120.226562 C 195.820312 124.648438 194.472656 128.921875 192.222656 132.820312 C 189.148438 138.21875 186.152344 143.765625 183.226562 149.234375 C 181.355469 152.757812 179.78125 156.355469 178.054688 159.953125 C 177.757812 160.480469 177.679688 161.527344 176.78125 161.304688 C 175.808594 161.003906 176.03125 159.953125 176.183594 159.28125 C 176.480469 157.707031 176.78125 156.132812 177.304688 154.632812 C 179.929688 146.535156 183.828125 139.042969 188.175781 131.769531 C 190.871094 127.273438 192.671875 122.476562 193.570312 117.378906 C 193.871094 115.65625 194.097656 113.929688 193.121094 112.359375 C 191.246094 109.210938 188.25 107.710938 184.953125 106.285156 C 184.425781 108.984375 183.902344 111.53125 183.453125 114.082031 C 182.253906 121.578125 180.828125 128.996094 178.582031 136.34375 C 177.15625 140.992188 175.730469 145.636719 174.609375 150.285156 C 173.257812 155.605469 172.210938 161.003906 170.109375 166.101562 C 169.660156 167.148438 169.4375 168.347656 169.359375 169.546875 C 169.285156 170.597656 169.511719 171.722656 169.585938 172.769531 C 170.183594 179.667969 170.859375 186.5625 171.460938 193.457031 C 171.683594 196.457031 171.910156 199.304688 172.210938 202.230469 Z M 174.234375 252.449219 C 174.457031 253.648438 174.832031 254.621094 174.832031 255.671875 C 175.132812 259.945312 175.582031 264.292969 175.582031 268.5625 C 175.582031 283.179688 175.355469 297.722656 175.207031 312.335938 C 175.132812 320.65625 176.929688 328.601562 180.527344 336.171875 C 180.902344 336.921875 181.203125 337.746094 181.652344 338.421875 C 182.777344 339.921875 183.976562 341.421875 185.101562 342.917969 C 185.625 343.667969 186.226562 344.042969 187.199219 344.042969 C 191.097656 343.96875 194.921875 343.96875 198.742188 343.21875 C 202.941406 342.394531 207.214844 342.167969 211.410156 341.421875 C 216.058594 340.519531 220.628906 339.394531 225.203125 338.195312 C 228.199219 337.449219 231.199219 336.699219 233.820312 334.898438 C 235.097656 334 236.519531 333.324219 236.96875 331.75 C 237.71875 329.128906 238.320312 326.503906 237.871094 323.730469 C 237.570312 321.632812 237.121094 319.609375 236.746094 317.507812 C 236.222656 314.285156 235.621094 310.988281 235.246094 307.765625 C 234.648438 303.117188 232.921875 298.769531 231.875 294.273438 C 230.074219 286.402344 228.648438 278.457031 226.851562 270.585938 C 225.425781 264.367188 224.453125 258.21875 224.902344 251.847656 C 224.976562 250.425781 224.527344 249 224.304688 247.425781 C 207.589844 249.074219 190.949219 250.722656 174.234375 252.449219 Z M 180.078125 94.59375 C 179.78125 94.742188 179.480469 94.816406 179.179688 94.96875 C 177.457031 96.015625 175.730469 97.066406 174.007812 98.191406 C 170.558594 100.363281 166.960938 101.863281 162.765625 101.039062 C 160.890625 100.664062 158.941406 100.363281 157.441406 98.941406 C 157.21875 98.714844 157.144531 98.339844 156.992188 97.964844 C 157.367188 97.890625 157.667969 97.742188 158.042969 97.742188 C 158.191406 97.742188 158.417969 97.890625 158.640625 97.890625 C 164.039062 99.390625 169.0625 98.789062 173.707031 95.34375 C 175.207031 94.21875 176.78125 93.167969 178.355469 92.195312 C 181.804688 90.097656 184.203125 87.171875 185.699219 83.5 C 187.648438 78.851562 188.175781 73.90625 189.671875 69.109375 C 189.75 68.882812 189.671875 68.660156 189.597656 68.433594 C 189.523438 67.683594 189.300781 66.933594 189.375 66.261719 C 189.449219 64.085938 189.597656 61.914062 189.671875 59.738281 C 189.898438 55.242188 189.300781 50.96875 186.976562 46.996094 C 185.402344 44.296875 183.152344 42.347656 180.828125 40.324219 C 177.832031 37.777344 174.382812 36.351562 170.558594 35.679688 C 168.761719 35.378906 166.886719 35.304688 165.089844 35.527344 C 160.515625 36.054688 156.617188 38.226562 152.945312 40.851562 C 147.699219 44.597656 143.351562 49.019531 140.578125 54.867188 C 139.453125 57.339844 138.328125 59.8125 138.703125 62.664062 C 138.855469 63.9375 139.152344 65.136719 139.304688 66.410156 C 139.753906 71.808594 140.953125 77.054688 142.976562 82.074219 C 143.5 83.425781 144.25 84.699219 145.152344 85.824219 C 146.5 87.472656 148.222656 88.898438 149.648438 90.546875 C 150.921875 91.96875 152.046875 93.542969 152.421875 95.566406 C 152.570312 96.46875 152.269531 96.617188 151.597656 96.242188 C 150.773438 95.867188 149.949219 95.417969 149.199219 94.894531 C 148.296875 94.21875 147.472656 93.394531 146.5 92.570312 C 146.800781 95.492188 147.097656 98.265625 147.25 101.113281 C 147.472656 104.1875 147.097656 107.1875 145.152344 109.808594 C 145 110.035156 145.074219 110.484375 145.226562 110.785156 C 145.976562 112.507812 146.800781 114.15625 147.625 115.804688 C 148.972656 118.652344 150.246094 121.578125 151.820312 124.351562 C 152.945312 126.449219 154.59375 128.171875 155.71875 130.273438 C 156.617188 131.996094 157.742188 132.671875 159.617188 132.445312 C 164.714844 131.921875 169.8125 131.394531 174.90625 130.945312 C 176.40625 130.796875 177.007812 129.972656 177.382812 128.621094 C 179.328125 121.652344 180.15625 114.457031 181.429688 107.335938 C 181.503906 107.035156 181.503906 106.585938 181.277344 106.359375 C 179.703125 104.710938 179.628906 102.613281 179.703125 100.515625 C 179.855469 98.714844 179.929688 96.691406 180.078125 94.59375 Z M 235.472656 338.121094 C 233.898438 338.945312 232.621094 339.769531 231.273438 340.144531 C 226.175781 341.796875 221.078125 343.519531 215.90625 344.71875 C 211.109375 345.84375 206.164062 346.066406 201.367188 347.042969 C 196.496094 348.015625 191.699219 348.089844 186.75 347.867188 C 184.652344 347.792969 183.226562 346.816406 182.402344 344.867188 C 182.027344 344.042969 181.726562 343.144531 181.429688 342.320312 C 181.203125 341.71875 180.828125 341.195312 180.527344 340.59375 C 180.453125 340.59375 180.304688 340.59375 180.230469 340.671875 C 179.628906 342.394531 178.878906 344.042969 178.429688 345.765625 C 178.128906 346.96875 177.605469 347.566406 176.480469 347.792969 C 174.15625 348.242188 171.910156 348.839844 169.585938 348.992188 C 160.441406 349.664062 151.296875 349.441406 142.152344 348.914062 C 131.582031 348.316406 121.464844 346.066406 111.644531 342.320312 C 108.945312 341.269531 106.175781 340.445312 103.402344 339.472656 C 103.402344 350.113281 102.652344 360.535156 103.925781 370.878906 C 125.136719 370.726562 146.199219 370.578125 167.410156 370.429688 C 166.960938 365.40625 166.511719 360.535156 166.0625 355.660156 C 165.839844 355.660156 165.6875 355.585938 165.464844 355.585938 C 161.789062 355.285156 158.117188 355.0625 154.445312 354.6875 C 153.996094 354.613281 153.320312 354.238281 153.320312 353.863281 C 153.246094 353.488281 153.695312 352.8125 154.070312 352.664062 C 155.121094 352.289062 156.242188 351.988281 157.292969 351.988281 C 161.867188 351.839844 166.4375 351.613281 171.011719 351.613281 C 174.15625 351.613281 177.230469 352.0625 180.15625 353.261719 C 181.355469 353.710938 182.402344 354.613281 183.378906 355.4375 C 183.753906 355.738281 183.828125 356.335938 184.050781 356.859375 C 178.878906 357.761719 174.082031 355.585938 169.210938 355.886719 C 169.8125 360.457031 170.484375 364.882812 171.011719 369.378906 C 171.085938 370.203125 171.308594 370.503906 172.210938 370.503906 C 177.15625 370.429688 182.027344 370.429688 186.976562 370.429688 C 202.417969 370.351562 217.855469 370.277344 233.296875 370.203125 C 234.273438 370.203125 235.246094 370.203125 236.296875 370.203125 C 235.996094 359.410156 235.769531 348.839844 235.472656 338.121094 Z M 196.269531 63.785156 C 197.695312 63.410156 199.042969 63.261719 200.242188 62.8125 C 204.066406 61.386719 206.164062 58.316406 206.089844 54.191406 C 206.089844 52.992188 206.015625 51.792969 205.863281 50.667969 C 205.265625 47.296875 206.015625 44.222656 207.363281 41.148438 C 208.488281 38.601562 209.011719 35.902344 208.414062 33.203125 C 207.589844 29.683594 206.164062 26.382812 204.140625 23.386719 C 203.539062 22.410156 202.714844 21.585938 201.816406 20.835938 C 199.566406 18.964844 197.695312 16.789062 195.894531 14.542969 C 194.769531 13.117188 193.496094 11.691406 192.148438 10.570312 C 185.925781 5.621094 178.804688 4.648438 171.308594 6.597656 C 168.761719 7.269531 166.585938 6.894531 164.640625 5.023438 C 162.988281 3.371094 160.964844 2.472656 158.640625 2.324219 C 156.242188 2.171875 153.921875 2.25 151.597656 3 C 146.050781 4.648438 140.652344 6.894531 135.554688 9.667969 C 130.835938 12.292969 126.261719 15.289062 122.664062 19.414062 C 118.765625 23.910156 117.191406 29.15625 117.640625 35.078125 C 117.792969 37.253906 117.941406 39.5 117.71875 41.675781 C 117.492188 43.472656 116.742188 45.273438 116.292969 47.070312 C 114.644531 53.59375 116.519531 58.691406 121.988281 62.585938 C 123.261719 63.488281 124.164062 64.609375 124.6875 66.035156 C 125.8125 69.035156 128.0625 70.980469 130.757812 72.480469 C 131.285156 72.78125 131.808594 72.855469 132.40625 73.082031 C 133.007812 73.230469 133.234375 73.007812 133.457031 72.480469 C 134.058594 71.058594 134.730469 69.707031 135.257812 68.285156 C 135.332031 68.058594 135.332031 67.683594 135.179688 67.535156 C 134.132812 66.183594 133.832031 64.6875 133.832031 63.039062 C 133.832031 61.761719 133.90625 60.488281 133.832031 59.140625 C 133.832031 58.164062 133.683594 57.191406 133.53125 55.917969 C 130.757812 59.066406 127.3125 59.363281 123.414062 59.214844 C 123.714844 58.765625 123.863281 58.390625 124.164062 58.238281 C 124.539062 58.015625 125.0625 57.789062 125.511719 57.714844 C 128.808594 57.265625 130.910156 55.242188 132.707031 52.695312 C 132.859375 52.542969 132.859375 52.242188 132.859375 52.167969 C 130.835938 52.992188 128.808594 53.96875 126.710938 54.640625 C 125.511719 55.015625 124.238281 55.167969 123.039062 55.242188 C 122.363281 55.316406 121.691406 54.941406 121.089844 54.71875 C 121.089844 54.566406 121.089844 54.417969 121.164062 54.265625 C 121.613281 54.117188 121.988281 53.96875 122.4375 53.894531 C 125.4375 53.144531 128.210938 51.945312 130.835938 50.070312 C 132.035156 49.246094 132.183594 48.496094 131.734375 47.148438 C 130.757812 44.523438 131.132812 41.898438 132.707031 39.578125 C 133.007812 39.203125 133.683594 38.675781 133.980469 38.75 C 134.730469 38.976562 134.355469 39.726562 134.132812 40.175781 C 133.234375 42.425781 133.234375 44.597656 133.980469 46.921875 C 134.582031 48.796875 134.882812 50.820312 135.179688 52.769531 C 135.78125 56.441406 136.304688 60.039062 136.832031 63.710938 C 137.128906 62.511719 137.054688 61.3125 137.28125 60.113281 C 138.855469 52.242188 142.902344 45.871094 149.125 40.851562 C 151.523438 38.902344 154.144531 37.328125 156.617188 35.679688 C 161.640625 32.304688 167.261719 32.457031 172.882812 33.128906 C 177.15625 33.65625 180.679688 35.605469 183.976562 38.226562 C 188.175781 41.449219 190.871094 45.574219 191.621094 50.746094 C 192.074219 53.59375 192.074219 56.515625 192.222656 59.4375 C 192.296875 61.3125 192.371094 63.113281 192.445312 64.984375 C 192.597656 64.984375 192.671875 65.0625 192.820312 65.0625 C 193.046875 64.238281 193.347656 63.410156 193.421875 62.585938 C 193.496094 60.789062 193.421875 58.914062 193.570312 57.117188 C 193.722656 55.015625 193.871094 52.84375 194.171875 50.746094 C 194.546875 47.746094 195.21875 44.75 195.445312 41.675781 C 195.894531 35.527344 193.496094 30.582031 188.472656 26.910156 C 187.351562 26.085938 186.226562 25.261719 185.101562 24.511719 C 179.78125 20.914062 174.15625 18.0625 167.488281 17.6875 C 163.140625 17.464844 158.867188 17.316406 154.746094 19.039062 C 146.875 22.410156 140.726562 27.734375 136.378906 35.078125 C 136.230469 35.378906 136.007812 35.679688 135.78125 35.976562 C 135.03125 35.230469 135.03125 35.230469 136.980469 30.582031 C 134.355469 29.308594 131.734375 28.03125 129.109375 26.757812 C 127.609375 26.007812 126.335938 25.035156 125.664062 23.460938 C 125.585938 23.234375 125.664062 22.9375 125.664062 22.710938 C 125.886719 22.785156 126.261719 22.710938 126.410156 22.859375 C 128.0625 24.511719 130.234375 25.109375 132.332031 25.859375 C 134.355469 26.609375 136.53125 27.285156 138.179688 28.859375 C 138.480469 28.484375 138.703125 28.109375 139.152344 27.507812 C 137.503906 26.609375 136.007812 25.785156 134.507812 25.035156 C 133.683594 24.585938 132.78125 24.210938 132.035156 23.6875 C 131.808594 23.535156 131.734375 23.085938 131.582031 22.785156 C 131.882812 22.710938 132.257812 22.488281 132.558594 22.5625 C 135.480469 23.085938 138.328125 23.761719 140.652344 25.859375 C 143.949219 22.335938 147.847656 19.9375 151.972656 17.765625 C 156.167969 15.515625 160.742188 14.765625 165.539062 15.140625 C 165.539062 14.917969 165.539062 14.765625 165.464844 14.617188 C 164.9375 11.394531 163.441406 8.84375 160.816406 6.894531 C 160.515625 6.671875 160.441406 6.144531 160.292969 5.773438 C 160.667969 5.773438 161.117188 5.546875 161.492188 5.695312 C 164.1875 6.519531 166.0625 8.246094 167.1875 10.867188 C 167.785156 12.292969 168.160156 13.714844 168.613281 15.214844 C 168.613281 15.214844 168.6875 15.289062 168.6875 15.289062 C 173.785156 15.589844 178.582031 16.941406 182.929688 19.636719 C 183.226562 19.789062 183.753906 19.789062 184.128906 19.714844 C 185.699219 19.113281 186.824219 17.914062 187.726562 16.566406 C 188.101562 16.039062 188.625 15.664062 189.300781 15.964844 C 190.046875 16.265625 190.046875 16.941406 189.898438 17.539062 C 189.671875 18.964844 188.847656 20.011719 187.648438 20.761719 C 187.199219 21.0625 186.75 21.289062 186.226562 21.585938 C 187.574219 22.636719 188.925781 23.609375 190.199219 24.585938 C 193.347656 27.058594 195.59375 30.207031 196.945312 33.953125 C 198.070312 37.101562 198.292969 40.324219 197.992188 43.625 C 197.84375 45.199219 197.769531 46.695312 197.617188 48.347656 C 198.144531 48.269531 198.445312 48.269531 198.742188 48.195312 C 200.09375 48.046875 201.441406 47.820312 202.789062 47.746094 C 203.242188 47.746094 203.765625 48.121094 204.214844 48.347656 C 203.839844 48.796875 203.617188 49.394531 203.164062 49.695312 C 202.714844 49.996094 202.042969 50.144531 201.441406 50.21875 C 200.09375 50.371094 198.667969 50.371094 197.246094 50.519531 C 195.96875 54.71875 196.570312 59.140625 196.269531 63.785156 Z M 282.917969 210.921875 C 283.21875 213.023438 283.667969 214.972656 283.890625 216.996094 C 284.042969 218.417969 284.265625 219.917969 283.890625 221.191406 C 282.394531 226.515625 279.171875 230.488281 273.847656 232.359375 C 265.003906 235.433594 256.007812 236.632812 246.714844 234.683594 C 243.792969 234.085938 240.792969 233.636719 239.070312 230.710938 C 238.246094 231.609375 237.496094 232.511719 236.671875 233.261719 C 233.671875 235.957031 230.074219 237.53125 226.101562 238.207031 C 219.054688 239.480469 211.859375 239.480469 204.816406 238.355469 C 199.941406 237.609375 195.070312 236.40625 192.296875 231.535156 C 190.347656 232.585938 188.398438 233.636719 186.449219 234.609375 C 183.753906 236.035156 181.054688 237.609375 178.207031 238.808594 C 170.261719 242.105469 161.941406 244.203125 153.320312 245.027344 C 148.972656 245.402344 144.625 245.777344 140.351562 244.878906 C 137.804688 244.351562 135.332031 243.527344 132.859375 242.628906 C 131.207031 242.03125 130.085938 240.753906 130.234375 238.808594 C 130.234375 238.65625 130.160156 238.433594 130.160156 238.28125 C 129.335938 235.808594 129.261719 233.183594 129.558594 230.636719 C 129.710938 229.136719 129.933594 227.636719 130.160156 226.0625 C 127.6875 226.214844 125.210938 226.363281 122.738281 226.589844 C 123.1875 227.113281 123.714844 227.414062 124.238281 227.714844 C 125.289062 228.386719 126.035156 229.363281 126.113281 230.710938 C 126.1875 232.210938 125.8125 233.558594 124.914062 234.757812 C 123.714844 236.332031 122.214844 237.457031 120.339844 237.90625 C 120.414062 239.332031 120.566406 240.605469 120.640625 241.953125 C 120.789062 245.328125 120.863281 248.699219 121.015625 252 C 121.089844 253.125 121.390625 254.246094 121.691406 255.371094 C 121.839844 255.972656 122.214844 256.269531 122.964844 256.046875 C 123.863281 255.820312 124.835938 255.671875 125.738281 255.597656 C 133.53125 254.773438 141.402344 254.023438 149.199219 253.199219 C 158.492188 252.222656 167.785156 251.25 177.15625 250.273438 C 186.527344 249.226562 195.96875 248.175781 205.339844 247.125 C 214.785156 246.003906 224.304688 244.878906 233.746094 243.828125 C 242.367188 242.855469 250.910156 241.878906 259.53125 240.832031 C 270.027344 239.632812 280.519531 238.355469 291.089844 237.234375 C 295.136719 236.78125 299.183594 236.632812 303.230469 236.40625 C 303.457031 236.40625 303.605469 236.257812 303.753906 236.183594 C 305.703125 235.058594 307.726562 234.683594 309.902344 235.058594 C 310.800781 235.207031 311.625 235.359375 312.375 234.460938 C 312.75 234.007812 313.425781 233.859375 314.023438 233.710938 C 315.074219 233.484375 316.046875 233.335938 317.246094 233.109375 C 317.171875 232.808594 317.097656 232.4375 316.949219 232.210938 C 315.898438 230.710938 314.847656 229.210938 313.273438 228.011719 C 310.351562 225.914062 307.503906 223.664062 304.65625 221.34375 C 301.132812 218.492188 297.683594 215.421875 294.085938 212.574219 C 293.1875 211.824219 292.136719 211.074219 291.011719 210.847656 C 288.390625 210.324219 285.691406 210.398438 282.917969 210.921875 Z M 166.210938 226.738281 C 165.6875 226.589844 165.3125 226.589844 165.011719 226.4375 C 163.738281 225.765625 162.464844 225.089844 161.265625 224.492188 C 155.34375 221.34375 149.125 219.84375 142.453125 220.816406 C 139.003906 221.265625 136.15625 222.839844 133.90625 225.390625 C 133.15625 226.214844 132.632812 227.414062 132.332031 228.539062 C 131.660156 231.386719 131.660156 234.234375 131.957031 237.15625 C 132.109375 238.957031 133.007812 240.007812 134.65625 240.304688 C 137.878906 240.90625 141.179688 241.804688 144.476562 242.03125 C 152.722656 242.628906 160.890625 241.804688 168.835938 239.707031 C 173.707031 238.433594 178.503906 236.78125 182.851562 234.085938 C 185.625 232.359375 188.324219 230.5625 191.023438 228.761719 C 191.398438 228.539062 191.773438 228.011719 191.847656 227.5625 C 192.523438 223.742188 193.871094 220.144531 196.195312 216.996094 C 196.269531 216.84375 196.34375 216.695312 196.644531 216.320312 C 196.042969 216.621094 195.820312 216.769531 195.519531 216.996094 C 192.296875 218.867188 188.925781 220.292969 185.25 220.667969 C 181.804688 220.96875 178.429688 220.667969 175.957031 217.746094 C 173.933594 215.347656 172.359375 212.871094 173.183594 209.574219 C 173.484375 208.300781 173.933594 207.101562 174.382812 205.828125 C 171.085938 204.402344 164.488281 206.425781 162.089844 209.648438 C 162.539062 209.800781 162.988281 209.875 163.441406 210.023438 C 165.386719 210.546875 167.1875 211.523438 168.613281 212.945312 C 169.585938 213.847656 170.183594 214.972656 169.8125 216.46875 C 169.4375 216.246094 169.136719 216.171875 168.910156 216.019531 C 166.511719 214.296875 163.8125 213.398438 161.039062 212.648438 C 153.171875 210.472656 149.421875 213.023438 144.625 217.894531 C 145.226562 217.820312 145.675781 217.746094 146.125 217.746094 C 152.570312 217.144531 158.492188 218.34375 163.515625 222.765625 C 164.714844 223.515625 165.6875 224.863281 166.210938 226.738281 Z M 224.828125 222.765625 C 224.679688 222.839844 224.601562 222.839844 224.453125 222.917969 C 224.226562 222.765625 224.078125 222.542969 223.851562 222.390625 C 220.105469 218.71875 215.535156 216.621094 210.359375 216.171875 C 205.640625 215.71875 201.515625 217.292969 197.84375 220.066406 C 197.394531 220.367188 197.019531 220.816406 196.871094 221.265625 C 196.121094 223.441406 195.371094 225.539062 194.84375 227.789062 C 194.394531 229.738281 195.144531 231.386719 196.792969 232.585938 C 200.617188 235.285156 204.964844 236.632812 209.535156 236.78125 C 212.683594 236.933594 215.832031 236.632812 218.980469 236.183594 C 226.25 235.207031 232.996094 233.183594 237.792969 227.113281 C 237.945312 226.890625 238.167969 226.589844 238.167969 226.363281 C 238.769531 221.792969 240.417969 217.59375 241.992188 213.320312 C 242.441406 212.199219 242.667969 211 241.992188 209.722656 C 240.566406 207.175781 238.621094 205.226562 235.921875 204.027344 C 234.347656 203.351562 231.273438 202.976562 230.148438 203.351562 C 230.523438 203.503906 230.972656 203.652344 231.347656 203.804688 C 234.421875 205.152344 236.519531 207.402344 237.644531 210.472656 C 237.871094 211 237.792969 211.671875 237.871094 212.199219 C 236.746094 211.222656 235.921875 210.25 234.945312 209.347656 C 229.699219 204.476562 223.628906 202.976562 216.734375 205.226562 C 215.832031 205.527344 215.308594 206.050781 215.308594 207.027344 C 220.03125 206.574219 224.226562 207.925781 228.050781 210.625 C 230.074219 212.046875 231.574219 213.996094 232.25 216.46875 C 232.546875 217.519531 232.398438 218.417969 231.648438 219.46875 C 231.273438 218.570312 230.972656 217.746094 230.523438 216.996094 C 227.976562 212.421875 223.628906 210.398438 218.832031 209.347656 C 217.40625 209.050781 215.832031 208.976562 214.410156 209.273438 C 211.335938 209.875 208.335938 210.773438 205.265625 211.671875 C 203.015625 212.273438 201.890625 214.296875 200.316406 215.945312 C 200.542969 215.945312 200.542969 216.019531 200.617188 215.945312 C 200.765625 215.871094 200.84375 215.796875 200.992188 215.796875 C 206.914062 212.648438 212.910156 212.722656 218.832031 215.644531 C 221.078125 216.769531 223.027344 218.417969 224.226562 220.742188 C 224.527344 221.417969 224.601562 222.089844 224.828125 222.765625 Z M 228.199219 247.050781 C 228.351562 250.199219 228.648438 253.273438 228.574219 256.347656 C 228.574219 258.070312 229.175781 258.894531 230.597656 259.570312 C 237.570312 263.09375 244.992188 265.414062 252.710938 266.539062 C 258.855469 267.441406 265.003906 268.113281 271.148438 268.863281 C 271.226562 268.863281 271.226562 268.789062 271.226562 268.863281 C 266.726562 260.167969 267.703125 251.472656 271.074219 242.628906 C 256.609375 244.128906 242.292969 245.628906 228.199219 247.050781 Z M 271.226562 220.59375 C 270.851562 220.367188 270.699219 220.21875 270.476562 220.066406 C 268.902344 218.867188 267.402344 217.667969 265.753906 216.546875 C 263.65625 215.121094 261.554688 214.070312 258.855469 214.222656 C 253.984375 214.519531 249.710938 216.320312 245.890625 219.320312 C 242.441406 222.015625 242.441406 222.015625 241.765625 226.289062 C 241.765625 226.4375 241.691406 226.589844 241.691406 226.8125 C 241.394531 229.210938 242.066406 230.261719 244.464844 230.9375 C 250.835938 232.886719 257.207031 233.410156 263.730469 231.910156 C 268.078125 230.9375 272.425781 230.035156 276.246094 227.636719 C 278.570312 226.140625 280.292969 224.191406 281.34375 221.640625 C 281.792969 220.59375 281.792969 219.46875 281.269531 218.644531 C 280.144531 216.917969 280.070312 214.972656 279.621094 213.097656 C 278.421875 207.851562 275.199219 204.476562 270.101562 203.054688 C 264.703125 201.554688 259.382812 202.230469 254.210938 204.476562 C 254.058594 204.550781 253.910156 204.703125 253.609375 204.851562 C 255.410156 204.550781 257.058594 204.175781 258.632812 203.953125 C 264.628906 203.203125 269.800781 204.851562 274 209.273438 C 274.824219 210.097656 275.273438 211.222656 275.796875 212.273438 C 276.023438 212.722656 275.945312 213.320312 276.023438 213.921875 C 275.722656 213.847656 275.648438 213.921875 275.570312 213.847656 C 275.421875 213.773438 275.273438 213.621094 275.199219 213.546875 C 272.199219 210.25 268.375 208.375 264.105469 207.550781 C 258.933594 206.5 254.058594 207.851562 249.113281 209.425781 C 246.414062 210.25 244.914062 212.046875 244.316406 214.746094 C 244.167969 215.570312 243.941406 216.320312 243.792969 217.144531 C 244.089844 217.144531 244.242188 217.070312 244.316406 216.996094 C 247.914062 213.621094 252.1875 211.671875 257.132812 211.148438 C 259.832031 210.847656 262.53125 210.921875 264.703125 212.648438 C 266.503906 214.070312 268.152344 215.71875 269.726562 217.371094 C 270.773438 218.117188 271.300781 219.167969 271.226562 220.59375 Z M 281.34375 241.65625 C 279.09375 241.878906 276.996094 242.105469 274.898438 242.253906 C 274.148438 242.328125 273.773438 242.628906 273.546875 243.304688 C 271.675781 248.027344 270.851562 252.972656 270.925781 257.996094 C 271 262.640625 272.800781 266.539062 276.097656 269.761719 C 276.171875 269.839844 276.398438 269.914062 276.546875 269.988281 C 280.292969 270.738281 283.96875 271.710938 287.714844 272.160156 C 290.9375 272.613281 294.160156 272.011719 296.410156 269.3125 C 298.507812 266.765625 300.382812 263.992188 301.433594 260.84375 C 302.929688 256.195312 303.832031 251.398438 304.203125 246.527344 C 304.28125 245.925781 304.128906 245.253906 304.054688 244.726562 C 302.929688 244.726562 302.03125 244.726562 301.058594 244.726562 C 301.058594 244.878906 301.058594 245.027344 300.980469 245.253906 C 300.382812 248.027344 299.859375 250.875 299.109375 253.648438 C 298.507812 255.746094 297.460938 257.695312 295.808594 259.195312 C 295.359375 259.570312 294.761719 259.945312 294.3125 259.34375 C 294.085938 259.042969 294.085938 258.21875 294.3125 257.921875 C 296.558594 254.773438 297.460938 251.175781 298.207031 247.5 C 298.359375 246.675781 298.207031 245.703125 298.207031 244.652344 C 293.261719 247.277344 288.316406 248.027344 282.917969 246.378906 C 282.917969 249.300781 282.84375 252.074219 282.992188 254.847656 C 283.066406 256.121094 283.367188 257.46875 283.816406 258.667969 C 285.089844 261.894531 287.640625 263.839844 290.789062 265.117188 C 291.238281 265.265625 291.761719 265.339844 292.0625 265.640625 C 292.4375 266.015625 292.8125 266.613281 292.738281 267.066406 C 292.660156 267.515625 292.0625 268.113281 291.613281 268.113281 C 290.863281 268.1875 289.964844 268.039062 289.289062 267.664062 C 287.566406 266.613281 285.992188 265.492188 284.34375 264.214844 C 282.242188 262.566406 280.894531 260.394531 280.21875 257.84375 C 278.796875 252.523438 278.71875 247.277344 281.195312 242.179688 C 281.269531 242.105469 281.269531 241.953125 281.34375 241.65625 Z M 192.296875 206.203125 C 190.273438 205.453125 188.324219 204.628906 186.375 204.175781 C 182.402344 203.277344 178.878906 203.953125 176.332031 207.476562 C 176.03125 207.851562 175.507812 208.226562 175.433594 208.601562 C 174.683594 211.746094 175.882812 214.144531 178.28125 216.09375 C 178.957031 216.621094 179.703125 217.21875 180.453125 217.371094 C 182.101562 217.59375 183.753906 217.746094 185.402344 217.59375 C 188.925781 217.21875 191.921875 215.570312 194.921875 213.695312 C 196.71875 212.574219 198.742188 211.746094 200.691406 211.074219 C 202.492188 210.398438 204.363281 210.25 206.164062 209.574219 C 207.960938 208.898438 209.6875 208 211.410156 207.101562 C 212.234375 206.652344 212.535156 205.902344 212.535156 204.925781 C 212.386719 201.179688 211.410156 197.730469 209.011719 194.808594 C 207.738281 193.234375 205.113281 192.109375 203.164062 192.257812 C 206.464844 194.285156 207.960938 196.90625 207.136719 199.457031 C 206.914062 199.15625 206.6875 198.855469 206.539062 198.628906 C 204.890625 196.007812 202.714844 194.058594 199.867188 192.785156 C 196.570312 191.285156 193.421875 191.433594 190.125 193.007812 C 191.472656 193.234375 192.746094 193.382812 193.871094 193.683594 C 198.367188 194.882812 201.292969 197.882812 202.789062 202.230469 C 202.867188 202.527344 202.789062 202.902344 202.789062 203.277344 C 201.742188 202.304688 200.765625 201.480469 199.867188 200.578125 C 198.070312 198.554688 195.894531 197.132812 193.347656 196.457031 C 187.199219 194.808594 182.703125 195.78125 179.179688 201.554688 C 178.957031 201.929688 178.730469 202.304688 178.503906 202.753906 C 181.054688 201.628906 183.601562 200.953125 186.226562 201.929688 C 188.550781 202.679688 191.023438 203.652344 192.296875 206.203125 Z M 104.675781 225.238281 C 104.601562 225.164062 104.523438 225.015625 104.523438 224.941406 C 104 225.089844 103.476562 225.238281 102.949219 225.464844 C 102.125 225.839844 101.375 226.4375 100.476562 226.738281 C 98.304688 227.414062 97.105469 228.988281 96.203125 230.9375 C 95.679688 232.210938 95.082031 233.410156 94.707031 234.683594 C 93.957031 237.457031 93.28125 240.230469 92.683594 243.078125 C 91.257812 249.898438 92.757812 256.121094 97.328125 261.367188 C 100.253906 264.667969 103.773438 267.289062 107.824219 268.9375 C 111.421875 270.4375 115.242188 271.5625 119.066406 269.3125 C 119.066406 269.3125 119.140625 269.3125 119.140625 269.3125 C 123.9375 267.664062 125.886719 262.492188 124.386719 257.996094 C 123.339844 257.996094 122.289062 257.996094 121.238281 257.996094 C 120.191406 258.070312 119.589844 257.546875 119.367188 256.644531 C 119.066406 255.671875 118.917969 254.773438 118.765625 253.796875 C 118.691406 253.199219 118.617188 252.671875 117.867188 252.449219 C 117.492188 252.375 117.191406 251.925781 116.890625 251.625 C 116.519531 251.175781 116.367188 250.648438 115.917969 250.351562 C 115.019531 249.675781 114.042969 249 112.917969 248.699219 C 112.546875 248.625 111.871094 249.449219 111.421875 249.898438 C 108.945312 252.148438 106.023438 253.496094 102.574219 254.023438 C 104.375 255.671875 105.574219 257.546875 107.746094 258.59375 C 110.519531 259.871094 113.445312 260.394531 116.367188 260.84375 C 116.96875 260.917969 118.089844 261.441406 118.089844 261.742188 C 118.089844 262.71875 117.117188 262.71875 116.367188 262.941406 C 116.367188 262.941406 116.292969 262.941406 116.292969 262.941406 C 111.871094 263.316406 107.898438 262.191406 104.523438 259.195312 C 104.226562 258.894531 103.851562 258.746094 103.550781 258.519531 C 101.226562 257.171875 99.652344 255.222656 99.203125 252.449219 C 98.902344 250.273438 98.453125 248.101562 98.152344 245.925781 C 97.402344 240.53125 97.703125 235.359375 101.152344 230.785156 C 102.5 229.0625 103.550781 227.113281 104.675781 225.238281 Z M 101.828125 252.375 C 105.574219 251.324219 108.648438 249.601562 111.269531 246.976562 C 110.597656 245.777344 110.519531 245.777344 109.320312 245.253906 C 107.222656 244.351562 105.199219 243.304688 103.699219 241.429688 C 103.027344 240.53125 102.5 239.480469 102.125 238.433594 C 101.976562 238.058594 102.5 237.457031 102.652344 237.007812 C 103.101562 237.234375 103.699219 237.382812 103.925781 237.683594 C 104.523438 238.433594 104.972656 239.257812 105.425781 240.082031 C 106.324219 241.878906 108.121094 242.328125 109.921875 243.078125 C 109.621094 241.28125 109.320312 239.78125 109.097656 238.207031 C 109.171875 238.132812 109.320312 238.132812 109.398438 238.058594 C 109.773438 238.355469 110.222656 238.65625 110.445312 239.03125 C 110.972656 240.082031 111.496094 241.128906 111.871094 242.253906 C 112.320312 243.828125 112.917969 245.328125 114.34375 246.378906 C 115.46875 247.203125 116.519531 248.175781 117.566406 249 C 117.792969 249.226562 118.089844 249.375 118.316406 249.523438 C 118.316406 245.628906 118.316406 241.804688 118.316406 237.90625 C 117.792969 237.832031 117.417969 237.757812 117.042969 237.605469 C 115.769531 237.082031 114.269531 236.707031 113.21875 235.882812 C 111.71875 234.609375 110.222656 233.484375 108.273438 232.960938 C 108.199219 232.960938 108.121094 232.886719 108.046875 232.808594 C 108.347656 231.6875 109.320312 231.085938 110.671875 231.234375 C 112.09375 231.3125 113.144531 232.136719 114.117188 233.035156 C 115.769531 234.609375 117.792969 234.910156 119.890625 234.683594 C 121.613281 234.460938 123.414062 232.660156 123.714844 230.9375 C 123.9375 230.035156 123.636719 229.363281 122.738281 229.0625 C 121.164062 228.539062 119.964844 227.5625 118.839844 226.4375 C 118.089844 225.691406 117.34375 224.789062 116.519531 224.117188 C 114.945312 222.839844 113.292969 222.167969 111.195312 222.917969 C 108.871094 223.742188 107.222656 225.316406 105.722656 227.1875 C 103.851562 229.585938 103.101562 232.511719 101.675781 235.132812 C 98.753906 240.832031 99.953125 246.527344 101.828125 252.375 Z M 123.039062 103.0625 C 123.113281 103.136719 123.113281 103.289062 123.1875 103.363281 C 123.789062 103.289062 124.386719 103.289062 124.988281 103.136719 C 126.636719 102.539062 128.210938 101.863281 129.785156 101.1875 C 131.808594 100.363281 132.558594 100.890625 132.40625 102.988281 C 132.40625 103.136719 132.40625 103.289062 132.40625 103.363281 C 132.183594 104.335938 132.707031 104.863281 133.53125 104.863281 C 134.058594 104.863281 134.65625 104.710938 135.105469 104.414062 C 136.15625 103.664062 136.980469 102.761719 138.03125 102.015625 C 139.003906 101.265625 139.902344 101.265625 140.652344 102.238281 C 141.703125 103.585938 143.050781 104.039062 144.851562 103.886719 C 145 103.0625 145.226562 102.164062 145.226562 101.265625 C 145.152344 97.816406 145 94.367188 144.851562 90.921875 C 144.851562 90.46875 144.550781 89.945312 144.25 89.570312 C 142.902344 87.921875 141.628906 86.273438 141.101562 84.175781 C 141.027344 83.949219 140.726562 83.648438 140.503906 83.574219 C 137.503906 82.675781 135.707031 80.578125 134.65625 77.652344 C 134.582031 77.355469 134.433594 77.054688 134.28125 76.605469 C 134.132812 77.054688 134.058594 77.355469 133.980469 77.578125 C 133.234375 80.652344 132.632812 83.726562 131.808594 86.796875 C 130.308594 92.417969 128.210938 97.816406 123.863281 102.015625 C 123.488281 102.386719 123.261719 102.761719 123.039062 103.0625 Z M 157.519531 135.445312 C 162.316406 143.539062 164.9375 152.382812 168.085938 161.152344 C 171.757812 152.457031 173.257812 143.390625 176.03125 134.46875 C 172.882812 134.84375 169.886719 135.21875 166.8125 135.519531 C 163.8125 135.894531 160.742188 135.96875 157.519531 135.445312 Z M 191.398438 83.425781 C 190.421875 83.800781 189.671875 84.25 188.925781 84.324219 C 188.25 84.398438 187.949219 84.699219 187.726562 85.296875 C 186.675781 88.445312 185.027344 91.296875 182.253906 93.320312 C 182.027344 93.46875 181.804688 93.769531 181.878906 94.070312 C 181.953125 96.691406 182.101562 99.316406 182.328125 102.015625 C 182.328125 102.464844 182.703125 102.988281 182.851562 103.4375 C 184.277344 102.6875 184.652344 102.613281 186.074219 103.363281 C 187.726562 104.261719 189.300781 103.960938 191.023438 103.585938 C 190.347656 102.988281 189.75 102.464844 189.222656 101.863281 C 188.699219 101.265625 188.023438 100.515625 188.773438 99.691406 C 189.523438 98.941406 190.199219 99.691406 190.796875 100.140625 C 192.296875 101.265625 193.871094 102.015625 195.820312 102.089844 C 196.496094 102.089844 197.246094 101.9375 197.394531 101.265625 C 197.46875 100.816406 197.167969 100.140625 196.871094 99.765625 C 193.570312 96.542969 191.921875 92.496094 191.546875 87.996094 C 191.246094 86.5 191.398438 85 191.398438 83.425781 Z M 320.996094 233.710938 C 322.792969 233.109375 324.59375 233.183594 326.167969 234.085938 C 327.964844 235.132812 329.765625 234.757812 331.5625 234.683594 C 332.835938 234.609375 333.738281 233.636719 333.960938 232.511719 C 334.1875 231.3125 333.363281 230.636719 332.464844 230.113281 C 330.890625 229.136719 329.164062 228.761719 327.367188 228.464844 C 326.242188 228.3125 324.816406 228.164062 324.066406 227.488281 C 321.070312 224.640625 317.320312 224.863281 313.648438 224.789062 C 314.398438 225.464844 315.296875 226.0625 316.046875 226.738281 C 318.222656 228.613281 320.84375 230.261719 320.996094 233.710938 Z M 296.785156 242.03125 C 295.660156 240.753906 294.386719 239.78125 292.4375 240.457031 C 292.289062 240.53125 292.136719 240.457031 291.914062 240.53125 C 289.214844 240.832031 286.515625 241.128906 283.816406 241.429688 C 283.667969 242.40625 283.515625 243.304688 283.367188 244.277344 C 288.238281 245.179688 292.738281 244.953125 296.785156 242.03125 Z M 304.355469 238.058594 C 304.953125 238.957031 305.402344 239.78125 306.003906 240.53125 C 306.152344 240.679688 306.378906 240.832031 306.605469 240.90625 C 307.578125 241.207031 308.476562 241.429688 309.453125 241.65625 C 310.726562 241.953125 312 242.328125 313.273438 242.480469 C 314.398438 242.628906 314.921875 241.878906 314.546875 240.832031 C 314.324219 240.230469 313.949219 239.632812 313.574219 239.179688 C 311.25 236.859375 307.203125 236.40625 304.355469 238.058594 Z M 316.949219 240.007812 C 317.773438 240.082031 318.820312 240.230469 319.796875 240.378906 C 320.769531 240.53125 321.519531 240.230469 322.121094 239.480469 C 322.492188 239.03125 322.570312 238.65625 322.121094 238.132812 C 319.945312 235.660156 316.722656 234.835938 313.800781 235.957031 C 314.773438 237.308594 315.824219 238.582031 316.949219 240.007812 Z M 140.054688 80.5 C 139.078125 76.453125 138.179688 72.554688 137.207031 68.507812 C 137.054688 68.734375 136.980469 68.882812 136.90625 69.035156 C 136.082031 71.582031 135.929688 74.207031 136.605469 76.828125 C 137.128906 78.476562 138.105469 79.828125 140.054688 80.5 Z M 188.925781 81.476562 C 191.699219 80.050781 193.273438 72.707031 191.324219 70.980469 C 189.597656 74.207031 189.898438 77.878906 188.925781 81.476562 Z M 297.382812 239.855469 C 297.382812 240.007812 297.308594 240.082031 297.308594 240.230469 C 298.734375 241.054688 300.15625 242.03125 301.65625 242.78125 C 302.332031 243.152344 303.15625 243.152344 303.679688 242.328125 C 303.90625 241.953125 304.054688 241.207031 303.832031 240.980469 C 303.304688 240.304688 302.929688 239.257812 301.882812 239.332031 C 300.382812 239.40625 298.882812 239.707031 297.382812 239.855469 Z M 324.667969 240.007812 C 325.042969 240.082031 325.265625 240.082031 325.417969 240.15625 C 326.242188 240.378906 326.917969 239.929688 327.140625 239.257812 C 327.367188 238.808594 327.214844 238.058594 326.992188 237.605469 C 326.167969 236.257812 324.816406 235.734375 323.242188 235.433594 C 324.441406 236.78125 325.34375 238.132812 324.667969 240.007812 Z M 324.667969 240.007812 " fill-opacity="1" fill-rule="nonzero"/></svg>