<svg xmlns="http://www.w3.org/2000/svg" xmlns:xlink="http://www.w3.org/1999/xlink" width="500" zoomAndPan="magnify" viewBox="0 0 375 374.999991" height="500" preserveAspectRatio="xMidYMid meet" version="1.0"><defs><clipPath id="a43ea5a8fd"><path d="M 81.65625 0 L 293.15625 0 L 293.15625 369 L 81.65625 369 Z M 81.65625 0 " clip-rule="nonzero"/></clipPath></defs><g clip-path="url(#a43ea5a8fd)"><path fill="#e12c2c" d="M 251 14.59375 C 251.992188 18.101562 253.554688 23.738281 255.183594 29.359375 C 257.710938 38.078125 259.734375 46.847656 259.59375 56.042969 C 259.503906 61.765625 259.757812 67.519531 260.304688 73.21875 C 260.675781 77.082031 261.886719 80.792969 263.949219 84.246094 C 267.113281 89.550781 269.667969 95.152344 271.570312 101.078125 C 273.359375 106.652344 275.824219 112.003906 277.664062 117.5625 C 280.058594 124.785156 282.519531 132.023438 284.261719 139.417969 C 287.894531 154.824219 290.675781 170.410156 291.84375 186.214844 C 292.277344 192.046875 291.863281 197.933594 292.011719 203.792969 C 292.203125 211.277344 292.683594 218.753906 292.839844 226.238281 C 293.078125 237.695312 293.34375 249.15625 293.234375 260.609375 C 293.132812 271.214844 292.878906 281.839844 292.082031 292.410156 C 291.460938 300.632812 289.941406 308.789062 288.734375 316.960938 C 288.527344 318.359375 288.011719 319.746094 287.429688 321.042969 C 286.625 322.828125 285.402344 323.921875 283.207031 324.296875 C 279.894531 324.859375 231.667969 342.625 222.839844 346.457031 C 213.597656 350.46875 167.578125 367.277344 165.21875 367.242188 C 160.625 367.175781 156.019531 367.796875 151.425781 368.179688 C 149.617188 368.332031 147.820312 368.808594 146.023438 368.777344 C 142.464844 368.714844 138.894531 368.554688 135.371094 368.101562 C 134.3125 367.964844 133.257812 366.867188 132.433594 365.988281 C 129.382812 362.742188 90.863281 334.398438 88.773438 331.757812 C 84.679688 326.578125 82.09375 320.976562 83.378906 313.917969 C 85.359375 303.046875 85.277344 292.050781 84.5625 281.019531 C 83.867188 270.234375 83.742188 259.414062 83.328125 248.613281 C 83.203125 245.300781 82.839844 241.992188 82.792969 238.683594 C 82.578125 224.445312 82.480469 210.210938 82.265625 195.976562 C 82.125 186.863281 81.65625 177.75 81.695312 168.640625 C 81.734375 159.402344 82.011719 150.15625 82.605469 140.941406 C 82.832031 137.425781 84 133.90625 85.136719 130.523438 C 88.429688 120.734375 89.996094 110.738281 90.117188 100.394531 C 90.242188 90.113281 90.96875 79.832031 91.5 69.554688 C 91.953125 60.785156 92.378906 52.011719 93.0625 43.257812 C 93.421875 38.726562 94.210938 34.21875 95.03125 29.742188 C 95.3125 28.207031 96.25 26.785156 96.945312 25.335938 C 97.472656 24.230469 98.003906 23.105469 98.691406 22.101562 C 99.25 21.277344 99.917969 20.242188 100.761719 19.953125 C 104.179688 18.769531 107.628906 17.550781 111.167969 16.890625 C 115.511719 16.082031 119.945312 15.730469 124.351562 15.347656 C 128.230469 15.011719 132.15625 15.128906 136.011719 14.65625 C 144.121094 13.664062 152.203125 13.753906 160.347656 14.253906 C 165.050781 14.546875 169.828125 13.910156 174.558594 13.5 C 179.941406 13.039062 185.378906 12.734375 190.664062 11.699219 C 198.890625 10.085938 207.015625 7.933594 215.167969 5.960938 C 222.195312 4.265625 229.167969 2.34375 236.234375 0.84375 C 239.570312 0.140625 243.0625 0.621094 246.144531 2.234375 C 249.332031 3.90625 250.34375 6.414062 251 14.59375 Z M 275.722656 321.082031 C 280.664062 320.726562 284.242188 319.269531 284.730469 314.679688 C 285.582031 306.65625 287.164062 298.699219 287.695312 290.664062 C 288.445312 279.234375 288.707031 267.761719 288.832031 256.304688 C 288.953125 245.496094 288.660156 234.6875 288.484375 223.878906 C 288.347656 215.28125 288.121094 206.6875 287.925781 198.089844 C 287.804688 192.75 288.066406 187.363281 287.453125 182.082031 C 286.488281 173.746094 284.890625 165.484375 283.628906 157.179688 C 282.484375 149.640625 281.339844 142.113281 278.972656 134.824219 C 277.164062 129.257812 275.617188 123.605469 273.757812 118.058594 C 272 112.8125 269.757812 107.722656 268.144531 102.4375 C 266.1875 96.027344 263.472656 90.007812 259.96875 84.339844 C 257.703125 80.671875 256.738281 76.570312 256.375 72.484375 C 255.785156 65.878906 256.066406 59.203125 255.667969 52.578125 C 255.386719 47.917969 254.835938 43.242188 253.972656 38.652344 C 252.070312 28.550781 247.386719 19.121094 246.632812 8.722656 C 246.59375 8.21875 246.488281 7.609375 246.179688 7.25 C 245.570312 6.539062 244.851562 5.519531 244.082031 5.425781 C 241.398438 5.105469 238.570312 4.609375 235.980469 5.113281 C 230.242188 6.238281 224.625 7.960938 218.941406 9.382812 C 210.734375 11.433594 202.582031 13.789062 194.277344 15.347656 C 187.003906 16.714844 179.574219 17.402344 172.179688 17.9375 C 166.8125 18.324219 161.390625 17.871094 156 17.980469 C 149.757812 18.105469 143.515625 18.390625 137.277344 18.691406 C 133.707031 18.863281 130.140625 19.480469 126.582031 19.40625 C 119.933594 19.261719 113.363281 20.152344 107.109375 22.003906 C 101.816406 23.574219 100.0625 24.484375 100.703125 30.9375 C 101.449219 38.457031 102.273438 45.96875 102.921875 53.496094 C 104.191406 68.261719 108.363281 82.398438 112.078125 96.632812 C 115.53125 109.871094 119.210938 123.050781 122.699219 136.277344 C 123.980469 141.148438 124.605469 146.121094 124.222656 151.183594 C 123.769531 157.15625 123.402344 163.136719 122.902344 169.105469 C 122.082031 178.914062 124.113281 188.585938 124.25 198.347656 C 124.257812 199.109375 124.234375 199.882812 124.128906 200.632812 C 123.960938 201.804688 123.492188 202.972656 123.527344 204.128906 C 123.738281 211.476562 124.0625 218.824219 124.335938 226.171875 C 124.582031 232.738281 124.8125 239.308594 125.046875 245.875 C 125.328125 253.742188 126.128906 261.632812 125.769531 269.472656 C 125.199219 281.921875 125.414062 294.339844 125.71875 306.773438 C 125.921875 315.101562 126.277344 323.445312 125.984375 331.761719 C 125.691406 340.167969 126.199219 348.230469 130.449219 355.769531 C 134.925781 363.714844 137.738281 365.464844 144.75 364.496094 C 146.691406 364.226562 147.707031 363.429688 147.90625 361.515625 C 148.390625 356.792969 148.929688 352.074219 149.378906 347.347656 C 150.28125 337.757812 151.5625 328.175781 151.882812 318.566406 C 152.136719 310.859375 151.300781 303.105469 150.746094 295.390625 C 150.453125 291.371094 149.527344 287.398438 149.21875 283.378906 C 148.632812 275.722656 148.5 268.027344 147.78125 260.386719 C 146.519531 246.964844 144.902344 233.578125 143.535156 220.164062 C 142.773438 212.648438 142.050781 205.121094 141.621094 197.582031 C 141.113281 188.742188 141.1875 179.863281 140.554688 171.03125 C 140.070312 164.222656 138.859375 157.464844 138.042969 150.675781 C 137.851562 149.074219 137.761719 147.40625 138.019531 145.832031 C 138.171875 144.910156 138.945312 143.625 139.726562 143.363281 C 142.429688 142.457031 145.253906 141.921875 148.039062 141.261719 C 149.304688 140.964844 150.589844 140.746094 151.851562 140.421875 C 154.097656 139.839844 156.3125 139.117188 158.578125 138.613281 C 163.457031 137.523438 168.378906 136.625 173.242188 135.476562 C 176.085938 134.804688 178.832031 133.726562 181.65625 132.960938 C 192.71875 129.964844 203.796875 127.019531 214.867188 124.050781 C 222.097656 122.109375 229.292969 120.019531 236.566406 118.265625 C 241.175781 117.152344 245.878906 116.214844 250.589844 115.800781 C 254.4375 115.464844 258.371094 115.941406 262.257812 116.214844 C 264.066406 116.34375 265.332031 117.570312 265.507812 119.367188 C 265.882812 123.171875 266.019531 127 266.296875 130.816406 C 266.410156 132.363281 266.507812 133.929688 266.847656 135.4375 C 268.535156 143 270.421875 150.519531 272.007812 158.101562 C 273.433594 164.914062 274.484375 171.804688 275.84375 178.632812 C 277.238281 185.621094 277.769531 192.664062 277.808594 199.769531 C 277.824219 203.15625 277.269531 217.753906 277.480469 221.351562 C 277.886719 228.367188 278.378906 235.382812 278.554688 242.40625 C 278.679688 247.34375 278.226562 252.296875 278.238281 257.242188 C 278.261719 265.246094 278.574219 273.25 278.539062 281.253906 C 278.5 288.929688 278.398438 296.621094 277.902344 304.277344 C 277.542969 309.84375 276.488281 315.367188 275.722656 321.082031 Z M 170.152344 361.054688 C 170.984375 360.914062 171.664062 360.847656 172.320312 360.683594 C 174.148438 360.21875 175.941406 359.5625 177.796875 359.246094 C 184.457031 358.113281 190.914062 356.289062 196.882812 353.121094 C 210.265625 346.015625 224.523438 340.929688 238.476562 335.167969 C 249.414062 330.648438 260.726562 327.042969 271.851562 322.96875 C 272.597656 322.695312 273.601562 321.96875 273.714844 321.3125 C 274.695312 315.738281 275.929688 310.15625 276.253906 304.527344 C 276.773438 295.5 276.707031 286.441406 276.796875 277.394531 C 276.871094 269.648438 276.808594 261.898438 276.824219 254.152344 C 276.835938 248.613281 276.96875 243.074219 276.890625 237.539062 C 276.699219 224.207031 276.417969 210.875 276.164062 197.542969 C 276.101562 194.417969 276.332031 191.242188 275.871094 188.175781 C 274.570312 179.488281 273.105469 170.820312 271.464844 162.191406 C 270.238281 155.734375 268.800781 149.308594 267.160156 142.941406 C 265.582031 136.808594 264.113281 130.707031 264.429688 124.304688 C 264.503906 122.824219 264.398438 121.261719 263.972656 119.863281 C 263.71875 119.027344 262.742188 117.902344 261.984375 117.8125 C 258.445312 117.394531 254.734375 116.566406 251.328125 117.203125 C 240.847656 119.167969 230.421875 121.515625 220.078125 124.121094 C 209.027344 126.902344 198.105469 130.179688 187.109375 133.175781 C 178.578125 135.5 170.027344 137.75 161.46875 139.96875 C 160.1875 140.300781 160.160156 140.878906 160.503906 141.933594 C 161.046875 143.605469 161.5 145.304688 161.925781 147.011719 C 163.515625 153.367188 162.8125 159.855469 162.851562 166.285156 C 162.921875 177.773438 161.246094 189.308594 164.0625 200.707031 C 164.621094 202.980469 165.125 205.292969 165.382812 207.613281 C 167.097656 222.871094 168.785156 238.136719 170.378906 253.40625 C 170.925781 258.648438 171.042969 263.933594 171.605469 269.171875 C 172.164062 274.40625 173.039062 279.605469 173.78125 284.816406 C 174.054688 286.75 174.507812 288.675781 174.597656 290.617188 C 175.144531 302.109375 173.90625 313.488281 172.332031 324.851562 C 171.886719 328.050781 171.960938 331.324219 171.867188 334.566406 C 171.695312 340.417969 171.679688 346.277344 171.382812 352.125 C 171.234375 355.019531 170.601562 357.894531 170.152344 361.054688 Z M 87.785156 320.472656 C 88.75 319.46875 89.402344 318.851562 89.984375 318.171875 C 91.808594 316.046875 93.59375 313.890625 95.40625 311.757812 C 101.484375 304.613281 107.679688 297.566406 113.613281 290.308594 C 117.722656 285.28125 122.425781 280.6875 121.828125 273.050781 C 121.183594 264.898438 121.777344 256.660156 121.5625 248.46875 C 121.421875 243.136719 120.644531 237.828125 120.445312 232.496094 C 120.09375 223.261719 119.96875 214.019531 119.742188 204.78125 C 119.707031 203.347656 119.640625 201.917969 119.609375 200.484375 C 119.515625 195.628906 119.449219 190.769531 119.339844 185.910156 C 119.203125 179.730469 118.832031 173.550781 118.9375 167.375 C 119.042969 161.199219 119.644531 155.03125 119.960938 148.855469 C 120.316406 141.832031 118.28125 135.179688 116.550781 128.507812 C 113.03125 114.957031 109.347656 101.449219 105.730469 87.921875 C 105.019531 85.261719 104.308594 82.597656 103.597656 79.9375 C 103.300781 79.957031 103 79.972656 102.703125 79.992188 C 102.609375 82.527344 102.382812 85.070312 102.449219 87.605469 C 102.675781 96.605469 102.6875 105.578125 100.640625 114.425781 C 98.855469 122.167969 97.433594 130.007812 95.261719 137.636719 C 92.523438 147.261719 89.1875 156.71875 86.121094 166.25 C 85.980469 166.679688 85.902344 167.144531 85.902344 167.59375 C 85.925781 172.863281 85.921875 178.136719 86.015625 183.40625 C 86.109375 188.941406 86.292969 194.476562 86.453125 200.007812 C 86.667969 207.425781 86.996094 214.84375 87.097656 222.265625 C 87.183594 228.757812 87.015625 235.253906 86.976562 241.75 C 86.976562 242.210938 87.09375 242.675781 87.199219 243.425781 C 89.238281 241.128906 91.003906 239.085938 92.832031 237.105469 C 93.539062 236.335938 94.386719 235.699219 95.171875 235 C 94.761719 236.082031 94.5625 237.320312 93.902344 238.214844 C 92.125 240.621094 90.113281 242.851562 88.261719 245.203125 C 86.878906 246.964844 86.828125 249.34375 88.089844 251.171875 C 90.585938 247.96875 93.042969 244.785156 95.535156 241.628906 C 96.234375 240.742188 96.730469 239.441406 98.820312 239.910156 C 97.335938 241.8125 95.996094 243.441406 94.753906 245.132812 C 92.441406 248.277344 90.101562 251.40625 87.941406 254.652344 C 86.804688 256.355469 87.109375 258.554688 88.335938 259.808594 C 92.433594 254.277344 96.769531 248.960938 101.375 243.878906 C 101.65625 244.097656 101.941406 244.3125 102.226562 244.527344 C 101.613281 245.402344 101.050781 246.320312 100.382812 247.148438 C 96.503906 251.964844 92.570312 256.730469 88.71875 261.566406 C 86.953125 263.785156 87.882812 266.183594 88.558594 268.664062 C 89.695312 267.800781 90.625 266.851562 91.464844 265.828125 C 96.757812 259.386719 102.019531 252.917969 107.332031 246.496094 C 107.710938 246.042969 108.445312 245.886719 109.015625 245.59375 C 108.863281 246.210938 108.886719 246.96875 108.527344 247.425781 C 106.066406 250.535156 103.554688 253.605469 100.996094 256.640625 C 97.132812 261.222656 93.207031 265.75 89.339844 270.328125 C 88.34375 271.503906 87.671875 272.800781 88.917969 274.558594 C 90.734375 272.519531 92.492188 270.628906 94.152344 268.660156 C 98.777344 263.183594 103.339844 257.664062 107.980469 252.207031 C 108.546875 251.539062 109.425781 251.140625 110.164062 250.617188 L 110.667969 251.226562 C 110.308594 251.703125 109.972656 252.203125 109.582031 252.65625 C 102.832031 260.507812 96.0625 268.34375 89.328125 276.210938 C 88.0625 277.6875 88.085938 279.714844 88.957031 280.953125 C 95.453125 273.859375 102.027344 266.6875 108.597656 259.511719 C 108.117188 259.457031 108.027344 259.761719 107.847656 260 C 104.953125 263.847656 102.082031 267.710938 99.132812 271.519531 C 96.027344 275.53125 92.824219 279.472656 89.695312 283.476562 C 88.105469 285.507812 88.816406 287.714844 89.164062 290.304688 C 89.789062 289.71875 90.164062 289.480469 90.390625 289.140625 C 91.261719 287.84375 91.957031 286.40625 92.941406 285.210938 C 98.371094 278.640625 103.859375 272.113281 109.363281 265.601562 C 109.699219 265.203125 110.332031 265.054688 110.828125 264.789062 C 110.964844 264.9375 111.097656 265.082031 111.230469 265.230469 C 110.859375 265.847656 110.5625 266.53125 110.101562 267.078125 C 106.652344 271.152344 103.375 275.398438 99.640625 279.195312 C 95.710938 283.1875 93.601562 288.542969 89.363281 292.238281 C 89.203125 294.558594 89.042969 296.875 88.882812 299.191406 C 89.089844 299.207031 89.292969 299.226562 89.496094 299.242188 C 93.546875 294.675781 97.601562 290.109375 101.652344 285.539062 C 105.671875 281.003906 108.996094 275.855469 113.652344 271.832031 C 113.628906 272.625 113.335938 273.222656 112.921875 273.726562 C 110.414062 276.800781 107.890625 279.867188 105.355469 282.917969 C 100.234375 289.074219 95.023438 295.15625 90.003906 301.394531 C 87.757812 304.1875 88.652344 307.714844 88.253906 310.957031 C 88.773438 310.75 89.054688 310.492188 89.289062 310.199219 C 94.90625 303.195312 100.503906 296.171875 106.144531 289.1875 C 108.964844 285.695312 111.851562 282.25 114.75 278.820312 C 115.125 278.375 115.757812 278.140625 116.273438 277.804688 C 116.457031 278.003906 116.640625 278.203125 116.828125 278.402344 C 115.765625 279.632812 114.6875 280.847656 113.644531 282.089844 C 108.871094 287.769531 104 293.371094 99.378906 299.171875 C 95.53125 304.003906 91.957031 309.058594 88.3125 314.050781 C 86.988281 315.867188 87.066406 317.894531 87.785156 320.472656 Z M 164.589844 213.179688 C 164.039062 210.027344 163.628906 207.589844 163.191406 205.15625 C 162.296875 200.164062 160.738281 195.191406 160.625 190.183594 C 160.390625 179.78125 160.859375 169.359375 161.152344 158.949219 C 161.3125 153.347656 160.574219 147.917969 158.773438 142.621094 C 158.460938 141.707031 158.179688 140.859375 156.917969 141.136719 C 152.40625 142.132812 147.867188 143.003906 143.390625 144.128906 C 140.128906 144.945312 139.226562 146.457031 139.476562 149.851562 C 139.535156 150.628906 139.65625 151.40625 139.820312 152.167969 C 142.410156 164.09375 142.03125 176.25 142.667969 188.328125 C 142.894531 192.683594 143 197.050781 143.347656 201.398438 C 144.152344 211.457031 144.972656 221.515625 145.980469 231.550781 C 146.667969 238.410156 147.699219 245.238281 148.539062 252.082031 C 149.0625 256.339844 149.632812 260.59375 149.972656 264.867188 C 150.585938 272.515625 150.707031 280.21875 151.648438 287.824219 C 153.03125 298.964844 154.402344 310.09375 153.527344 321.316406 C 152.480469 334.808594 151.117188 348.277344 149.804688 361.746094 C 149.644531 363.375 150.15625 363.9375 151.644531 363.859375 C 155.277344 363.664062 158.945312 363.703125 162.535156 363.183594 C 168.015625 362.386719 167.816406 363.199219 168.503906 357.300781 C 169.074219 352.398438 169.769531 347.492188 170 342.570312 C 170.324219 335.761719 170.046875 328.960938 170.980469 322.132812 C 172.648438 309.894531 174.230469 297.59375 172.171875 285.199219 C 171.4375 280.789062 170.910156 276.347656 170.292969 271.917969 C 170.066406 270.308594 169.765625 268.707031 169.636719 267.089844 C 169.296875 262.875 169.140625 258.640625 168.730469 254.433594 C 167.367188 240.441406 165.925781 226.457031 164.589844 213.179688 Z M 97.65625 43.667969 C 97.53125 43.660156 97.40625 43.648438 97.285156 43.640625 C 97.082031 44.691406 96.785156 45.730469 96.695312 46.789062 C 96.367188 50.550781 96.019531 54.3125 95.851562 58.082031 C 95.648438 62.632812 95.6875 67.195312 95.507812 71.746094 C 95.140625 81.183594 94.582031 90.613281 94.316406 100.050781 C 94.097656 107.75 93.882812 115.429688 91.828125 122.910156 C 90.261719 128.625 88.4375 134.273438 87.015625 140.019531 C 86.480469 142.191406 86.746094 144.5625 86.648438 146.839844 C 86.863281 146.855469 87.074219 146.871094 87.289062 146.890625 C 88.574219 143.242188 90.105469 139.65625 91.09375 135.929688 C 93.085938 128.453125 94.875 120.917969 96.566406 113.367188 C 98.019531 106.863281 98.417969 100.265625 98.320312 93.578125 C 98.21875 86.234375 98.890625 78.886719 98.996094 71.535156 C 99.066406 66.476562 100.238281 61.460938 99.289062 56.347656 C 98.578125 52.515625 98.320312 48.597656 97.851562 44.71875 C 97.808594 44.367188 97.722656 44.015625 97.65625 43.667969 Z M 120.761719 284.042969 C 120.074219 284.679688 119.472656 285.128906 119.007812 285.6875 C 117.671875 287.285156 116.421875 288.949219 115.085938 290.546875 C 106.617188 300.679688 98.148438 310.8125 89.632812 320.910156 C 88.347656 322.4375 88.503906 323.8125 89.472656 325.347656 C 90.273438 326.617188 90.933594 326.914062 92.101562 325.570312 C 100.371094 316.039062 108.605469 306.480469 117.066406 297.121094 C 120.445312 293.386719 122.363281 289.515625 120.761719 284.042969 Z M 121.054688 295.113281 C 120.605469 295.390625 120.292969 295.5 120.101562 295.714844 C 118.460938 297.566406 116.855469 299.445312 115.222656 301.300781 C 109.039062 308.347656 102.839844 315.378906 96.667969 322.4375 C 95.339844 323.953125 94.125 325.570312 92.828125 327.117188 C 91.433594 328.777344 92.808594 329.660156 93.765625 330.695312 C 94.882812 331.90625 95.621094 330.988281 96.332031 330.242188 C 97.949219 328.546875 99.566406 326.851562 101.109375 325.089844 C 106.941406 318.421875 112.527344 311.53125 118.644531 305.136719 C 121.589844 302.054688 121.285156 298.863281 121.054688 295.113281 Z M 121.160156 304.625 C 119.800781 305.964844 118.699219 306.929688 117.738281 308.019531 C 110.953125 315.734375 104.195312 323.472656 97.425781 331.207031 C 95.855469 333 96 333.292969 98.1875 335.449219 C 99.789062 337.023438 100.542969 335.78125 101.414062 334.746094 C 107.492188 327.535156 113.433594 320.207031 119.691406 313.15625 C 121.941406 310.621094 121.917969 308.125 121.160156 304.625 Z M 121.90625 314.128906 C 121.707031 314.011719 121.503906 313.890625 121.304688 313.773438 C 120.535156 314.507812 119.695312 315.183594 119.015625 315.992188 C 113.40625 322.664062 107.847656 329.375 102.230469 336.039062 C 101.222656 337.234375 101.144531 338.109375 102.480469 339.078125 C 103.617188 339.90625 104.453125 340.824219 105.804688 339.136719 C 110.640625 333.097656 115.570312 327.125 120.574219 321.222656 C 122.46875 318.988281 122.113281 316.59375 121.90625 314.128906 Z M 121.996094 323.046875 C 121.820312 322.957031 121.644531 322.863281 121.46875 322.769531 C 121.046875 323.132812 120.5625 323.441406 120.210938 323.863281 C 116.078125 328.867188 111.949219 333.878906 107.855469 338.921875 C 107.164062 339.769531 106.050781 340.667969 107.503906 341.863281 C 109.390625 343.414062 110.675781 343.605469 111.867188 342.175781 C 114.738281 338.742188 117.378906 335.109375 120.355469 331.773438 C 122.785156 329.046875 122.125 326.058594 121.996094 323.046875 Z M 113.183594 344.359375 C 114.96875 346.5625 116.492188 346.582031 118.457031 343.886719 C 119.296875 342.738281 120.175781 341.59375 120.824219 340.335938 C 121.796875 338.453125 121.746094 336.460938 121.179688 334.113281 C 118.398438 337.675781 115.878906 340.90625 113.183594 344.359375 Z M 122.511719 349.132812 C 122.382812 347.59375 122.375 346.5 122.167969 345.445312 C 122.0625 344.894531 121.613281 344.40625 121.316406 343.886719 C 120.53125 344.554688 119.664062 345.15625 119 345.929688 C 118.769531 346.199219 118.855469 347.175781 119.117188 347.355469 C 120.085938 348.011719 121.191406 348.46875 122.511719 349.132812 Z M 214.421875 288.28125 C 218.550781 286.527344 222.207031 284.878906 225.941406 283.441406 C 227.242188 282.9375 228.738281 282.84375 230.160156 282.761719 C 232.277344 282.640625 233.441406 283.707031 232.867188 285.734375 C 232.191406 288.121094 231.109375 290.46875 229.789062 292.578125 C 227.410156 296.386719 223.839844 299.167969 219.738281 300.648438 C 215.9375 302.019531 211.746094 302.660156 207.625 301.847656 C 205.546875 301.4375 204.566406 302.214844 203.636719 303.957031 C 200.980469 308.945312 198.449219 313.996094 194.511719 318.214844 C 192.09375 320.800781 189.851562 323.660156 188.109375 326.726562 C 187.066406 328.566406 187.183594 331.046875 186.667969 333.214844 C 186.5 333.933594 185.992188 334.570312 185.636719 335.246094 C 185.273438 334.601562 184.609375 333.96875 184.589844 333.3125 C 184.460938 328.589844 186.867188 324.851562 189.601562 321.316406 C 191.109375 319.367188 193.082031 317.75 194.433594 315.710938 C 197.367188 311.28125 200.046875 306.679688 202.796875 302.125 C 203.011719 301.765625 203.085938 301.222656 203.007812 300.800781 C 201.773438 293.910156 202.917969 287.050781 203.257812 280.183594 C 203.429688 276.675781 203.550781 273.136719 204.128906 269.6875 C 204.484375 267.570312 205.632812 265.578125 206.496094 263.5625 C 206.6875 263.117188 207.125 262.589844 207.550781 262.464844 C 208.863281 262.089844 210.40625 261.394531 211.511719 261.789062 C 212.382812 262.097656 213.164062 263.8125 213.246094 264.953125 C 213.472656 268.0625 213.554688 271.222656 213.246094 274.320312 C 212.6875 279.929688 211.804688 285.511719 211.046875 291.167969 C 211.339844 290.808594 211.816406 290.371094 212.121094 289.835938 C 214.792969 285.082031 217.585938 280.386719 219.996094 275.503906 C 220.785156 273.902344 220.460938 271.777344 220.800781 269.921875 C 222.074219 262.972656 219.671875 256.390625 218.929688 249.636719 C 218.402344 244.804688 218.269531 239.84375 220.296875 235.207031 C 220.9375 233.738281 221.859375 232.351562 222.855469 231.085938 C 224.976562 228.382812 228.730469 228.636719 230.21875 231.75 C 231.113281 233.621094 231.65625 235.835938 231.691406 237.90625 C 231.757812 241.464844 231.300781 245.03125 231.023438 249.207031 C 231.605469 248.328125 231.972656 247.933594 232.15625 247.464844 C 232.875 245.648438 233.390625 243.738281 234.242188 241.992188 C 236.722656 236.925781 234.691406 232.726562 231.957031 228.558594 C 229.0625 224.152344 226.269531 219.683594 223.441406 215.234375 C 222.035156 213.023438 221.816406 211.109375 222.824219 209.988281 C 223.976562 208.710938 226.261719 208.480469 228.472656 209.589844 C 231.191406 210.953125 233.847656 212.441406 236.804688 214.019531 C 235.082031 208.554688 233.4375 203.339844 231.753906 198 C 231.019531 193.160156 229.121094 182.234375 232.238281 173.726562 C 236.535156 175.140625 239.300781 178.269531 241.550781 182.214844 C 243.808594 186.175781 243.898438 190.175781 242.96875 194.4375 C 242.234375 197.804688 241.417969 201.199219 241.164062 204.621094 C 240.886719 208.402344 241.203125 212.222656 241.261719 216.027344 C 241.527344 216.097656 241.792969 216.167969 242.058594 216.238281 C 243.183594 214.324219 244.273438 212.386719 245.4375 210.492188 C 247.882812 206.515625 250.226562 202.460938 252.882812 198.628906 C 254.589844 196.164062 257.191406 195.679688 259.363281 196.851562 C 261.152344 197.816406 262.226562 201.15625 261.109375 203.527344 C 259.480469 206.984375 257.796875 210.480469 255.628906 213.605469 C 252.746094 217.765625 249.433594 221.640625 246.1875 225.535156 C 243.265625 229.035156 240.757812 232.71875 238.527344 236.75 C 234.828125 243.429688 232.949219 250.804688 229.632812 257.59375 C 229.5 257.871094 229.433594 258.1875 229.65625 258.757812 C 230.570312 257.753906 231.507812 256.773438 232.390625 255.746094 C 233.328125 254.664062 234.167969 253.496094 235.132812 252.4375 C 237.320312 250.039062 239.445312 247.566406 241.804688 245.351562 C 243.859375 243.425781 246.417969 242.410156 249.332031 242.816406 C 251.492188 243.113281 252.324219 244.320312 251.609375 246.390625 C 250.996094 248.164062 250.269531 249.949219 249.28125 251.53125 C 245.679688 257.289062 241.726562 262.816406 236.242188 266.957031 C 233.1875 269.261719 230.070312 271.691406 226.597656 273.171875 C 223.261719 274.59375 220.988281 276.757812 219.21875 279.644531 C 217.53125 282.394531 216.074219 285.285156 214.421875 288.28125 Z M 222.816406 268.054688 C 222.941406 268.09375 223.066406 268.132812 223.191406 268.171875 C 223.417969 267.597656 223.683594 267.03125 223.867188 266.441406 C 224.628906 264.023438 225.199219 261.527344 226.148438 259.183594 C 228.875 252.445312 230.011719 245.410156 230.136719 238.207031 C 230.167969 236.390625 229.78125 234.421875 229.042969 232.761719 C 227.839844 230.058594 225.570312 229.863281 223.683594 232.089844 C 222.980469 232.921875 222.429688 233.902344 221.902344 234.863281 C 220.019531 238.328125 219.792969 242.144531 220.132812 245.902344 C 220.554688 250.613281 221.507812 255.277344 222.117188 259.976562 C 222.464844 262.652344 222.589844 265.359375 222.816406 268.054688 Z M 223.890625 272.066406 C 224.15625 272.277344 224.421875 272.488281 224.6875 272.703125 C 225.753906 272.136719 226.832031 271.589844 227.890625 271.007812 C 237.308594 265.839844 244.445312 258.449219 249.144531 248.792969 C 249.761719 247.527344 250.300781 245.265625 249.660156 244.550781 C 248.484375 243.230469 246.523438 244.101562 244.957031 244.839844 C 244.898438 244.867188 244.839844 244.898438 244.789062 244.941406 C 242.8125 246.621094 240.582031 248.085938 238.914062 250.03125 C 235.230469 254.328125 231.644531 258.734375 228.386719 263.351562 C 226.519531 265.996094 225.363281 269.144531 223.890625 272.066406 Z M 239.878906 215.75 C 239.878906 215.054688 239.867188 214.355469 239.875 213.65625 C 239.914062 210.425781 239.710938 207.167969 240.066406 203.96875 C 240.507812 199.96875 241.230469 195.980469 242.164062 192.0625 C 243.121094 188.042969 241.5 184.40625 239.320312 181.113281 C 237.980469 179.089844 235.898438 177.664062 234.136719 176.039062 C 234.066406 175.980469 233.0625 178.988281 232.945312 179.316406 C 232.359375 180.96875 232.3125 182.765625 232.375 184.5 C 232.578125 189.851562 233.054688 195.375 234.3125 200.65625 C 235.558594 205.878906 237.597656 210.902344 239.878906 215.75 Z M 238.179688 233.429688 C 238.554688 233.070312 238.753906 232.921875 238.90625 232.730469 C 242.289062 228.441406 245.613281 224.101562 249.058594 219.859375 C 252.835938 215.207031 256.796875 210.660156 259.035156 205.015625 C 259.640625 203.480469 259.828125 201.585938 259.582031 199.949219 C 259.261719 197.804688 257.253906 196.980469 255.421875 198.207031 C 253.953125 199.1875 252.535156 200.511719 251.625 202.003906 C 249.324219 205.78125 247.210938 209.679688 245.253906 213.640625 C 244.191406 215.792969 243.824219 218.285156 242.746094 220.425781 C 240.710938 224.480469 238.59375 228.46875 238.179688 233.429688 Z M 205.75 298.921875 C 205.960938 299.210938 206.175781 299.5 206.386719 299.792969 C 206.925781 299.964844 207.453125 300.25 208 300.296875 C 213.90625 300.796875 219.566406 300.253906 224.429688 296.367188 C 227.507812 293.90625 229.691406 290.804688 231.035156 287.121094 C 231.914062 284.714844 231.257812 283.746094 228.824219 284.203125 C 226.609375 284.621094 224.410156 285.324219 222.328125 286.203125 C 216.714844 288.570312 212.234375 292.488281 208.167969 296.941406 C 207.472656 297.703125 206.5625 298.265625 205.75 298.921875 Z M 204.542969 297.914062 C 204.710938 297.960938 204.878906 298.003906 205.042969 298.050781 C 205.984375 296.316406 206.914062 294.578125 207.871094 292.855469 C 210.265625 288.539062 211.21875 283.835938 211.464844 278.984375 C 211.699219 274.378906 211.78125 269.761719 211.78125 265.148438 C 211.78125 264.40625 211.140625 263.339844 210.5 263.03125 C 210.03125 262.800781 208.730469 263.363281 208.410156 263.921875 C 207.296875 265.847656 205.828125 267.867188 205.621094 269.960938 C 204.867188 277.527344 204.53125 285.136719 204.144531 292.734375 C 204.054688 294.449219 204.398438 296.1875 204.542969 297.914062 Z M 236.097656 232.679688 C 236.269531 232.671875 236.441406 232.667969 236.613281 232.660156 C 237.480469 229.078125 238.515625 225.523438 239.152344 221.898438 C 239.503906 219.886719 238.949219 217.6875 237.144531 216.476562 C 233.929688 214.3125 230.523438 212.421875 227.175781 210.457031 C 226.808594 210.242188 226.296875 210.21875 225.847656 210.210938 C 223.882812 210.164062 223.082031 211.296875 223.851562 213.097656 C 224.15625 213.804688 224.613281 214.453125 225.027344 215.109375 C 226.378906 217.25 227.753906 219.375 229.105469 221.519531 C 231.441406 225.234375 233.769531 228.957031 236.097656 232.679688 Z M 236.097656 232.679688 " fill-opacity="1" fill-rule="nonzero"/></g></svg>