<svg xmlns="http://www.w3.org/2000/svg" xmlns:xlink="http://www.w3.org/1999/xlink" width="500" zoomAndPan="magnify" viewBox="0 0 375 374.999991" height="500" preserveAspectRatio="xMidYMid meet" version="1.0"><defs><clipPath id="2f698ede95"><path d="M 54.566406 0 L 334 0 L 334 375 L 54.566406 375 Z M 54.566406 0 " clip-rule="nonzero"/></clipPath></defs><g clip-path="url(#2f698ede95)"><path fill="#e12c2c" d="M 110.4375 235.179688 C 109.988281 235.480469 109.6875 235.707031 109.3125 235.855469 C 104.214844 238.554688 99.191406 241.554688 93.945312 243.953125 C 89.070312 246.203125 83.75 246.953125 78.351562 246.578125 C 77.75 246.5 77.152344 246.800781 76.550781 246.726562 C 73.179688 246.578125 69.804688 246.050781 66.582031 244.851562 C 64.855469 244.253906 63.433594 242.976562 62.457031 241.402344 C 60.507812 238.253906 58.558594 235.179688 56.835938 231.957031 C 55.035156 228.582031 54.960938 224.761719 54.886719 221.011719 C 54.660156 214.265625 56.761719 208.117188 60.359375 202.492188 C 62.308594 199.421875 64.40625 196.347656 66.132812 193.121094 C 67.554688 190.574219 68.679688 187.875 69.878906 185.175781 C 71.003906 182.625 72.128906 180.003906 73.179688 177.378906 C 74.675781 173.628906 76.175781 169.957031 77.527344 166.207031 C 81.351562 155.636719 86.074219 145.441406 92.296875 135.996094 C 94.320312 132.921875 96.34375 129.773438 98.742188 127 C 104.742188 120.25 112.460938 116.578125 121.234375 114.628906 C 125.957031 113.578125 130.679688 113.203125 135.476562 112.980469 C 139.078125 112.828125 142.675781 112.453125 146.273438 112.230469 C 146.796875 112.230469 147.324219 112.082031 147.773438 112.230469 C 149.199219 112.605469 150.097656 112.082031 150.921875 110.878906 C 152.347656 108.707031 153.921875 106.683594 155.269531 104.433594 C 157.445312 100.683594 159.84375 97.160156 163.96875 95.0625 C 163.515625 94.835938 163.21875 94.6875 162.84375 94.539062 C 155.945312 91.238281 152.046875 84.117188 153.246094 76.84375 C 153.769531 73.695312 155.496094 71.296875 157.894531 69.421875 C 160.96875 66.949219 164.566406 65.523438 168.316406 64.398438 C 170.265625 63.800781 172.136719 63.199219 174.085938 62.601562 C 174.6875 62.375 175.210938 62.074219 175.8125 61.773438 C 174.914062 61.25 174.011719 60.726562 173.261719 60.199219 C 170.640625 58.476562 169.140625 55.925781 168.765625 52.855469 C 168.613281 51.503906 168.691406 50.003906 169.289062 48.804688 C 170.339844 46.554688 170.488281 44.382812 169.816406 42.058594 C 169.441406 40.558594 168.988281 39.058594 168.765625 37.558594 C 168.089844 33.0625 169.738281 29.3125 172.964844 26.3125 C 174.613281 24.738281 175.886719 22.941406 176.636719 20.839844 C 177.984375 17.09375 180.386719 14.167969 183.308594 11.621094 C 190.804688 5.097656 199.800781 1.875 209.472656 0.300781 C 211.273438 0 212.996094 0.375 214.722656 0.972656 C 220.34375 3.074219 226.265625 4.125 232.265625 4.796875 C 235.714844 5.171875 239.160156 5.171875 242.535156 5.621094 C 246.882812 6.148438 251.007812 7.421875 254.980469 9.296875 C 257.828125 10.644531 260.078125 12.667969 261.804688 15.292969 C 263.003906 17.09375 264.050781 18.890625 265.101562 20.765625 C 266.375 23.089844 268.023438 25.039062 270.347656 26.390625 C 272.972656 28.039062 275.523438 29.761719 278.222656 31.335938 C 285.195312 35.386719 289.09375 41.535156 290.441406 49.253906 C 291.042969 52.554688 291.191406 55.925781 291.492188 59.300781 C 291.714844 61.550781 291.789062 63.722656 291.941406 65.972656 C 292.316406 70.023438 291.191406 73.695312 288.71875 76.996094 C 285.566406 81.042969 282.042969 84.640625 277.996094 87.789062 C 274.621094 90.339844 271.398438 93.113281 268.25 95.960938 C 264.652344 99.261719 260.679688 101.960938 255.804688 103.007812 C 252.207031 103.757812 248.53125 103.683594 244.933594 102.933594 C 243.585938 102.632812 242.234375 101.882812 240.960938 101.285156 C 240.359375 100.984375 239.910156 100.609375 239.460938 100.308594 C 238.261719 101.960938 237.136719 103.609375 235.863281 105.03125 C 232.339844 108.855469 228.066406 111.480469 223.566406 113.953125 C 221.46875 115.152344 219.445312 116.503906 217.421875 117.777344 C 217.121094 118.003906 216.820312 118.527344 216.820312 118.828125 C 216.894531 119.503906 217.269531 119.953125 218.09375 119.953125 C 220.945312 119.953125 223.792969 119.953125 226.714844 120.027344 C 230.839844 120.027344 234.964844 119.953125 239.011719 120.175781 C 242.835938 120.402344 246.285156 121.828125 248.984375 124.75 C 252.355469 128.273438 255.730469 131.796875 259.105469 135.320312 C 264.203125 140.71875 270.125 145.292969 275.898438 149.863281 C 288.117188 159.6875 299.738281 170.183594 310.832031 181.203125 C 316.082031 186.449219 320.730469 192.296875 324.851562 198.445312 C 325.976562 200.09375 327.175781 201.746094 328.300781 203.46875 C 329.949219 205.941406 331.375 208.492188 331.976562 211.414062 C 333.097656 217.261719 333.847656 223.109375 332.425781 229.035156 C 331.375 233.605469 330.101562 238.105469 328.675781 242.527344 C 327.402344 246.578125 326.203125 250.699219 325.003906 254.824219 C 323.351562 260.371094 321.855469 265.917969 320.128906 271.464844 C 319.003906 275.066406 316.832031 277.988281 314.355469 280.761719 C 313.683594 281.511719 312.78125 282.1875 311.808594 282.488281 C 307.085938 283.984375 302.210938 284.511719 297.414062 282.710938 C 296.0625 282.1875 295.015625 282.1875 293.816406 282.9375 C 289.390625 285.410156 284.96875 287.808594 280.546875 290.285156 C 280.246094 290.433594 280.019531 290.808594 279.796875 291.035156 C 277.695312 293.582031 275.296875 295.605469 271.847656 295.90625 C 271.097656 295.980469 270.273438 295.90625 269.601562 295.679688 C 266.976562 295.007812 264.351562 294.933594 261.726562 295.832031 C 259.179688 296.65625 256.628906 296.355469 254.007812 295.757812 C 253.707031 295.679688 253.332031 295.605469 253.03125 295.53125 C 253.03125 295.53125 252.957031 295.53125 252.804688 295.605469 C 252.882812 296.132812 252.804688 296.730469 253.03125 297.257812 C 254.832031 301.605469 255.128906 306.328125 255.65625 310.902344 C 256.328125 316.824219 256.703125 322.894531 257.605469 328.742188 C 258.429688 333.917969 260.226562 338.863281 262.101562 343.738281 C 264.953125 350.933594 266.902344 358.355469 267.726562 366.152344 C 267.875 367.726562 267.949219 369.378906 267.949219 370.953125 C 267.949219 371.328125 267.875 371.851562 267.652344 372.074219 C 266.527344 372.976562 265.550781 374.101562 263.902344 374.101562 C 253.554688 374.101562 243.285156 374.101562 232.9375 374.175781 C 192.457031 374.476562 152.046875 374.699219 111.5625 375 C 105.863281 375 100.09375 374.925781 94.394531 374.851562 C 92.96875 374.851562 91.621094 374.699219 90.195312 374.550781 C 88.921875 374.398438 88.023438 373.277344 88.097656 371.777344 C 88.171875 370.203125 88.472656 368.550781 88.621094 366.976562 C 89.523438 358.207031 90.722656 349.433594 92.96875 340.886719 C 96.71875 326.34375 100.09375 311.800781 103.765625 297.257812 C 104.515625 294.257812 105.640625 291.257812 106.539062 288.257812 C 108.339844 282.410156 109.238281 276.339844 109.761719 270.265625 C 110.289062 263.96875 109.988281 257.671875 109.539062 251.375 C 109.164062 246.277344 109.464844 241.253906 110.363281 236.230469 C 110.363281 235.78125 110.363281 235.554688 110.4375 235.179688 Z M 160.367188 213.441406 C 159.917969 213.515625 159.617188 213.589844 159.320312 213.664062 C 154.671875 214.9375 150.097656 216.136719 145.449219 217.414062 C 141.777344 218.460938 137.953125 218.988281 134.503906 220.863281 C 127.53125 224.535156 120.785156 228.433594 114.1875 232.78125 C 113.960938 232.933594 113.738281 233.382812 113.738281 233.679688 C 113.289062 240.277344 113.4375 246.800781 114.113281 253.398438 C 114.5625 258.121094 114.636719 262.996094 114.488281 267.71875 C 114.1875 274.464844 111.636719 280.761719 109.539062 287.136719 C 108.039062 291.785156 106.390625 296.429688 105.414062 301.15625 C 102.714844 313.972656 100.542969 326.945312 97.84375 339.765625 C 96.042969 348.386719 94.542969 357.007812 93.71875 365.777344 C 93.570312 367.203125 93.496094 368.703125 93.421875 369.976562 C 150.171875 369.753906 206.851562 369.601562 263.601562 369.378906 C 263.226562 365.855469 262.925781 362.554688 262.550781 359.332031 C 261.804688 353.035156 259.554688 347.1875 257.003906 341.414062 C 254.007812 334.589844 251.980469 327.542969 251.457031 320.121094 C 250.933594 311.949219 250.558594 303.703125 249.359375 295.53125 C 249.28125 294.855469 249.132812 293.957031 248.757812 293.734375 C 246.882812 292.609375 244.933594 291.484375 242.835938 290.660156 C 239.535156 289.308594 236.011719 289.085938 232.566406 288.785156 C 230.691406 288.632812 228.890625 288.484375 227.242188 287.433594 C 227.089844 287.285156 226.71875 287.359375 226.492188 287.359375 C 225.515625 287.511719 224.542969 287.808594 223.566406 287.960938 C 215.546875 288.785156 207.523438 288.484375 199.503906 288.335938 C 197.554688 288.335938 195.605469 287.960938 193.65625 287.734375 C 191.105469 287.359375 188.933594 286.308594 186.984375 284.511719 C 186.234375 283.835938 185.410156 283.160156 184.582031 282.488281 C 180.308594 279.039062 175.960938 275.589844 171.6875 272.066406 C 169.289062 270.042969 167.789062 267.566406 167.117188 264.417969 C 166.292969 260.445312 165.390625 256.546875 164.265625 252.648438 C 162.542969 246.875 160.742188 241.179688 159.617188 235.257812 C 158.792969 230.984375 159.542969 228.957031 163.21875 226.632812 C 161.941406 224.683594 160.742188 222.734375 160.292969 220.410156 C 159.917969 218.164062 159.320312 215.839844 160.367188 213.441406 Z M 146.050781 116.804688 C 141.101562 117.929688 136.152344 117.328125 131.28125 117.554688 C 128.28125 117.703125 125.355469 117.851562 122.433594 118.078125 C 117.261719 118.453125 112.3125 119.652344 108.039062 122.726562 C 104.214844 125.5 101.066406 128.949219 98.59375 132.996094 C 97.09375 135.472656 95.519531 138.019531 94.09375 140.570312 C 89.148438 149.117188 84.796875 157.960938 80.75 166.957031 C 77.675781 173.78125 74.976562 180.675781 72.953125 187.875 C 72.203125 190.648438 70.777344 193.347656 69.355469 195.820312 C 67.179688 199.570312 64.855469 203.167969 62.457031 206.765625 C 59.007812 212.015625 57.960938 217.789062 58.558594 223.933594 C 58.785156 226.710938 59.382812 229.40625 60.957031 231.730469 C 61.933594 233.15625 62.832031 234.730469 63.957031 236.082031 C 65.007812 237.355469 66.207031 238.554688 67.554688 239.605469 C 68.304688 240.203125 69.429688 240.429688 70.40625 240.730469 C 72.503906 241.328125 74.527344 241.777344 76.625 242.304688 C 77.078125 242.453125 77.527344 242.679688 77.976562 242.679688 C 83.300781 242.527344 88.621094 242.152344 93.496094 239.828125 C 98.144531 237.65625 102.714844 235.179688 107.214844 232.707031 C 111.636719 230.234375 115.910156 227.460938 120.335938 224.835938 C 123.484375 222.960938 126.707031 221.238281 129.855469 219.511719 C 133.304688 217.5625 136.828125 215.613281 140.726562 214.714844 C 143.351562 214.113281 146.050781 213.589844 148.746094 212.988281 C 151.898438 212.316406 155.046875 211.714844 158.121094 211.039062 C 161.117188 210.367188 162.617188 208.566406 162.691406 205.566406 C 162.765625 203.46875 162.390625 201.292969 162.242188 199.121094 C 160.21875 199.945312 160.070312 200.09375 160.144531 201.894531 C 160.144531 202.117188 160.144531 202.269531 160.144531 202.492188 C 160.070312 203.695312 159.542969 204.519531 158.644531 204.667969 C 157.746094 204.816406 156.917969 204.21875 156.621094 202.945312 C 156.394531 201.820312 156.171875 200.695312 156.09375 199.570312 C 155.945312 197.394531 156.019531 195.222656 155.71875 193.121094 C 155.046875 188.101562 154.222656 183.078125 153.472656 178.054688 C 153.246094 176.777344 153.246094 175.429688 153.171875 174.082031 C 151.671875 173.929688 150.023438 174.304688 148.523438 175.054688 C 145.148438 176.703125 141.851562 178.429688 138.476562 180.078125 C 135.851562 181.351562 133.527344 182.851562 131.203125 184.652344 C 129.554688 185.925781 127.679688 186.976562 125.730469 187.875 C 118.085938 191.546875 109.914062 192.824219 101.441406 192.671875 C 99.042969 192.597656 96.570312 192.824219 94.167969 193.199219 C 91.921875 193.496094 89.746094 194.097656 87.949219 195.820312 C 82.023438 201.519531 76.253906 207.292969 71.605469 214.113281 C 71.078125 214.863281 70.554688 215.539062 70.03125 216.214844 C 69.804688 216.4375 69.355469 216.511719 68.980469 216.664062 C 68.90625 216.289062 68.679688 215.914062 68.679688 215.613281 C 68.679688 215.238281 68.828125 214.863281 68.980469 214.5625 C 69.730469 212.914062 70.328125 211.265625 71.304688 209.765625 C 75.128906 203.695312 79.851562 198.296875 85.324219 193.648438 C 86.296875 192.824219 87.496094 192.148438 88.695312 191.773438 C 90.570312 191.097656 92.519531 190.5 94.46875 190.050781 C 96.269531 189.597656 98.066406 189.375 99.867188 189.074219 C 99.867188 189.074219 99.867188 189 99.867188 189 C 99.71875 188.925781 99.644531 188.847656 99.492188 188.847656 C 96.867188 188.175781 94.246094 188.023438 91.546875 188.550781 C 87.199219 189.523438 83.375 191.625 79.777344 194.171875 C 75.953125 196.871094 72.203125 199.71875 68.90625 203.019531 C 68.605469 203.320312 68.304688 203.46875 67.929688 203.769531 C 67.554688 202.644531 68.304688 202.042969 68.753906 201.371094 C 72.429688 196.347656 77.152344 192.449219 82.398438 189.148438 C 86.222656 186.75 90.269531 185.027344 94.84375 184.726562 C 99.417969 184.425781 103.617188 185.625 107.664062 187.351562 C 109.539062 188.175781 111.113281 188.101562 112.835938 187.648438 C 113.136719 187.574219 113.511719 187.5 113.8125 187.425781 C 114.335938 187.351562 114.488281 187.050781 114.488281 186.523438 C 114.488281 185.175781 114.410156 183.828125 114.636719 182.476562 C 115.761719 174.90625 116.886719 167.40625 118.085938 159.910156 C 119.210938 152.488281 119.734375 145.066406 118.234375 137.570312 C 117.335938 133.148438 116.4375 128.796875 114.785156 124.601562 C 114.636719 124.300781 114.863281 123.851562 114.863281 123.402344 C 115.238281 123.550781 115.6875 123.625 116.0625 123.777344 C 116.285156 123.851562 116.4375 124.148438 116.585938 124.375 C 117.484375 126.023438 118.535156 127.523438 119.210938 129.25 C 123.40625 139.070312 124.15625 149.339844 122.582031 159.835938 C 121.609375 166.285156 120.558594 172.65625 119.585938 179.101562 C 119.285156 180.828125 119.210938 182.625 118.984375 184.425781 C 119.058594 184.5 119.210938 184.574219 119.285156 184.652344 C 120.410156 183.902344 121.535156 183.152344 122.660156 182.402344 C 123.78125 181.578125 124.382812 180.527344 124.757812 179.179688 C 125.730469 175.429688 126.78125 171.605469 127.980469 167.933594 C 129.332031 163.585938 130.457031 159.160156 132.703125 155.1875 C 134.054688 152.789062 135.703125 151.4375 138.628906 151.738281 C 140.726562 151.964844 140.875 151.589844 141.550781 149.488281 C 143.125 144.09375 144.699219 138.769531 146.347656 133.445312 C 146.5 132.996094 146.574219 132.546875 146.722656 132.023438 C 146.425781 132.023438 146.273438 132.023438 146.125 132.097656 C 143.050781 132.472656 140.949219 130.597656 141.324219 127.449219 C 141.476562 126.097656 141.925781 124.75 142.527344 123.550781 C 143.425781 121.152344 144.699219 119.050781 146.050781 116.804688 Z M 243.585938 270.191406 C 243.285156 269.890625 243.210938 269.816406 243.136719 269.816406 C 237.886719 267.042969 232.488281 264.644531 226.867188 262.621094 C 225.890625 262.246094 224.917969 261.871094 224.09375 261.195312 C 222.445312 259.921875 222.292969 258.273438 223.566406 256.621094 C 224.992188 254.75 226.792969 254 229.117188 254.074219 C 235.1875 254.375 241.109375 255.871094 246.882812 257.746094 C 252.65625 259.621094 258.429688 260.222656 264.351562 258.421875 C 264.578125 258.347656 265.027344 258.121094 265.027344 257.972656 C 265.25 256.023438 265.402344 254.074219 264.050781 252.425781 C 262.253906 250.25 260.152344 248.449219 257.679688 247.175781 C 253.929688 245.226562 251.605469 242.152344 249.808594 238.480469 C 249.132812 237.128906 248.757812 235.554688 248.757812 234.054688 C 248.757812 230.308594 251.757812 228.507812 255.207031 230.082031 C 256.628906 230.757812 257.980469 231.65625 259.328125 232.332031 C 261.804688 233.53125 264.203125 235.105469 266.824219 235.78125 C 271.699219 237.128906 276.195312 239.304688 280.769531 241.402344 C 284.820312 243.277344 288.792969 245.226562 292.765625 247.175781 C 293.289062 247.402344 293.890625 247.625 294.339844 247.777344 C 294.789062 247.027344 295.089844 246.425781 295.464844 245.828125 C 296.289062 244.476562 297.261719 243.203125 297.9375 241.777344 C 298.464844 240.652344 298.914062 239.453125 298.988281 238.253906 C 299.0625 236.378906 298.988281 234.507812 298.6875 232.632812 C 297.714844 225.882812 296.890625 219.210938 296.8125 212.390625 C 296.8125 211.414062 296.4375 210.515625 296.214844 209.542969 C 296.0625 208.867188 295.6875 208.714844 295.015625 208.792969 C 294.265625 208.867188 293.441406 209.015625 292.691406 208.941406 C 291.789062 208.867188 291.339844 207.96875 291.867188 207.367188 C 292.617188 206.542969 292.617188 205.566406 292.839844 204.667969 C 293.363281 201.820312 293.964844 198.96875 294.339844 196.121094 C 294.789062 192.449219 292.765625 190.347656 289.09375 190.273438 C 284.070312 190.199219 279.269531 191.097656 274.546875 192.746094 C 272.296875 193.574219 270.875 195.070312 269.972656 197.171875 C 268.851562 199.796875 269.074219 202.570312 269.226562 205.34375 C 269.300781 206.09375 269.523438 206.84375 269.675781 207.667969 C 270.800781 207.515625 271.773438 207.292969 272.597656 207.21875 C 272.523438 205.492188 272.296875 203.917969 272.375 202.34375 C 272.449219 199.796875 273.347656 197.621094 275.597656 196.121094 C 278.144531 194.472656 280.996094 193.496094 284.070312 193.496094 C 285.867188 193.496094 287.292969 194.246094 288.34375 195.820312 C 289.167969 197.019531 289.691406 198.371094 289.617188 199.796875 C 289.542969 201.519531 289.464844 203.320312 289.167969 205.042969 C 288.792969 207.59375 287.667969 208.566406 285.117188 209.015625 C 283.695312 209.242188 282.34375 209.316406 280.921875 209.542969 C 267.199219 211.566406 253.554688 213.664062 239.835938 215.6875 C 224.019531 218.011719 208.199219 220.261719 192.304688 222.511719 C 191.929688 222.585938 191.480469 222.8125 191.179688 223.035156 C 189.980469 223.933594 188.558594 223.484375 188.183594 222.0625 C 188.03125 221.386719 188.03125 220.636719 188.03125 219.960938 C 188.105469 217.039062 187.359375 214.339844 185.78125 211.867188 C 184.207031 209.390625 182.183594 207.292969 179.109375 206.917969 C 175.210938 206.390625 171.390625 206.390625 167.867188 208.640625 C 167.191406 209.089844 166.441406 209.464844 165.765625 209.917969 C 163.21875 211.492188 162.390625 213.964844 162.691406 216.664062 C 162.992188 219.210938 163.816406 221.6875 165.464844 223.710938 C 166.214844 224.609375 166.816406 225.660156 167.339844 226.710938 C 167.941406 227.910156 167.414062 229.109375 166.214844 229.257812 C 163.292969 229.78125 162.390625 231.808594 162.765625 233.757812 C 163.292969 236.457031 163.742188 239.15625 164.492188 241.777344 C 166.367188 248.601562 168.539062 255.421875 170.339844 262.246094 C 171.164062 265.394531 172.8125 267.644531 175.289062 269.59375 C 180.308594 273.492188 185.183594 277.464844 190.132812 281.511719 C 191.179688 282.410156 192.304688 283.085938 193.730469 283.238281 C 195.753906 283.460938 197.777344 283.835938 199.878906 283.910156 C 204.675781 283.988281 209.472656 283.988281 214.273438 283.835938 C 217.796875 283.761719 221.242188 283.460938 224.84375 283.238281 C 224.917969 282.710938 224.917969 282.261719 224.992188 281.8125 C 224.316406 281.8125 223.71875 281.8125 223.117188 281.8125 C 222.070312 281.738281 221.019531 281.8125 220.042969 281.585938 C 217.945312 281.136719 216.820312 279.113281 217.570312 277.164062 C 217.945312 276.113281 218.621094 275.066406 219.445312 274.390625 C 222.894531 271.542969 226.941406 270.34375 231.289062 270.117188 C 235.1875 270.042969 239.238281 270.191406 243.585938 270.191406 Z M 195.378906 47.382812 C 195.902344 47.230469 196.578125 47.007812 197.253906 46.78125 C 202.726562 45.507812 208.199219 45.808594 213.597656 46.78125 C 224.765625 48.878906 234.664062 53.605469 242.761719 61.699219 C 246.882812 65.824219 249.957031 70.621094 251.082031 76.46875 C 251.15625 76.996094 251.308594 77.445312 251.382812 77.96875 C 251.457031 77.96875 251.53125 77.96875 251.683594 77.96875 C 252.429688 76.46875 253.257812 75.046875 253.855469 73.546875 C 255.878906 68.597656 257.828125 63.574219 259.855469 58.625 C 260.003906 58.25 260.152344 57.875 260.378906 57.652344 C 260.601562 57.425781 261.054688 57.277344 261.277344 57.351562 C 261.578125 57.425781 261.878906 57.800781 261.953125 58.101562 C 262.027344 58.402344 261.953125 58.851562 261.878906 59.226562 C 261.503906 60.574219 261.054688 61.925781 260.753906 63.351562 C 260.601562 63.949219 260.601562 64.625 260.828125 65.148438 C 261.953125 67.699219 263.828125 69.570312 266 71.222656 C 267.875 72.644531 269.898438 73.097656 272.148438 72.945312 C 273.046875 72.871094 273.871094 72.644531 274.773438 72.570312 C 275.148438 72.570312 275.671875 72.570312 275.820312 72.796875 C 275.972656 73.019531 275.820312 73.546875 275.671875 73.921875 C 275.523438 74.21875 275.222656 74.519531 274.921875 74.746094 C 273.574219 75.644531 272.148438 76.167969 270.574219 76.167969 C 268.699219 76.167969 266.976562 75.570312 265.476562 74.445312 C 262.851562 72.644531 260.828125 70.246094 259.328125 67.324219 C 259.027344 68.222656 258.578125 69.199219 258.878906 69.871094 C 259.328125 71.070312 260.003906 72.347656 260.976562 73.246094 C 262.175781 74.445312 263.675781 75.269531 265.101562 76.320312 C 265.625 76.695312 266.226562 77.070312 266.75 77.445312 C 267.277344 77.820312 267.199219 78.34375 266.527344 78.492188 C 265.925781 78.644531 265.328125 78.792969 264.726562 78.71875 C 261.726562 78.195312 259.402344 76.542969 257.90625 73.84375 C 257.753906 73.546875 257.605469 73.320312 257.53125 73.097656 C 256.179688 76.019531 254.980469 79.019531 253.40625 81.867188 C 252.507812 83.515625 252.507812 84.941406 252.882812 86.589844 C 253.257812 88.613281 253.78125 90.5625 255.355469 92.136719 C 255.65625 92.4375 255.878906 93.113281 255.730469 93.335938 C 255.503906 93.710938 254.90625 93.9375 254.457031 93.9375 C 254.007812 94.011719 253.480469 93.789062 253.03125 93.636719 C 251.382812 92.960938 250.558594 91.613281 250.183594 89.964844 C 249.957031 89.140625 249.882812 88.316406 249.65625 87.191406 C 247.859375 90.5625 245.160156 92.589844 242.234375 94.460938 C 241.636719 94.835938 241.261719 95.4375 240.734375 95.886719 C 242.535156 97.984375 244.558594 99.183594 247.183594 99.261719 C 248.757812 99.335938 250.257812 99.410156 251.832031 99.335938 C 254.15625 99.261719 256.480469 98.734375 258.503906 97.460938 C 260.679688 96.113281 262.925781 94.761719 264.726562 93.039062 C 268.398438 89.515625 272.597656 86.664062 276.796875 83.964844 C 279.945312 81.941406 282.570312 79.394531 284.894531 76.621094 C 287.515625 73.546875 288.492188 70.023438 287.96875 65.972656 C 287.742188 64.023438 287.667969 62 287.515625 60.050781 C 287.21875 56.152344 287.144531 52.328125 286.542969 48.429688 C 285.644531 41.984375 282.496094 36.960938 276.570312 33.886719 C 273.871094 32.460938 271.324219 30.886719 268.625 29.464844 C 265.625 27.890625 263.527344 25.488281 261.953125 22.492188 C 261.054688 20.617188 260.078125 18.816406 259.027344 17.09375 C 257.753906 14.917969 256.03125 13.195312 253.707031 12.144531 C 249.058594 9.894531 244.183594 8.546875 239.011719 8.320312 C 230.316406 7.945312 221.84375 6.449219 213.523438 3.671875 C 212.699219 3.375 211.722656 3.296875 210.824219 3.449219 C 207.449219 4.199219 204.074219 4.949219 200.703125 5.921875 C 194.929688 7.570312 189.53125 10.195312 184.582031 13.570312 C 181.359375 15.820312 178.8125 18.519531 178.0625 22.566406 C 177.460938 25.488281 175.960938 28.039062 173.9375 30.214844 C 171.613281 32.6875 171.015625 35.609375 171.6875 38.835938 C 172.214844 41.234375 172.664062 43.632812 172.136719 46.03125 C 171.914062 47.082031 171.464844 48.207031 171.390625 49.253906 C 171.015625 53.003906 173.789062 57.425781 177.386719 59 C 177.835938 57.351562 178.359375 55.703125 178.8125 54.054688 C 179.484375 51.355469 179.785156 48.582031 180.683594 46.03125 C 182.183594 41.457031 187.207031 38.382812 192.378906 40.257812 C 193.878906 38.160156 195.378906 36.136719 197.027344 33.960938 C 196.578125 33.960938 196.203125 33.886719 195.902344 33.886719 C 192.832031 33.660156 189.90625 33.0625 187.207031 31.5625 C 186.007812 30.886719 185.109375 29.839844 184.058594 28.9375 C 183.832031 28.714844 183.832031 28.1875 183.683594 27.8125 C 183.757812 27.738281 183.832031 27.664062 183.910156 27.589844 C 188.707031 30.511719 193.730469 31.414062 199.128906 30.136719 C 198.828125 29.914062 198.453125 29.761719 198.152344 29.613281 C 195.980469 28.714844 193.953125 27.664062 192.15625 26.089844 C 190.882812 24.964844 189.832031 23.617188 189.679688 21.816406 C 189.605469 21.367188 189.832031 20.839844 189.90625 20.390625 C 189.980469 20.390625 190.132812 20.390625 190.207031 20.390625 C 191.105469 22.417969 192.605469 23.839844 194.554688 24.664062 C 197.027344 25.640625 199.578125 26.464844 202.125 27.140625 C 203.777344 27.589844 205.574219 27.890625 207.222656 27.664062 C 210.523438 27.140625 213.820312 26.765625 217.195312 26.988281 C 223.492188 27.363281 229.566406 28.636719 235.414062 30.8125 C 242.835938 33.511719 249.507812 37.335938 254.90625 43.257812 C 255.207031 43.632812 255.730469 43.859375 256.179688 44.007812 C 258.953125 44.90625 261.726562 44.90625 264.578125 44.53125 C 266.226562 44.308594 267.800781 43.707031 269.375 43.40625 C 269.898438 43.332031 270.800781 43.558594 271.023438 43.933594 C 271.25 44.308594 271.097656 45.28125 270.800781 45.65625 C 270.273438 46.257812 269.449219 46.929688 268.699219 47.082031 C 266.976562 47.457031 265.25 47.679688 263.527344 47.757812 C 262.101562 47.832031 260.753906 47.53125 259.179688 47.304688 C 259.402344 47.53125 259.554688 47.605469 259.703125 47.679688 C 263.902344 49.707031 268.324219 50.304688 272.898438 49.105469 C 273.5 48.957031 274.097656 48.878906 274.699219 48.878906 C 275.371094 48.878906 275.597656 49.40625 275.449219 49.929688 C 275.296875 50.378906 274.996094 50.90625 274.621094 51.128906 C 273.574219 51.730469 272.449219 52.480469 271.324219 52.703125 C 267.574219 53.527344 264.125 52.554688 260.753906 50.90625 C 260.453125 50.753906 260.152344 50.605469 259.703125 50.378906 C 259.929688 51.054688 260.078125 51.503906 260.226562 51.953125 C 260.527344 53.003906 260.152344 53.828125 259.328125 53.976562 C 258.503906 54.128906 257.828125 53.605469 257.679688 52.480469 C 257.53125 50.304688 256.554688 48.503906 255.28125 46.929688 C 254.605469 46.105469 253.855469 45.28125 253.105469 44.53125 C 248.757812 40.257812 243.433594 37.410156 237.886719 35.160156 C 227.316406 30.886719 216.371094 29.238281 205.050781 31.5625 C 204.527344 31.710938 203.851562 31.9375 203.476562 32.386719 C 200.550781 35.609375 197.628906 38.910156 194.703125 42.207031 C 194.554688 42.359375 194.480469 42.734375 194.480469 42.957031 C 194.78125 44.308594 195.078125 45.808594 195.378906 47.382812 Z M 218.695312 122.726562 C 218.84375 123.101562 218.917969 123.476562 219.144531 123.777344 C 220.570312 126.699219 221.46875 129.773438 221.019531 133.070312 C 221.019531 133.222656 221.019531 133.445312 221.09375 133.671875 C 221.769531 135.246094 222.667969 136.820312 223.117188 138.46875 C 224.242188 142.96875 225.140625 147.539062 226.117188 152.113281 C 226.34375 153.089844 226.792969 153.464844 227.691406 153.761719 C 230.015625 154.4375 232.191406 155.488281 233.464844 157.8125 C 233.914062 158.636719 234.363281 159.535156 234.738281 160.4375 C 235.488281 162.609375 236.238281 164.859375 236.988281 167.03125 C 237.738281 169.207031 238.5625 171.304688 239.3125 173.480469 C 239.535156 173.105469 239.460938 172.878906 239.460938 172.582031 C 239.238281 168.90625 238.863281 165.234375 238.785156 161.558594 C 238.5625 151.589844 239.085938 141.617188 240.136719 131.648438 C 240.210938 131.121094 240.210938 130.597656 240.4375 130.148438 C 240.585938 129.847656 241.035156 129.472656 241.410156 129.472656 C 241.710938 129.472656 242.160156 129.921875 242.234375 130.222656 C 242.386719 130.824219 242.386719 131.421875 242.386719 132.023438 C 242.3125 139.292969 242.085938 146.566406 242.011719 153.839844 C 241.9375 163.585938 242.984375 173.253906 244.335938 182.925781 C 244.410156 183.601562 244.710938 184.050781 245.308594 184.425781 C 252.65625 189.074219 259.855469 194.023438 265.925781 200.320312 C 266 200.394531 266.152344 200.46875 266.375 200.621094 C 266.449219 200.019531 266.527344 199.496094 266.675781 198.96875 C 267.425781 195.597656 268.773438 192.523438 272.074219 191.023438 C 277.996094 188.25 284.292969 186.75 290.890625 187.125 C 293.515625 187.273438 295.539062 188.472656 296.738281 190.796875 C 297.636719 192.449219 298.089844 194.246094 297.9375 196.121094 C 297.789062 197.472656 297.636719 198.894531 297.414062 200.246094 C 297.113281 201.96875 296.8125 203.769531 296.515625 205.566406 C 297.789062 205.867188 298.6875 206.617188 299.210938 207.742188 C 299.738281 208.792969 300.261719 209.914062 300.414062 211.039062 C 300.710938 212.765625 300.789062 214.488281 300.9375 216.289062 C 301.011719 217.113281 301.085938 217.9375 301.160156 218.988281 C 301.988281 217.488281 302.660156 216.214844 303.410156 215.089844 C 305.136719 212.316406 307.460938 210.214844 310.457031 208.941406 C 312.484375 208.117188 314.582031 207.816406 316.605469 208.792969 C 317.429688 209.167969 318.105469 209.765625 318.332031 210.816406 C 318.105469 210.890625 318.03125 210.964844 317.878906 211.039062 C 316.082031 211.566406 314.132812 211.863281 312.40625 212.691406 C 307.460938 214.9375 304.835938 219.210938 303.109375 224.085938 C 302.4375 226.035156 302.0625 227.984375 302.511719 230.007812 C 302.8125 231.207031 302.886719 232.480469 302.960938 233.679688 C 303.335938 237.503906 302.960938 241.179688 300.863281 244.628906 C 300.039062 245.976562 299.289062 247.402344 298.464844 248.898438 C 298.988281 249.050781 299.511719 249.199219 299.960938 249.273438 C 303.109375 249.800781 305.808594 251.148438 307.984375 253.472656 C 311.359375 257.070312 313.53125 261.121094 313.15625 266.292969 C 312.855469 270.191406 311.507812 273.492188 308.132812 275.738281 C 307.234375 276.339844 306.261719 276.863281 305.210938 277.390625 C 303.484375 278.289062 301.761719 279.039062 299.960938 280.011719 C 300.414062 280.089844 300.636719 280.164062 300.863281 280.164062 C 303.9375 280.238281 307.007812 280.011719 309.933594 279.039062 C 310.535156 278.8125 311.132812 278.4375 311.507812 277.988281 C 315.929688 273.339844 318.703125 267.71875 320.203125 261.496094 C 321.703125 255.347656 323.054688 249.199219 324.703125 243.128906 C 326.277344 237.503906 327.925781 231.957031 329.050781 226.183594 C 329.875 221.835938 329.351562 217.714844 328.375 213.589844 C 327.703125 210.589844 326.351562 207.742188 324.402344 205.191406 C 323.351562 203.769531 322.378906 202.34375 321.402344 200.84375 C 317.429688 194.695312 312.78125 189 307.609375 183.828125 C 296.589844 172.957031 285.269531 162.460938 273.574219 152.265625 C 267.425781 146.941406 261.277344 141.617188 255.957031 135.472656 C 253.179688 132.320312 250.109375 129.398438 247.183594 126.398438 C 245.984375 125.199219 244.558594 124.375 242.835938 124.148438 C 240.511719 123.777344 238.113281 123.324219 235.714844 123.25 C 231.589844 123.101562 227.390625 123.25 223.269531 123.175781 C 221.84375 123.101562 220.34375 122.875 218.695312 122.726562 Z M 181.734375 71.746094 C 181.210938 71.445312 180.984375 71.746094 180.761719 72.347656 C 175.960938 84.042969 171.390625 95.886719 168.691406 108.332031 C 168.539062 108.855469 168.464844 109.53125 168.089844 109.90625 C 167.566406 110.503906 167.566406 111.179688 167.714844 111.855469 C 168.539062 116.128906 170.488281 119.878906 173.113281 123.25 C 175.363281 126.175781 178.136719 128.722656 180.535156 131.496094 C 181.585938 132.695312 182.335938 134.121094 183.308594 135.394531 C 183.609375 135.84375 183.984375 136.445312 184.359375 136.445312 C 185.109375 136.445312 185.859375 136.144531 186.53125 135.84375 C 188.40625 135.019531 190.207031 133.972656 192.082031 133.222656 C 195.980469 131.722656 199.652344 129.773438 202.875 127.148438 C 204.601562 125.726562 205.050781 123.699219 205.050781 121.527344 C 204.824219 121.527344 204.601562 121.453125 204.449219 121.453125 C 201.976562 121 199.503906 120.625 197.105469 120.027344 C 196.054688 119.726562 195.003906 119.128906 194.253906 118.378906 C 190.429688 114.402344 187.808594 109.757812 186.683594 104.359375 C 186.53125 103.757812 186.90625 103.160156 186.984375 102.558594 C 187.433594 102.933594 187.957031 103.308594 188.257812 103.757812 C 190.132812 106.605469 191.855469 109.457031 193.730469 112.230469 C 194.328125 113.128906 195.003906 113.953125 195.753906 114.777344 C 196.355469 115.378906 196.953125 116.128906 197.703125 116.429688 C 201.675781 117.929688 205.800781 118.453125 210 117.777344 C 211.796875 117.476562 213.296875 116.726562 214.722656 115.605469 C 216.371094 114.253906 218.09375 112.90625 219.894531 111.707031 C 223.117188 109.457031 226.492188 107.355469 229.640625 105.03125 C 233.464844 102.257812 236.613281 98.808594 238.710938 94.613281 C 239.761719 92.589844 241.035156 90.789062 242.835938 89.289062 C 244.933594 87.488281 246.359375 85.164062 247.707031 82.765625 C 248.53125 81.265625 248.609375 79.769531 248.308594 78.195312 C 247.484375 73.769531 245.308594 70.097656 242.386719 66.722656 C 238.039062 61.699219 232.714844 57.953125 226.792969 55.101562 C 221.167969 52.402344 215.320312 50.679688 209.097656 49.929688 C 208.800781 49.855469 208.273438 50.003906 208.125 50.230469 C 207.300781 51.054688 206.699219 52.105469 205.875 52.855469 C 202.5 55.703125 199.128906 58.476562 196.429688 62 C 195.980469 62.601562 195.378906 63.050781 194.703125 63.425781 C 192.753906 64.550781 190.65625 63.5 190.429688 61.25 C 190.28125 60.351562 190.28125 59.300781 190.507812 58.476562 C 191.40625 54.953125 192.082031 51.355469 191.78125 47.679688 C 191.707031 46.632812 191.628906 45.582031 191.40625 44.605469 C 191.03125 43.03125 190.28125 42.582031 188.707031 42.808594 C 185.78125 43.183594 183.683594 44.832031 182.710938 47.457031 C 180.683594 52.628906 180.234375 58.101562 180.011719 63.574219 C 180.011719 64.550781 180.460938 65.523438 180.835938 66.421875 C 181.285156 67.621094 182.410156 68.148438 183.460938 68.671875 C 184.207031 69.046875 184.882812 69.570312 184.582031 70.546875 C 184.359375 71.519531 184.132812 72.421875 183.832031 73.394531 C 182.335938 78.195312 182.109375 82.992188 184.207031 87.714844 C 184.507812 88.316406 184.507812 89.0625 184.507812 89.664062 C 184.507812 90.414062 184.058594 90.789062 183.382812 90.339844 C 182.632812 89.8125 181.882812 89.214844 181.285156 88.464844 C 179.335938 85.914062 178.8125 82.917969 179.410156 79.84375 C 180.085938 77.070312 180.984375 74.445312 181.734375 71.746094 Z M 269 257.671875 C 269.523438 257.671875 270.050781 257.597656 270.5 257.671875 C 271.175781 257.746094 271.773438 257.972656 272.449219 258.195312 C 271.921875 258.648438 271.472656 259.246094 270.875 259.472656 C 267.726562 260.597656 264.578125 261.71875 261.351562 262.621094 C 259.929688 262.996094 258.355469 263.144531 256.929688 262.917969 C 254.378906 262.546875 251.90625 261.945312 249.433594 261.269531 C 245.683594 260.222656 242.160156 258.273438 238.1875 257.597656 C 234.964844 257.070312 231.738281 256.324219 228.515625 256.921875 C 227.691406 257.070312 226.941406 257.597656 226.265625 258.121094 C 225.367188 258.871094 225.515625 259.394531 226.640625 259.847656 C 227.691406 260.296875 228.742188 260.597656 229.789062 260.894531 C 235.261719 262.394531 240.734375 263.96875 245.757812 266.742188 C 247.484375 267.71875 249.507812 268.167969 251.457031 268.765625 C 254.53125 269.742188 257.679688 270.566406 260.828125 271.617188 C 262.253906 272.066406 263.527344 272.816406 265.101562 272.441406 C 265.777344 272.292969 266.449219 272.589844 266.75 273.339844 C 267.050781 274.164062 266.601562 274.691406 266 275.140625 C 264.875 276.039062 263.601562 275.964844 262.402344 275.363281 C 261.429688 274.914062 260.453125 274.390625 259.402344 274.164062 C 255.355469 273.339844 251.382812 272.589844 247.332031 271.839844 C 247.183594 271.839844 247.035156 271.917969 246.957031 271.917969 C 245.757812 272.066406 244.484375 272.214844 243.285156 272.292969 C 239.3125 272.367188 235.339844 272.441406 231.363281 272.515625 C 228.667969 272.589844 225.96875 273.191406 223.566406 274.464844 C 222.519531 275.066406 221.542969 275.890625 220.71875 276.789062 C 220.34375 277.164062 220.121094 277.914062 220.269531 278.4375 C 220.34375 278.738281 221.242188 278.964844 221.769531 278.964844 C 223.867188 279.113281 226.042969 279.113281 228.140625 279.339844 C 231.890625 279.714844 235.636719 280.386719 239.535156 280.238281 C 243.058594 280.089844 246.582031 280.613281 249.882812 281.664062 C 252.28125 282.410156 254.605469 282.710938 257.003906 281.960938 C 257.605469 281.8125 258.277344 281.664062 258.878906 281.664062 C 261.578125 281.738281 264.277344 281.8125 266.976562 281.960938 C 267.800781 282.039062 268.476562 282.5625 268.476562 283.460938 C 268.476562 284.4375 267.875 284.960938 266.976562 285.109375 C 266.152344 285.261719 265.25 285.261719 264.5 285.109375 C 262.027344 284.585938 259.628906 284.660156 257.230469 285.410156 C 254.753906 286.160156 252.355469 286.085938 249.882812 285.261719 C 246.507812 284.136719 242.984375 283.535156 239.460938 283.613281 C 236.6875 283.6875 233.988281 283.386719 231.363281 282.636719 C 230.164062 282.335938 228.964844 282.1875 227.617188 281.960938 C 228.140625 283.761719 229.191406 284.660156 230.839844 284.960938 C 232.414062 285.261719 233.988281 285.335938 235.488281 285.710938 C 238.785156 286.535156 242.011719 287.511719 245.308594 288.558594 C 248.160156 289.460938 251.007812 289.910156 253.929688 289.234375 C 257.003906 288.558594 260.078125 287.886719 263.226562 287.359375 C 264.578125 287.136719 266 287.285156 267.425781 287.511719 C 268.25 287.585938 268.773438 288.335938 268.699219 289.234375 C 268.625 290.132812 268.023438 290.660156 267.199219 290.808594 C 266.601562 290.957031 265.851562 291.035156 265.328125 290.882812 C 263.753906 290.359375 262.175781 290.660156 260.679688 290.957031 C 258.953125 291.332031 257.304688 291.859375 255.582031 292.234375 C 257.679688 292.90625 259.703125 292.984375 261.804688 292.832031 C 264.351562 292.609375 266.976562 292.457031 269.449219 292.832031 C 271.847656 293.207031 273.722656 292.757812 275.371094 291.183594 C 276.347656 290.285156 277.097656 288.933594 278.144531 288.183594 C 281.144531 286.085938 284.144531 283.988281 287.292969 282.261719 C 291.191406 280.164062 295.3125 278.4375 299.289062 276.488281 C 301.3125 275.515625 303.335938 274.539062 305.210938 273.414062 C 307.085938 272.292969 308.808594 271.015625 309.410156 268.691406 C 310.160156 265.917969 310.308594 263.21875 308.585938 260.746094 C 308.285156 260.371094 308.210938 259.847656 307.910156 259.472656 C 307.382812 258.722656 306.859375 258.046875 306.183594 257.445312 C 304.460938 255.871094 302.660156 254.375 301.011719 252.722656 C 300.335938 252.050781 299.664062 251.75 298.761719 251.597656 C 295.238281 251.074219 291.789062 250.398438 288.71875 248.601562 C 286.394531 247.25 284.070312 246.050781 281.667969 244.851562 C 277.246094 242.679688 272.898438 240.429688 268.023438 239.453125 C 264.425781 238.78125 261.203125 237.28125 258.203125 235.105469 C 256.703125 234.054688 255.207031 233.082031 253.632812 232.183594 C 252.582031 231.582031 251.605469 232.105469 251.53125 233.308594 C 251.457031 234.207031 251.457031 235.257812 251.832031 236.082031 C 253.332031 239.230469 255.429688 241.851562 258.503906 243.726562 C 260.679688 245.003906 262.703125 246.5 264.652344 248.152344 C 267.5 250.550781 269.449219 253.472656 269 257.445312 C 268.925781 257.371094 269 257.445312 269 257.671875 Z M 196.128906 176.253906 C 201.152344 189.898438 206.175781 203.394531 211.046875 216.8125 C 211.347656 216.8125 211.347656 216.886719 211.421875 216.8125 C 221.617188 215.238281 231.816406 213.664062 242.011719 212.015625 C 242.234375 211.941406 242.609375 211.566406 242.609375 211.265625 C 242.683594 209.992188 242.683594 208.792969 242.761719 207.515625 C 243.136719 203.542969 243.058594 199.644531 242.308594 195.746094 C 241.335938 190.421875 239.460938 185.402344 237.664062 180.378906 C 236.011719 175.730469 234.363281 171.082031 232.714844 166.507812 C 231.738281 163.882812 230.765625 161.261719 229.789062 158.636719 C 229.414062 157.738281 228.742188 157.285156 227.691406 157.136719 C 224.617188 156.761719 223.042969 155.414062 222.445312 152.339844 C 221.695312 148.289062 221.09375 144.167969 220.417969 140.042969 C 220.269531 139.292969 220.195312 138.46875 220.042969 137.792969 C 219.144531 139.144531 218.320312 140.570312 217.269531 141.84375 C 215.996094 143.34375 214.195312 142.519531 212.472656 142.367188 C 212.699219 143.867188 212.996094 145.21875 213.148438 146.566406 C 213.371094 148.589844 213.746094 150.613281 213.597656 152.5625 C 213.523438 154.589844 212.023438 155.863281 210.148438 155.863281 C 207.597656 155.863281 205.050781 155.636719 202.5 155.488281 C 201.976562 155.488281 201.453125 155.335938 200.703125 155.1875 C 202.277344 158.1875 201.226562 160.660156 199.503906 162.910156 C 199.800781 163.058594 200.101562 163.132812 200.328125 163.285156 C 201.902344 164.257812 203.324219 165.234375 203.777344 167.183594 C 204.300781 169.65625 202.800781 173.03125 200.476562 174.230469 C 199.425781 174.753906 198.226562 175.128906 197.105469 175.65625 C 196.953125 175.953125 196.578125 176.105469 196.128906 176.253906 Z M 159.617188 196.421875 C 160.070312 196.195312 160.292969 196.121094 160.441406 195.972656 C 163.742188 194.097656 166.964844 192.222656 170.265625 190.347656 C 174.164062 188.175781 178.0625 186.226562 182.484375 185.101562 C 184.433594 184.652344 186.234375 183.675781 188.105469 182.851562 C 188.707031 182.625 189.230469 182.027344 189.53125 181.503906 C 190.507812 179.777344 191.332031 178.054688 192.230469 176.328125 C 191.179688 175.65625 191.179688 175.203125 192.230469 174.679688 C 192.679688 174.457031 193.128906 174.378906 193.503906 174.15625 C 195.753906 173.105469 198.078125 172.054688 200.328125 170.929688 C 200.703125 170.78125 201.003906 170.257812 201.152344 169.882812 C 201.527344 168.90625 201.527344 167.933594 200.777344 167.03125 C 199.953125 166.132812 199.054688 165.609375 197.703125 165.984375 C 196.277344 166.433594 194.855469 166.433594 193.503906 165.683594 C 191.78125 164.710938 190.054688 165.007812 188.40625 165.757812 C 187.957031 165.984375 187.433594 165.984375 186.984375 166.058594 C 187.207031 165.535156 187.359375 165.007812 187.65625 164.484375 C 187.808594 164.257812 188.03125 164.109375 188.257812 163.960938 C 189.980469 162.910156 191.855469 162.683594 193.804688 163.058594 C 194.628906 163.210938 195.753906 163.433594 196.355469 162.984375 C 197.628906 162.085938 198.679688 160.8125 199.054688 159.160156 C 199.503906 156.988281 197.929688 155.1875 195.679688 155.488281 C 194.253906 155.636719 192.90625 156.011719 191.480469 156.238281 C 190.355469 156.460938 189.308594 156.386719 188.257812 155.863281 C 187.582031 155.488281 186.609375 155.414062 185.859375 155.488281 C 184.957031 155.5625 184.058594 156.011719 183.160156 156.238281 C 182.859375 156.3125 182.484375 156.238281 182.183594 156.238281 C 182.335938 155.9375 182.335938 155.488281 182.558594 155.335938 C 184.359375 153.839844 186.308594 153.238281 188.632812 153.761719 C 189.308594 153.914062 190.054688 153.914062 190.804688 153.839844 C 192.753906 153.539062 194.628906 153.089844 196.503906 152.714844 C 196.730469 152.640625 197.105469 152.265625 197.105469 152.039062 C 197.328125 150.390625 196.652344 149.039062 195.605469 147.914062 C 195.304688 147.539062 194.703125 147.316406 194.179688 147.316406 C 191.78125 147.242188 189.382812 147.539062 187.132812 148.367188 C 185.859375 148.816406 184.582031 148.890625 183.382812 148.367188 C 181.882812 147.765625 180.460938 148.140625 179.109375 148.890625 C 178.660156 149.117188 178.0625 149.640625 177.761719 148.964844 C 177.613281 148.664062 177.910156 147.914062 178.285156 147.617188 C 179.859375 146.191406 181.734375 145.742188 183.832031 146.042969 C 184.808594 146.191406 185.859375 146.042969 186.757812 145.890625 C 188.933594 145.441406 191.03125 144.84375 193.128906 144.390625 C 194.40625 144.09375 195.230469 143.269531 195.230469 141.992188 C 195.230469 140.71875 194.628906 139.894531 193.207031 139.742188 C 191.257812 139.519531 189.308594 139.371094 187.359375 139.519531 C 185.410156 139.667969 183.460938 140.195312 181.511719 140.71875 C 178.660156 141.542969 175.738281 142.441406 173.261719 144.09375 C 171.464844 145.21875 170.113281 146.714844 169.441406 148.816406 C 168.765625 151.140625 168.164062 153.464844 167.566406 155.789062 C 166.890625 158.410156 166.140625 160.960938 165.390625 163.585938 C 163.96875 168.683594 159.695312 171.304688 155.796875 174.15625 C 155.34375 174.457031 155.269531 174.605469 155.34375 175.128906 C 155.796875 177.304688 156.246094 179.554688 156.695312 181.726562 C 157.667969 186.75 158.644531 191.472656 159.617188 196.421875 Z M 158.042969 126.847656 C 157.21875 127.148438 156.542969 127.375 155.871094 127.597656 C 153.621094 128.648438 151.371094 129.699219 149.121094 130.824219 C 148.898438 130.972656 148.746094 131.273438 148.671875 131.574219 C 147.023438 137.792969 145.375 144.09375 143.648438 150.316406 C 142.824219 153.3125 140.652344 154.664062 137.726562 155.039062 C 136.679688 155.1875 136.003906 155.5625 135.554688 156.386719 C 134.804688 157.960938 133.828125 159.460938 133.378906 161.109375 C 131.503906 168.007812 129.78125 174.980469 128.054688 181.953125 C 128.054688 182.101562 128.054688 182.175781 128.054688 182.402344 C 128.207031 182.328125 128.355469 182.328125 128.507812 182.253906 C 132.628906 180.078125 136.679688 177.902344 140.800781 175.65625 C 143.648438 174.15625 146.347656 172.507812 149.273438 171.15625 C 151.445312 170.183594 153.769531 169.507812 156.246094 170.558594 C 156.46875 170.632812 156.769531 170.558594 156.996094 170.40625 C 161.269531 167.558594 163.742188 163.507812 164.566406 158.488281 C 164.714844 157.660156 164.714844 156.761719 164.792969 155.863281 C 164.339844 155.863281 163.96875 155.863281 163.667969 155.789062 C 161.269531 155.414062 158.792969 155.113281 156.394531 154.511719 C 153.769531 153.839844 152.722656 152.113281 153.171875 149.488281 C 154.371094 143.191406 155.796875 136.894531 157.144531 130.597656 C 157.292969 129.546875 157.667969 128.347656 158.042969 126.847656 Z M 187.433594 186.449219 C 185.632812 187.199219 184.132812 188.023438 182.558594 188.398438 C 176.710938 189.75 171.613281 192.597656 166.664062 195.898438 C 164.867188 197.097656 164.867188 197.097656 165.390625 199.269531 C 165.390625 199.34375 165.390625 199.421875 165.464844 199.496094 C 166.140625 201.894531 166.367188 204.367188 165.917969 207.066406 C 166.441406 206.765625 166.742188 206.617188 167.039062 206.390625 C 171.089844 203.769531 175.585938 203.019531 180.160156 203.992188 C 186.15625 205.269531 189.605469 209.542969 191.105469 215.3125 C 191.554688 216.964844 191.628906 218.6875 191.929688 220.488281 C 194.855469 219.960938 197.777344 219.363281 200.925781 218.761719 C 196.355469 207.816406 191.929688 197.097656 187.433594 186.449219 Z M 173.261719 128.796875 C 172.738281 128.347656 172.363281 127.898438 171.914062 127.523438 C 169.964844 125.949219 168.539062 123.925781 167.492188 121.601562 C 167.117188 120.703125 166.664062 119.800781 166.214844 118.976562 C 164.339844 115.304688 164.191406 111.480469 165.015625 107.507812 C 165.691406 104.582031 166.589844 101.660156 167.414062 98.734375 C 167.492188 98.4375 167.566406 98.136719 167.714844 97.6875 C 165.390625 98.585938 163.515625 99.785156 162.09375 101.507812 C 158.792969 105.332031 155.644531 109.230469 152.421875 113.054688 C 150.324219 115.527344 148.375 118.003906 147.097656 121 C 146.347656 122.800781 145.523438 124.601562 145 126.472656 C 144.550781 128.125 144.925781 128.421875 146.5 127.75 C 148.671875 126.847656 150.695312 125.875 152.871094 124.824219 C 154.96875 123.851562 157.21875 123.101562 159.542969 123.101562 C 161.644531 123.027344 162.992188 123.925781 163.667969 125.949219 C 163.96875 126.925781 164.117188 127.898438 164.191406 128.949219 C 164.265625 130.824219 164.191406 132.621094 164.265625 134.496094 C 164.265625 135.546875 164.492188 136.59375 165.617188 137.195312 C 166.664062 137.792969 167.640625 138.394531 168.691406 138.917969 C 168.988281 139.070312 169.363281 139.21875 170.039062 139.445312 C 167.492188 134.570312 168.613281 131.121094 173.261719 128.796875 Z M 169.589844 91.6875 C 172.4375 84.492188 175.289062 77.21875 179.109375 70.621094 C 178.511719 69.570312 177.835938 68.671875 177.386719 67.699219 C 176.9375 66.722656 176.785156 65.597656 176.488281 64.472656 C 174.164062 66.273438 171.464844 66.949219 168.839844 67.847656 C 165.691406 68.898438 162.617188 70.171875 160.070312 72.269531 C 158.417969 73.621094 157.144531 75.195312 156.84375 77.367188 C 156.394531 81.042969 157.21875 84.417969 159.769531 87.191406 C 162.390625 90.039062 165.691406 91.386719 169.589844 91.6875 Z M 244.933594 188.472656 C 245.683594 192.222656 246.808594 195.972656 247.183594 199.796875 C 247.558594 203.542969 247.257812 207.441406 247.257812 211.265625 C 253.929688 210.214844 260.453125 209.167969 267.125 208.117188 C 266.902344 206.542969 265.925781 205.566406 264.875 204.667969 C 262.328125 202.417969 259.703125 200.246094 257.078125 198.070312 C 253.03125 194.773438 248.90625 191.625 244.933594 188.472656 Z M 194.703125 178.277344 C 193.054688 180.828125 191.78125 183.527344 189.308594 185.324219 C 194.929688 195.972656 199.351562 207.140625 204 218.238281 C 205.125 218.011719 206.175781 217.789062 207.375 217.636719 C 203.101562 204.441406 197.703125 191.773438 194.703125 178.277344 Z M 196.953125 137.570312 C 198.679688 136.894531 200.402344 136.070312 202.203125 135.394531 C 204.226562 134.644531 206.101562 135.019531 207.75 136.445312 C 208.574219 137.121094 209.472656 137.871094 210.449219 138.394531 C 211.421875 138.917969 212.472656 139.21875 213.523438 139.59375 C 214.195312 139.820312 214.648438 139.519531 214.945312 138.84375 C 216.820312 134.722656 217.644531 130.523438 215.621094 126.175781 C 214.871094 124.523438 214.121094 122.800781 213.445312 121.078125 C 213.371094 120.851562 213.222656 120.625 213.070312 120.402344 C 212.097656 120.625 211.199219 121 210.296875 121.152344 C 209.546875 121.300781 209.25 121.601562 209.25 122.351562 C 208.875 126.925781 206.699219 130.371094 202.5 132.320312 C 199.503906 133.746094 196.503906 135.097656 193.207031 135.695312 C 192.90625 135.769531 192.605469 135.84375 192.378906 135.921875 C 193.953125 136.519531 195.453125 137.046875 196.953125 137.570312 Z M 210.597656 152.640625 C 210.523438 151.890625 210.449219 151.066406 210.296875 150.316406 C 209.847656 147.839844 208.949219 145.441406 208.949219 142.96875 C 208.875 140.792969 207.898438 139.820312 206.25 139.070312 C 205.648438 138.84375 204.976562 138.394531 204.375 138.46875 C 202.351562 138.84375 200.402344 139.445312 198.378906 139.894531 C 198.976562 141.992188 198.828125 143.792969 197.554688 145.292969 C 199.351562 147.316406 199.953125 149.789062 200.175781 152.1875 C 203.550781 152.414062 207 152.488281 210.597656 152.640625 Z M 169.589844 143.792969 C 168.015625 142.96875 166.589844 141.992188 165.015625 141.394531 C 162.09375 140.195312 160.667969 138.320312 160.59375 135.171875 C 160.59375 134.347656 160.667969 133.523438 160.667969 132.621094 C 160.667969 131.121094 160.742188 129.625 160.742188 128.046875 C 160.742188 127.597656 160.519531 127.074219 160.367188 126.625 C 159.917969 127.972656 159.84375 129.25 159.617188 130.597656 C 158.492188 137.046875 157.292969 143.492188 156.171875 149.941406 C 156.019531 150.765625 156.246094 151.214844 157.070312 151.289062 C 159.617188 151.4375 162.167969 151.589844 164.714844 151.738281 C 164.941406 151.738281 165.390625 151.363281 165.464844 151.066406 C 166.367188 148.367188 167.191406 145.742188 169.589844 143.792969 Z M 275.820312 206.617188 C 276.046875 206.617188 276.195312 206.617188 276.347656 206.542969 C 278.597656 206.316406 280.84375 206.167969 283.019531 205.792969 C 283.917969 205.644531 285.34375 205.042969 285.492188 204.367188 C 285.941406 202.417969 286.019531 200.394531 286.019531 198.371094 C 286.019531 197.546875 285.417969 196.722656 284.367188 196.722656 C 281.667969 196.722656 279.046875 197.320312 276.496094 198.296875 C 275.523438 198.671875 275.148438 199.496094 274.996094 200.542969 C 274.773438 202.644531 275.371094 204.59375 275.820312 206.617188 Z M 180.835938 138.019531 C 180.386719 137.269531 180.085938 136.519531 179.636719 135.921875 C 178.734375 134.644531 177.6875 133.371094 176.710938 132.097656 C 176.5625 131.871094 176.113281 131.722656 175.886719 131.722656 C 174.164062 132.023438 172.511719 132.472656 171.390625 133.972656 C 170.863281 134.644531 170.5625 135.320312 170.863281 136.21875 C 171.3125 137.496094 171.6875 138.769531 172.136719 140.042969 C 172.363281 140.644531 172.664062 141.167969 172.964844 141.769531 C 175.585938 140.492188 178.136719 139.292969 180.835938 138.019531 Z M 193.128906 60.800781 C 195.078125 59.152344 196.203125 56.902344 197.929688 55.101562 C 199.652344 53.230469 201.375 51.429688 203.25 49.40625 C 200.476562 49.554688 197.777344 49.707031 195.078125 49.78125 C 195.078125 50.078125 195.078125 50.53125 194.929688 50.90625 C 194.554688 52.480469 194.40625 54.203125 193.65625 55.628906 C 192.90625 57.425781 193.054688 59 193.128906 60.800781 Z M 193.128906 60.800781 " fill-opacity="1" fill-rule="nonzero"/></g><path fill="#e12c2c" d="M 180.984375 224.609375 C 178.511719 224.910156 176.1875 225.285156 173.789062 225.585938 C 172.664062 225.734375 171.539062 225.660156 170.488281 225.660156 C 169.515625 225.660156 168.765625 225.210938 168.316406 224.386719 C 166.890625 221.761719 165.839844 219.0625 165.617188 216.136719 C 165.464844 214.5625 166.066406 213.363281 167.414062 212.464844 C 170.039062 210.664062 172.886719 209.839844 175.960938 209.765625 C 179.5625 209.617188 182.710938 212.089844 183.308594 215.6875 C 183.683594 217.9375 184.058594 220.113281 183.683594 222.4375 C 183.535156 223.261719 183.757812 224.234375 183.984375 225.136719 C 184.207031 225.960938 184.808594 226.484375 185.707031 226.558594 C 186.53125 226.710938 186.984375 226.257812 187.359375 225.585938 C 187.65625 224.984375 188.257812 224.460938 188.933594 224.835938 C 189.382812 225.058594 189.757812 225.734375 189.832031 226.257812 C 189.980469 227.535156 189.382812 228.582031 188.332031 229.257812 C 185.257812 231.207031 181.210938 229.109375 181.058594 225.511719 C 180.984375 225.136719 180.984375 224.835938 180.984375 224.609375 Z M 171.3125 223.261719 C 174.164062 222.511719 176.636719 221.835938 179.109375 221.238281 C 179.859375 221.085938 180.011719 220.710938 179.933594 220.035156 C 179.785156 218.835938 179.710938 217.5625 179.5625 216.289062 C 179.335938 214.339844 178.136719 213.214844 175.960938 212.839844 C 173.863281 212.464844 171.765625 212.691406 169.738281 213.664062 C 168.164062 214.414062 167.789062 214.863281 168.390625 216.511719 C 169.214844 218.914062 170.339844 221.085938 171.3125 223.261719 Z M 171.3125 223.261719 " fill-opacity="1" fill-rule="nonzero"/></svg>