<svg xmlns="http://www.w3.org/2000/svg" xmlns:xlink="http://www.w3.org/1999/xlink" width="500" zoomAndPan="magnify" viewBox="0 0 375 374.999991" height="500" preserveAspectRatio="xMidYMid meet" version="1.0"><defs><clipPath id="38396a2de7"><path d="M 37.5 19 L 286 19 L 286 374 L 37.5 374 Z M 37.5 19 " clip-rule="nonzero"/></clipPath></defs><path fill="#e12c2c" d="M 331.648438 40.066406 C 328.605469 47.140625 316.289062 55.484375 294.640625 54.164062 C 312.46875 48.402344 324.492188 38.835938 329.710938 29.175781 C 332.585938 32.382812 333.3125 36.191406 331.648438 40.066406 Z M 323.941406 25.015625 C 319.414062 34.042969 305.835938 45.09375 283.125 50.039062 C 292.902344 37.492188 310.785156 19.371094 323.941406 25.015625 Z M 317.21875 10.464844 C 318.65625 10.742188 325.746094 13.105469 325.648438 18.210938 C 311.402344 12.976562 295.78125 25.5 285.214844 36.894531 C 293.511719 22.675781 305.371094 8.167969 317.21875 10.464844 Z M 332.300781 22.070312 C 332.324219 21.9375 332.359375 21.8125 332.386719 21.679688 C 333.59375 14.578125 332.253906 5.316406 318.535156 3.625 C 290.820312 0.210938 269.976562 51.789062 269.09375 54.070312 C 268.65625 55.207031 275.222656 58.488281 276.441406 58.316406 C 309.078125 66.300781 332.082031 56.691406 338.050781 42.808594 C 341.277344 35.28125 339.0625 27.582031 332.300781 22.070312 " fill-opacity="1" fill-rule="nonzero"/><path fill="#e12c2c" d="M 72.988281 187.382812 C 75.363281 188.152344 77.976562 188.390625 79.9375 188.390625 C 81.84375 188.390625 83.148438 187.800781 83.148438 186.433594 C 83.148438 184.828125 82.195312 184.113281 80.238281 184.113281 C 77.445312 184.113281 75.003906 185.359375 72.988281 187.382812 Z M 67.515625 183.21875 C 71.144531 180.132812 75.542969 178.230469 80.648438 178.230469 C 85.523438 178.230469 89.742188 179.835938 89.742188 185.539062 C 89.742188 189.695312 85.820312 192.964844 79.460938 192.964844 C 76.730469 192.964844 73.578125 192.429688 70.128906 191.0625 C 67.398438 195.585938 65.910156 201.460938 65.910156 206.105469 C 65.910156 212.996094 68.703125 216.976562 74.585938 216.976562 C 78.929688 216.976562 84.214844 214.898438 87.367188 210.855469 C 88.257812 209.667969 89.03125 209.128906 89.507812 209.128906 C 90.101562 209.128906 90.398438 210.023438 90.398438 211.390625 C 90.398438 219.117188 81.902344 223.632812 73.578125 223.632812 C 62.878906 223.632812 56.578125 217.871094 56.578125 208.359375 C 56.578125 200.871094 59.257812 192.667969 64.066406 186.726562 C 62.289062 184.589844 61.097656 182.03125 61.097656 180.425781 C 61.097656 179.65625 61.695312 179.117188 62.289062 179.117188 C 63.777344 179.117188 65.433594 181.910156 67.515625 183.21875 " fill-opacity="1" fill-rule="nonzero"/><path fill="#e12c2c" d="M 110.898438 211.210938 C 111.613281 209.726562 111.90625 208.179688 111.90625 206.992188 C 111.90625 205.984375 111.554688 205.03125 110.601562 205.03125 C 109.890625 205.03125 109.351562 206.335938 109.351562 207.292969 C 109.351562 208.835938 109.890625 210.203125 110.898438 211.210938 Z M 112.265625 198.140625 C 112.265625 198.671875 111.078125 199.089844 107.628906 199.089844 C 100.796875 199.089844 95.863281 204.023438 95.863281 210.972656 C 95.863281 214.480469 97.945312 217.273438 102.222656 217.273438 C 103.949219 217.273438 105.433594 216.863281 106.679688 216.085938 C 104.007812 214.242188 102.460938 211.390625 102.460938 207.824219 C 102.460938 204.320312 105.195312 200.214844 110.300781 200.214844 C 114.167969 200.214844 116.070312 203.015625 116.070312 206.695312 C 116.070312 208.660156 115.59375 210.800781 114.707031 212.875 L 115.058594 212.875 C 119.515625 212.875 120.351562 209.25 121.835938 209.25 C 122.425781 209.25 122.664062 210.023438 122.664062 211.390625 C 122.664062 216.085938 119.222656 218.460938 115.234375 218.460938 C 113.871094 218.460938 112.625 218.347656 111.4375 218.101562 C 108.644531 221.320312 104.71875 223.632812 100.023438 223.632812 C 90.988281 223.632812 87.128906 217.929688 87.128906 211.929688 C 87.128906 202.949219 93.371094 194.632812 103.410156 194.632812 C 107.808594 194.632812 112.265625 196.414062 112.265625 198.140625 " fill-opacity="1" fill-rule="nonzero"/><path fill="#e12c2c" d="M 143.164062 211.210938 C 143.882812 209.726562 144.179688 208.179688 144.179688 206.992188 C 144.179688 205.984375 143.820312 205.03125 142.867188 205.03125 C 142.15625 205.03125 141.621094 206.335938 141.621094 207.292969 C 141.621094 208.835938 142.15625 210.203125 143.164062 211.210938 Z M 144.53125 198.140625 C 144.53125 198.671875 143.34375 199.089844 139.894531 199.089844 C 133.0625 199.089844 128.128906 204.023438 128.128906 210.972656 C 128.128906 214.480469 130.210938 217.273438 134.488281 217.273438 C 136.214844 217.273438 137.699219 216.863281 138.945312 216.085938 C 136.273438 214.242188 134.730469 211.390625 134.730469 207.824219 C 134.730469 204.320312 137.460938 200.214844 142.574219 200.214844 C 146.433594 200.214844 148.339844 203.015625 148.339844 206.695312 C 148.339844 208.660156 147.859375 210.800781 146.972656 212.875 L 147.328125 212.875 C 151.785156 212.875 152.617188 209.25 154.101562 209.25 C 154.699219 209.25 154.9375 210.023438 154.9375 211.390625 C 154.9375 216.085938 151.488281 218.460938 147.503906 218.460938 C 146.136719 218.460938 144.890625 218.347656 143.703125 218.101562 C 140.910156 221.320312 136.984375 223.632812 132.289062 223.632812 C 123.253906 223.632812 119.394531 217.929688 119.394531 211.929688 C 119.394531 202.949219 125.636719 194.632812 135.675781 194.632812 C 140.074219 194.632812 144.53125 196.414062 144.53125 198.140625 " fill-opacity="1" fill-rule="nonzero"/><path fill="#e12c2c" d="M 162.417969 208.539062 C 167.710938 208.179688 171.570312 206.046875 171.570312 203.1875 C 171.570312 201.941406 171.035156 201.050781 169.257812 201.050781 C 166.875 201.050781 164.082031 204.671875 162.417969 208.539062 Z M 161.46875 218.164062 C 161.46875 219.648438 161.46875 221.320312 160.574219 222.027344 C 159.089844 223.214844 157.601562 224.050781 155.648438 224.050781 C 153.683594 224.050781 152.847656 221.910156 152.847656 218.289062 C 152.847656 208.417969 156.175781 189.21875 162 180.371094 C 162.777344 179.179688 163.605469 178.761719 164.382812 178.761719 C 166.816406 178.761719 168.898438 183.21875 168.898438 184.589844 C 168.898438 188.867188 165.867188 191.71875 163.195312 196.058594 L 162.597656 201.050781 C 164.203125 197.78125 167.054688 194.691406 172.046875 194.691406 C 177.101562 194.691406 179.894531 197.304688 179.894531 201.527344 C 179.894531 207.054688 173.476562 210.144531 169.316406 210.144531 C 169.964844 212.636719 171.214844 216.503906 174.722656 216.503906 C 179.714844 216.503906 182.507812 209.308594 184.410156 209.308594 C 185 209.308594 185.242188 210.023438 185.242188 211.390625 C 185.242188 216.558594 179.179688 223.335938 172.699219 223.335938 C 167.414062 223.335938 164.382812 216.445312 161.882812 210.023438 C 161.820312 212.519531 161.46875 215.789062 161.46875 218.164062 " fill-opacity="1" fill-rule="nonzero"/><path fill="#e12c2c" d="M 190.226562 183.105469 C 190.226562 180.902344 191.894531 175.617188 194.511719 175.617188 C 197.066406 175.617188 198.910156 180.542969 198.910156 182.03125 C 198.910156 186.90625 194.921875 188.808594 191.832031 188.808594 C 191.832031 188.808594 190.226562 186.375 190.226562 183.105469 Z M 183.457031 212.21875 C 183.457031 205.148438 185.890625 193.621094 190.226562 193.621094 C 192.726562 193.621094 193.738281 197.960938 193.738281 199.328125 C 193.617188 204.671875 190.882812 211.449219 190.882812 214.660156 C 190.882812 215.847656 191.832031 216.503906 192.96875 216.503906 C 195.28125 216.503906 200.566406 209.308594 201.703125 209.308594 C 202.296875 209.308594 202.53125 210.023438 202.53125 211.390625 C 202.53125 216.558594 195.878906 223.335938 189.398438 223.335938 C 184.761719 223.335938 183.457031 218.289062 183.457031 212.21875 " fill-opacity="1" fill-rule="nonzero"/><path fill="#e12c2c" d="M 216.558594 215.726562 C 216.558594 209.488281 218.394531 206.695312 218.394531 203.1875 C 218.394531 201.941406 217.804688 201.050781 215.722656 201.050781 C 212.570312 201.050781 209.183594 207.472656 208.234375 212.285156 L 208.234375 212.699219 C 208.234375 215.90625 209.480469 217.929688 209.480469 219.589844 C 209.480469 221.074219 208.414062 222.269531 204.433594 223.8125 C 203.957031 223.992188 203.480469 224.105469 203.066406 224.105469 C 201.105469 224.105469 200.449219 221.910156 200.449219 218.289062 C 200.449219 208.179688 200.507812 202.179688 205.144531 195.167969 C 205.921875 193.972656 206.6875 193.503906 207.464844 193.503906 C 209.125 193.503906 210.734375 195.816406 211.503906 197.601562 C 213.109375 195.9375 215.371094 194.691406 218.515625 194.691406 C 223.867188 194.691406 226.71875 197.304688 226.71875 201.527344 C 226.71875 207.292969 224.226562 213.175781 224.226562 215.488281 C 224.226562 216.144531 224.398438 216.503906 224.875 216.503906 C 227.195312 216.503906 232.484375 209.308594 233.609375 209.308594 C 234.207031 209.308594 234.445312 210.023438 234.445312 211.390625 C 234.445312 216.558594 227.785156 223.335938 221.3125 223.335938 C 217.566406 223.335938 216.558594 219.714844 216.558594 215.726562 " fill-opacity="1" fill-rule="nonzero"/><path fill="#e12c2c" d="M 250.308594 211.210938 C 251.078125 207.589844 252.511719 202.238281 253.519531 198.671875 C 247.578125 199.503906 239.910156 204.375 239.910156 212.699219 C 239.910156 215.019531 240.621094 217.273438 243.292969 217.273438 C 245.851562 217.273438 248.765625 215.488281 250.308594 211.210938 Z M 246.152344 230.054688 C 240.382812 231.183594 237.707031 231.003906 237.707031 232.25 C 237.707031 233.972656 240.148438 234.863281 241.636719 234.863281 C 243.417969 234.863281 244.90625 232.847656 246.152344 230.054688 Z M 261.480469 199.386719 C 261.480469 202.597656 258.628906 212.875 256.191406 220.960938 C 263.148438 215.488281 266.054688 209.308594 267.667969 209.308594 C 268.257812 209.308594 268.496094 210.023438 268.496094 211.390625 C 268.496094 215.96875 262.316406 223.992188 254.050781 227.734375 C 252.152344 234.09375 250.308594 239.445312 241.695312 239.445312 C 236.582031 239.445312 232.242188 235.996094 232.242188 231.539062 C 232.242188 226.546875 239.253906 226.546875 247.996094 224.582031 C 248.347656 223.277344 248.644531 221.910156 248.945312 220.601562 C 246.980469 222.445312 244.308594 223.632812 240.507812 223.632812 C 234.976562 223.632812 231.175781 219.945312 231.175781 214.242188 C 231.175781 209.726562 232.542969 204.792969 235.574219 201.109375 C 238.304688 197.839844 242.582031 194.75 247.519531 194.75 C 249.773438 194.75 252.921875 195.402344 254.230469 196.117188 C 254.828125 194.035156 255.894531 193.503906 256.910156 193.503906 C 259.285156 193.503906 261.480469 197.960938 261.480469 199.386719 " fill-opacity="1" fill-rule="nonzero"/><path fill="#e12c2c" d="M 110.984375 252.304688 C 112.648438 246.960938 114.671875 243.152344 116.808594 243.152344 C 119.367188 243.152344 120.078125 245.472656 120.675781 247.96875 L 118.234375 252.246094 C 120.972656 252.304688 122.808594 252.367188 124.125 252.367188 C 124.714844 252.367188 124.773438 252.605469 124.773438 253.320312 C 124.773438 254.089844 124.003906 257.417969 123.109375 257.417969 C 122.160156 257.417969 118.890625 257.121094 117.167969 257.121094 C 116.398438 261.695312 115.917969 267.230469 115.917969 269.78125 C 115.917969 272.277344 116.335938 273.878906 117.285156 273.878906 C 118.710938 273.878906 123.765625 270.910156 125.667969 268.414062 C 126.558594 267.230469 127.328125 266.691406 127.804688 266.691406 C 128.402344 266.691406 128.640625 267.402344 128.640625 268.765625 C 128.640625 273.941406 120.195312 280.71875 113.71875 280.71875 C 109.796875 280.71875 108.191406 275.546875 108.191406 269.066406 C 108.191406 265.503906 108.730469 261.339844 109.617188 257.417969 L 106.945312 257.417969 C 106.46875 257.417969 106.230469 257.179688 106.230469 256.824219 C 106.230469 254.925781 106.410156 253.96875 107.773438 252.367188 C 108.550781 252.367188 109.679688 252.367188 110.984375 252.304688 " fill-opacity="1" fill-rule="nonzero"/><path fill="#e12c2c" d="M 133.628906 240.480469 C 133.628906 238.277344 135.292969 232.992188 137.90625 232.992188 C 140.457031 232.992188 142.300781 237.925781 142.300781 239.414062 C 142.300781 244.28125 138.324219 246.183594 135.234375 246.183594 C 135.234375 246.183594 133.628906 243.75 133.628906 240.480469 Z M 126.847656 269.601562 C 126.847656 262.527344 129.289062 251 133.628906 251 C 136.121094 251 137.136719 255.335938 137.136719 256.710938 C 137.015625 262.054688 134.285156 268.828125 134.285156 272.035156 C 134.285156 273.222656 135.234375 273.878906 136.359375 273.878906 C 138.679688 273.878906 143.96875 266.691406 145.09375 266.691406 C 145.691406 266.691406 145.929688 267.402344 145.929688 268.765625 C 145.929688 273.941406 139.273438 280.71875 132.796875 280.71875 C 128.164062 280.71875 126.847656 275.664062 126.847656 269.601562 " fill-opacity="1" fill-rule="nonzero"/><path fill="#e12c2c" d="M 168.335938 276.972656 C 168.335938 278.457031 167.261719 279.644531 163.28125 281.191406 C 162.804688 281.367188 162.332031 281.488281 161.914062 281.488281 C 159.953125 281.488281 159.300781 279.285156 159.300781 275.664062 C 159.300781 268.828125 160.191406 262.945312 160.191406 260.449219 C 160.191406 259.144531 159.710938 258.425781 158.347656 258.425781 C 155.851562 258.425781 151.632812 266.214844 151.632812 270.082031 C 151.632812 273.285156 152.882812 275.308594 152.882812 276.972656 C 152.882812 278.457031 151.8125 279.644531 147.828125 281.191406 C 147.355469 281.367188 146.878906 281.488281 146.460938 281.488281 C 144.496094 281.488281 143.847656 279.285156 143.847656 275.664062 C 143.847656 265.625 143.90625 259.613281 148.542969 252.542969 C 149.3125 251.355469 150.089844 250.878906 150.859375 250.878906 C 152.761719 250.878906 154.546875 253.792969 155.195312 255.636719 C 156.859375 253.613281 159.121094 252.066406 161.914062 252.066406 C 165.242188 252.066406 168.515625 254.507812 168.515625 258.007812 L 168.515625 258.667969 C 170.46875 256.230469 173.382812 254.148438 177.367188 254.148438 C 181.644531 254.148438 183.90625 256.523438 183.90625 260.332031 C 183.90625 265.683594 181.585938 271.148438 181.585938 273.113281 C 181.585938 273.582031 181.707031 273.878906 182.0625 273.878906 C 184.378906 273.878906 189.671875 266.691406 190.796875 266.691406 C 191.394531 266.691406 191.632812 267.402344 191.632812 268.765625 C 191.632812 273.941406 184.976562 280.71875 178.496094 280.71875 C 175.105469 280.71875 174.21875 276.851562 174.21875 272.933594 C 174.21875 268.886719 175.523438 265.976562 175.523438 262.464844 C 175.523438 261.339844 175.046875 260.511719 173.269531 260.511719 C 170.886719 260.511719 168.097656 265.914062 167.085938 269.960938 L 167.085938 270.082031 C 167.085938 273.285156 168.335938 275.308594 168.335938 276.972656 " fill-opacity="1" fill-rule="nonzero"/><path fill="#e12c2c" d="M 197.210938 264.488281 C 200.542969 262.292969 203.332031 261.226562 203.332031 258.785156 C 203.332031 257.898438 202.738281 257.300781 201.488281 257.300781 C 199.117188 257.300781 197.808594 260.75 197.210938 264.488281 Z M 215.636719 266.691406 C 216.234375 266.691406 216.464844 267.402344 216.464844 268.765625 C 216.464844 272.097656 212.1875 280.898438 198.578125 280.898438 C 193.230469 280.898438 188.058594 278.097656 188.058594 271.625 C 188.058594 260.269531 195.546875 252.007812 203.8125 252.007812 C 208.269531 252.007812 210.703125 254.386719 210.703125 257.71875 C 210.703125 264.726562 203.09375 265.683594 196.792969 268.59375 L 196.792969 270.082031 C 196.792969 273.34375 200.300781 274.058594 202.503906 274.058594 C 210.351562 274.058594 214.269531 266.691406 215.636719 266.691406 " fill-opacity="1" fill-rule="nonzero"/><path fill="#e12c2c" d="M 230.96875 150.453125 C 219.125 162.976562 248.027344 165.960938 240.699219 149.785156 C 236.183594 139.820312 219.667969 144.113281 212.226562 147.480469 C 199.925781 153.046875 180.722656 173.222656 167.9375 157.53125 C 163.398438 151.964844 162.5 143.390625 169.574219 139.410156 C 172.261719 137.90625 175.636719 137.488281 178.554688 138.589844 C 178.390625 138.527344 185.519531 143.78125 183.554688 144.53125 C 180.558594 138.632812 170.402344 138.5625 168.632812 145.605469 C 166.714844 153.207031 175.722656 158.597656 182.148438 157.09375 C 196.242188 153.777344 205.570312 141.023438 220.445312 138.773438 C 231.613281 137.074219 247.101562 140.445312 245.144531 155.0625 C 242.921875 171.730469 217.46875 160.878906 230.96875 150.453125 C 227.546875 154.074219 229.101562 151.898438 230.96875 150.453125 " fill-opacity="1" fill-rule="nonzero"/><path fill="#e12c2c" d="M 142.859375 151.1875 C 131.015625 138.667969 159.925781 135.683594 152.589844 151.859375 C 148.074219 161.820312 131.558594 157.53125 124.117188 154.160156 C 111.8125 148.597656 92.613281 128.421875 79.828125 144.113281 C 75.289062 149.675781 74.386719 158.257812 81.464844 162.230469 C 84.152344 163.738281 87.53125 164.164062 90.453125 163.054688 C 90.277344 163.121094 97.410156 157.863281 95.445312 157.113281 C 92.449219 163.007812 82.292969 163.082031 80.523438 156.039062 C 78.605469 148.445312 87.613281 143.042969 94.039062 144.550781 C 108.132812 147.867188 117.464844 160.621094 132.335938 162.875 C 143.503906 164.566406 158.988281 161.199219 157.039062 146.585938 C 154.8125 129.917969 129.355469 140.761719 142.859375 151.1875 C 139.4375 147.566406 140.988281 149.742188 142.859375 151.1875 " fill-opacity="1" fill-rule="nonzero"/><path fill="#e12c2c" d="M 90.628906 319.722656 C 102.476562 307.203125 73.566406 304.21875 80.902344 320.394531 C 85.417969 330.355469 101.933594 326.0625 109.375 322.703125 C 121.675781 317.128906 140.875 296.960938 153.664062 312.652344 C 158.199219 318.210938 159.101562 326.792969 152.027344 330.765625 C 149.339844 332.273438 145.964844 332.695312 143.046875 331.589844 C 143.210938 331.65625 136.082031 326.394531 138.042969 325.644531 C 141.042969 331.542969 151.195312 331.613281 152.96875 324.570312 C 154.882812 316.976562 145.878906 311.578125 139.449219 313.089844 C 125.355469 316.402344 116.027344 329.15625 101.15625 331.410156 C 89.988281 333.101562 74.5 329.730469 76.449219 315.121094 C 78.679688 298.453125 104.132812 309.304688 90.628906 319.722656 C 94.050781 316.109375 92.5 318.277344 90.628906 319.722656 " fill-opacity="1" fill-rule="nonzero"/><path fill="#e12c2c" d="M 178.742188 318.988281 C 190.585938 331.507812 161.675781 334.492188 169.011719 318.316406 C 173.527344 308.355469 190.042969 312.652344 197.484375 316.015625 C 209.785156 321.582031 228.988281 341.757812 241.773438 326.0625 C 246.3125 320.5 247.21875 311.921875 240.136719 307.945312 C 237.449219 306.4375 234.074219 306.019531 231.15625 307.121094 C 231.320312 307.0625 224.191406 312.320312 226.15625 313.066406 C 229.152344 307.167969 239.308594 307.09375 241.078125 314.140625 C 242.996094 321.738281 233.988281 327.132812 227.5625 325.625 C 213.46875 322.308594 204.140625 309.554688 189.265625 307.300781 C 178.097656 305.609375 162.609375 308.984375 164.5625 323.597656 C 166.789062 340.265625 192.246094 329.414062 178.742188 318.988281 C 182.164062 322.609375 180.609375 320.433594 178.742188 318.988281 " fill-opacity="1" fill-rule="nonzero"/><g clip-path="url(#38396a2de7)"><path fill="#e12c2c" d="M 274.761719 368.058594 C 272.222656 368.808594 269.664062 368.691406 267.042969 368.695312 C 256.605469 368.730469 57.535156 369.398438 52.820312 369.414062 C 49.980469 369.417969 47.101562 369.398438 44.675781 367.382812 C 40.027344 363.53125 40.949219 357.6875 40.933594 352.273438 C 40.902344 344.878906 39.878906 49.835938 39.875 34.730469 C 39.875 29.441406 42.890625 24.578125 48.289062 23.378906 C 51.835938 22.679688 273.03125 25.421875 273.589844 25.546875 C 276.828125 26.164062 278.882812 29.035156 279.789062 31.945312 C 280.488281 34.167969 279.699219 79.230469 279.691406 93.832031 C 279.664062 122.9375 280.167969 301.492188 280.386719 359.875 C 280.273438 363.050781 278.257812 366.601562 274.761719 368.058594 Z M 285.089844 29.160156 C 282.753906 22.363281 276.320312 19.609375 269.597656 19.65625 C 241.476562 19.882812 60.300781 21.859375 55.570312 21.851562 C 51.984375 21.84375 48.261719 21.519531 44.992188 23.273438 C 38.335938 26.847656 38.574219 33.570312 38.574219 40.171875 C 38.566406 47.726562 37.585938 329.140625 37.492188 358.449219 C 37.539062 363.390625 39.105469 368.425781 43.71875 371.023438 C 46.539062 372.601562 49.289062 373.007812 52.441406 373.019531 C 64.148438 373.054688 204.296875 373.53125 262.667969 373.722656 C 269.636719 373.742188 277.113281 374.726562 282.226562 368.855469 C 285.859375 364.675781 285.566406 359.589844 285.585938 354.429688 C 285.613281 346.882812 286.753906 33.996094 285.089844 29.160156 " fill-opacity="1" fill-rule="nonzero"/></g></svg>