<svg xmlns="http://www.w3.org/2000/svg" xmlns:xlink="http://www.w3.org/1999/xlink" width="500" zoomAndPan="magnify" viewBox="0 0 375 374.999991" height="500" preserveAspectRatio="xMidYMid meet" version="1.0"><defs><g/></defs><g fill="#fb5315" fill-opacity="1"><g transform="translate(278.315667, 156.25482)"><g><path d="M -1.859375 -8.6875 C -1.316406 -9.164062 -0.785156 -9.476562 -0.265625 -9.625 C 0.253906 -9.769531 0.75 -9.78125 1.21875 -9.65625 C 1.6875 -9.539062 2.101562 -9.3125 2.46875 -8.96875 L 2.546875 -8.875 L 1.0625 -7.578125 L 0.96875 -7.65625 C 0.320312 -8.144531 -0.300781 -8.117188 -0.90625 -7.578125 C -1.257812 -7.265625 -1.425781 -6.851562 -1.40625 -6.34375 C -1.382812 -5.832031 -1.097656 -5.265625 -0.546875 -4.640625 C -0.128906 -4.171875 0.257812 -3.847656 0.625 -3.671875 C 1 -3.503906 1.332031 -3.441406 1.625 -3.484375 C 1.914062 -3.523438 2.171875 -3.640625 2.390625 -3.828125 C 2.679688 -4.085938 2.84375 -4.382812 2.875 -4.71875 C 2.90625 -5.050781 2.816406 -5.398438 2.609375 -5.765625 L 2.546875 -5.875 L 4.03125 -7.1875 L 4.09375 -7.078125 C 4.457031 -6.585938 4.65625 -6.085938 4.6875 -5.578125 C 4.71875 -5.066406 4.613281 -4.5625 4.375 -4.0625 C 4.144531 -3.570312 3.789062 -3.117188 3.3125 -2.703125 C 2.800781 -2.253906 2.238281 -1.957031 1.625 -1.8125 C 1.019531 -1.664062 0.40625 -1.695312 -0.21875 -1.90625 C -0.851562 -2.125 -1.453125 -2.550781 -2.015625 -3.1875 C -2.597656 -3.851562 -2.960938 -4.519531 -3.109375 -5.1875 C -3.253906 -5.863281 -3.207031 -6.503906 -2.96875 -7.109375 C -2.738281 -7.710938 -2.367188 -8.238281 -1.859375 -8.6875 Z M -1.859375 -8.6875 "/></g></g></g><g fill="#fb5315" fill-opacity="1"><g transform="translate(286.429804, 149.761046)"><g><path d="M 2.5 -8.59375 C 3.257812 -8.78125 3.957031 -8.785156 4.59375 -8.609375 C 5.238281 -8.441406 5.785156 -8.109375 6.234375 -7.609375 C 6.679688 -7.117188 7.003906 -6.476562 7.203125 -5.6875 C 7.390625 -4.894531 7.398438 -4.175781 7.234375 -3.53125 C 7.078125 -2.882812 6.753906 -2.332031 6.265625 -1.875 C 5.773438 -1.425781 5.148438 -1.109375 4.390625 -0.921875 C 3.617188 -0.734375 2.910156 -0.722656 2.265625 -0.890625 C 1.628906 -1.066406 1.082031 -1.398438 0.625 -1.890625 C 0.175781 -2.390625 -0.140625 -3.035156 -0.328125 -3.828125 C -0.523438 -4.617188 -0.539062 -5.335938 -0.375 -5.984375 C -0.207031 -6.628906 0.117188 -7.175781 0.609375 -7.625 C 1.097656 -8.082031 1.726562 -8.40625 2.5 -8.59375 Z M 4.046875 -2.34375 C 4.585938 -2.476562 4.96875 -2.789062 5.1875 -3.28125 C 5.414062 -3.78125 5.4375 -4.421875 5.25 -5.203125 C 5.050781 -5.984375 4.734375 -6.539062 4.296875 -6.875 C 3.867188 -7.21875 3.382812 -7.320312 2.84375 -7.1875 C 2.28125 -7.050781 1.890625 -6.734375 1.671875 -6.234375 C 1.453125 -5.734375 1.441406 -5.09375 1.640625 -4.3125 C 1.828125 -3.53125 2.132812 -2.972656 2.5625 -2.640625 C 2.988281 -2.304688 3.484375 -2.207031 4.046875 -2.34375 Z M 4.046875 -2.34375 "/></g></g></g><g fill="#fb5315" fill-opacity="1"><g transform="translate(297.256554, 147.845432)"><g><path d="M 5.109375 -6.828125 C 5.753906 -6.679688 6.257812 -6.453125 6.625 -6.140625 C 7 -5.835938 7.253906 -5.476562 7.390625 -5.0625 C 7.523438 -4.644531 7.5625 -4.203125 7.5 -3.734375 L 5.5625 -4.15625 C 5.59375 -4.476562 5.546875 -4.75 5.421875 -4.96875 C 5.296875 -5.195312 5.078125 -5.34375 4.765625 -5.40625 C 4.535156 -5.457031 4.335938 -5.441406 4.171875 -5.359375 C 4.015625 -5.285156 3.910156 -5.132812 3.859375 -4.90625 C 3.804688 -4.664062 3.875 -4.441406 4.0625 -4.234375 C 4.25 -4.023438 4.632812 -3.78125 5.21875 -3.5 C 5.988281 -3.132812 6.507812 -2.710938 6.78125 -2.234375 C 7.050781 -1.765625 7.125 -1.242188 7 -0.671875 C 6.894531 -0.171875 6.664062 0.210938 6.3125 0.484375 C 5.957031 0.753906 5.539062 0.925781 5.0625 1 C 4.582031 1.070312 4.097656 1.054688 3.609375 0.953125 C 2.671875 0.742188 1.945312 0.378906 1.4375 -0.140625 C 0.925781 -0.660156 0.734375 -1.347656 0.859375 -2.203125 L 2.8125 -1.78125 C 2.78125 -1.40625 2.875 -1.109375 3.09375 -0.890625 C 3.3125 -0.679688 3.566406 -0.546875 3.859375 -0.484375 C 4.128906 -0.429688 4.363281 -0.445312 4.5625 -0.53125 C 4.769531 -0.625 4.894531 -0.769531 4.9375 -0.96875 C 4.976562 -1.164062 4.929688 -1.363281 4.796875 -1.5625 C 4.671875 -1.757812 4.390625 -1.96875 3.953125 -2.1875 C 3.421875 -2.4375 2.972656 -2.703125 2.609375 -2.984375 C 2.253906 -3.265625 2.003906 -3.578125 1.859375 -3.921875 C 1.722656 -4.273438 1.707031 -4.695312 1.8125 -5.1875 C 1.914062 -5.664062 2.132812 -6.039062 2.46875 -6.3125 C 2.800781 -6.582031 3.195312 -6.757812 3.65625 -6.84375 C 4.125 -6.9375 4.609375 -6.929688 5.109375 -6.828125 Z M 5.109375 -6.828125 "/></g></g></g><g fill="#fb5315" fill-opacity="1"><g transform="translate(306.268063, 149.98874)"><g><path d="M 12.203125 0.34375 L 7.3125 6.15625 L 5.796875 4.875 L 7.84375 2.4375 C 8.0625 2.175781 8.316406 1.878906 8.609375 1.546875 C 8.898438 1.210938 9.171875 0.898438 9.421875 0.609375 C 9.117188 0.859375 8.789062 1.117188 8.4375 1.390625 C 8.082031 1.671875 7.757812 1.914062 7.46875 2.125 L 4.765625 4.015625 L 3.21875 2.703125 L 4.609375 -0.28125 C 4.765625 -0.59375 4.945312 -0.953125 5.15625 -1.359375 C 5.363281 -1.765625 5.570312 -2.128906 5.78125 -2.453125 C 5.539062 -2.148438 5.273438 -1.828125 4.984375 -1.484375 C 4.703125 -1.148438 4.453125 -0.851562 4.234375 -0.59375 L 2.1875 1.84375 L 0.671875 0.5625 L 5.5625 -5.25 L 7.921875 -3.25 L 5.265625 1.921875 L 9.90625 -1.59375 Z M 12.203125 0.34375 "/></g></g></g><g fill="#fb5315" fill-opacity="1"><g transform="translate(315.102382, 158.644549)"><g><path d="M 3.9375 5.640625 L 2.5 6.21875 L 0.328125 0.8125 L 7.375 -2.015625 L 9.515625 3.28125 L 8.078125 3.859375 L 6.671875 0.40625 L 5.3125 0.953125 L 6.625 4.21875 L 5.1875 4.796875 L 3.875 1.53125 L 2.5 2.078125 Z M 3.9375 5.640625 "/></g></g></g><g fill="#fb5315" fill-opacity="1"><g transform="translate(318.136578, 167.612958)"><g><path d="M 5.75 7.328125 L 5.84375 4.859375 L -0.203125 4.59375 L -0.109375 2.625 L 5.9375 2.890625 L 6.046875 0.421875 L 7.59375 0.484375 L 7.296875 7.390625 Z M 5.75 7.328125 "/></g></g></g><g fill="#fb5315" fill-opacity="1"><g transform="translate(316.960195, 177.085719)"><g><path d="M -1.109375 2.640625 L -0.34375 0.8125 L 6.65625 3.75 L 5.890625 5.578125 Z M -1.109375 2.640625 "/></g></g></g><g fill="#fb5315" fill-opacity="1"><g transform="translate(314.546893, 182.679693)"><g><path d="M 2.515625 8.53125 C 2.003906 9.050781 1.492188 9.398438 0.984375 9.578125 C 0.484375 9.753906 -0.00390625 9.800781 -0.484375 9.71875 C -0.960938 9.632812 -1.398438 9.4375 -1.796875 9.125 L -1.875 9.046875 L -0.5 7.640625 L -0.40625 7.703125 C 0.28125 8.148438 0.90625 8.082031 1.46875 7.5 C 1.800781 7.164062 1.9375 6.742188 1.875 6.234375 C 1.8125 5.722656 1.488281 5.179688 0.90625 4.609375 C 0.445312 4.160156 0.03125 3.863281 -0.34375 3.71875 C -0.71875 3.570312 -1.050781 3.53125 -1.34375 3.59375 C -1.644531 3.65625 -1.898438 3.789062 -2.109375 4 C -2.378906 4.28125 -2.515625 4.585938 -2.515625 4.921875 C -2.515625 5.253906 -2.398438 5.597656 -2.171875 5.953125 L -2.109375 6.046875 L -3.484375 7.46875 L -3.5625 7.375 C -3.957031 6.894531 -4.191406 6.398438 -4.265625 5.890625 C -4.335938 5.390625 -4.269531 4.882812 -4.0625 4.375 C -3.851562 3.875 -3.53125 3.394531 -3.09375 2.9375 C -2.613281 2.457031 -2.078125 2.117188 -1.484375 1.921875 C -0.890625 1.722656 -0.273438 1.707031 0.359375 1.875 C 1.003906 2.050781 1.632812 2.4375 2.25 3.03125 C 2.882812 3.644531 3.296875 4.28125 3.484375 4.9375 C 3.671875 5.601562 3.671875 6.242188 3.484375 6.859375 C 3.304688 7.484375 2.984375 8.039062 2.515625 8.53125 Z M 2.515625 8.53125 "/></g></g></g><g fill="#fb5315" fill-opacity="1"><g transform="translate(306.791406, 189.670575)"><g><path d="M -0.65625 8.5 C -1.28125 8.726562 -1.828125 8.804688 -2.296875 8.734375 C -2.773438 8.671875 -3.179688 8.503906 -3.515625 8.234375 C -3.847656 7.960938 -4.117188 7.613281 -4.328125 7.1875 L -2.46875 6.5 C -2.320312 6.769531 -2.132812 6.96875 -1.90625 7.09375 C -1.675781 7.21875 -1.410156 7.222656 -1.109375 7.109375 C -0.898438 7.035156 -0.742188 6.921875 -0.640625 6.765625 C -0.546875 6.617188 -0.539062 6.429688 -0.625 6.203125 C -0.707031 5.972656 -0.882812 5.816406 -1.15625 5.734375 C -1.425781 5.660156 -1.878906 5.664062 -2.515625 5.75 C -3.359375 5.851562 -4.023438 5.773438 -4.515625 5.515625 C -5.003906 5.265625 -5.351562 4.867188 -5.5625 4.328125 C -5.738281 3.847656 -5.75 3.398438 -5.59375 2.984375 C -5.4375 2.566406 -5.171875 2.195312 -4.796875 1.875 C -4.429688 1.5625 -4.007812 1.316406 -3.53125 1.140625 C -2.632812 0.804688 -1.832031 0.722656 -1.125 0.890625 C -0.425781 1.054688 0.09375 1.53125 0.4375 2.3125 L -1.421875 3 C -1.597656 2.675781 -1.832031 2.484375 -2.125 2.421875 C -2.414062 2.359375 -2.703125 2.378906 -2.984375 2.484375 C -3.242188 2.578125 -3.4375 2.710938 -3.5625 2.890625 C -3.695312 3.078125 -3.726562 3.269531 -3.65625 3.46875 C -3.582031 3.65625 -3.4375 3.796875 -3.21875 3.890625 C -3 3.992188 -2.648438 4.015625 -2.171875 3.953125 C -1.585938 3.890625 -1.066406 3.878906 -0.609375 3.921875 C -0.160156 3.960938 0.21875 4.09375 0.53125 4.3125 C 0.84375 4.53125 1.082031 4.878906 1.25 5.359375 C 1.425781 5.816406 1.445312 6.25 1.3125 6.65625 C 1.175781 7.0625 0.929688 7.425781 0.578125 7.75 C 0.234375 8.070312 -0.175781 8.320312 -0.65625 8.5 Z M -0.65625 8.5 "/></g></g></g><g fill="#fb5315" fill-opacity="1"><g transform="translate(66.552945, 211.87645)"><g><path d="M 2.203125 -10.5625 C 2.203125 -12.03125 2.625 -13.203125 3.46875 -14.078125 C 4.3125 -14.960938 5.539062 -15.40625 7.15625 -15.40625 C 8.539062 -15.40625 9.671875 -14.890625 10.546875 -13.859375 C 11.429688 -12.828125 12.347656 -11.648438 13.296875 -10.328125 C 14.253906 -9.015625 15.46875 -7.84375 16.9375 -6.8125 C 18.40625 -5.789062 20.382812 -5.28125 22.875 -5.28125 C 24.78125 -5.28125 26.285156 -5.476562 27.390625 -5.875 C 28.492188 -6.28125 29.046875 -7.21875 29.046875 -8.6875 C 29.046875 -9.863281 28.398438 -10.816406 27.109375 -11.546875 C 25.828125 -12.285156 24.195312 -12.960938 22.21875 -13.578125 C 20.238281 -14.203125 18.128906 -14.898438 15.890625 -15.671875 C 13.660156 -16.441406 11.550781 -17.410156 9.5625 -18.578125 C 7.582031 -19.753906 5.953125 -21.273438 4.671875 -23.140625 C 3.390625 -25.015625 2.75 -27.382812 2.75 -30.25 C 2.75 -33.476562 3.484375 -36.0625 4.953125 -38 C 6.421875 -39.945312 8.253906 -41.394531 10.453125 -42.34375 C 12.648438 -43.300781 14.828125 -43.925781 16.984375 -44.21875 C 19.148438 -44.507812 20.929688 -44.65625 22.328125 -44.65625 C 26.066406 -44.65625 29.550781 -44.210938 32.78125 -43.328125 C 36.007812 -42.453125 38.613281 -41.148438 40.59375 -39.421875 C 42.570312 -37.703125 43.5625 -35.597656 43.5625 -33.109375 C 43.5625 -31.859375 43.101562 -30.789062 42.1875 -29.90625 C 41.269531 -29.03125 40.1875 -28.59375 38.9375 -28.59375 C 37.03125 -28.59375 35.488281 -29.125 34.3125 -30.1875 C 33.144531 -31.257812 32.082031 -32.472656 31.125 -33.828125 C 30.175781 -35.179688 29.078125 -36.390625 27.828125 -37.453125 C 26.578125 -38.515625 24.960938 -39.046875 22.984375 -39.046875 C 21.003906 -39.046875 19.703125 -38.585938 19.078125 -37.671875 C 18.460938 -36.753906 18.15625 -35.820312 18.15625 -34.875 C 18.15625 -33.476562 18.773438 -32.410156 20.015625 -31.671875 C 21.265625 -30.941406 22.878906 -30.335938 24.859375 -29.859375 C 26.835938 -29.390625 28.925781 -28.859375 31.125 -28.265625 C 33.332031 -27.679688 35.425781 -26.894531 37.40625 -25.90625 C 39.382812 -24.914062 40.992188 -23.519531 42.234375 -21.71875 C 43.484375 -19.925781 44.109375 -17.5625 44.109375 -14.625 C 44.109375 -10.882812 43.023438 -7.894531 40.859375 -5.65625 C 38.703125 -3.425781 35.9375 -1.816406 32.5625 -0.828125 C 29.1875 0.160156 25.628906 0.65625 21.890625 0.65625 C 20.347656 0.65625 18.476562 0.472656 16.28125 0.109375 C 14.082031 -0.253906 11.898438 -0.859375 9.734375 -1.703125 C 7.566406 -2.546875 5.769531 -3.679688 4.34375 -5.109375 C 2.914062 -6.546875 2.203125 -8.363281 2.203125 -10.5625 Z M 2.203125 -10.5625 "/></g></g></g><g fill="#fb5315" fill-opacity="1"><g transform="translate(113.739642, 211.87645)"><g><path d="M 13.640625 18.59375 C 12.535156 18.59375 11.234375 18.703125 9.734375 18.921875 C 8.234375 19.140625 6.820312 19.25 5.5 19.25 C 4.25 19.25 3.203125 19.066406 2.359375 18.703125 C 1.515625 18.335938 1.09375 17.601562 1.09375 16.5 C 1.09375 15.695312 1.273438 15.09375 1.640625 14.6875 C 2.015625 14.28125 2.457031 13.765625 2.96875 13.140625 C 3.476562 12.515625 3.914062 11.539062 4.28125 10.21875 C 4.65625 8.90625 4.84375 6.96875 4.84375 4.40625 C 4.84375 1.90625 4.84375 -0.988281 4.84375 -4.28125 C 4.84375 -7.582031 4.859375 -10.863281 4.890625 -14.125 C 4.929688 -17.394531 4.953125 -20.222656 4.953125 -22.609375 C 4.953125 -24.992188 4.953125 -26.515625 4.953125 -27.171875 C 4.953125 -29.148438 4.640625 -30.523438 4.015625 -31.296875 C 3.390625 -32.066406 2.765625 -32.671875 2.140625 -33.109375 C 1.515625 -33.546875 1.203125 -34.242188 1.203125 -35.203125 C 1.203125 -36.296875 1.566406 -37.046875 2.296875 -37.453125 C 3.035156 -37.859375 4.082031 -38.207031 5.4375 -38.5 C 6.800781 -38.789062 8.4375 -39.269531 10.34375 -39.9375 C 12.6875 -40.8125 14.296875 -41.597656 15.171875 -42.296875 C 16.054688 -42.992188 16.71875 -43.5625 17.15625 -44 C 17.59375 -44.4375 18.289062 -44.65625 19.25 -44.65625 C 20.570312 -44.65625 21.453125 -44.066406 21.890625 -42.890625 C 22.328125 -41.722656 22.546875 -40.332031 22.546875 -38.71875 L 22.546875 -38.609375 C 22.546875 -37.429688 22.632812 -36.859375 22.8125 -36.890625 C 23 -36.929688 23.347656 -37.335938 23.859375 -38.109375 C 24.378906 -38.878906 25.097656 -39.773438 26.015625 -40.796875 C 26.929688 -41.828125 28.125 -42.726562 29.59375 -43.5 C 31.0625 -44.269531 32.820312 -44.65625 34.875 -44.65625 C 38.613281 -44.65625 41.742188 -43.554688 44.265625 -41.359375 C 46.796875 -39.160156 48.703125 -36.351562 49.984375 -32.9375 C 51.273438 -29.53125 51.898438 -25.882812 51.859375 -22 C 51.828125 -18.113281 51.128906 -14.460938 49.765625 -11.046875 C 48.410156 -7.640625 46.394531 -4.835938 43.71875 -2.640625 C 41.039062 -0.441406 37.6875 0.65625 33.65625 0.65625 C 31.457031 0.65625 29.550781 0.328125 27.9375 -0.328125 C 26.320312 -0.984375 25.039062 -1.828125 24.09375 -2.859375 C 23.5 -3.515625 23.09375 -3.804688 22.875 -3.734375 C 22.65625 -3.660156 22.546875 -3.222656 22.546875 -2.421875 L 22.546875 4.40625 C 22.546875 6.96875 22.726562 8.90625 23.09375 10.21875 C 23.46875 11.539062 23.910156 12.515625 24.421875 13.140625 C 24.929688 13.765625 25.367188 14.28125 25.734375 14.6875 C 26.109375 15.09375 26.296875 15.695312 26.296875 16.5 C 26.296875 17.601562 25.875 18.335938 25.03125 18.703125 C 24.1875 19.066406 23.140625 19.25 21.890625 19.25 C 20.492188 19.25 19.046875 19.140625 17.546875 18.921875 C 16.046875 18.703125 14.742188 18.59375 13.640625 18.59375 Z M 27.9375 -32.234375 C 25.957031 -32.234375 24.472656 -30.984375 23.484375 -28.484375 C 22.492188 -25.992188 22 -23.097656 22 -19.796875 C 22 -16.492188 22.492188 -13.671875 23.484375 -11.328125 C 24.472656 -8.984375 25.957031 -7.8125 27.9375 -7.8125 C 29.914062 -7.8125 31.398438 -9 32.390625 -11.375 C 33.378906 -13.757812 33.875 -16.601562 33.875 -19.90625 C 33.875 -23.207031 33.378906 -26.085938 32.390625 -28.546875 C 31.398438 -31.003906 29.914062 -32.234375 27.9375 -32.234375 Z M 27.9375 -32.234375 "/></g></g></g><g fill="#fb5315" fill-opacity="1"><g transform="translate(168.625778, 211.87645)"><g><path d="M 13.96875 0 C 12.863281 0 11.5625 0.109375 10.0625 0.328125 C 8.5625 0.546875 7.148438 0.65625 5.828125 0.65625 C 4.578125 0.65625 3.53125 0.472656 2.6875 0.109375 C 1.851562 -0.253906 1.4375 -0.988281 1.4375 -2.09375 C 1.4375 -2.894531 1.617188 -3.5 1.984375 -3.90625 C 2.347656 -4.3125 2.785156 -4.820312 3.296875 -5.4375 C 3.804688 -6.0625 4.242188 -7.035156 4.609375 -8.359375 C 4.984375 -9.679688 5.171875 -11.625 5.171875 -14.1875 C 5.171875 -17.5625 5.1875 -20 5.21875 -21.5 C 5.257812 -23.007812 5.28125 -24.109375 5.28125 -24.796875 C 5.28125 -25.492188 5.28125 -26.285156 5.28125 -27.171875 C 5.28125 -29.148438 4.96875 -30.523438 4.34375 -31.296875 C 3.71875 -32.066406 3.09375 -32.671875 2.46875 -33.109375 C 1.851562 -33.546875 1.546875 -34.242188 1.546875 -35.203125 C 1.546875 -36.296875 1.910156 -37.046875 2.640625 -37.453125 C 3.367188 -37.859375 4.410156 -38.207031 5.765625 -38.5 C 7.128906 -38.789062 8.765625 -39.269531 10.671875 -39.9375 C 13.015625 -40.8125 14.625 -41.597656 15.5 -42.296875 C 16.382812 -42.992188 17.046875 -43.5625 17.484375 -44 C 17.929688 -44.4375 18.628906 -44.65625 19.578125 -44.65625 C 20.898438 -44.65625 21.78125 -44.066406 22.21875 -42.890625 C 22.65625 -41.722656 22.875 -40.332031 22.875 -38.71875 L 22.875 -14.1875 C 22.875 -11.625 23.054688 -9.679688 23.421875 -8.359375 C 23.796875 -7.035156 24.238281 -6.0625 24.75 -5.4375 C 25.257812 -4.820312 25.695312 -4.3125 26.0625 -3.90625 C 26.4375 -3.5 26.625 -2.894531 26.625 -2.09375 C 26.625 -0.988281 26.203125 -0.253906 25.359375 0.109375 C 24.515625 0.472656 23.46875 0.65625 22.21875 0.65625 C 20.820312 0.65625 19.375 0.546875 17.875 0.328125 C 16.375 0.109375 15.070312 0 13.96875 0 Z M 1.4375 -47.734375 C 0.695312 -49.941406 1.078125 -52.328125 2.578125 -54.890625 C 4.085938 -57.453125 6.378906 -59.539062 9.453125 -61.15625 C 12.023438 -62.476562 14.375 -63.140625 16.5 -63.140625 C 19.726562 -63.140625 21.816406 -61.820312 22.765625 -59.1875 C 23.578125 -56.90625 23.226562 -54.519531 21.71875 -52.03125 C 20.21875 -49.539062 17.925781 -47.453125 14.84375 -45.765625 C 12.207031 -44.441406 9.828125 -43.78125 7.703125 -43.78125 C 4.546875 -43.78125 2.457031 -45.097656 1.4375 -47.734375 Z M 1.4375 -47.734375 "/></g></g></g><g fill="#fb5315" fill-opacity="1"><g transform="translate(197.113805, 211.87645)"><g><path d="M 2.203125 -21.890625 C 2.203125 -28.710938 4.363281 -34.210938 8.6875 -38.390625 C 13.019531 -42.566406 19.070312 -44.65625 26.84375 -44.65625 C 33.582031 -44.65625 38.691406 -43.148438 42.171875 -40.140625 C 45.660156 -37.140625 47.40625 -33.363281 47.40625 -28.8125 C 47.40625 -26.320312 46.523438 -24.085938 44.765625 -22.109375 C 43.003906 -20.128906 40.585938 -19.140625 37.515625 -19.140625 C 35.015625 -19.140625 32.957031 -20 31.34375 -21.71875 C 29.738281 -23.445312 28.9375 -25.335938 28.9375 -27.390625 C 28.9375 -29.804688 29.097656 -31.875 29.421875 -33.59375 C 29.753906 -35.320312 29.882812 -36.660156 29.8125 -37.609375 C 29.738281 -38.566406 29.113281 -39.046875 27.9375 -39.046875 C 26.101562 -39.046875 24.546875 -37.523438 23.265625 -34.484375 C 21.984375 -31.441406 21.378906 -27.316406 21.453125 -22.109375 C 21.523438 -17.191406 22.382812 -13.25 24.03125 -10.28125 C 25.6875 -7.3125 28.125 -5.863281 31.34375 -5.9375 C 33.550781 -5.9375 35.203125 -6.410156 36.296875 -7.359375 C 37.398438 -8.316406 38.257812 -9.421875 38.875 -10.671875 C 39.5 -11.921875 40.140625 -13.019531 40.796875 -13.96875 C 41.460938 -14.925781 42.492188 -15.40625 43.890625 -15.40625 C 45.140625 -15.40625 46.070312 -15.019531 46.6875 -14.25 C 47.3125 -13.476562 47.625 -12.613281 47.625 -11.65625 C 47.625 -9.164062 46.648438 -7.003906 44.703125 -5.171875 C 42.765625 -3.335938 40.179688 -1.90625 36.953125 -0.875 C 33.734375 0.144531 30.253906 0.65625 26.515625 0.65625 C 22.628906 0.65625 18.8125 -0.09375 15.0625 -1.59375 C 11.320312 -3.09375 8.242188 -5.507812 5.828125 -8.84375 C 3.410156 -12.1875 2.203125 -16.535156 2.203125 -21.890625 Z M 2.203125 -21.890625 "/></g></g></g><g fill="#fb5315" fill-opacity="1"><g transform="translate(247.82025, 211.87645)"><g><path d="M 0 7.484375 C 0 5.796875 0.53125 4.234375 1.59375 2.796875 C 2.65625 1.367188 4.210938 0.65625 6.265625 0.65625 C 8.171875 0.65625 9.5625 0.984375 10.4375 1.640625 C 11.320312 2.304688 11.96875 3.113281 12.375 4.0625 C 12.78125 5.019531 13.109375 5.972656 13.359375 6.921875 C 13.617188 7.878906 13.988281 8.6875 14.46875 9.34375 C 14.945312 10.007812 15.769531 10.34375 16.9375 10.34375 C 19.0625 10.34375 20.5625 9.390625 21.4375 7.484375 C 22.320312 5.578125 22.328125 3.265625 21.453125 0.546875 C 20.710938 -1.722656 19.828125 -4.285156 18.796875 -7.140625 C 17.773438 -10.003906 16.734375 -12.8125 15.671875 -15.5625 C 14.609375 -18.3125 13.671875 -20.691406 12.859375 -22.703125 C 12.054688 -24.722656 11.546875 -26.066406 11.328125 -26.734375 C 9.929688 -30.109375 8.664062 -32.65625 7.53125 -34.375 C 6.394531 -36.09375 5.421875 -37.316406 4.609375 -38.046875 C 3.804688 -38.785156 3.1875 -39.394531 2.75 -39.875 C 2.3125 -40.351562 2.09375 -41.03125 2.09375 -41.90625 C 2.09375 -43.007812 2.53125 -43.742188 3.40625 -44.109375 C 4.289062 -44.472656 5.351562 -44.65625 6.59375 -44.65625 C 7.988281 -44.65625 9.457031 -44.546875 11 -44.328125 C 12.539062 -44.109375 13.859375 -44 14.953125 -44 C 16.347656 -44 17.925781 -44.109375 19.6875 -44.328125 C 21.445312 -44.546875 23.0625 -44.65625 24.53125 -44.65625 C 26 -44.65625 27.191406 -44.472656 28.109375 -44.109375 C 29.023438 -43.742188 29.484375 -43.007812 29.484375 -41.90625 C 29.484375 -40.882812 29.171875 -40.148438 28.546875 -39.703125 C 27.921875 -39.265625 27.609375 -38.382812 27.609375 -37.0625 C 27.609375 -35.820312 27.828125 -34.226562 28.265625 -32.28125 C 28.710938 -30.34375 29.28125 -28.382812 29.96875 -26.40625 C 30.664062 -24.425781 31.3125 -22.703125 31.90625 -21.234375 C 32.5625 -19.617188 33.253906 -19.65625 33.984375 -21.34375 C 34.722656 -22.882812 35.421875 -24.679688 36.078125 -26.734375 C 36.734375 -28.785156 37.300781 -30.765625 37.78125 -32.671875 C 38.257812 -34.578125 38.5 -36.039062 38.5 -37.0625 C 38.5 -38.382812 38.148438 -39.320312 37.453125 -39.875 C 36.753906 -40.425781 36.40625 -41.210938 36.40625 -42.234375 C 36.40625 -43.191406 36.695312 -43.832031 37.28125 -44.15625 C 37.875 -44.488281 38.535156 -44.65625 39.265625 -44.65625 C 40.148438 -44.65625 41.085938 -44.546875 42.078125 -44.328125 C 43.066406 -44.109375 43.890625 -44 44.546875 -44 C 45.210938 -44 46.039062 -44.109375 47.03125 -44.328125 C 48.019531 -44.546875 48.914062 -44.65625 49.71875 -44.65625 C 50.53125 -44.65625 51.171875 -44.507812 51.640625 -44.21875 C 52.117188 -43.925781 52.359375 -43.335938 52.359375 -42.453125 C 52.359375 -41.578125 52.140625 -40.898438 51.703125 -40.421875 C 51.265625 -39.941406 50.625 -39.335938 49.78125 -38.609375 C 48.9375 -37.878906 47.941406 -36.671875 46.796875 -34.984375 C 45.660156 -33.296875 44.4375 -30.726562 43.125 -27.28125 C 42.90625 -26.625 42.425781 -25.265625 41.6875 -23.203125 C 40.957031 -21.148438 40.078125 -18.726562 39.046875 -15.9375 C 38.023438 -13.15625 36.976562 -10.351562 35.90625 -7.53125 C 34.84375 -4.707031 33.875 -2.195312 33 0 C 30.945312 4.914062 28.195312 9.09375 24.75 12.53125 C 21.300781 15.976562 17.082031 17.703125 12.09375 17.703125 C 10.1875 17.703125 8.296875 17.375 6.421875 16.71875 C 4.554688 16.0625 3.019531 14.976562 1.8125 13.46875 C 0.601562 11.96875 0 9.972656 0 7.484375 Z M 0 7.484375 "/></g></g></g></svg>