<svg xmlns="http://www.w3.org/2000/svg" xmlns:xlink="http://www.w3.org/1999/xlink" width="500" zoomAndPan="magnify" viewBox="0 0 375 374.999991" height="500" preserveAspectRatio="xMidYMid meet" version="1.0"><defs><clipPath id="bbbf6f0383"><path d="M 54.816406 71.039062 L 205.222656 71.039062 L 205.222656 173.21875 L 54.816406 173.21875 Z M 54.816406 71.039062 " clip-rule="nonzero"/></clipPath><clipPath id="6be20c1f82"><path d="M 54.816406 45 L 206 45 L 206 170 L 54.816406 170 Z M 54.816406 45 " clip-rule="nonzero"/></clipPath><clipPath id="c17c1f1293"><path d="M 216.269531 108.136719 L 306.808594 108.136719 L 306.808594 143.316406 L 216.269531 143.316406 Z M 216.269531 108.136719 " clip-rule="nonzero"/></clipPath><clipPath id="c6402d9c81"><path d="M 130.902344 42.253906 L 226.730469 42.253906 L 226.730469 170.796875 L 130.902344 170.796875 Z M 130.902344 42.253906 " clip-rule="nonzero"/></clipPath><clipPath id="7d8cacf13a"><path d="M 140.371094 42.429688 C 140.371094 42.429688 198.589844 115.242188 208.492188 148.839844 C 208.492188 148.839844 210.335938 155.765625 211.46875 157.21875 C 212.601562 158.675781 226.730469 164.976562 226.730469 164.976562 L 216.304688 170.796875 C 216.304688 170.796875 205.996094 167.644531 204.226562 164.492188 C 202.453125 161.339844 199.433594 140.492188 183.550781 116.976562 C 167.667969 93.460938 130.902344 43.941406 130.902344 43.941406 C 130.902344 43.941406 133.125 41.828125 140.371094 42.429688 Z M 140.371094 42.429688 " clip-rule="nonzero"/></clipPath><clipPath id="3f8a9d2ec2"><path d="M 140.371094 42.429688 C 140.371094 42.429688 198.589844 115.242188 208.492188 148.839844 C 208.492188 148.839844 210.335938 155.765625 211.46875 157.21875 C 212.601562 158.675781 226.730469 164.976562 226.730469 164.976562 L 216.304688 170.796875 C 216.304688 170.796875 205.996094 167.644531 204.226562 164.492188 C 202.453125 161.339844 199.433594 140.492188 183.550781 116.976562 C 167.667969 93.460938 130.902344 43.941406 130.902344 43.941406 C 130.902344 43.941406 133.125 41.828125 140.371094 42.429688 " clip-rule="nonzero"/></clipPath><linearGradient x1="-0.00000133626" gradientTransform="matrix(95.830542, 0, 0, 96.176855, 130.900758, 106.559567)" y1="0" x2="0.999994" gradientUnits="userSpaceOnUse" y2="0" id="d45932d77e"><stop stop-opacity="1" stop-color="rgb(62.399292%, 77.598572%, 81.999207%)" offset="0"/><stop stop-opacity="1" stop-color="rgb(62.399292%, 77.598572%, 81.999207%)" offset="0.25"/><stop stop-opacity="1" stop-color="rgb(62.399292%, 77.598572%, 81.999207%)" offset="0.375"/><stop stop-opacity="1" stop-color="rgb(62.393188%, 77.598572%, 81.999207%)" offset="0.40625"/><stop stop-opacity="1" stop-color="rgb(62.191772%, 77.597046%, 81.997681%)" offset="0.414062"/><stop stop-opacity="1" stop-color="rgb(61.801147%, 77.450562%, 81.800842%)" offset="0.421875"/><stop stop-opacity="1" stop-color="rgb(61.410522%, 77.301025%, 81.602478%)" offset="0.429688"/><stop stop-opacity="1" stop-color="rgb(61.019897%, 77.111816%, 81.599426%)" offset="0.4375"/><stop stop-opacity="1" stop-color="rgb(60.803223%, 76.904297%, 81.399536%)" offset="0.441406"/><stop stop-opacity="1" stop-color="rgb(60.783386%, 76.88446%, 81.199646%)" offset="0.445312"/><stop stop-opacity="1" stop-color="rgb(60.588074%, 76.6922%, 81.199646%)" offset="0.453125"/><stop stop-opacity="1" stop-color="rgb(60.197449%, 76.499939%, 81.199646%)" offset="0.460938"/><stop stop-opacity="1" stop-color="rgb(59.806824%, 76.499939%, 81.005859%)" offset="0.46875"/><stop stop-opacity="1" stop-color="rgb(59.416199%, 76.31073%, 80.805969%)" offset="0.476562"/><stop stop-opacity="1" stop-color="rgb(58.999634%, 76.100159%, 80.789185%)" offset="0.480469"/><stop stop-opacity="1" stop-color="rgb(58.779907%, 76.080322%, 80.780029%)" offset="0.484375"/><stop stop-opacity="1" stop-color="rgb(58.589172%, 75.889587%, 80.589294%)" offset="0.5"/><stop stop-opacity="1" stop-color="rgb(58.204651%, 75.698853%, 80.39856%)" offset="0.507812"/><stop stop-opacity="1" stop-color="rgb(57.814026%, 75.508118%, 80.207825%)" offset="0.515625"/><stop stop-opacity="1" stop-color="rgb(57.447815%, 75.297546%, 80.007935%)" offset="0.523437"/><stop stop-opacity="1" stop-color="rgb(57.081604%, 75.088501%, 79.992676%)" offset="0.53125"/><stop stop-opacity="1" stop-color="rgb(56.690979%, 74.899292%, 79.792786%)" offset="0.539062"/><stop stop-opacity="1" stop-color="rgb(56.300354%, 74.899292%, 79.598999%)" offset="0.546875"/><stop stop-opacity="1" stop-color="rgb(56.10199%, 74.707031%, 79.406738%)" offset="0.554687"/><stop stop-opacity="1" stop-color="rgb(55.911255%, 74.507141%, 79.206848%)" offset="0.5625"/><stop stop-opacity="1" stop-color="rgb(55.503845%, 74.299622%, 79.191589%)" offset="0.566406"/><stop stop-opacity="1" stop-color="rgb(55.284119%, 74.099731%, 79.18396%)" offset="0.570312"/><stop stop-opacity="1" stop-color="rgb(55.088806%, 74.09668%, 78.991699%)" offset="0.578125"/><stop stop-opacity="1" stop-color="rgb(54.698181%, 73.898315%, 78.799438%)" offset="0.585937"/><stop stop-opacity="1" stop-color="rgb(54.307556%, 73.701477%, 78.799438%)" offset="0.59375"/><stop stop-opacity="1" stop-color="rgb(53.916931%, 73.699951%, 78.610229%)" offset="0.601562"/><stop stop-opacity="1" stop-color="rgb(53.700256%, 73.498535%, 78.410339%)" offset="0.605469"/><stop stop-opacity="1" stop-color="rgb(53.68042%, 73.298645%, 78.399658%)" offset="0.609375"/><stop stop-opacity="1" stop-color="rgb(53.485107%, 73.294067%, 78.395081%)" offset="0.617188"/><stop stop-opacity="1" stop-color="rgb(53.094482%, 73.094177%, 78.19519%)" offset="0.625"/><stop stop-opacity="1" stop-color="rgb(52.703857%, 72.898865%, 77.999878%)" offset="0.632812"/><stop stop-opacity="1" stop-color="rgb(52.360535%, 72.898865%, 77.999878%)" offset="0.640625"/><stop stop-opacity="1" stop-color="rgb(51.99585%, 72.698975%, 77.798462%)" offset="0.644531"/><stop stop-opacity="1" stop-color="rgb(51.777649%, 72.499084%, 77.598572%)" offset="0.648438"/><stop stop-opacity="1" stop-color="rgb(51.58844%, 72.494507%, 77.598572%)" offset="0.65625"/><stop stop-opacity="1" stop-color="rgb(51.397705%, 72.343445%, 77.597046%)" offset="0.664063"/><stop stop-opacity="1" stop-color="rgb(51.200867%, 72.198486%, 77.450562%)" offset="0.671875"/><stop stop-opacity="1" stop-color="rgb(50.810242%, 72.006226%, 77.301025%)" offset="0.679688"/><stop stop-opacity="1" stop-color="rgb(50.419617%, 71.806335%, 77.2995%)" offset="0.6875"/><stop stop-opacity="1" stop-color="rgb(50.003052%, 71.791077%, 77.099609%)" offset="0.691406"/><stop stop-opacity="1" stop-color="rgb(49.783325%, 71.783447%, 76.899719%)" offset="0.695313"/><stop stop-opacity="1" stop-color="rgb(49.588013%, 71.591187%, 76.899719%)" offset="0.703125"/><stop stop-opacity="1" stop-color="rgb(49.197388%, 71.398926%, 76.899719%)" offset="0.710938"/><stop stop-opacity="1" stop-color="rgb(49.000549%, 71.205139%, 76.705933%)" offset="0.71875"/><stop stop-opacity="1" stop-color="rgb(48.809814%, 71.005249%, 76.506042%)" offset="0.726563"/><stop stop-opacity="1" stop-color="rgb(48.400879%, 70.98999%, 76.489258%)" offset="0.730469"/><stop stop-opacity="1" stop-color="rgb(48.181152%, 70.980835%, 76.480103%)" offset="0.734375"/><stop stop-opacity="1" stop-color="rgb(47.98584%, 70.7901%, 76.289368%)" offset="0.742188"/><stop stop-opacity="1" stop-color="rgb(47.645569%, 70.599365%, 76.098633%)" offset="0.75"/><stop stop-opacity="1" stop-color="rgb(47.303772%, 70.404053%, 76.098633%)" offset="0.757812"/><stop stop-opacity="1" stop-color="rgb(46.913147%, 70.204163%, 75.907898%)" offset="0.765625"/><stop stop-opacity="1" stop-color="rgb(46.697998%, 70.188904%, 75.708008%)" offset="0.773437"/><stop stop-opacity="1" stop-color="rgb(46.482849%, 69.989014%, 75.692749%)" offset="0.78125"/><stop stop-opacity="1" stop-color="rgb(46.092224%, 69.798279%, 75.492859%)" offset="0.789062"/><stop stop-opacity="1" stop-color="rgb(45.701599%, 69.60144%, 75.299072%)" offset="0.796875"/><stop stop-opacity="1" stop-color="rgb(45.310974%, 69.40155%, 75.299072%)" offset="0.804687"/><stop stop-opacity="1" stop-color="rgb(44.920349%, 69.210815%, 75.111389%)" offset="0.8125"/><stop stop-opacity="1" stop-color="rgb(44.511414%, 69.010925%, 74.911499%)" offset="0.816406"/><stop stop-opacity="1" stop-color="rgb(44.299316%, 68.998718%, 74.899292%)" offset="0.820312"/><stop stop-opacity="1" stop-color="rgb(44.296265%, 68.995667%, 74.89624%)" offset="0.828125"/><stop stop-opacity="1" stop-color="rgb(44.0979%, 68.797302%, 74.697876%)" offset="0.835937"/><stop stop-opacity="1" stop-color="rgb(43.707275%, 68.600464%, 74.501038%)" offset="0.84375"/><stop stop-opacity="1" stop-color="rgb(43.31665%, 68.409729%, 74.499512%)" offset="0.851562"/><stop stop-opacity="1" stop-color="rgb(42.903137%, 68.209839%, 74.299622%)" offset="0.855469"/><stop stop-opacity="1" stop-color="rgb(42.684937%, 68.199158%, 74.099731%)" offset="0.859375"/><stop stop-opacity="1" stop-color="rgb(42.536926%, 68.19458%, 74.099731%)" offset="0.867188"/><stop stop-opacity="1" stop-color="rgb(42.195129%, 67.99469%, 74.099731%)" offset="0.875"/><stop stop-opacity="1" stop-color="rgb(41.999817%, 67.799377%, 73.904419%)" offset="0.882812"/><stop stop-opacity="1" stop-color="rgb(41.809082%, 67.655945%, 73.704529%)" offset="0.890625"/><stop stop-opacity="1" stop-color="rgb(41.397095%, 67.495728%, 73.687744%)" offset="0.894531"/><stop stop-opacity="1" stop-color="rgb(41.177368%, 67.477417%, 73.677063%)" offset="0.898438"/><stop stop-opacity="1" stop-color="rgb(40.982056%, 67.288208%, 73.487854%)" offset="0.90625"/><stop stop-opacity="1" stop-color="rgb(40.591431%, 67.098999%, 73.298645%)" offset="0.914063"/><stop stop-opacity="1" stop-color="rgb(40.200806%, 67.098999%, 73.298645%)" offset="0.921875"/><stop stop-opacity="1" stop-color="rgb(39.906311%, 67.002869%, 73.202515%)" offset="0.929688"/><stop stop-opacity="1" stop-color="rgb(39.709473%, 66.809082%, 73.010254%)" offset="0.9375"/><stop stop-opacity="1" stop-color="rgb(39.605713%, 66.705322%, 72.904968%)" offset="1"/></linearGradient><clipPath id="fe64d68543"><path d="M 100.066406 97.476562 L 161.886719 97.476562 L 161.886719 123.703125 L 100.066406 123.703125 Z M 100.066406 97.476562 " clip-rule="nonzero"/></clipPath><clipPath id="35f4c36050"><path d="M 134.214844 123.386719 C 110.359375 124.921875 102.214844 109.273438 102.214844 109.273438 C 100.488281 107.011719 99.964844 104.867188 100.347656 102.859375 C 103.808594 108.554688 110.84375 118.195312 118.308594 117.199219 C 128.835938 115.800781 149.367188 110.457031 154.433594 104.070312 C 156.683594 101.238281 158.230469 99.011719 159.414062 97.601562 C 160.640625 98.753906 161.421875 99.773438 161.648438 100.519531 C 162.671875 103.871094 158.070312 121.851562 134.214844 123.386719 Z M 134.214844 123.386719 " clip-rule="nonzero"/></clipPath><clipPath id="360b998eeb"><path d="M 134.214844 123.386719 C 110.359375 124.921875 102.214844 109.273438 102.214844 109.273438 C 100.488281 107.011719 99.964844 104.867188 100.347656 102.859375 C 103.808594 108.554688 110.84375 118.195312 118.308594 117.199219 C 128.835938 115.800781 149.367188 110.457031 154.433594 104.070312 C 156.683594 101.238281 158.230469 99.011719 159.414062 97.601562 C 160.640625 98.753906 161.421875 99.773438 161.648438 100.519531 C 162.671875 103.871094 158.070312 121.851562 134.214844 123.386719 " clip-rule="nonzero"/></clipPath><clipPath id="a60805c254"><path d="M 159.433594 83.671875 L 93.941406 99.011719 L 103.203125 138.847656 L 168.695312 123.507812 Z M 159.433594 83.671875 " clip-rule="nonzero"/></clipPath><linearGradient x1="0.490583" gradientTransform="matrix(14.081726, 60.554126, -60.336081, 14.132615, 121.325777, 61.295719)" y1="0" x2="1.126143" gradientUnits="userSpaceOnUse" y2="0" id="e2f0f890ff"><stop stop-opacity="1" stop-color="rgb(95.698547%, 64.677429%, 39.99939%)" offset="0"/><stop stop-opacity="1" stop-color="rgb(95.698547%, 64.48822%, 39.99939%)" offset="0.015625"/><stop stop-opacity="1" stop-color="rgb(95.597839%, 64.299011%, 39.898682%)" offset="0.0234375"/><stop stop-opacity="1" stop-color="rgb(95.397949%, 64.297485%, 39.697266%)" offset="0.03125"/><stop stop-opacity="1" stop-color="rgb(95.298767%, 64.108276%, 39.408875%)" offset="0.046875"/><stop stop-opacity="1" stop-color="rgb(95.298767%, 63.731384%, 39.208984%)" offset="0.0625"/><stop stop-opacity="1" stop-color="rgb(95.120239%, 63.520813%, 39.021301%)" offset="0.078125"/><stop stop-opacity="1" stop-color="rgb(94.920349%, 63.331604%, 38.652039%)" offset="0.09375"/><stop stop-opacity="1" stop-color="rgb(94.898987%, 63.064575%, 38.363647%)" offset="0.101563"/><stop stop-opacity="1" stop-color="rgb(94.898987%, 62.866211%, 38.165283%)" offset="0.109375"/><stop stop-opacity="1" stop-color="rgb(94.740295%, 62.612915%, 37.87384%)" offset="0.125"/><stop stop-opacity="1" stop-color="rgb(94.540405%, 62.286377%, 37.532043%)" offset="0.15625"/><stop stop-opacity="1" stop-color="rgb(94.361877%, 61.91864%, 37.203979%)" offset="0.171875"/><stop stop-opacity="1" stop-color="rgb(94.161987%, 61.662292%, 36.837769%)" offset="0.1875"/><stop stop-opacity="1" stop-color="rgb(94.099426%, 61.477661%, 36.573792%)" offset="0.203125"/><stop stop-opacity="1" stop-color="rgb(93.984985%, 61.16333%, 36.384583%)" offset="0.21875"/><stop stop-opacity="1" stop-color="rgb(93.785095%, 60.874939%, 36.174011%)" offset="0.226562"/><stop stop-opacity="1" stop-color="rgb(93.699646%, 60.679626%, 35.978699%)" offset="0.234375"/><stop stop-opacity="1" stop-color="rgb(93.699646%, 60.488892%, 35.684204%)" offset="0.25"/><stop stop-opacity="1" stop-color="rgb(93.606567%, 60.305786%, 35.301208%)" offset="0.265625"/><stop stop-opacity="1" stop-color="rgb(93.406677%, 60.018921%, 35.006714%)" offset="0.28125"/><stop stop-opacity="1" stop-color="rgb(93.299866%, 59.724426%, 34.899902%)" offset="0.289063"/><stop stop-opacity="1" stop-color="rgb(93.299866%, 59.527588%, 34.815979%)" offset="0.296875"/><stop stop-opacity="1" stop-color="rgb(93.228149%, 59.315491%, 34.544373%)" offset="0.3125"/><stop stop-opacity="1" stop-color="rgb(93.026733%, 59.135437%, 34.162903%)" offset="0.328125"/><stop stop-opacity="1" stop-color="rgb(92.89856%, 58.970642%, 33.869934%)" offset="0.335938"/><stop stop-opacity="1" stop-color="rgb(92.837524%, 58.772278%, 33.734131%)" offset="0.34375"/><stop stop-opacity="1" stop-color="rgb(92.637634%, 58.537292%, 33.64563%)" offset="0.359375"/><stop stop-opacity="1" stop-color="rgb(92.498779%, 58.399963%, 33.491516%)" offset="0.367187"/><stop stop-opacity="1" stop-color="rgb(92.498779%, 58.348083%, 33.293152%)" offset="0.375"/><stop stop-opacity="1" stop-color="rgb(92.468262%, 58.106995%, 33.007812%)" offset="0.390625"/><stop stop-opacity="1" stop-color="rgb(92.318726%, 57.736206%, 32.637024%)" offset="0.40625"/><stop stop-opacity="1" stop-color="rgb(92.181396%, 57.408142%, 32.307434%)" offset="0.4375"/><stop stop-opacity="1" stop-color="rgb(91.981506%, 57.073975%, 31.973267%)" offset="0.453125"/><stop stop-opacity="1" stop-color="rgb(91.799927%, 56.784058%, 31.68335%)" offset="0.460937"/><stop stop-opacity="1" stop-color="rgb(91.799927%, 56.590271%, 31.481934%)" offset="0.46875"/><stop stop-opacity="1" stop-color="rgb(91.799927%, 56.498718%, 31.193542%)" offset="0.484375"/><stop stop-opacity="1" stop-color="rgb(91.702271%, 56.401062%, 31.002808%)" offset="0.492188"/><stop stop-opacity="1" stop-color="rgb(91.503906%, 56.204224%, 30.999756%)" offset="0.5"/><stop stop-opacity="1" stop-color="rgb(91.400146%, 55.914307%, 30.812073%)" offset="0.515625"/><stop stop-opacity="1" stop-color="rgb(91.398621%, 55.537415%, 30.436707%)" offset="0.53125"/><stop stop-opacity="1" stop-color="rgb(91.323853%, 55.323792%, 30.149841%)" offset="0.539062"/><stop stop-opacity="1" stop-color="rgb(91.149902%, 55.299377%, 29.949951%)" offset="0.546875"/><stop stop-opacity="1" stop-color="rgb(91.023254%, 55.134583%, 29.658508%)" offset="0.5625"/><stop stop-opacity="1" stop-color="rgb(90.99884%, 54.780579%, 29.434204%)" offset="0.578125"/><stop stop-opacity="1" stop-color="rgb(90.846252%, 54.545593%, 29.246521%)" offset="0.59375"/><stop stop-opacity="1" stop-color="rgb(90.646362%, 54.356384%, 28.903198%)" offset="0.609375"/><stop stop-opacity="1" stop-color="rgb(90.59906%, 54.115295%, 28.614807%)" offset="0.617188"/><stop stop-opacity="1" stop-color="rgb(90.59906%, 53.918457%, 28.417969%)" offset="0.625"/><stop stop-opacity="1" stop-color="rgb(90.464783%, 53.625488%, 28.257751%)" offset="0.640625"/><stop stop-opacity="1" stop-color="rgb(90.264893%, 53.366089%, 28.077698%)" offset="0.65625"/><stop stop-opacity="1" stop-color="rgb(90.080261%, 53.181458%, 27.789307%)" offset="0.671875"/><stop stop-opacity="1" stop-color="rgb(89.880371%, 52.92511%, 27.505493%)" offset="0.6875"/><stop stop-opacity="1" stop-color="rgb(89.7995%, 52.642822%, 27.243042%)" offset="0.75"/><stop stop-opacity="1" stop-color="rgb(89.7995%, 52.49939%, 27.099609%)" offset="1"/></linearGradient><clipPath id="dea001f79f"><path d="M 203.738281 49.078125 L 235 49.078125 L 235 81.273438 L 203.738281 81.273438 Z M 203.738281 49.078125 " clip-rule="nonzero"/></clipPath><clipPath id="ce7f9b91aa"><path d="M 234.984375 68.988281 C 234.984375 68.988281 232.164062 76.003906 226.730469 78.589844 C 221.296875 81.175781 219.203125 81.09375 219.203125 81.09375 L 212.3125 73.234375 L 203.878906 63.613281 L 217.808594 52.082031 L 222.011719 49.105469 L 230.277344 61.769531 Z M 234.984375 68.988281 " clip-rule="nonzero"/></clipPath><clipPath id="101ff040d7"><path d="M 234.984375 68.988281 C 234.984375 68.988281 232.164062 76.003906 226.730469 78.589844 C 221.296875 81.175781 219.203125 81.09375 219.203125 81.09375 L 212.3125 73.234375 L 203.878906 63.613281 L 217.808594 52.082031 L 222.011719 49.105469 L 230.277344 61.769531 L 234.984375 68.988281 " clip-rule="nonzero"/></clipPath><clipPath id="5ac7dfc4cf"><path d="M 203.523438 48.867188 L 222.21875 48.867188 L 222.21875 64.214844 L 203.523438 64.214844 Z M 203.523438 48.867188 " clip-rule="nonzero"/></clipPath><clipPath id="ec4ef574f9"><path d="M 204.226562 60.574219 C 204.226562 60.574219 213.242188 50.328125 219.847656 49.105469 C 226.449219 47.882812 216.015625 55.671875 214.144531 58.890625 C 212.277344 62.105469 200.84375 67.773438 204.226562 60.574219 Z M 204.226562 60.574219 " clip-rule="nonzero"/></clipPath><clipPath id="1bc573ea6f"><path d="M 204.226562 60.574219 C 204.226562 60.574219 213.242188 50.328125 219.847656 49.105469 C 226.449219 47.882812 216.015625 55.671875 214.144531 58.890625 C 212.277344 62.105469 200.84375 67.773438 204.226562 60.574219 " clip-rule="nonzero"/></clipPath><clipPath id="019546c0c5"><path d="M 223.582031 75.878906 L 232.699219 50.109375 L 203.710938 39.777344 L 194.59375 65.546875 Z M 223.582031 75.878906 " clip-rule="nonzero"/></clipPath><linearGradient x1="0.478364" gradientTransform="matrix(-25.847108, -9.212522, 9.17935, -25.940515, 235.975489, 64.691038)" y1="0" x2="1.307276" gradientUnits="userSpaceOnUse" y2="0" id="afba308fb2"><stop stop-opacity="1" stop-color="rgb(59.397888%, 76.098633%, 80.799866%)" offset="0"/><stop stop-opacity="1" stop-color="rgb(59.25293%, 76.052856%, 80.754089%)" offset="0.0078125"/><stop stop-opacity="1" stop-color="rgb(58.964539%, 75.863647%, 80.563354%)" offset="0.015625"/><stop stop-opacity="1" stop-color="rgb(58.674622%, 75.709534%, 80.409241%)" offset="0.0234375"/><stop stop-opacity="1" stop-color="rgb(58.375549%, 75.698853%, 80.39856%)" offset="0.03125"/><stop stop-opacity="1" stop-color="rgb(58.061218%, 75.650024%, 80.351257%)" offset="0.0390625"/><stop stop-opacity="1" stop-color="rgb(57.759094%, 75.457764%, 80.158997%)" offset="0.046875"/><stop stop-opacity="1" stop-color="rgb(57.504272%, 75.306702%, 80.006409%)" offset="0.0546875"/><stop stop-opacity="1" stop-color="rgb(57.264709%, 75.218201%, 79.917908%)" offset="0.0625"/><stop stop-opacity="1" stop-color="rgb(56.991577%, 75.018311%, 79.718018%)" offset="0.0703125"/><stop stop-opacity="1" stop-color="rgb(56.703186%, 74.899292%, 79.598999%)" offset="0.078125"/><stop stop-opacity="1" stop-color="rgb(56.39801%, 74.768066%, 79.598999%)" offset="0.0859375"/><stop stop-opacity="1" stop-color="rgb(56.083679%, 74.568176%, 79.515076%)" offset="0.09375"/><stop stop-opacity="1" stop-color="rgb(55.786133%, 74.47052%, 79.315186%)" offset="0.101562"/><stop stop-opacity="1" stop-color="rgb(55.497742%, 74.298096%, 79.199219%)" offset="0.109375"/><stop stop-opacity="1" stop-color="rgb(55.209351%, 74.125671%, 79.081726%)" offset="0.117188"/><stop stop-opacity="1" stop-color="rgb(54.919434%, 74.03717%, 78.881836%)" offset="0.125"/><stop stop-opacity="1" stop-color="rgb(54.631042%, 73.83728%, 78.799438%)" offset="0.132812"/><stop stop-opacity="1" stop-color="rgb(54.319763%, 73.699951%, 78.799438%)" offset="0.140625"/><stop stop-opacity="1" stop-color="rgb(54.006958%, 73.579407%, 78.678894%)" offset="0.148438"/><stop stop-opacity="1" stop-color="rgb(53.713989%, 73.377991%, 78.479004%)" offset="0.15625"/><stop stop-opacity="1" stop-color="rgb(53.425598%, 73.28949%, 78.399658%)" offset="0.164062"/><stop stop-opacity="1" stop-color="rgb(53.137207%, 73.136902%, 78.399658%)" offset="0.171875"/><stop stop-opacity="1" stop-color="rgb(52.848816%, 72.946167%, 78.302002%)" offset="0.179688"/><stop stop-opacity="1" stop-color="rgb(52.56958%, 72.898865%, 78.102112%)" offset="0.1875"/><stop stop-opacity="1" stop-color="rgb(52.328491%, 72.898865%, 77.999878%)" offset="0.195312"/><stop stop-opacity="1" stop-color="rgb(52.059937%, 72.749329%, 77.850342%)" offset="0.203125"/><stop stop-opacity="1" stop-color="rgb(51.748657%, 72.549438%, 77.648926%)" offset="0.210938"/><stop stop-opacity="1" stop-color="rgb(51.454163%, 72.465515%, 77.598572%)" offset="0.21875"/><stop stop-opacity="1" stop-color="rgb(51.165771%, 72.323608%, 77.598572%)" offset="0.226562"/><stop stop-opacity="1" stop-color="rgb(50.875854%, 72.206116%, 77.497864%)" offset="0.234375"/><stop stop-opacity="1" stop-color="rgb(50.587463%, 72.120667%, 77.348328%)" offset="0.242188"/><stop stop-opacity="1" stop-color="rgb(50.296021%, 71.920776%, 77.2995%)" offset="0.25"/><stop stop-opacity="1" stop-color="rgb(49.972534%, 71.662903%, 77.16217%)" offset="0.265625"/><stop stop-opacity="1" stop-color="rgb(49.717712%, 71.463013%, 76.96228%)" offset="0.273438"/><stop stop-opacity="1" stop-color="rgb(49.493408%, 71.372986%, 76.873779%)" offset="0.28125"/><stop stop-opacity="1" stop-color="rgb(49.205017%, 71.203613%, 76.704407%)" offset="0.289063"/><stop stop-opacity="1" stop-color="rgb(48.9151%, 71.029663%, 76.530457%)" offset="0.296875"/><stop stop-opacity="1" stop-color="rgb(48.61908%, 70.932007%, 76.499939%)" offset="0.304688"/><stop stop-opacity="1" stop-color="rgb(48.304749%, 70.732117%, 76.470947%)" offset="0.3125"/><stop stop-opacity="1" stop-color="rgb(47.999573%, 70.599365%, 76.298523%)" offset="0.320313"/><stop stop-opacity="1" stop-color="rgb(47.738647%, 70.599365%, 76.126099%)" offset="0.328125"/><stop stop-opacity="1" stop-color="rgb(47.50061%, 70.53833%, 76.037598%)" offset="0.335938"/><stop stop-opacity="1" stop-color="rgb(47.232056%, 70.33844%, 75.837708%)" offset="0.34375"/><stop stop-opacity="1" stop-color="rgb(46.943665%, 70.199585%, 75.698853%)" offset="0.351563"/><stop stop-opacity="1" stop-color="rgb(46.655273%, 70.10498%, 75.698853%)" offset="0.359375"/><stop stop-opacity="1" stop-color="rgb(46.360779%, 69.90509%, 75.654602%)" offset="0.367188"/><stop stop-opacity="1" stop-color="rgb(46.046448%, 69.790649%, 75.454712%)" offset="0.375"/><stop stop-opacity="1" stop-color="rgb(45.73822%, 69.638062%, 75.299072%)" offset="0.382812"/><stop stop-opacity="1" stop-color="rgb(45.449829%, 69.445801%, 75.299072%)" offset="0.390625"/><stop stop-opacity="1" stop-color="rgb(45.159912%, 69.3573%, 75.257874%)" offset="0.398438"/><stop stop-opacity="1" stop-color="rgb(44.871521%, 69.171143%, 75.071716%)" offset="0.40625"/><stop stop-opacity="1" stop-color="rgb(44.58313%, 69.012451%, 74.913025%)" offset="0.414063"/><stop stop-opacity="1" stop-color="rgb(44.282532%, 68.913269%, 74.813843%)" offset="0.421875"/><stop stop-opacity="1" stop-color="rgb(43.969727%, 68.713379%, 74.613953%)" offset="0.429688"/><stop stop-opacity="1" stop-color="rgb(43.666077%, 68.598938%, 74.499512%)" offset="0.4375"/><stop stop-opacity="1" stop-color="rgb(43.377686%, 68.466187%, 74.499512%)" offset="0.445312"/><stop stop-opacity="1" stop-color="rgb(43.089294%, 68.266296%, 74.421692%)" offset="0.453125"/><stop stop-opacity="1" stop-color="rgb(42.805481%, 68.199158%, 74.221802%)" offset="0.460938"/><stop stop-opacity="1" stop-color="rgb(42.558289%, 68.199158%, 74.099731%)" offset="0.46875"/><stop stop-opacity="1" stop-color="rgb(42.297363%, 68.07251%, 73.973083%)" offset="0.476563"/><stop stop-opacity="1" stop-color="rgb(41.992188%, 67.87262%, 73.773193%)" offset="0.484375"/><stop stop-opacity="1" stop-color="rgb(41.694641%, 67.781067%, 73.699951%)" offset="0.492188"/><stop stop-opacity="1" stop-color="rgb(41.40625%, 67.654419%, 73.699951%)" offset="0.5"/><stop stop-opacity="1" stop-color="rgb(41.116333%, 67.521667%, 73.58551%)" offset="0.507813"/><stop stop-opacity="1" stop-color="rgb(40.827942%, 67.440796%, 73.38562%)" offset="0.515625"/><stop stop-opacity="1" stop-color="rgb(40.541077%, 67.240906%, 73.298645%)" offset="0.53125"/><stop stop-opacity="1" stop-color="rgb(40.29541%, 66.995239%, 73.194885%)" offset="0.539062"/><stop stop-opacity="1" stop-color="rgb(40.034485%, 66.795349%, 72.994995%)" offset="0.546875"/><stop stop-opacity="1" stop-color="rgb(39.738464%, 66.699219%, 72.898865%)" offset="0.5625"/><stop stop-opacity="1" stop-color="rgb(39.599609%, 66.699219%, 72.898865%)" offset="0.625"/><stop stop-opacity="1" stop-color="rgb(39.599609%, 66.699219%, 72.898865%)" offset="0.75"/><stop stop-opacity="1" stop-color="rgb(39.599609%, 66.699219%, 72.898865%)" offset="1"/></linearGradient></defs><path fill="#ff685f" d="M 302.460938 111.722656 L 305.84375 108.328125 L 238.6875 17.335938 L 147.621094 45.664062 L 206.5625 144.855469 L 217.808594 140.871094 L 302.460938 111.722656 " fill-opacity="1" fill-rule="nonzero"/><g clip-path="url(#bbbf6f0383)"><path fill="#e83e21" d="M 54.816406 71.050781 L 54.816406 77.703125 L 101.480469 173.21875 L 205.128906 146.308594 L 205.128906 142.859375 L 54.816406 71.050781 " fill-opacity="1" fill-rule="nonzero"/></g><g clip-path="url(#6be20c1f82)"><path fill="#ff685f" d="M 102.171875 169.511719 L 205.128906 142.859375 L 146.617188 45.664062 L 54.816406 71.050781 L 102.171875 169.511719 " fill-opacity="1" fill-rule="nonzero"/></g><path fill="#f29e5f" d="M 67.664062 64.367188 L 59.449219 65.824219 L 60.898438 74.550781 L 106.796875 163.523438 L 108.246094 148.839844 L 67.664062 64.367188 " fill-opacity="1" fill-rule="nonzero"/><path fill="#e83e21" d="M 205.128906 145.503906 L 205.128906 146.308594 C 205.128906 146.308594 207.5 149.703125 212.652344 148.628906 C 217.808594 147.550781 217.808594 140.871094 217.808594 140.871094 L 205.128906 142.859375 L 205.128906 145.503906 " fill-opacity="1" fill-rule="nonzero"/><path fill="#ffd9b4" d="M 104.863281 150.433594 L 106.796875 163.523438 C 106.796875 163.523438 202.832031 143.222656 205.128906 142.859375 C 207.425781 142.5 207.425781 142.5 207.425781 142.5 C 207.425781 142.5 207.285156 135.589844 217.808594 140.871094 L 303.585938 103.15625 L 301.65625 90.390625 L 214.371094 136.453125 C 214.371094 136.453125 212.761719 136.734375 211.089844 137.136719 C 209.007812 137.640625 207.605469 138.476562 207.445312 138.550781 C 200.839844 141.796875 160.046875 132.035156 160.046875 132.035156 C 148.757812 129.332031 131.179688 130.574219 104.863281 150.433594 " fill-opacity="1" fill-rule="nonzero"/><g clip-path="url(#c17c1f1293)"><path fill="#e83e21" d="M 216.304688 143.238281 L 217.808594 140.871094 L 305.84375 108.328125 L 306.808594 112.855469 L 216.304688 143.238281 " fill-opacity="1" fill-rule="nonzero"/></g><path fill="#f29e5f" d="M 106.636719 156.167969 L 195.84375 139.675781 C 195.84375 139.675781 156.097656 141.328125 155.363281 140.871094 C 154.625 140.410156 126.28125 144.527344 125.71875 144.855469 C 125.15625 145.179688 106.636719 156.167969 106.636719 156.167969 " fill-opacity="1" fill-rule="nonzero"/><path fill="#f3e7db" d="M 211.46875 137.050781 C 211.46875 137.050781 153.175781 47.15625 147.621094 43.03125 C 142.0625 38.910156 70.804688 57.09375 59.449219 62.667969 L 106.117188 156.167969 C 121.730469 152.828125 138.019531 144.167969 157.253906 142.269531 C 175.089844 140.511719 191.648438 139.90625 206.640625 140.007812 C 208.25 139.019531 209.859375 138.035156 211.46875 137.050781 " fill-opacity="1" fill-rule="nonzero"/><path fill="#f29e5f" d="M 149.503906 45.074219 C 149.503906 45.074219 148.34375 39.46875 159.941406 31.875 C 171.535156 24.285156 240.941406 13.054688 240.941406 13.054688 L 301.65625 90.390625 L 217.808594 137.097656 L 211.46875 137.050781 L 149.503906 45.074219 " fill-opacity="1" fill-rule="nonzero"/><path fill="#ffd9b4" d="M 149.503906 45.074219 C 149.503906 45.074219 151.242188 33.128906 166.382812 19.65625 C 181.519531 6.183594 217.808594 0.0390625 217.808594 0.0390625 L 278.785156 81.101562 C 278.785156 81.101562 232.515625 98.308594 217.808594 137.097656 L 211.46875 137.050781 L 149.503906 45.074219 " fill-opacity="1" fill-rule="nonzero"/><g clip-path="url(#c6402d9c81)"><g clip-path="url(#7d8cacf13a)"><g clip-path="url(#3f8a9d2ec2)"><path fill="url(#d45932d77e)" d="M 130.902344 42.253906 L 130.902344 170.796875 L 226.730469 170.796875 L 226.730469 42.253906 Z M 130.902344 42.253906 " fill-rule="nonzero"/></g></g></g><path fill="#f7ab6d" d="M 160.390625 129.757812 C 156.03125 131.203125 123.207031 136.152344 116.023438 131.757812 C 112.558594 129.640625 109.558594 124.109375 108.152344 118.515625 C 106.636719 112.515625 106.953125 106.4375 110.476562 104.402344 C 110.476562 104.402344 123.273438 96.082031 132.699219 94.667969 C 141.855469 93.289062 158.617188 100.035156 163.730469 106.761719 C 163.878906 106.957031 164.015625 107.15625 164.144531 107.347656 C 168.6875 114.265625 164.75 128.308594 160.390625 129.757812 " fill-opacity="1" fill-rule="nonzero"/><path fill="#f7ab6d" d="M 158.695312 93.652344 C 158.238281 93.085938 158.050781 92.796875 158.25 92.90625 C 158.382812 92.976562 158.535156 93.238281 158.695312 93.652344 " fill-opacity="1" fill-rule="nonzero"/><path fill="#ce6824" d="M 160.390625 129.757812 C 156.03125 131.203125 123.207031 136.152344 116.023438 131.757812 C 112.558594 129.640625 109.558594 124.109375 108.152344 118.515625 C 111.210938 123.535156 116.050781 129.980469 120.515625 129.535156 C 127.765625 128.8125 154.914062 129.820312 159.582031 124.648438 C 162.957031 120.910156 163.875 111.816406 163.730469 106.761719 C 163.878906 106.957031 164.015625 107.15625 164.144531 107.347656 C 168.6875 114.265625 164.75 128.308594 160.390625 129.757812 " fill-opacity="1" fill-rule="nonzero"/><path fill="#f7ab6d" d="M 134.214844 123.386719 C 110.359375 124.921875 102.214844 109.273438 102.214844 109.273438 C 100.488281 107.011719 99.964844 104.867188 100.347656 102.859375 C 102.148438 93.417969 124.09375 87.195312 135.050781 87.605469 C 145.386719 87.988281 155.121094 93.566406 159.414062 97.601562 C 160.640625 98.753906 161.421875 99.773438 161.648438 100.519531 C 162.671875 103.871094 158.070312 121.851562 134.214844 123.386719 " fill-opacity="1" fill-rule="nonzero"/><g clip-path="url(#fe64d68543)"><g clip-path="url(#35f4c36050)"><g clip-path="url(#360b998eeb)"><g clip-path="url(#a60805c254)"><path fill="url(#e2f0f890ff)" d="M 158.691406 83.867188 L 94.308594 98.949219 L 103.257812 137.433594 L 167.640625 122.355469 Z M 158.691406 83.867188 " fill-rule="nonzero"/></g></g></g></g><path fill="#ae451d" d="M 103.808594 109.542969 C 103.808594 109.542969 105.980469 105.390625 107.152344 107.21875 C 108.324219 109.050781 104.785156 112.453125 103.808594 109.542969 " fill-opacity="1" fill-rule="nonzero"/><path fill="#ae451d" d="M 130.609375 105.320312 C 130.609375 105.320312 138.742188 106.757812 137.582031 108.976562 C 136.417969 111.199219 137.03125 109.253906 134.390625 109.039062 C 131.746094 108.824219 128.382812 107.355469 130.609375 105.320312 " fill-opacity="1" fill-rule="nonzero"/><path fill="#ae451d" d="M 148.945312 95.039062 C 151.605469 91.441406 153.601562 93.257812 155.191406 94.351562 C 156.777344 95.445312 146.726562 98.039062 148.945312 95.039062 " fill-opacity="1" fill-rule="nonzero"/><path fill="#ae451d" d="M 131.90625 86.074219 C 133.726562 83.375 135.289062 90.390625 133.832031 89.644531 C 132.375 88.894531 130.871094 87.617188 131.90625 86.074219 " fill-opacity="1" fill-rule="nonzero"/><path fill="#f3e7db" d="M 178.816406 68.988281 C 178.816406 68.988281 183.613281 50.0625 222.746094 34.304688 L 251.976562 71.050781 C 251.976562 71.050781 213.816406 93.339844 208.25 113.945312 L 178.816406 68.988281 " fill-opacity="1" fill-rule="nonzero"/><path fill="#ae451d" d="M 89.769531 70.976562 L 90.398438 71.964844 C 90.550781 72.203125 90.570312 72.410156 90.457031 72.582031 C 90.339844 72.753906 90.136719 72.882812 89.839844 72.964844 C 89.550781 73.046875 89.273438 73.054688 89.007812 72.984375 C 88.746094 72.917969 88.539062 72.765625 88.386719 72.527344 L 86.285156 69.246094 C 85.945312 68.714844 86.101562 68.359375 86.757812 68.175781 C 87.089844 68.082031 87.371094 68.074219 87.597656 68.15625 C 87.824219 68.238281 88.023438 68.402344 88.191406 68.636719 C 88.277344 68.328125 88.40625 68.078125 88.582031 67.882812 C 88.753906 67.6875 89.050781 67.53125 89.476562 67.414062 C 89.898438 67.292969 90.347656 67.242188 90.824219 67.253906 C 91.300781 67.265625 91.605469 67.375 91.738281 67.578125 C 91.828125 67.722656 91.820312 67.863281 91.710938 68.003906 C 91.601562 68.144531 91.449219 68.246094 91.25 68.300781 C 91.179688 68.320312 90.984375 68.34375 90.664062 68.371094 C 90.351562 68.394531 90.082031 68.4375 89.867188 68.5 C 89.570312 68.582031 89.359375 68.695312 89.230469 68.839844 C 89.101562 68.980469 89.046875 69.15625 89.054688 69.363281 C 89.066406 69.570312 89.132812 69.804688 89.25 70.0625 C 89.367188 70.316406 89.542969 70.625 89.769531 70.976562 " fill-opacity="1" fill-rule="nonzero"/><path fill="#ae451d" d="M 94.996094 68.242188 L 98.644531 67.21875 C 98.335938 66.828125 97.957031 66.582031 97.507812 66.46875 C 97.058594 66.359375 96.570312 66.378906 96.042969 66.527344 C 95.542969 66.667969 95.195312 66.882812 95.003906 67.175781 C 94.8125 67.472656 94.808594 67.824219 94.996094 68.242188 Z M 99.359375 67.808594 L 95.425781 68.914062 C 95.601562 69.179688 95.84375 69.390625 96.15625 69.542969 C 96.464844 69.699219 96.800781 69.785156 97.164062 69.804688 C 97.527344 69.824219 97.890625 69.785156 98.246094 69.683594 C 98.488281 69.617188 98.699219 69.539062 98.875 69.449219 C 99.054688 69.359375 99.210938 69.253906 99.355469 69.132812 C 99.496094 69.007812 99.621094 68.886719 99.726562 68.761719 C 99.832031 68.636719 99.964844 68.46875 100.125 68.261719 C 100.195312 68.179688 100.328125 68.113281 100.519531 68.058594 C 100.726562 68 100.914062 67.988281 101.082031 68.019531 C 101.253906 68.046875 101.378906 68.125 101.453125 68.246094 C 101.523438 68.351562 101.53125 68.496094 101.480469 68.679688 C 101.429688 68.859375 101.300781 69.058594 101.097656 69.269531 C 100.894531 69.480469 100.601562 69.691406 100.222656 69.898438 C 99.84375 70.109375 99.371094 70.292969 98.808594 70.449219 C 97.515625 70.8125 96.371094 70.878906 95.378906 70.648438 C 94.386719 70.417969 93.652344 69.929688 93.179688 69.191406 C 92.953125 68.84375 92.835938 68.492188 92.824219 68.148438 C 92.808594 67.800781 92.902344 67.472656 93.105469 67.164062 C 93.308594 66.855469 93.621094 66.574219 94.042969 66.320312 C 94.46875 66.066406 94.980469 65.855469 95.585938 65.6875 C 96.371094 65.464844 97.105469 65.375 97.792969 65.410156 C 98.480469 65.449219 99.0625 65.582031 99.539062 65.8125 C 100.015625 66.039062 100.359375 66.316406 100.5625 66.632812 C 100.753906 66.929688 100.730469 67.164062 100.496094 67.332031 C 100.265625 67.503906 99.882812 67.660156 99.359375 67.808594 " fill-opacity="1" fill-rule="nonzero"/><path fill="#ae451d" d="M 110.339844 65.492188 C 110.433594 65.640625 110.457031 65.816406 110.417969 66.027344 C 110.375 66.234375 110.246094 66.457031 110.035156 66.695312 C 109.828125 66.933594 109.515625 67.164062 109.109375 67.386719 C 108.703125 67.609375 108.207031 67.804688 107.621094 67.96875 C 106.378906 68.316406 105.273438 68.375 104.304688 68.144531 C 103.332031 67.917969 102.621094 67.445312 102.164062 66.730469 C 101.855469 66.246094 101.738281 65.773438 101.820312 65.3125 C 101.902344 64.851562 102.179688 64.4375 102.65625 64.0625 C 103.128906 63.691406 103.785156 63.386719 104.625 63.152344 C 105.144531 63.003906 105.652344 62.914062 106.144531 62.882812 C 106.636719 62.851562 107.078125 62.863281 107.472656 62.917969 C 107.863281 62.972656 108.191406 63.058594 108.453125 63.175781 C 108.714844 63.289062 108.890625 63.417969 108.976562 63.554688 C 109.070312 63.695312 109.054688 63.839844 108.9375 63.988281 C 108.824219 64.136719 108.636719 64.246094 108.378906 64.320312 C 108.214844 64.367188 108.058594 64.378906 107.917969 64.359375 C 107.773438 64.339844 107.597656 64.292969 107.386719 64.21875 C 107.003906 64.070312 106.640625 63.976562 106.300781 63.945312 C 105.964844 63.910156 105.589844 63.949219 105.175781 64.066406 C 104.582031 64.230469 104.191406 64.503906 104 64.878906 C 103.8125 65.25 103.867188 65.675781 104.171875 66.148438 C 104.3125 66.371094 104.488281 66.558594 104.703125 66.71875 C 104.914062 66.878906 105.152344 67 105.410156 67.082031 C 105.671875 67.164062 105.949219 67.203125 106.242188 67.199219 C 106.539062 67.195312 106.832031 67.152344 107.132812 67.070312 C 107.535156 66.957031 107.847656 66.804688 108.0625 66.613281 C 108.28125 66.425781 108.429688 66.1875 108.507812 65.898438 C 108.542969 65.730469 108.609375 65.589844 108.703125 65.476562 C 108.800781 65.363281 108.949219 65.273438 109.15625 65.21875 C 109.402344 65.148438 109.640625 65.144531 109.871094 65.210938 C 110.105469 65.273438 110.261719 65.367188 110.339844 65.492188 " fill-opacity="1" fill-rule="nonzero"/><path fill="#ae451d" d="M 112.398438 61.769531 L 114.582031 65.179688 C 114.730469 65.414062 114.75 65.621094 114.636719 65.792969 C 114.523438 65.96875 114.316406 66.097656 114.023438 66.179688 C 113.726562 66.265625 113.449219 66.269531 113.183594 66.195312 C 112.921875 66.125 112.714844 65.972656 112.570312 65.742188 L 110.410156 62.367188 C 110.257812 62.136719 110.238281 61.933594 110.347656 61.765625 C 110.457031 61.59375 110.660156 61.46875 110.953125 61.386719 C 111.246094 61.300781 111.53125 61.292969 111.796875 61.359375 C 112.0625 61.421875 112.265625 61.558594 112.398438 61.769531 Z M 110.625 60.832031 C 110.34375 60.910156 110.070312 60.925781 109.808594 60.882812 C 109.546875 60.835938 109.355469 60.722656 109.238281 60.535156 C 109.128906 60.371094 109.144531 60.203125 109.277344 60.039062 C 109.414062 59.875 109.617188 59.753906 109.886719 59.675781 C 110.144531 59.605469 110.40625 59.585938 110.671875 59.628906 C 110.9375 59.671875 111.128906 59.785156 111.246094 59.972656 C 111.363281 60.152344 111.355469 60.324219 111.226562 60.480469 C 111.09375 60.636719 110.894531 60.753906 110.625 60.832031 " fill-opacity="1" fill-rule="nonzero"/><path fill="#ae451d" d="M 121.394531 61.578125 C 121.195312 61.285156 120.945312 61.058594 120.640625 60.890625 C 120.335938 60.726562 120.003906 60.625 119.640625 60.589844 C 119.277344 60.554688 118.921875 60.585938 118.570312 60.679688 C 118.015625 60.828125 117.628906 61.074219 117.410156 61.417969 C 117.191406 61.761719 117.242188 62.167969 117.558594 62.632812 C 117.855469 63.074219 118.277344 63.367188 118.820312 63.511719 C 119.363281 63.652344 119.917969 63.648438 120.476562 63.5 C 120.8125 63.410156 121.085938 63.269531 121.296875 63.089844 C 121.511719 62.90625 121.632812 62.683594 121.660156 62.421875 C 121.6875 62.164062 121.597656 61.882812 121.394531 61.578125 Z M 116.359375 61.027344 L 116.449219 61.164062 C 116.652344 60.804688 116.921875 60.507812 117.246094 60.277344 C 117.574219 60.050781 117.996094 59.863281 118.511719 59.726562 C 119.128906 59.558594 119.761719 59.492188 120.398438 59.527344 C 121.039062 59.566406 121.625 59.710938 122.15625 59.96875 C 122.6875 60.226562 123.109375 60.585938 123.421875 61.046875 C 123.652344 61.386719 123.777344 61.726562 123.796875 62.058594 C 123.8125 62.390625 123.734375 62.691406 123.5625 62.96875 C 123.386719 63.242188 123.128906 63.488281 122.78125 63.707031 C 122.4375 63.921875 122.027344 64.09375 121.550781 64.222656 C 120.976562 64.375 120.449219 64.441406 119.972656 64.421875 C 119.496094 64.398438 118.996094 64.3125 118.476562 64.160156 L 119.601562 65.824219 C 119.929688 66.3125 119.773438 66.640625 119.128906 66.816406 C 118.75 66.917969 118.457031 66.921875 118.25 66.828125 C 118.039062 66.734375 117.855469 66.570312 117.691406 66.328125 L 114.460938 61.546875 C 114.320312 61.335938 114.296875 61.15625 114.390625 61.007812 C 114.488281 60.859375 114.683594 60.746094 114.972656 60.667969 C 115.257812 60.589844 115.527344 60.582031 115.777344 60.640625 C 116.03125 60.699219 116.222656 60.828125 116.359375 61.027344 " fill-opacity="1" fill-rule="nonzero"/><path fill="#ae451d" d="M 126.476562 59.714844 L 130.128906 58.773438 C 129.824219 58.429688 129.449219 58.210938 129 58.117188 C 128.550781 58.023438 128.066406 58.046875 127.539062 58.179688 C 127.035156 58.3125 126.6875 58.507812 126.492188 58.769531 C 126.300781 59.03125 126.292969 59.347656 126.476562 59.714844 Z M 130.839844 59.289062 L 126.898438 60.308594 C 127.070312 60.542969 127.3125 60.726562 127.621094 60.863281 C 127.929688 60.996094 128.265625 61.070312 128.628906 61.085938 C 128.992188 61.101562 129.351562 61.0625 129.710938 60.96875 C 129.953125 60.90625 130.160156 60.835938 130.339844 60.753906 C 130.519531 60.671875 130.679688 60.578125 130.820312 60.46875 C 130.964844 60.355469 131.089844 60.246094 131.195312 60.132812 C 131.300781 60.019531 131.4375 59.871094 131.601562 59.683594 C 131.671875 59.613281 131.804688 59.550781 131.996094 59.5 C 132.203125 59.449219 132.390625 59.433594 132.558594 59.460938 C 132.730469 59.484375 132.851562 59.550781 132.929688 59.660156 C 132.996094 59.753906 133.003906 59.878906 132.949219 60.042969 C 132.898438 60.207031 132.769531 60.382812 132.5625 60.574219 C 132.359375 60.761719 132.066406 60.953125 131.683594 61.140625 C 131.300781 61.328125 130.828125 61.496094 130.261719 61.644531 C 128.96875 61.976562 127.828125 62.046875 126.835938 61.851562 C 125.84375 61.65625 125.117188 61.230469 124.648438 60.574219 C 124.429688 60.269531 124.316406 59.960938 124.304688 59.652344 C 124.292969 59.34375 124.390625 59.050781 124.59375 58.773438 C 124.800781 58.5 125.117188 58.246094 125.542969 58.015625 C 125.96875 57.789062 126.480469 57.59375 127.085938 57.441406 C 127.875 57.238281 128.609375 57.148438 129.296875 57.175781 C 129.984375 57.199219 130.5625 57.3125 131.039062 57.511719 C 131.511719 57.710938 131.851562 57.953125 132.050781 58.234375 C 132.238281 58.496094 132.214844 58.703125 131.980469 58.855469 C 131.746094 59.007812 131.367188 59.15625 130.839844 59.289062 " fill-opacity="1" fill-rule="nonzero"/><path fill="#f9c9a1" d="M 83.847656 84.085938 L 129.882812 70.78125 L 131.5625 74.125 L 85.214844 87.574219 L 83.847656 84.085938 " fill-opacity="1" fill-rule="nonzero"/><path fill="#f9c9a1" d="M 87.953125 91.679688 L 118.230469 81.984375 L 119.066406 84.730469 L 88.957031 94.484375 L 87.953125 91.679688 " fill-opacity="1" fill-rule="nonzero"/><g clip-path="url(#dea001f79f)"><g clip-path="url(#ce7f9b91aa)"><g clip-path="url(#101ff040d7)"><path fill="#9fc6d1" d="M 217.113281 33.667969 L 188.078125 67.53125 L 221.75 96.613281 L 250.785156 62.75 Z M 217.113281 33.667969 " fill-opacity="1" fill-rule="nonzero"/></g></g></g><g clip-path="url(#5ac7dfc4cf)"><g clip-path="url(#ec4ef574f9)"><g clip-path="url(#1bc573ea6f)"><g clip-path="url(#019546c0c5)"><path fill="url(#afba308fb2)" d="M 220.125 70.132812 L 227.042969 50.585938 L 205.617188 42.949219 L 198.699219 62.496094 Z M 220.125 70.132812 " fill-rule="nonzero"/></g></g></g></g><path fill="#ffffff" d="M 213.242188 70.777344 C 213.566406 70.941406 222.691406 77.40625 222.691406 77.40625 C 222.691406 77.40625 228.167969 77.351562 232.355469 70.132812 L 226.730469 59.300781 C 225.753906 61.042969 224.121094 63.484375 221.511719 65.824219 C 218.402344 68.605469 215.261719 70.039062 213.242188 70.777344 " fill-opacity="1" fill-rule="nonzero"/><path fill="#ff685f" d="M 207.394531 87.574219 C 207.394531 87.574219 201.808594 94 204.226562 95.9375 C 206.640625 97.878906 230.183594 82.019531 231.550781 77.40625 C 232.917969 72.789062 217.59375 80.90625 217.054688 81.09375 C 216.519531 81.285156 207.394531 87.574219 207.394531 87.574219 " fill-opacity="1" fill-rule="nonzero"/><path fill="#ffbb6e" d="M 207.445312 91.195312 C 207.445312 91.195312 203.582031 88.773438 204.226562 83.4375 C 204.871094 78.105469 213.996094 72.96875 217.808594 73.03125 C 221.617188 73.09375 225.886719 76.328125 226.730469 78.589844 C 227.578125 80.851562 207.445312 91.195312 207.445312 91.195312 " fill-opacity="1" fill-rule="nonzero"/><path fill="#f9c9a1" d="M 217.808594 138.28125 L 302.148438 93.652344 L 302.390625 95.234375 Z M 217.808594 138.28125 " fill-opacity="1" fill-rule="nonzero"/><path fill="#f9c9a1" d="M 106.117188 158.917969 L 160.476562 148.839844 L 106.410156 160.917969 Z M 106.117188 158.917969 " fill-opacity="1" fill-rule="nonzero"/><path fill="#f9c9a1" d="M 271.488281 114.011719 L 302.871094 98.410156 L 303.242188 100.882812 Z M 271.488281 114.011719 " fill-opacity="1" fill-rule="nonzero"/><path fill="#f9c9a1" d="M 176.527344 58.890625 C 176.527344 58.890625 187.992188 41.117188 214.144531 31.164062 L 212.808594 29.296875 C 212.808594 29.296875 183.933594 39.941406 174.109375 56.519531 L 176.527344 58.890625 " fill-opacity="1" fill-rule="nonzero"/><path fill="#f9c9a1" d="M 171.535156 52.980469 C 171.535156 52.980469 179.585938 39.476562 202.9375 29.296875 L 200.683594 26.707031 C 200.683594 26.707031 175.238281 38.183594 169.117188 50.789062 L 171.535156 52.980469 " fill-opacity="1" fill-rule="nonzero"/><path fill="#721a03" d="M 208.65625 140.871094 C 208.65625 140.871094 207.285156 146.066406 210.667969 145.988281 C 214.050781 145.90625 216.789062 142.136719 214.453125 140.871094 C 212.117188 139.601562 208.894531 139.394531 208.65625 140.871094 " fill-opacity="1" fill-rule="nonzero"/></svg>