<svg xmlns="http://www.w3.org/2000/svg" xmlns:xlink="http://www.w3.org/1999/xlink" width="500" zoomAndPan="magnify" viewBox="0 0 375 374.999991" height="500" preserveAspectRatio="xMidYMid meet" version="1.0"><defs><clipPath id="4d6e0a0121"><path d="M 4.6875 136 L 370.6875 136 L 370.6875 247 L 4.6875 247 Z M 4.6875 136 " clip-rule="nonzero"/></clipPath><clipPath id="d2236e713b"><path d="M 4.6875 185 L 370.6875 185 L 370.6875 375 L 4.6875 375 Z M 4.6875 185 " clip-rule="nonzero"/></clipPath></defs><path fill="#e12c2c" d="M 86.054688 137.59375 C 85.871094 137.59375 85.6875 137.59375 85.503906 137.570312 C 81.136719 137.179688 42.53125 133.171875 31.382812 113.070312 C 27.472656 106.011719 26.84375 98.535156 29.621094 92.003906 C 30.308594 90.417969 31.167969 88.933594 32.195312 87.546875 C 33.226562 86.160156 34.398438 84.90625 35.714844 83.789062 C 37.03125 82.671875 38.457031 81.714844 39.992188 80.925781 C 41.53125 80.136719 43.136719 79.527344 44.808594 79.105469 C 45.199219 79.003906 45.59375 78.9375 45.996094 78.910156 C 46.398438 78.886719 46.800781 78.898438 47.199219 78.953125 C 47.597656 79.003906 47.988281 79.097656 48.371094 79.226562 C 48.753906 79.355469 49.117188 79.523438 49.464844 79.726562 C 49.816406 79.925781 50.140625 80.160156 50.441406 80.425781 C 50.746094 80.691406 51.019531 80.984375 51.265625 81.304688 C 51.507812 81.625 51.71875 81.964844 51.898438 82.328125 C 52.078125 82.691406 52.21875 83.066406 52.320312 83.453125 C 52.425781 83.84375 52.488281 84.238281 52.515625 84.640625 C 52.542969 85.042969 52.527344 85.445312 52.472656 85.84375 C 52.421875 86.242188 52.328125 86.632812 52.199219 87.015625 C 52.070312 87.398438 51.902344 87.761719 51.703125 88.109375 C 51.5 88.460938 51.265625 88.785156 51 89.089844 C 50.734375 89.390625 50.441406 89.664062 50.121094 89.910156 C 49.800781 90.15625 49.460938 90.367188 49.097656 90.542969 C 48.738281 90.722656 48.359375 90.863281 47.972656 90.964844 C 46.410156 91.351562 45.011719 92.054688 43.773438 93.078125 C 42.539062 94.101562 41.582031 95.34375 40.914062 96.804688 C 39.632812 99.820312 40.046875 103.386719 42.117188 107.117188 C 48.109375 117.933594 70.324219 123.136719 82.382812 124.84375 C 87.320312 113.71875 94.65625 92.113281 88.664062 81.296875 C 85.769531 76.082031 81.394531 73.796875 76.667969 75.027344 C 76.007812 75.222656 75.367188 75.472656 74.746094 75.777344 C 74.125 76.078125 73.535156 76.433594 72.976562 76.835938 C 72.414062 77.238281 71.890625 77.683594 71.40625 78.171875 C 70.917969 78.664062 70.476562 79.191406 70.078125 79.753906 C 69.683594 80.320312 69.335938 80.914062 69.035156 81.535156 C 68.738281 82.15625 68.496094 82.800781 68.304688 83.464844 C 68.113281 84.128906 67.980469 84.800781 67.90625 85.488281 C 67.828125 86.175781 67.808594 86.863281 67.847656 87.550781 C 67.847656 87.953125 67.8125 88.351562 67.734375 88.75 C 67.65625 89.144531 67.542969 89.527344 67.386719 89.902344 C 67.234375 90.273438 67.046875 90.628906 66.824219 90.964844 C 66.601562 91.300781 66.347656 91.609375 66.066406 91.898438 C 65.78125 92.183594 65.472656 92.4375 65.136719 92.664062 C 64.804688 92.886719 64.449219 93.078125 64.078125 93.234375 C 63.707031 93.390625 63.324219 93.507812 62.929688 93.585938 C 62.535156 93.667969 62.132812 93.707031 61.730469 93.710938 L 61.707031 93.710938 C 61.304688 93.710938 60.910156 93.671875 60.515625 93.59375 C 60.121094 93.515625 59.738281 93.398438 59.363281 93.246094 C 58.992188 93.089844 58.640625 92.902344 58.304688 92.679688 C 57.972656 92.457031 57.660156 92.203125 57.375 91.921875 C 57.09375 91.636719 56.835938 91.328125 56.613281 90.992188 C 56.390625 90.660156 56.199219 90.308594 56.046875 89.9375 C 55.890625 89.566406 55.773438 89.183594 55.691406 88.789062 C 55.613281 88.394531 55.574219 87.996094 55.570312 87.59375 C 55.539062 86.230469 55.617188 84.871094 55.804688 83.519531 C 55.996094 82.167969 56.296875 80.84375 56.707031 79.539062 C 57.117188 78.238281 57.628906 76.980469 58.25 75.761719 C 58.867188 74.546875 59.582031 73.386719 60.390625 72.289062 C 61.199219 71.1875 62.09375 70.164062 63.070312 69.210938 C 64.050781 68.261719 65.101562 67.398438 66.222656 66.617188 C 67.34375 65.839844 68.523438 65.160156 69.757812 64.578125 C 70.992188 63.996094 72.265625 63.515625 73.578125 63.144531 C 83.859375 60.46875 93.746094 65.140625 99.402344 75.335938 C 110.550781 95.4375 93.511719 130.3125 91.53125 134.222656 C 91.273438 134.730469 90.953125 135.195312 90.570312 135.613281 C 90.1875 136.03125 89.753906 136.386719 89.269531 136.683594 C 88.785156 136.980469 88.269531 137.207031 87.722656 137.363281 C 87.179688 137.519531 86.621094 137.59375 86.054688 137.59375 Z M 86.054688 137.59375 " fill-opacity="1" fill-rule="nonzero"/><path fill="#e12c2c" d="M 165.980469 97.582031 C 164.449219 97.582031 163.101562 97.078125 161.945312 96.070312 C 157.878906 92.519531 122.300781 60.597656 125.691406 32.855469 C 127.371094 19.109375 136.140625 9.5625 148.574219 7.9375 C 161.515625 6.269531 174.144531 14.03125 179.289062 26.867188 C 179.4375 27.242188 179.550781 27.628906 179.625 28.023438 C 179.699219 28.421875 179.734375 28.820312 179.730469 29.222656 C 179.722656 29.625 179.679688 30.023438 179.597656 30.417969 C 179.515625 30.8125 179.394531 31.195312 179.234375 31.566406 C 179.078125 31.9375 178.882812 32.289062 178.65625 32.621094 C 178.429688 32.953125 178.167969 33.261719 177.882812 33.542969 C 177.59375 33.824219 177.28125 34.074219 176.941406 34.292969 C 176.605469 34.515625 176.25 34.699219 175.875 34.851562 C 175.5 35 175.117188 35.113281 174.71875 35.1875 C 174.324219 35.261719 173.925781 35.292969 173.519531 35.289062 C 173.117188 35.285156 172.71875 35.242188 172.324219 35.160156 C 171.929688 35.074219 171.546875 34.953125 171.179688 34.796875 C 170.808594 34.636719 170.457031 34.445312 170.125 34.214844 C 169.792969 33.988281 169.484375 33.730469 169.203125 33.441406 C 168.921875 33.15625 168.667969 32.839844 168.449219 32.503906 C 168.230469 32.167969 168.042969 31.8125 167.894531 31.4375 C 164.304688 22.480469 156.40625 19.296875 150.160156 20.109375 C 143.351562 21 138.871094 26.1875 137.875 34.34375 C 135.871094 50.742188 155.890625 73.523438 166.890625 83.964844 C 180.085938 76.464844 205.007812 59.148438 207.007812 42.785156 C 207.683594 37.234375 206.464844 32.59375 203.476562 29.363281 C 202.757812 28.613281 201.960938 27.949219 201.09375 27.371094 C 200.226562 26.792969 199.308594 26.3125 198.335938 25.9375 C 197.363281 25.558594 196.363281 25.289062 195.332031 25.132812 C 194.304688 24.972656 193.269531 24.925781 192.230469 24.992188 C 191.824219 25.015625 191.421875 24.996094 191.019531 24.9375 C 190.617188 24.878906 190.226562 24.78125 189.84375 24.648438 C 189.464844 24.511719 189.097656 24.339844 188.75 24.128906 C 188.402344 23.921875 188.078125 23.683594 187.777344 23.410156 C 187.480469 23.136719 187.207031 22.839844 186.96875 22.511719 C 186.726562 22.1875 186.519531 21.839844 186.347656 21.472656 C 186.175781 21.105469 186.042969 20.726562 185.945312 20.332031 C 185.847656 19.9375 185.789062 19.539062 185.773438 19.132812 C 185.753906 18.730469 185.777344 18.328125 185.839844 17.925781 C 185.902344 17.523438 186 17.132812 186.140625 16.753906 C 186.28125 16.375 186.457031 16.011719 186.667969 15.664062 C 186.878906 15.316406 187.121094 14.996094 187.398438 14.699219 C 187.671875 14.402344 187.972656 14.132812 188.300781 13.894531 C 188.632812 13.65625 188.980469 13.453125 189.347656 13.285156 C 189.714844 13.117188 190.097656 12.984375 190.492188 12.894531 C 190.886719 12.800781 191.285156 12.746094 191.691406 12.730469 C 193.621094 12.625 195.542969 12.730469 197.449219 13.042969 C 199.355469 13.355469 201.207031 13.871094 203.003906 14.585938 C 204.800781 15.304688 206.496094 16.203125 208.097656 17.289062 C 209.695312 18.375 211.160156 19.621094 212.488281 21.027344 C 217.925781 26.90625 220.3125 35.160156 219.191406 44.277344 C 215.808594 72.023438 173.585938 94.445312 168.78125 96.898438 C 167.902344 97.351562 166.96875 97.578125 165.980469 97.582031 Z M 165.980469 97.582031 " fill-opacity="1" fill-rule="nonzero"/><g clip-path="url(#4d6e0a0121)"><path fill="#e12c2c" d="M 187.578125 246.828125 C 98.9375 246.828125 4.734375 227.410156 4.734375 191.421875 C 4.734375 155.433594 98.9375 136.015625 187.578125 136.015625 C 276.214844 136.015625 370.417969 155.433594 370.417969 191.421875 C 370.417969 227.410156 276.214844 246.828125 187.578125 246.828125 Z M 187.578125 148.289062 C 81.898438 148.289062 17.007812 173.410156 17.007812 191.421875 C 17.007812 209.429688 81.898438 234.550781 187.578125 234.550781 C 293.253906 234.550781 358.144531 209.429688 358.144531 191.421875 C 358.144531 173.410156 293.253906 148.289062 187.578125 148.289062 Z M 187.578125 148.289062 " fill-opacity="1" fill-rule="nonzero"/></g><path fill="#e12c2c" d="M 164.101562 229.195312 C 163.839844 229.195312 163.582031 229.179688 163.324219 229.144531 C 163.066406 229.113281 162.8125 229.0625 162.558594 229 C 162.308594 228.933594 162.0625 228.851562 161.820312 228.753906 C 161.578125 228.65625 161.34375 228.546875 161.117188 228.417969 C 160.890625 228.292969 160.671875 228.152344 160.460938 227.996094 C 160.253906 227.84375 160.054688 227.675781 159.867188 227.496094 C 159.675781 227.316406 159.5 227.125 159.335938 226.921875 C 159.175781 226.722656 159.023438 226.507812 158.886719 226.289062 C 158.75 226.066406 158.628906 225.835938 158.519531 225.601562 C 158.410156 225.363281 158.320312 225.121094 158.242188 224.871094 C 158.164062 224.625 158.105469 224.371094 158.058594 224.117188 C 158.015625 223.859375 157.988281 223.601562 157.976562 223.339844 C 157.964844 223.082031 157.96875 222.820312 157.988281 222.5625 C 158.011719 222.304688 158.046875 222.046875 158.101562 221.792969 C 158.15625 221.539062 158.222656 221.285156 158.308594 221.042969 C 158.394531 220.796875 158.496094 220.554688 158.613281 220.324219 C 164.59375 208.574219 171.699219 197.550781 179.929688 187.25 C 188.160156 176.953125 197.347656 167.589844 207.488281 159.164062 C 214.675781 153.261719 239.207031 134.480469 253.164062 140.421875 C 269.097656 147.210938 274.515625 187.414062 270.550781 222.355469 C 270.507812 222.757812 270.425781 223.152344 270.308594 223.539062 C 270.1875 223.925781 270.027344 224.296875 269.835938 224.652344 C 269.640625 225.007812 269.414062 225.339844 269.152344 225.648438 C 268.894531 225.960938 268.605469 226.242188 268.289062 226.496094 C 267.972656 226.75 267.636719 226.96875 267.277344 227.15625 C 266.917969 227.339844 266.542969 227.492188 266.15625 227.605469 C 265.765625 227.714844 265.371094 227.789062 264.96875 227.824219 C 264.5625 227.859375 264.160156 227.851562 263.757812 227.804688 C 263.355469 227.761719 262.960938 227.675781 262.578125 227.554688 C 262.191406 227.429688 261.820312 227.269531 261.46875 227.074219 C 261.113281 226.875 260.78125 226.648438 260.472656 226.382812 C 260.164062 226.121094 259.886719 225.832031 259.632812 225.515625 C 259.382812 225.199219 259.167969 224.859375 258.980469 224.496094 C 258.796875 224.136719 258.652344 223.761719 258.542969 223.371094 C 258.433594 222.984375 258.359375 222.585938 258.328125 222.183594 C 258.296875 221.777344 258.308594 221.375 258.355469 220.972656 C 262.652344 183.121094 254.199219 154.207031 248.351562 151.714844 C 245.785156 150.625 233.894531 153.371094 215.277344 168.652344 C 205.800781 176.523438 197.214844 185.269531 189.523438 194.890625 C 181.832031 204.515625 175.191406 214.816406 169.601562 225.792969 C 169.347656 226.304688 169.027344 226.769531 168.640625 227.195312 C 168.257812 227.617188 167.820312 227.976562 167.335938 228.277344 C 166.851562 228.578125 166.332031 228.808594 165.78125 228.960938 C 165.234375 229.117188 164.671875 229.195312 164.101562 229.195312 Z M 164.101562 229.195312 " fill-opacity="1" fill-rule="nonzero"/><path fill="#e12c2c" d="M 197.207031 230.078125 C 196.945312 230.078125 196.6875 230.058594 196.433594 230.027344 C 196.175781 229.996094 195.921875 229.945312 195.667969 229.878906 C 195.417969 229.816406 195.171875 229.734375 194.933594 229.636719 C 194.691406 229.542969 194.457031 229.429688 194.230469 229.304688 C 194.003906 229.179688 193.789062 229.039062 193.578125 228.886719 C 193.371094 228.734375 193.171875 228.566406 192.984375 228.386719 C 192.796875 228.210938 192.621094 228.019531 192.457031 227.820312 C 192.292969 227.617188 192.140625 227.410156 192.003906 227.1875 C 191.867188 226.96875 191.746094 226.742188 191.636719 226.503906 C 191.527344 226.269531 191.433594 226.027344 191.355469 225.78125 C 191.277344 225.535156 191.21875 225.285156 191.171875 225.027344 C 191.125 224.773438 191.097656 224.515625 191.082031 224.257812 C 191.070312 224 191.070312 223.738281 191.089844 223.480469 C 191.109375 223.222656 191.144531 222.96875 191.199219 222.714844 C 191.25 222.460938 191.316406 222.210938 191.402344 221.964844 C 191.484375 221.71875 191.582031 221.480469 191.695312 221.246094 C 201.378906 201.21875 212.582031 182.085938 225.3125 163.84375 C 243.054688 138.84375 248.789062 138.558594 253.160156 140.421875 C 258.203125 142.570312 260.371094 148.277344 256.570312 171.089844 C 253.300781 189.371094 248.746094 207.328125 242.90625 224.957031 C 242.78125 225.34375 242.621094 225.710938 242.425781 226.0625 C 242.226562 226.414062 242 226.746094 241.738281 227.050781 C 241.476562 227.359375 241.1875 227.636719 240.867188 227.886719 C 240.550781 228.136719 240.214844 228.355469 239.855469 228.539062 C 239.496094 228.71875 239.121094 228.867188 238.734375 228.976562 C 238.34375 229.085938 237.949219 229.15625 237.546875 229.1875 C 237.144531 229.21875 236.746094 229.210938 236.34375 229.164062 C 235.941406 229.117188 235.550781 229.03125 235.167969 228.90625 C 234.785156 228.78125 234.417969 228.621094 234.0625 228.425781 C 233.710938 228.226562 233.382812 227.996094 233.078125 227.734375 C 232.769531 227.472656 232.492188 227.183594 232.242188 226.867188 C 231.992188 226.550781 231.777344 226.210938 231.59375 225.851562 C 231.410156 225.492188 231.265625 225.117188 231.15625 224.730469 C 231.046875 224.339844 230.976562 223.945312 230.945312 223.542969 C 230.914062 223.140625 230.925781 222.738281 230.972656 222.339844 C 231.019531 221.9375 231.105469 221.546875 231.230469 221.164062 C 240.589844 192.390625 245.042969 168.988281 246.035156 157.148438 C 236.851562 167.570312 219.457031 192.359375 202.726562 226.632812 C 202.472656 227.148438 202.152344 227.621094 201.769531 228.046875 C 201.382812 228.476562 200.949219 228.839844 200.460938 229.144531 C 199.972656 229.449219 199.453125 229.679688 198.898438 229.839844 C 198.34375 230 197.78125 230.078125 197.207031 230.078125 Z M 197.207031 230.078125 " fill-opacity="1" fill-rule="nonzero"/><path fill="#e12c2c" d="M 258.042969 160.417969 C 257.785156 160.417969 257.53125 160.402344 257.277344 160.371094 C 257.023438 160.339844 256.769531 160.292969 256.523438 160.226562 C 256.273438 160.164062 256.03125 160.085938 255.792969 159.992188 C 255.554688 159.898438 255.324219 159.789062 255.097656 159.667969 C 254.871094 159.542969 254.65625 159.40625 254.449219 159.257812 C 254.242188 159.105469 254.042969 158.945312 253.855469 158.769531 C 253.667969 158.59375 253.492188 158.410156 253.328125 158.210938 C 253.164062 158.015625 253.015625 157.808594 252.875 157.59375 C 252.738281 157.378906 252.613281 157.152344 252.503906 156.921875 C 252.394531 156.691406 252.296875 156.453125 252.21875 156.210938 C 252.136719 155.96875 252.070312 155.71875 252.023438 155.46875 C 251.972656 155.21875 251.9375 154.964844 251.921875 154.707031 C 251.902344 154.453125 251.902344 154.199219 251.917969 153.941406 C 251.929688 153.6875 251.960938 153.433594 252.007812 153.179688 C 252.050781 152.929688 252.113281 152.679688 252.191406 152.4375 C 252.269531 152.191406 252.359375 151.953125 252.46875 151.71875 L 310.113281 26.132812 C 310.308594 25.671875 310.457031 25.199219 310.558594 24.710938 C 310.660156 24.222656 310.714844 23.730469 310.71875 23.230469 C 310.722656 22.734375 310.679688 22.238281 310.585938 21.75 C 310.492188 21.257812 310.355469 20.78125 310.167969 20.320312 C 309.980469 19.859375 309.75 19.417969 309.476562 19 C 309.207031 18.582031 308.894531 18.195312 308.546875 17.839844 C 308.195312 17.484375 307.816406 17.164062 307.402344 16.882812 C 306.992188 16.601562 306.558594 16.363281 306.097656 16.167969 C 305.640625 15.972656 305.164062 15.824219 304.675781 15.722656 C 304.191406 15.621094 303.695312 15.566406 303.199219 15.5625 C 302.699219 15.558594 302.203125 15.601562 301.714844 15.691406 C 301.222656 15.785156 300.75 15.925781 300.285156 16.109375 C 299.824219 16.296875 299.382812 16.523438 298.964844 16.796875 C 298.546875 17.070312 298.160156 17.382812 297.804688 17.730469 C 297.449219 18.078125 297.128906 18.460938 296.847656 18.871094 C 296.566406 19.28125 296.328125 19.71875 296.132812 20.175781 L 245.5 148.75 C 245.351562 149.121094 245.164062 149.476562 244.945312 149.8125 C 244.726562 150.144531 244.476562 150.457031 244.195312 150.742188 C 243.914062 151.03125 243.609375 151.285156 243.28125 151.511719 C 242.949219 151.738281 242.601562 151.929688 242.230469 152.089844 C 241.863281 152.246094 241.484375 152.367188 241.09375 152.453125 C 240.699219 152.535156 240.304688 152.582031 239.902344 152.585938 C 239.503906 152.59375 239.105469 152.558594 238.710938 152.488281 C 238.316406 152.417969 237.933594 152.308594 237.5625 152.160156 C 237.1875 152.011719 236.832031 151.832031 236.496094 151.617188 C 236.160156 151.398438 235.847656 151.152344 235.558594 150.875 C 235.269531 150.597656 235.007812 150.292969 234.78125 149.964844 C 234.550781 149.636719 234.355469 149.289062 234.191406 148.921875 C 234.03125 148.554688 233.90625 148.175781 233.820312 147.785156 C 233.734375 147.394531 233.683594 147 233.675781 146.597656 C 233.664062 146.199219 233.695312 145.800781 233.761719 145.40625 C 233.832031 145.011719 233.9375 144.625 234.078125 144.253906 L 284.746094 15.582031 C 284.765625 15.527344 284.789062 15.476562 284.8125 15.425781 C 285.066406 14.828125 285.351562 14.246094 285.664062 13.675781 C 285.976562 13.101562 286.316406 12.550781 286.683594 12.011719 C 287.050781 11.476562 287.441406 10.957031 287.859375 10.457031 C 288.277344 9.960938 288.71875 9.484375 289.183594 9.027344 C 289.648438 8.574219 290.136719 8.140625 290.644531 7.734375 C 291.152344 7.324219 291.675781 6.945312 292.222656 6.589844 C 292.765625 6.234375 293.328125 5.902344 293.902344 5.601562 C 294.480469 5.300781 295.070312 5.03125 295.675781 4.789062 C 296.277344 4.546875 296.890625 4.332031 297.515625 4.148438 C 298.140625 3.96875 298.773438 3.816406 299.414062 3.695312 C 300.050781 3.574219 300.695312 3.488281 301.34375 3.429688 C 301.992188 3.371094 302.640625 3.347656 303.292969 3.351562 C 303.941406 3.359375 304.589844 3.398438 305.238281 3.46875 C 305.886719 3.539062 306.527344 3.640625 307.164062 3.773438 C 307.800781 3.90625 308.429688 4.070312 309.050781 4.265625 C 309.671875 4.460938 310.28125 4.6875 310.878906 4.941406 C 311.476562 5.195312 312.0625 5.480469 312.632812 5.792969 C 313.203125 6.105469 313.757812 6.445312 314.296875 6.8125 C 314.832031 7.179688 315.351562 7.570312 315.847656 7.988281 C 316.347656 8.40625 316.824219 8.847656 317.28125 9.3125 C 317.738281 9.777344 318.167969 10.261719 318.574219 10.769531 C 318.984375 11.277344 319.367188 11.800781 319.722656 12.347656 C 320.078125 12.890625 320.40625 13.453125 320.707031 14.027344 C 321.007812 14.605469 321.28125 15.195312 321.523438 15.800781 C 321.765625 16.402344 321.980469 17.015625 322.164062 17.640625 C 322.34375 18.265625 322.496094 18.898438 322.617188 19.535156 C 322.738281 20.175781 322.828125 20.820312 322.886719 21.46875 C 322.941406 22.117188 322.96875 22.765625 322.960938 23.417969 C 322.957031 24.066406 322.917969 24.714844 322.847656 25.363281 C 322.777344 26.007812 322.675781 26.652344 322.542969 27.289062 C 322.410156 27.925781 322.246094 28.554688 322.050781 29.175781 C 321.855469 29.796875 321.632812 30.40625 321.378906 31.003906 C 321.355469 31.054688 321.332031 31.109375 321.308594 31.15625 L 263.617188 156.832031 C 263.375 157.367188 263.058594 157.859375 262.675781 158.300781 C 262.289062 158.746094 261.851562 159.125 261.355469 159.445312 C 260.863281 159.761719 260.332031 160.003906 259.769531 160.171875 C 259.203125 160.335938 258.628906 160.417969 258.042969 160.417969 Z M 258.042969 160.417969 " fill-opacity="1" fill-rule="nonzero"/><g clip-path="url(#d2236e713b)"><path fill="#e12c2c" d="M 187.578125 374.265625 C 184.585938 374.261719 181.59375 374.183594 178.609375 374.035156 C 175.621094 373.886719 172.636719 373.664062 169.660156 373.367188 C 166.683594 373.070312 163.714844 372.703125 160.757812 372.261719 C 157.800781 371.820312 154.851562 371.304688 151.917969 370.71875 C 148.984375 370.132812 146.070312 369.476562 143.167969 368.746094 C 140.265625 368.015625 137.382812 367.21875 134.523438 366.347656 C 131.660156 365.476562 128.820312 364.535156 126.003906 363.527344 C 123.1875 362.519531 120.398438 361.441406 117.636719 360.292969 C 114.875 359.148438 112.140625 357.933594 109.4375 356.652344 C 106.734375 355.375 104.0625 354.027344 101.425781 352.617188 C 98.785156 351.203125 96.183594 349.730469 93.621094 348.191406 C 91.054688 346.652344 88.527344 345.050781 86.042969 343.390625 C 83.554688 341.726562 81.109375 340.003906 78.707031 338.222656 C 76.304688 336.4375 73.949219 334.597656 71.636719 332.699219 C 69.324219 330.800781 67.058594 328.847656 64.84375 326.839844 C 62.625 324.832031 60.460938 322.769531 58.34375 320.652344 C 56.230469 318.539062 54.167969 316.371094 52.160156 314.15625 C 50.148438 311.9375 48.195312 309.675781 46.296875 307.363281 C 44.398438 305.050781 42.558594 302.691406 40.777344 300.289062 C 38.996094 297.886719 37.273438 295.445312 35.609375 292.957031 C 33.945312 290.46875 32.347656 287.945312 30.808594 285.378906 C 29.269531 282.8125 27.792969 280.210938 26.382812 277.574219 C 24.972656 274.9375 23.625 272.265625 22.34375 269.5625 C 21.066406 266.859375 19.851562 264.125 18.703125 261.363281 C 17.558594 258.597656 16.480469 255.808594 15.472656 252.992188 C 14.460938 250.175781 13.523438 247.339844 12.652344 244.476562 C 11.78125 241.613281 10.980469 238.730469 10.253906 235.832031 C 9.523438 232.929688 8.867188 230.011719 8.28125 227.078125 C 7.695312 224.144531 7.179688 221.199219 6.738281 218.242188 C 6.296875 215.28125 5.929688 212.3125 5.632812 209.335938 C 5.335938 206.359375 5.113281 203.378906 4.964844 200.390625 C 4.8125 197.402344 4.738281 194.414062 4.734375 191.421875 C 4.734375 191.019531 4.773438 190.621094 4.851562 190.222656 C 4.929688 189.828125 5.046875 189.445312 5.199219 189.074219 C 5.355469 188.699219 5.542969 188.347656 5.769531 188.011719 C 5.992188 187.675781 6.246094 187.367188 6.53125 187.082031 C 6.816406 186.796875 7.125 186.542969 7.460938 186.320312 C 7.796875 186.09375 8.148438 185.90625 8.523438 185.75 C 8.894531 185.597656 9.277344 185.480469 9.671875 185.402344 C 10.070312 185.324219 10.46875 185.285156 10.871094 185.285156 C 11.273438 185.285156 11.671875 185.324219 12.066406 185.402344 C 12.464844 185.480469 12.847656 185.597656 13.21875 185.75 C 13.589844 185.90625 13.945312 186.09375 14.28125 186.320312 C 14.617188 186.542969 14.925781 186.796875 15.210938 187.082031 C 15.496094 187.367188 15.75 187.675781 15.972656 188.011719 C 16.199219 188.347656 16.386719 188.699219 16.539062 189.074219 C 16.695312 189.445312 16.8125 189.828125 16.890625 190.222656 C 16.96875 190.621094 17.007812 191.019531 17.007812 191.421875 C 17.007812 209.429688 81.898438 234.550781 187.578125 234.550781 C 293.253906 234.550781 358.144531 209.429688 358.144531 191.421875 C 358.144531 191.019531 358.183594 190.621094 358.261719 190.222656 C 358.34375 189.828125 358.457031 189.445312 358.613281 189.074219 C 358.765625 188.699219 358.957031 188.347656 359.179688 188.011719 C 359.402344 187.675781 359.65625 187.367188 359.941406 187.082031 C 360.226562 186.796875 360.539062 186.542969 360.871094 186.320312 C 361.207031 186.09375 361.5625 185.90625 361.933594 185.75 C 362.304688 185.597656 362.691406 185.480469 363.085938 185.402344 C 363.480469 185.324219 363.878906 185.285156 364.28125 185.285156 C 364.6875 185.285156 365.085938 185.324219 365.480469 185.402344 C 365.875 185.480469 366.257812 185.597656 366.632812 185.75 C 367.003906 185.90625 367.355469 186.09375 367.691406 186.320312 C 368.027344 186.542969 368.335938 186.796875 368.621094 187.082031 C 368.90625 187.367188 369.160156 187.675781 369.386719 188.011719 C 369.609375 188.347656 369.796875 188.699219 369.953125 189.074219 C 370.105469 189.445312 370.222656 189.828125 370.300781 190.222656 C 370.378906 190.621094 370.417969 191.019531 370.417969 191.421875 C 370.417969 194.414062 370.339844 197.402344 370.191406 200.390625 C 370.039062 203.378906 369.816406 206.359375 369.519531 209.335938 C 369.226562 212.3125 368.855469 215.28125 368.414062 218.242188 C 367.972656 221.199219 367.460938 224.144531 366.875 227.078125 C 366.289062 230.011719 365.628906 232.929688 364.902344 235.832031 C 364.171875 238.730469 363.371094 241.613281 362.503906 244.476562 C 361.632812 247.339844 360.691406 250.175781 359.683594 252.992188 C 358.671875 255.808594 357.59375 258.597656 356.449219 261.363281 C 355.300781 264.125 354.089844 266.859375 352.808594 269.5625 C 351.527344 272.265625 350.183594 274.9375 348.769531 277.574219 C 347.359375 280.210938 345.886719 282.8125 344.347656 285.378906 C 342.808594 287.945312 341.207031 290.46875 339.542969 292.957031 C 337.882812 295.445312 336.160156 297.886719 334.375 300.289062 C 332.59375 302.691406 330.753906 305.050781 328.855469 307.363281 C 326.957031 309.675781 325.003906 311.9375 322.996094 314.15625 C 320.984375 316.371094 318.921875 318.539062 316.808594 320.652344 C 314.691406 322.769531 312.527344 324.832031 310.308594 326.839844 C 308.09375 328.847656 305.828125 330.800781 303.519531 332.699219 C 301.207031 334.597656 298.847656 336.4375 296.445312 338.222656 C 294.042969 340.003906 291.597656 341.726562 289.113281 343.390625 C 286.625 345.050781 284.097656 346.652344 281.535156 348.191406 C 278.96875 349.730469 276.367188 351.203125 273.730469 352.617188 C 271.089844 354.027344 268.421875 355.375 265.71875 356.652344 C 263.011719 357.933594 260.28125 359.148438 257.515625 360.292969 C 254.753906 361.441406 251.964844 362.519531 249.148438 363.527344 C 246.332031 364.535156 243.492188 365.476562 240.632812 366.347656 C 237.769531 367.21875 234.886719 368.015625 231.984375 368.746094 C 229.085938 369.476562 226.167969 370.132812 223.234375 370.71875 C 220.300781 371.304688 217.355469 371.820312 214.394531 372.261719 C 211.4375 372.703125 208.46875 373.070312 205.492188 373.367188 C 202.515625 373.664062 199.53125 373.886719 196.546875 374.035156 C 193.558594 374.183594 190.566406 374.261719 187.578125 374.265625 Z M 18.4375 213.566406 C 18.769531 216.105469 19.160156 218.632812 19.605469 221.15625 C 20.054688 223.675781 20.554688 226.1875 21.117188 228.683594 C 21.675781 231.183594 22.289062 233.667969 22.960938 236.136719 C 23.632812 238.609375 24.359375 241.0625 25.140625 243.5 C 25.921875 245.9375 26.757812 248.355469 27.648438 250.757812 C 28.539062 253.15625 29.484375 255.535156 30.484375 257.894531 C 31.480469 260.25 32.53125 262.585938 33.632812 264.894531 C 34.738281 267.207031 35.890625 269.492188 37.097656 271.75 C 38.300781 274.007812 39.558594 276.238281 40.863281 278.4375 C 42.171875 280.640625 43.527344 282.8125 44.929688 284.953125 C 46.332031 287.09375 47.785156 289.203125 49.285156 291.277344 C 50.78125 293.355469 52.328125 295.394531 53.917969 297.398438 C 55.507812 299.40625 57.144531 301.375 58.824219 303.308594 C 60.503906 305.238281 62.226562 307.132812 63.988281 308.988281 C 65.753906 310.84375 67.558594 312.65625 69.40625 314.429688 C 71.253906 316.203125 73.136719 317.933594 75.0625 319.625 C 76.988281 321.3125 78.949219 322.957031 80.945312 324.558594 C 82.945312 326.15625 84.976562 327.710938 87.046875 329.222656 C 89.113281 330.730469 91.214844 332.191406 93.351562 333.605469 C 95.484375 335.019531 97.648438 336.386719 99.84375 337.703125 C 102.039062 339.019531 104.265625 340.285156 106.515625 341.5 C 108.769531 342.71875 111.046875 343.882812 113.351562 344.996094 C 115.65625 346.109375 117.988281 347.171875 120.339844 348.183594 C 122.691406 349.191406 125.066406 350.148438 127.464844 351.050781 C 129.859375 351.949219 132.273438 352.796875 134.707031 353.59375 C 137.140625 354.386719 139.59375 355.125 142.058594 355.808594 C 144.527344 356.492188 147.007812 357.117188 149.503906 357.6875 C 152 358.261719 154.507812 358.773438 157.027344 359.234375 C 159.542969 359.691406 162.074219 360.09375 164.609375 360.4375 C 167.144531 360.78125 169.6875 361.070312 172.238281 361.300781 C 174.789062 361.53125 177.34375 361.703125 179.898438 361.820312 C 182.457031 361.933594 185.015625 361.992188 187.578125 361.992188 C 190.136719 361.992188 192.695312 361.933594 195.253906 361.820312 C 197.8125 361.703125 200.363281 361.53125 202.914062 361.300781 C 205.464844 361.070312 208.007812 360.78125 210.542969 360.4375 C 213.082031 360.09375 215.609375 359.691406 218.128906 359.234375 C 220.644531 358.773438 223.152344 358.261719 225.648438 357.6875 C 228.144531 357.117188 230.625 356.492188 233.09375 355.808594 C 235.558594 355.125 238.011719 354.386719 240.445312 353.59375 C 242.878906 352.796875 245.292969 351.949219 247.691406 351.050781 C 250.085938 350.148438 252.460938 349.191406 254.8125 348.183594 C 257.167969 347.171875 259.496094 346.109375 261.800781 344.996094 C 264.105469 343.882812 266.382812 342.71875 268.636719 341.5 C 270.890625 340.285156 273.113281 339.019531 275.308594 337.703125 C 277.503906 336.386719 279.667969 335.019531 281.804688 333.605469 C 283.9375 332.191406 286.039062 330.730469 288.105469 329.222656 C 290.175781 327.710938 292.207031 326.15625 294.207031 324.558594 C 296.207031 322.957031 298.167969 321.3125 300.089844 319.625 C 302.015625 317.933594 303.902344 316.203125 305.746094 314.429688 C 307.59375 312.65625 309.398438 310.84375 311.164062 308.988281 C 312.929688 307.132812 314.648438 305.238281 316.328125 303.308594 C 318.007812 301.375 319.644531 299.40625 321.234375 297.398438 C 322.824219 295.394531 324.371094 293.355469 325.871094 291.277344 C 327.367188 289.203125 328.820312 287.09375 330.222656 284.953125 C 331.628906 282.8125 332.984375 280.640625 334.289062 278.4375 C 335.59375 276.238281 336.851562 274.007812 338.054688 271.75 C 339.261719 269.492188 340.417969 267.207031 341.519531 264.894531 C 342.621094 262.585938 343.671875 260.25 344.671875 257.894531 C 345.667969 255.535156 346.613281 253.15625 347.503906 250.757812 C 348.394531 248.355469 349.230469 245.9375 350.011719 243.5 C 350.792969 241.0625 351.519531 238.609375 352.191406 236.136719 C 352.863281 233.667969 353.480469 231.183594 354.039062 228.683594 C 354.597656 226.1875 355.101562 223.675781 355.546875 221.15625 C 355.992188 218.632812 356.382812 216.105469 356.714844 213.566406 C 327.429688 235.304688 255.851562 246.828125 187.578125 246.828125 C 119.300781 246.828125 47.722656 235.304688 18.4375 213.566406 Z M 18.4375 213.566406 " fill-opacity="1" fill-rule="nonzero"/></g></svg>