<svg xmlns="http://www.w3.org/2000/svg" xmlns:xlink="http://www.w3.org/1999/xlink" width="500" zoomAndPan="magnify" viewBox="0 0 375 374.999991" height="500" preserveAspectRatio="xMidYMid meet" version="1.0"><path fill="#ffcec8" d="M 358.722656 25.816406 C 346.5625 22.09375 319.6875 37.847656 308.863281 41.785156 C 288.621094 49.148438 268.71875 57.050781 249.3125 66.40625 C 248.25 67.078125 247.304688 67.886719 246.480469 68.835938 C 243.179688 71.625 242.355469 73.796875 241.546875 77.144531 C 234.140625 79.265625 227.375 82.667969 221.257812 87.347656 C 220.421875 87.992188 219.117188 88.664062 218.351562 89.496094 C 211.964844 88.726562 206.550781 89.261719 202.636719 89.394531 C 174.839844 90.351562 147.046875 92.640625 120.128906 99.933594 C 96.199219 105.5625 73.082031 111.859375 50.195312 120.902344 C 36.710938 126.226562 8.945312 132.820312 2.183594 146.957031 C 0.335938 150.820312 0.191406 153.871094 1.277344 156.304688 C 1.28125 156.3125 1.277344 156.316406 1.28125 156.324219 C 1.347656 156.5 1.425781 156.667969 1.492188 156.839844 C 1.523438 156.90625 1.535156 156.980469 1.570312 157.046875 C 10.667969 181.1875 24.753906 202.230469 49.410156 212.519531 C 77.113281 224.082031 108.449219 215.035156 135.96875 207.484375 C 160.660156 200.707031 197.546875 194.488281 216.246094 174.878906 C 232.84375 157.46875 238.410156 128.832031 237.0625 105.210938 C 241.710938 102.039062 246.714844 99.609375 252.078125 97.921875 C 252.277344 97.832031 252.46875 97.726562 252.652344 97.605469 C 256.152344 99.128906 259.800781 99.679688 263.597656 99.257812 C 281.371094 97.378906 299.886719 83.738281 316.539062 77.5 C 331.78125 71.792969 348.9375 66.648438 362.894531 58.007812 C 374.808594 50.636719 373.910156 30.464844 358.722656 25.816406 Z M 242.21875 86.792969 C 242.734375 88.203125 243.410156 89.53125 244.25 90.773438 C 240.6875 92.210938 237.28125 93.949219 234.027344 95.992188 C 232.960938 94.566406 231.640625 93.4375 230.066406 92.605469 C 233.875 90.15625 237.921875 88.21875 242.21875 86.792969 Z M 15.757812 147.121094 C 19.03125 142.285156 31.585938 138.726562 36.769531 136.460938 C 64.671875 124.265625 93.050781 115.941406 122.625 108.988281 C 140.894531 104.039062 159.351562 101.519531 178.203125 100.167969 C 186.097656 99.601562 213.484375 95.964844 218.738281 99.171875 C 224.609375 104.796875 213.574219 111.875 205.8125 114.800781 C 189.015625 123.082031 171.847656 126.4375 155.046875 130.953125 C 136.738281 135.875 118.328125 140.386719 99.820312 144.480469 C 78.492188 149.242188 56.484375 154.890625 34.558594 155.257812 C 27.765625 155.371094 7.660156 159.066406 15.757812 147.121094 Z M 209.605469 168.238281 C 194.113281 184.695312 162.65625 190.039062 141.835938 196.066406 C 118.175781 202.917969 91.007812 211.941406 66.3125 207.390625 C 40.941406 202.710938 24.570312 185.34375 14.320312 163.378906 C 41.238281 167.863281 98.921875 154.304688 106.320312 152.636719 C 120.769531 149.375 201.832031 136.273438 227.816406 115.128906 C 227.25 134.089844 222.136719 154.933594 209.605469 168.238281 Z M 360.234375 48.617188 C 353.859375 59.101562 321.441406 65.628906 310.839844 69.636719 C 304.066406 72.203125 297.3125 74.820312 290.652344 77.683594 C 284.421875 80.359375 277.777344 84.585938 271.3125 86.632812 C 266.632812 88.636719 264.546875 89.648438 259.59375 88.726562 C 250.960938 86.914062 248.804688 78.023438 254.050781 74.515625 C 275.144531 64.347656 296.871094 56.332031 318.769531 48.164062 C 327.902344 44.753906 337.121094 39.683594 346.640625 37.636719 C 353.757812 36.105469 367.027344 37.457031 360.234375 48.617188 Z M 360.234375 48.617188 " fill-opacity="1" fill-rule="nonzero"/><path fill="#ffcec8" d="M 82.632812 92.535156 C 67.636719 75.882812 90.835938 64.746094 95.59375 50.636719 C 98.613281 41.683594 95.066406 33.128906 86.046875 30.0625 C 80.3125 28.113281 77.851562 37.179688 83.550781 39.117188 C 95.269531 43.101562 78.351562 58.417969 75.492188 62.097656 C 72.667969 65.742188 70.472656 69.726562 69.429688 74.261719 C 67.308594 83.507812 69.726562 92.21875 75.992188 99.175781 C 80.046875 103.671875 86.671875 97.015625 82.632812 92.535156 Z M 82.632812 92.535156 " fill-opacity="1" fill-rule="nonzero"/><path fill="#ffcec8" d="M 102.90625 11.398438 C 123.328125 24.585938 112.851562 40.921875 105.65625 58.808594 C 102.519531 66.605469 102.890625 74.046875 109.152344 80.011719 C 113.527344 84.179688 120.179688 77.550781 115.792969 73.371094 C 109.160156 67.058594 120.425781 51.742188 122.605469 44.839844 C 124.554688 38.679688 125.585938 31.710938 124.511719 25.277344 C 122.820312 15.140625 115.917969 8.632812 107.644531 3.289062 C 102.554688 0 97.839844 8.125 102.90625 11.398438 Z M 102.90625 11.398438 " fill-opacity="1" fill-rule="nonzero"/><path fill="#ffcec8" d="M 136.484375 70.058594 C 137.550781 78.03125 142.335938 83.101562 150.101562 84.835938 C 155.988281 86.152344 158.503906 77.101562 152.601562 75.78125 C 139.875 72.941406 148.257812 60.253906 151.488281 52.996094 C 153.914062 47.546875 153.855469 42.316406 151.765625 36.796875 C 149.644531 31.199219 140.566406 33.625 142.710938 39.292969 C 146.753906 49.96875 134.972656 58.707031 136.484375 70.058594 Z M 136.484375 70.058594 " fill-opacity="1" fill-rule="nonzero"/></svg>