<svg xmlns="http://www.w3.org/2000/svg" xmlns:xlink="http://www.w3.org/1999/xlink" width="500" zoomAndPan="magnify" viewBox="0 0 375 374.999991" height="500" preserveAspectRatio="xMidYMid meet" version="1.0"><defs><clipPath id="1953fac7b2"><path d="M 1 63 L 375 63 L 375 300.75 L 1 300.75 Z M 1 63 " clip-rule="nonzero"/></clipPath></defs><g clip-path="url(#1953fac7b2)"><path fill="#e12c2c" d="M 13.828125 227.308594 C 13.023438 224.996094 14.355469 221.46875 17.457031 217.332031 C 21.210938 224.25 25.847656 229.949219 31.261719 234.328125 C 28.453125 234.046875 25.902344 233.636719 23.667969 233.09375 C 18.160156 231.757812 14.667969 229.707031 13.832031 227.316406 C 13.832031 227.3125 13.832031 227.3125 13.828125 227.308594 Z M 19.855469 175.410156 C 20.449219 174.808594 21.242188 174.480469 22.089844 174.480469 C 30.238281 174.480469 36.867188 167.851562 36.867188 159.703125 L 36.867188 118.570312 C 36.867188 114.121094 40.484375 110.503906 44.929688 110.503906 C 47.160156 110.503906 49.234375 111.394531 50.765625 113.003906 C 52.308594 114.625 53.097656 116.746094 52.988281 118.984375 C 52.15625 135.878906 53.019531 160.742188 61.863281 183.210938 C 66.953125 196.152344 74.15625 206.796875 83.269531 214.855469 C 88.429688 219.421875 94.226562 223.160156 100.601562 226.074219 C 84.175781 230.175781 75.335938 231.664062 60.125 233.613281 L 55.269531 232.71875 C 42.28125 230.554688 32.414062 222.347656 25.945312 208.328125 C 19.238281 193.78125 18.953125 179.246094 18.945312 177.636719 C 18.941406 176.792969 19.261719 176.003906 19.855469 175.410156 Z M 108.007812 178.203125 L 116.941406 170.757812 C 114.667969 168.027344 112.800781 165.34375 111.269531 162.71875 C 114.042969 161.695312 116.839844 160.691406 119.632812 159.722656 C 151.4375 148.65625 182.441406 141.640625 206.933594 139.957031 C 218.324219 139.175781 227.929688 139.636719 234.707031 141.277344 C 240.21875 142.613281 243.710938 144.667969 244.542969 147.0625 C 245.375 149.457031 243.914062 153.234375 240.417969 157.703125 C 238.679688 159.929688 236.445312 162.292969 233.78125 164.746094 C 234.320312 159.851562 232.757812 154.9375 229.480469 151.253906 C 226.171875 147.53125 221.417969 145.398438 216.382812 145.398438 C 207.699219 145.398438 200.265625 151.917969 199.089844 160.558594 C 196.136719 182.304688 183.28125 194.976562 179.695312 198.128906 C 167.023438 204.03125 153.207031 209.621094 138.738281 214.652344 C 132.808594 216.714844 126.902344 218.636719 121.0625 220.410156 C 98.085938 215.976562 81.835938 202.089844 72.738281 179.082031 C 81.414062 174.851562 90.652344 170.78125 100.28125 166.941406 C 102.285156 170.617188 104.820312 174.382812 108.007812 178.203125 Z M 266.597656 116.320312 C 271.40625 116.320312 275.320312 120.234375 275.320312 125.042969 C 275.320312 127.847656 273.988281 130.335938 271.929688 131.9375 L 268.726562 133.496094 C 268.042969 133.664062 267.332031 133.769531 266.597656 133.769531 C 266.242188 133.769531 265.894531 133.738281 265.550781 133.699219 L 266.914062 132.789062 C 269.585938 131.011719 270.308594 127.398438 268.527344 124.726562 C 266.746094 122.054688 263.136719 121.332031 260.464844 123.113281 L 257.886719 124.832031 C 258 120.121094 261.859375 116.320312 266.597656 116.320312 Z M 353.003906 76.117188 C 355.855469 74.839844 359.183594 76.027344 360.582031 78.824219 L 361.945312 81.550781 C 362.648438 82.953125 362.753906 84.546875 362.246094 86.03125 C 361.738281 87.519531 360.679688 88.710938 359.234375 89.40625 L 286.941406 124.621094 C 286.820312 118.589844 284.066406 113.203125 279.78125 109.550781 Z M 222.21875 163.523438 C 220.992188 173.949219 218.949219 176.097656 218.867188 176.183594 L 218.980469 176.296875 C 214.164062 179.574219 208.882812 182.847656 203.199219 186.070312 C 206.507812 179.542969 209.335938 171.566406 210.617188 162.125 C 211.011719 159.222656 213.488281 157.03125 216.441406 157.03125 C 218.125 157.03125 219.667969 157.726562 220.789062 158.984375 C 221.90625 160.242188 222.414062 161.855469 222.21875 163.523438 Z M 161.667969 280.570312 C 130.65625 291.359375 98.117188 291.640625 70.050781 281.363281 C 49.316406 273.773438 32.898438 261.074219 22.355469 244.773438 C 27.546875 245.875 33.699219 246.433594 40.824219 246.433594 C 44.386719 246.433594 48.195312 246.292969 52.238281 246.015625 C 72.289062 244.640625 96.421875 239.855469 121.75 232.339844 C 122.261719 232.417969 136.125 227.875 142.5625 225.636719 C 157.804688 220.335938 172.367188 214.421875 185.710938 208.15625 C 185.710938 208.15625 185.710938 208.15625 186.007812 208.019531 C 201.222656 200.855469 214.839844 193.242188 226.035156 185.5625 C 236.050781 178.695312 243.597656 172.191406 248.671875 166.066406 C 253.046875 212.515625 217.570312 261.125 161.667969 280.570312 Z M 66.054688 292.289062 C 81.011719 297.765625 97.101562 300.5 113.5625 300.5 C 130.757812 300.5 148.355469 297.515625 165.492188 291.554688 C 199.035156 279.890625 226.886719 258.179688 243.914062 230.421875 C 261.175781 202.289062 265.300781 171.332031 255.53125 143.238281 C 255.34375 142.699219 255.117188 142.179688 254.875 141.671875 C 258.191406 144.015625 262.234375 145.398438 266.597656 145.398438 C 268.464844 145.398438 270.265625 145.140625 271.984375 144.671875 L 364.300781 99.878906 C 368.546875 97.835938 371.726562 94.257812 373.25 89.796875 C 374.777344 85.339844 374.453125 80.5625 372.351562 76.347656 L 370.988281 73.621094 C 366.792969 65.234375 356.804688 61.671875 348.207031 65.519531 L 261.273438 105.214844 C 252.585938 107.535156 246.242188 115.636719 246.242188 125.042969 C 246.242188 127.417969 246.652344 129.699219 247.40625 131.816406 L 245.695312 132.957031 C 222.871094 121.542969 167.527344 130.746094 115.8125 148.734375 C 112.773438 149.789062 109.734375 150.882812 106.722656 152 C 101.007812 130.828125 115.796875 115.417969 116.601562 114.601562 L 108.363281 106.390625 C 108.023438 106.730469 100.03125 114.820312 96.015625 127.671875 C 93.699219 135.089844 92.453125 144.992188 95.785156 156.214844 C 86.480469 159.929688 77.53125 163.859375 69.074219 167.941406 C 64.382812 150.515625 63.964844 132.542969 64.605469 119.554688 C 64.871094 114.109375 62.949219 108.933594 59.191406 104.984375 C 55.441406 101.042969 50.375 98.871094 44.929688 98.871094 C 34.070312 98.871094 25.234375 107.710938 25.234375 118.570312 L 25.234375 159.703125 C 25.234375 161.4375 23.824219 162.847656 22.089844 162.847656 C 18.121094 162.847656 14.398438 164.398438 11.601562 167.210938 C 8.8125 170.019531 7.289062 173.746094 7.3125 177.707031 C 7.355469 184.4375 8.742188 194.964844 12.300781 205.421875 C 3.402344 214.949219 0.21875 223.585938 2.84375 231.132812 C 12.613281 259.21875 35.0625 280.941406 66.054688 292.289062 " fill-opacity="1" fill-rule="nonzero"/></g><path fill="#e12c2c" d="M 54.3125 63.976562 C 51.109375 63.976562 48.496094 61.367188 48.496094 58.160156 C 48.496094 54.953125 51.109375 52.34375 54.3125 52.34375 C 57.519531 52.34375 60.128906 54.953125 60.128906 58.160156 C 60.128906 61.367188 57.519531 63.976562 54.3125 63.976562 Z M 54.3125 40.710938 C 44.691406 40.710938 36.867188 48.539062 36.867188 58.160156 C 36.867188 67.78125 44.691406 75.609375 54.3125 75.609375 C 63.933594 75.609375 71.761719 67.78125 71.761719 58.160156 C 71.761719 48.539062 63.933594 40.710938 54.3125 40.710938 " fill-opacity="1" fill-rule="nonzero"/><path fill="#e12c2c" d="M 89.210938 17.449219 C 89.210938 14.242188 91.820312 11.632812 95.027344 11.632812 C 98.230469 11.632812 100.839844 14.242188 100.839844 17.449219 C 100.839844 20.652344 98.230469 23.265625 95.027344 23.265625 C 91.820312 23.265625 89.210938 20.652344 89.210938 17.449219 Z M 112.472656 17.449219 C 112.472656 7.828125 104.648438 0 95.027344 0 C 85.40625 0 77.578125 7.828125 77.578125 17.449219 C 77.578125 27.070312 85.40625 34.894531 95.027344 34.894531 C 104.648438 34.894531 112.472656 27.070312 112.472656 17.449219 " fill-opacity="1" fill-rule="nonzero"/><path fill="#e12c2c" d="M 89.210938 81.425781 L 77.578125 81.425781 L 77.578125 93.054688 L 89.210938 93.054688 L 89.210938 81.425781 " fill-opacity="1" fill-rule="nonzero"/><path fill="#e12c2c" d="M 83.394531 133.769531 L 71.761719 133.769531 L 71.761719 145.398438 L 83.394531 145.398438 L 83.394531 133.769531 " fill-opacity="1" fill-rule="nonzero"/><path fill="#e12c2c" d="M 118.289062 186.113281 L 106.65625 186.113281 L 106.65625 197.742188 L 118.289062 197.742188 L 118.289062 186.113281 " fill-opacity="1" fill-rule="nonzero"/><path fill="#e12c2c" d="M 13.601562 87.238281 L 25.234375 87.238281 L 25.234375 75.609375 L 13.601562 75.609375 L 13.601562 87.238281 " fill-opacity="1" fill-rule="nonzero"/><path fill="#e12c2c" d="M 62.71875 231.664062 L 69.171875 221.984375 C 54.957031 212.507812 54.332031 203.777344 54.3125 203.410156 C 54.316406 203.507812 54.3125 203.558594 54.3125 203.558594 L 42.683594 203.558594 C 42.683594 205.066406 43.242188 218.679688 62.71875 231.664062 " fill-opacity="1" fill-rule="nonzero"/><path fill="#e12c2c" d="M 120.097656 55.023438 C 124.09375 48.992188 128.183594 44.859375 128.222656 44.820312 L 119.992188 36.601562 C 119.210938 37.378906 100.839844 55.976562 100.839844 75.609375 L 112.472656 75.609375 C 112.472656 69.679688 115.113281 62.558594 120.097656 55.023438 " fill-opacity="1" fill-rule="nonzero"/></svg>