<svg xmlns="http://www.w3.org/2000/svg" xmlns:xlink="http://www.w3.org/1999/xlink" width="500" zoomAndPan="magnify" viewBox="0 0 375 374.999991" height="500" preserveAspectRatio="xMidYMid meet" version="1.0"><path fill="#e12c2c" d="M 25 62.5 L 25 37.5 C 25 23.714844 36.214844 12.5 50 12.5 L 190.824219 12.5 C 184.871094 19.136719 181.25 27.90625 181.25 37.5 L 181.25 62.5 C 181.25 67.050781 182.46875 71.320312 184.605469 75 L 37.5 75 C 30.605469 75 25 69.390625 25 62.5 Z M 218.75 50 L 218.75 62.5 C 218.75 69.390625 213.140625 75 206.25 75 C 199.359375 75 193.75 69.390625 193.75 62.5 L 193.75 50 Z M 14.8125 297.410156 C 13.277344 294.035156 12.5 290.449219 12.5 286.738281 L 12.5 279.132812 C 12.5 213.929688 22.742188 149.476562 42.933594 87.5 L 179.792969 87.5 C 174.046875 105.535156 169.078125 123.960938 164.988281 142.394531 L 177.191406 145.105469 C 181.488281 125.738281 186.785156 106.382812 192.933594 87.5 L 206.25 87.5 C 220.035156 87.5 231.25 76.285156 231.25 62.5 L 231.25 43.75 C 231.25 40.296875 228.453125 37.5 225 37.5 L 193.75 37.5 C 193.75 23.714844 204.964844 12.5 218.75 12.5 L 219.882812 12.5 C 231.125 12.5 241.042969 20.074219 244 30.921875 L 253.199219 64.644531 C 255.378906 72.640625 257.429688 80.800781 259.289062 88.902344 L 271.472656 86.097656 C 269.574219 77.839844 267.484375 69.515625 265.253906 61.355469 L 256.0625 27.632812 C 251.625 11.363281 236.746094 0 219.882812 0 L 50 0 C 29.320312 0 12.5 16.820312 12.5 37.5 L 12.5 62.5 C 12.5 73.726562 19.9375 83.246094 30.144531 86.394531 C 10.140625 148.769531 0 213.582031 0 279.132812 L 0 286.738281 C 0 292.246094 1.15625 297.578125 3.4375 302.585938 L 14.8125 297.410156 " fill-opacity="1" fill-rule="nonzero"/><path fill="#e12c2c" d="M 313.921875 166.007812 L 311.078125 178.179688 C 349.03125 187.058594 362.5 198.847656 362.5 206.25 C 362.5 212.613281 353.464844 220 336.765625 226.523438 C 333.851562 217.222656 322.109375 209.539062 301.738281 203.632812 L 298.261719 215.636719 C 315.617188 220.671875 324.042969 226.75 324.917969 230.597656 C 300.085938 238.152344 263.824219 243.75 218.75 243.75 C 173.679688 243.75 137.421875 238.15625 112.59375 230.601562 C 113.179688 228.207031 116.941406 224.320312 126.121094 220.289062 C 136.652344 215.664062 151.6875 211.910156 169.605469 209.4375 L 167.894531 197.058594 C 148.851562 199.6875 132.667969 203.761719 121.097656 208.84375 C 109.691406 213.847656 102.871094 219.78125 100.730469 226.523438 C 84.03125 220 75 212.613281 75 206.25 C 75 203.617188 77.148438 194.253906 104.777344 184.421875 C 125.828125 176.933594 155.339844 171.699219 187.882812 169.691406 L 187.117188 157.210938 C 153.4375 159.292969 122.707031 164.773438 100.589844 172.644531 C 69.105469 183.847656 62.5 197.105469 62.5 206.25 C 62.5 219.46875 64.929688 232.417969 69.71875 244.742188 L 82.371094 277.265625 L 94.019531 272.734375 L 81.371094 240.210938 C 79.933594 236.515625 78.746094 232.761719 77.792969 228.953125 C 84.242188 233.261719 92.695312 237.199219 103.0625 240.707031 C 108.179688 248.164062 119.707031 254.417969 137.527344 259.367188 C 159.304688 265.417969 188.148438 268.75 218.75 268.75 C 249.351562 268.75 278.195312 265.417969 299.972656 259.367188 C 317.792969 254.417969 329.320312 248.164062 334.4375 240.707031 C 344.804688 237.199219 353.257812 233.261719 359.707031 228.953125 C 358.753906 232.761719 357.566406 236.515625 356.128906 240.210938 L 334.671875 295.390625 C 332.632812 300.632812 329.832031 305.519531 326.351562 309.917969 L 336.148438 317.679688 C 340.410156 312.300781 343.828125 306.328125 346.320312 299.917969 L 367.78125 244.742188 C 372.570312 232.417969 375 219.46875 375 206.25 C 375 183.664062 336.734375 171.34375 313.921875 166.007812 " fill-opacity="1" fill-rule="nonzero"/><path fill="#e12c2c" d="M 277.410156 118.835938 L 327.15625 37.429688 C 329.40625 33.75 333.363281 31.710938 337.40625 31.710938 C 339.5 31.710938 341.617188 32.257812 343.535156 33.40625 C 346.289062 35.0625 348.230469 37.691406 349 40.816406 C 349.765625 43.9375 349.265625 47.171875 347.589844 49.914062 L 297.84375 131.320312 C 294.425781 136.90625 287.082031 138.710938 281.464844 135.34375 C 278.710938 133.6875 276.769531 131.058594 276 127.933594 C 275.234375 124.8125 275.734375 121.578125 277.410156 118.835938 Z M 264.308594 117.636719 C 233.796875 128.660156 208.167969 151.386719 193.644531 180.449219 L 175.660156 216.410156 L 186.839844 221.996094 L 204.824219 186.035156 C 217.179688 161.308594 238.457031 141.667969 263.933594 131.175781 C 264.25 132.40625 264.65625 133.597656 265.144531 134.742188 C 247.90625 149.253906 232.414062 169.039062 221.175781 191.015625 L 202.78125 226.757812 L 213.890625 232.476562 L 232.300781 196.71875 C 242.726562 176.324219 257.011719 158.015625 272.859375 144.589844 C 273.554688 145.113281 274.28125 145.605469 275.035156 146.058594 C 275.875 146.566406 276.738281 147 277.617188 147.394531 C 275.113281 152.078125 272.496094 156.96875 269.789062 162.019531 C 262.972656 174.742188 255.921875 187.898438 248.722656 201.585938 L 234.546875 228.324219 L 245.589844 234.175781 L 259.773438 207.425781 C 266.964844 193.761719 274.003906 180.625 280.808594 167.921875 C 284.035156 161.894531 287.144531 156.09375 290.074219 150.597656 C 291.328125 172.039062 286.609375 193.203125 276.261719 212.164062 L 267.488281 228.257812 L 278.460938 234.242188 L 287.238281 218.148438 C 299.535156 195.613281 304.679688 170.265625 302.164062 144.746094 C 304.640625 142.921875 306.8125 140.609375 308.507812 137.839844 L 358.253906 56.433594 C 361.683594 50.824219 362.707031 44.21875 361.140625 37.835938 C 359.570312 31.453125 355.601562 26.070312 349.964844 22.691406 C 338.484375 15.804688 323.472656 19.492188 316.492188 30.910156 L 266.746094 112.316406 C 265.710938 114.011719 264.898438 115.792969 264.308594 117.636719 " fill-opacity="1" fill-rule="nonzero"/><path fill="#e12c2c" d="M 295.398438 342.125 C 295.0625 342.125 294.71875 342.109375 294.394531 342.082031 L 292.449219 341.902344 C 293.308594 338.460938 293.75 334.890625 293.75 331.25 C 293.75 327.574219 293.289062 324.007812 292.429688 320.597656 L 294.390625 320.417969 C 297.472656 320.144531 300.425781 321.136719 302.710938 323.222656 C 304.992188 325.308594 306.25 328.160156 306.25 331.25 C 306.25 337.246094 301.382812 342.125 295.398438 342.125 Z M 272.09375 353.347656 C 266.199219 359.25 258.351562 362.5 250 362.5 L 99.324219 362.5 C 107.445312 354.554688 112.5 343.480469 112.5 331.25 C 112.5 319.019531 107.445312 307.945312 99.324219 300 L 250 300 C 267.230469 300 281.25 314.019531 281.25 331.25 C 281.25 339.601562 278 347.449219 272.09375 353.347656 Z M 46.03125 352.65625 L 63.117188 351.105469 C 73.457031 350.164062 81.25 341.628906 81.25 331.25 C 81.25 320.871094 73.457031 312.335938 63.117188 311.394531 L 45.996094 309.839844 C 46.214844 309.605469 46.433594 309.378906 46.65625 309.152344 C 52.550781 303.25 60.398438 300 68.75 300 C 85.980469 300 100 314.019531 100 331.25 C 100 348.480469 85.980469 362.5 68.75 362.5 C 60.066406 362.5 51.863281 358.808594 46.03125 352.65625 Z M 24.355469 342.078125 C 21.277344 342.363281 18.324219 341.363281 16.039062 339.277344 C 13.757812 337.195312 12.5 334.339844 12.5 331.25 C 12.5 328.160156 13.757812 325.304688 16.039062 323.222656 C 18.074219 321.367188 20.628906 320.375 23.339844 320.375 C 23.675781 320.375 24.015625 320.390625 24.355469 320.421875 L 61.984375 323.84375 C 65.839844 324.195312 68.75 327.378906 68.75 331.25 C 68.75 335.121094 65.839844 338.304688 61.984375 338.65625 L 61.988281 338.65625 Z M 311.140625 313.996094 C 306.304688 309.578125 299.789062 307.382812 293.261719 307.972656 L 287.359375 308.507812 C 279.667969 295.917969 265.800781 287.5 250 287.5 L 68.75 287.5 C 57.054688 287.5 46.070312 292.054688 37.820312 300.308594 C 35.335938 302.785156 33.183594 305.535156 31.371094 308.507812 L 25.488281 307.972656 C 18.964844 307.382812 12.449219 309.574219 7.609375 313.988281 C 2.773438 318.40625 0 324.699219 0 331.25 C 0 337.800781 2.773438 344.089844 7.609375 348.511719 C 11.929688 352.449219 17.582031 354.625 23.386719 354.625 C 24.085938 354.625 24.785156 354.589844 25.488281 354.527344 L 31.371094 353.992188 C 39.253906 366.878906 53.480469 375 68.75 375 L 250 375 C 261.695312 375 272.679688 370.445312 280.933594 362.1875 C 283.433594 359.6875 285.589844 356.9375 287.386719 353.996094 L 293.269531 354.527344 C 293.972656 354.59375 294.691406 354.625 295.398438 354.625 C 308.273438 354.625 318.75 344.136719 318.75 331.25 C 318.75 324.699219 315.976562 318.414062 311.140625 313.996094 " fill-opacity="1" fill-rule="nonzero"/></svg>