<svg xmlns="http://www.w3.org/2000/svg" xmlns:xlink="http://www.w3.org/1999/xlink" width="1080" zoomAndPan="magnify" viewBox="0 0 810 809.999993" height="1080" preserveAspectRatio="xMidYMid meet" version="1.0"><defs><clipPath id="f1e93592b3"><path d="M 523 248.140625 L 533 248.140625 L 533 258.34375 L 523 258.34375 Z M 523 248.140625 " clip-rule="nonzero"/></clipPath><clipPath id="00370d8998"><path d="M 521.210938 239.886719 L 567.84375 243.613281 L 564.050781 291.089844 L 517.417969 287.363281 Z M 521.210938 239.886719 " clip-rule="nonzero"/></clipPath><clipPath id="837e053814"><path d="M 521.210938 239.886719 L 567.84375 243.613281 L 564.050781 291.089844 L 517.417969 287.363281 Z M 521.210938 239.886719 " clip-rule="nonzero"/></clipPath><clipPath id="ef5513a2bd"><path d="M 536.089844 242 L 548 242 L 548 254 L 536.089844 254 Z M 536.089844 242 " clip-rule="nonzero"/></clipPath><clipPath id="2eb82467ec"><path d="M 521.210938 239.886719 L 567.84375 243.613281 L 564.050781 291.089844 L 517.417969 287.363281 Z M 521.210938 239.886719 " clip-rule="nonzero"/></clipPath><clipPath id="ea58d17ef7"><path d="M 521.210938 239.886719 L 567.84375 243.613281 L 564.050781 291.089844 L 517.417969 287.363281 Z M 521.210938 239.886719 " clip-rule="nonzero"/></clipPath><clipPath id="dfad9d2c15"><path d="M 519.078125 258.34375 L 565.574219 258.34375 L 565.574219 274 L 519.078125 274 Z M 519.078125 258.34375 " clip-rule="nonzero"/></clipPath><clipPath id="2b09944c03"><path d="M 521.210938 239.886719 L 567.84375 243.613281 L 564.050781 291.089844 L 517.417969 287.363281 Z M 521.210938 239.886719 " clip-rule="nonzero"/></clipPath><clipPath id="b00dd17db4"><path d="M 521.210938 239.886719 L 567.84375 243.613281 L 564.050781 291.089844 L 517.417969 287.363281 Z M 521.210938 239.886719 " clip-rule="nonzero"/></clipPath><clipPath id="6bf5b77529"><path d="M 538 259.480469 L 553.101562 259.480469 L 553.101562 271.953125 L 538 271.953125 Z M 538 259.480469 " clip-rule="nonzero"/></clipPath><clipPath id="62b026cf27"><path d="M 521.210938 239.886719 L 567.84375 243.613281 L 564.050781 291.089844 L 517.417969 287.363281 Z M 521.210938 239.886719 " clip-rule="nonzero"/></clipPath><clipPath id="e0ec39640d"><path d="M 521.210938 239.886719 L 567.84375 243.613281 L 564.050781 291.089844 L 517.417969 287.363281 Z M 521.210938 239.886719 " clip-rule="nonzero"/></clipPath><clipPath id="93d2daec70"><path d="M 542 260 L 551.964844 260 L 551.964844 271.953125 L 542 271.953125 Z M 542 260 " clip-rule="nonzero"/></clipPath><clipPath id="086a334348"><path d="M 521.210938 239.886719 L 567.84375 243.613281 L 564.050781 291.089844 L 517.417969 287.363281 Z M 521.210938 239.886719 " clip-rule="nonzero"/></clipPath><clipPath id="c552d8fe2d"><path d="M 521.210938 239.886719 L 567.84375 243.613281 L 564.050781 291.089844 L 517.417969 287.363281 Z M 521.210938 239.886719 " clip-rule="nonzero"/></clipPath><clipPath id="6dbc9a1027"><path d="M 548.5625 243 L 562 243 L 562 262.882812 L 548.5625 262.882812 Z M 548.5625 243 " clip-rule="nonzero"/></clipPath><clipPath id="d6e66b3992"><path d="M 521.210938 239.886719 L 567.84375 243.613281 L 564.050781 291.089844 L 517.417969 287.363281 Z M 521.210938 239.886719 " clip-rule="nonzero"/></clipPath><clipPath id="f9619daeac"><path d="M 521.210938 239.886719 L 567.84375 243.613281 L 564.050781 291.089844 L 517.417969 287.363281 Z M 521.210938 239.886719 " clip-rule="nonzero"/></clipPath><clipPath id="9ba27f356c"><path d="M 519.078125 263 L 565.574219 263 L 565.574219 290 L 519.078125 290 Z M 519.078125 263 " clip-rule="nonzero"/></clipPath><clipPath id="77d486ac85"><path d="M 521.210938 239.886719 L 567.84375 243.613281 L 564.050781 291.089844 L 517.417969 287.363281 Z M 521.210938 239.886719 " clip-rule="nonzero"/></clipPath><clipPath id="9bee9be87e"><path d="M 521.210938 239.886719 L 567.84375 243.613281 L 564.050781 291.089844 L 517.417969 287.363281 Z M 521.210938 239.886719 " clip-rule="nonzero"/></clipPath></defs><path fill="#e12c2c" d="M 276.257812 185.808594 C 276.257812 184.996094 276.5625 184.472656 277.179688 184.230469 C 277.789062 183.996094 278.566406 183.878906 279.5 183.878906 C 280.609375 183.878906 281.820312 183.964844 283.132812 184.144531 C 284.453125 184.320312 285.671875 184.410156 286.78125 184.410156 C 288.011719 184.410156 289.128906 184.3125 290.148438 184.109375 C 291.175781 183.894531 292.15625 183.789062 293.089844 183.789062 C 294.082031 183.789062 295.003906 184.070312 295.855469 184.621094 C 296.707031 185.179688 297.453125 186.304688 298.105469 188.007812 C 298.105469 188.007812 298.523438 189.3125 299.363281 191.921875 C 300.214844 194.523438 301.3125 197.75 302.660156 201.613281 C 303.128906 202.902344 303.597656 202.902344 304.058594 201.613281 C 305.464844 197.75 306.574219 194.523438 307.390625 191.921875 C 308.214844 189.3125 308.628906 188.007812 308.628906 188.007812 C 309.269531 186.304688 309.996094 185.179688 310.808594 184.621094 C 311.632812 184.070312 312.515625 183.789062 313.449219 183.789062 C 314.265625 183.789062 315.105469 183.894531 315.984375 184.109375 C 316.871094 184.3125 317.777344 184.410156 318.710938 184.410156 C 319.882812 184.410156 321.109375 184.320312 322.398438 184.144531 C 323.683594 183.964844 324.882812 183.878906 325.996094 183.878906 C 326.988281 183.878906 327.773438 183.996094 328.367188 184.230469 C 328.957031 184.472656 329.253906 184.996094 329.253906 185.808594 C 329.253906 186.582031 329.105469 187.167969 328.8125 187.582031 C 328.515625 187.984375 328.160156 188.421875 327.75 188.890625 C 327.34375 189.351562 326.996094 190.097656 326.703125 191.125 C 326.40625 192.144531 326.261719 193.675781 326.261719 195.730469 L 326.261719 216.957031 C 326.261719 219.015625 326.40625 220.570312 326.703125 221.617188 C 326.996094 222.671875 327.34375 223.445312 327.75 223.941406 C 328.160156 224.4375 328.515625 224.84375 328.8125 225.164062 C 329.105469 225.480469 329.253906 225.96875 329.253906 226.617188 C 329.253906 227.492188 328.917969 228.078125 328.246094 228.371094 C 327.570312 228.664062 326.730469 228.8125 325.730469 228.8125 C 324.675781 228.8125 323.550781 228.722656 322.34375 228.546875 C 321.148438 228.371094 320.117188 228.28125 319.242188 228.28125 C 318.367188 228.28125 317.328125 228.371094 316.125 228.546875 C 314.929688 228.722656 313.808594 228.8125 312.757812 228.8125 C 311.753906 228.8125 310.914062 228.664062 310.242188 228.371094 C 309.570312 228.078125 309.234375 227.492188 309.234375 226.617188 C 309.234375 225.96875 309.378906 225.480469 309.675781 225.164062 C 309.96875 224.84375 310.316406 224.4375 310.722656 223.941406 C 311.132812 223.445312 311.488281 222.671875 311.785156 221.617188 C 312.078125 220.570312 312.226562 219.015625 312.226562 216.957031 C 312.226562 215.910156 312.226562 214.507812 312.226562 212.757812 C 312.226562 211 312.210938 209.109375 312.175781 207.089844 C 312.148438 205.070312 312.136719 203.066406 312.136719 201.082031 C 312.136719 199.097656 312.136719 197.375 312.136719 195.910156 C 312.136719 195.792969 312.050781 195.675781 311.871094 195.554688 C 311.695312 195.441406 311.542969 195.527344 311.429688 195.820312 C 311.027344 197.109375 310.429688 198.914062 309.640625 201.226562 C 308.847656 203.527344 307.980469 206.070312 307.035156 208.84375 C 306.101562 211.621094 305.140625 214.441406 304.148438 217.3125 C 303.15625 220.183594 302.25 222.820312 301.4375 225.214844 C 301.019531 226.503906 300.609375 227.425781 300.195312 227.980469 C 299.792969 228.535156 299.175781 228.8125 298.351562 228.8125 C 297.773438 228.8125 297.261719 228.492188 296.828125 227.855469 C 296.390625 227.210938 295.964844 226.328125 295.554688 225.214844 C 294.675781 222.820312 293.769531 220.203125 292.824219 217.367188 C 291.890625 214.523438 290.957031 211.695312 290.027344 208.898438 C 289.089844 206.089844 288.257812 203.527344 287.527344 201.226562 C 286.792969 198.914062 286.1875 197.109375 285.71875 195.820312 C 285.65625 195.527344 285.53125 195.441406 285.328125 195.554688 C 285.125 195.675781 285.027344 195.792969 285.027344 195.910156 L 285.027344 216.957031 C 285.027344 219.015625 285.171875 220.601562 285.453125 221.707031 C 285.746094 222.820312 286.101562 223.652344 286.515625 224.207031 C 286.929688 224.765625 287.277344 225.230469 287.5625 225.605469 C 287.855469 225.988281 288.003906 226.5 288.003906 227.148438 C 288.003906 227.785156 287.828125 228.222656 287.472656 228.457031 C 287.128906 228.691406 286.695312 228.8125 286.164062 228.8125 C 285.523438 228.8125 284.808594 228.722656 284.019531 228.546875 C 283.226562 228.371094 282.535156 228.28125 281.945312 228.28125 C 281.367188 228.28125 280.722656 228.371094 280.015625 228.546875 C 279.316406 228.722656 278.648438 228.8125 278.011719 228.8125 C 277.539062 228.8125 277.125 228.691406 276.773438 228.457031 C 276.425781 228.222656 276.257812 227.785156 276.257812 227.148438 C 276.257812 226.5 276.398438 225.988281 276.683594 225.605469 C 276.976562 225.230469 277.324219 224.765625 277.730469 224.207031 C 278.140625 223.652344 278.496094 222.820312 278.792969 221.707031 C 279.085938 220.601562 279.234375 219.015625 279.234375 216.957031 L 279.234375 195.730469 C 279.234375 193.675781 279.085938 192.144531 278.792969 191.125 C 278.496094 190.097656 278.140625 189.351562 277.730469 188.890625 C 277.324219 188.421875 276.976562 187.984375 276.683594 187.582031 C 276.398438 187.167969 276.257812 186.582031 276.257812 185.808594 Z M 276.257812 185.808594 " fill-opacity="1" fill-rule="nonzero"/><path fill="#e12c2c" d="M 346.527344 228.8125 C 343.433594 228.8125 340.390625 228.203125 337.402344 226.96875 C 334.425781 225.742188 331.96875 223.8125 330.03125 221.175781 C 328.105469 218.542969 327.144531 215.09375 327.144531 210.828125 C 327.144531 207.203125 327.929688 204.03125 329.5 201.3125 C 331.082031 198.585938 333.277344 196.457031 336.09375 194.933594 C 338.898438 193.410156 342.152344 192.648438 345.835938 192.648438 C 349.460938 192.648438 352.414062 193.089844 354.695312 193.976562 C 356.972656 194.855469 358.742188 195.980469 359.996094 197.363281 C 361.257812 198.734375 362.121094 200.136719 362.582031 201.5625 C 363.050781 202.992188 363.289062 204.238281 363.289062 205.300781 C 363.289062 208.21875 362.378906 210.597656 360.5625 212.441406 C 358.753906 214.285156 356.441406 215.628906 353.632812 216.480469 C 350.832031 217.332031 347.96875 217.757812 345.039062 217.757812 C 344.226562 217.757812 343.625 218.054688 343.25 218.640625 C 342.871094 219.222656 342.753906 219.894531 342.894531 220.660156 C 343.039062 221.417969 343.503906 222.09375 344.296875 222.683594 C 345.085938 223.261719 346.214844 223.550781 347.679688 223.550781 C 349.78125 223.550781 351.445312 223.171875 352.675781 222.417969 C 353.902344 221.648438 354.882812 220.769531 355.617188 219.777344 C 356.347656 218.773438 357.054688 217.894531 357.726562 217.136719 C 358.398438 216.382812 359.289062 216.003906 360.402344 216.003906 C 361.394531 216.003906 362.136719 216.3125 362.632812 216.921875 C 363.128906 217.539062 363.378906 218.226562 363.378906 218.980469 C 363.378906 220.964844 362.605469 222.691406 361.058594 224.152344 C 359.507812 225.617188 357.449219 226.765625 354.875 227.589844 C 352.296875 228.40625 349.515625 228.8125 346.527344 228.8125 Z M 345.835938 197.132812 C 344.605469 197.132812 343.625 197.867188 342.894531 199.328125 C 342.160156 200.796875 341.796875 202.757812 341.796875 205.210938 C 341.796875 207.667969 342.160156 209.632812 342.894531 211.09375 C 343.625 212.546875 344.605469 213.273438 345.835938 213.273438 C 347.0625 213.273438 348.042969 212.546875 348.777344 211.09375 C 349.507812 209.632812 349.878906 207.667969 349.878906 205.210938 C 349.878906 202.757812 349.507812 200.796875 348.777344 199.328125 C 348.042969 197.867188 347.0625 197.132812 345.835938 197.132812 Z M 345.835938 197.132812 " fill-opacity="1" fill-rule="nonzero"/><path fill="#e12c2c" d="M 371.722656 228.28125 C 370.847656 228.28125 369.8125 228.371094 368.605469 228.546875 C 367.402344 228.722656 366.273438 228.8125 365.222656 228.8125 C 364.230469 228.8125 363.398438 228.664062 362.722656 228.371094 C 362.050781 228.078125 361.714844 227.492188 361.714844 226.617188 C 361.714844 225.96875 361.859375 225.480469 362.15625 225.164062 C 362.449219 224.84375 362.796875 224.4375 363.203125 223.941406 C 363.613281 223.445312 363.96875 222.671875 364.265625 221.617188 C 364.558594 220.570312 364.707031 219.015625 364.707031 216.957031 C 364.707031 214.265625 364.714844 212.324219 364.742188 211.128906 C 364.777344 209.925781 364.796875 209.046875 364.796875 208.488281 C 364.796875 207.9375 364.796875 207.3125 364.796875 206.609375 C 364.796875 205.03125 364.539062 203.929688 364.035156 203.316406 C 363.539062 202.703125 363.042969 202.226562 362.546875 201.878906 C 362.050781 201.527344 361.800781 200.96875 361.800781 200.195312 C 361.800781 199.324219 362.089844 198.726562 362.671875 198.40625 C 363.257812 198.089844 364.09375 197.8125 365.167969 197.574219 C 366.253906 197.339844 367.5625 196.953125 369.085938 196.421875 C 370.960938 195.726562 372.246094 195.101562 372.945312 194.542969 C 373.65625 193.992188 374.179688 193.535156 374.523438 193.179688 C 374.878906 192.824219 375.433594 192.648438 376.191406 192.648438 C 377.238281 192.648438 377.945312 193.121094 378.296875 194.066406 C 378.652344 195 378.828125 196.113281 378.828125 197.398438 L 378.828125 198.105469 C 378.828125 198.921875 378.976562 199.328125 379.273438 199.328125 C 379.554688 199.328125 380.015625 198.992188 380.65625 198.320312 C 381.300781 197.644531 382.144531 196.875 383.171875 195.996094 C 384.199219 195.113281 385.425781 194.332031 386.855469 193.660156 C 388.28125 192.984375 389.910156 192.648438 391.730469 192.648438 C 393.535156 192.648438 395.023438 192.984375 396.195312 193.660156 C 397.363281 194.332031 398.285156 195.113281 398.957031 195.996094 C 399.632812 196.875 400.171875 197.644531 400.589844 198.320312 C 401 198.992188 401.320312 199.328125 401.546875 199.328125 C 401.957031 199.328125 402.484375 199.011719 403.121094 198.371094 C 403.769531 197.726562 404.59375 196.945312 405.585938 196.03125 C 406.578125 195.125 407.785156 194.332031 409.21875 193.660156 C 410.65625 192.984375 412.371094 192.648438 414.355469 192.648438 C 417.105469 192.648438 419.183594 193.242188 420.59375 194.421875 C 421.996094 195.589844 422.949219 197.054688 423.445312 198.816406 C 423.941406 200.566406 424.191406 202.339844 424.191406 204.148438 L 424.191406 216.957031 C 424.191406 219.015625 424.335938 220.570312 424.632812 221.617188 C 424.925781 222.671875 425.261719 223.445312 425.644531 223.941406 C 426.019531 224.4375 426.371094 224.84375 426.6875 225.164062 C 427.007812 225.480469 427.167969 225.96875 427.167969 226.617188 C 427.167969 227.492188 426.917969 228.078125 426.421875 228.371094 C 425.925781 228.664062 425.269531 228.8125 424.457031 228.8125 C 423.640625 228.8125 422.6875 228.722656 421.601562 228.546875 C 420.511719 228.371094 419.476562 228.28125 418.484375 228.28125 C 417.550781 228.28125 416.746094 228.320312 416.074219 228.40625 C 415.402344 228.5 414.683594 228.605469 413.929688 228.722656 C 412.761719 228.839844 411.808594 228.582031 411.078125 227.945312 C 410.34375 227.296875 409.980469 226.386719 409.980469 225.214844 L 409.980469 210.828125 C 409.980469 208.019531 409.699219 205.878906 409.148438 204.414062 C 408.589844 202.953125 407.550781 202.21875 406.027344 202.21875 C 404.796875 202.21875 403.742188 202.761719 402.855469 203.847656 C 401.980469 204.921875 401.546875 207.101562 401.546875 210.386719 L 401.546875 216.957031 C 401.546875 219.015625 401.691406 220.570312 401.988281 221.617188 C 402.28125 222.671875 402.628906 223.445312 403.035156 223.941406 C 403.445312 224.4375 403.800781 224.84375 404.097656 225.164062 C 404.390625 225.480469 404.539062 225.96875 404.539062 226.617188 C 404.539062 227.492188 404.292969 228.078125 403.796875 228.371094 C 403.300781 228.664062 402.636719 228.8125 401.8125 228.8125 C 400.996094 228.8125 400.042969 228.722656 398.957031 228.546875 C 397.882812 228.371094 396.851562 228.28125 395.859375 228.28125 C 394.910156 228.28125 394.101562 228.320312 393.429688 228.40625 C 392.757812 228.5 392.039062 228.605469 391.285156 228.722656 C 390.117188 228.839844 389.164062 228.582031 388.433594 227.945312 C 387.699219 227.296875 387.335938 226.386719 387.335938 225.214844 L 387.335938 210.828125 C 387.335938 208.019531 387.039062 205.878906 386.449219 204.414062 C 385.867188 202.953125 384.820312 202.21875 383.292969 202.21875 C 381.957031 202.21875 380.875 202.90625 380.050781 204.289062 C 379.238281 205.664062 378.828125 208.480469 378.828125 212.742188 L 378.828125 216.957031 C 378.828125 219.015625 378.972656 220.570312 379.253906 221.617188 C 379.546875 222.671875 379.902344 223.445312 380.316406 223.941406 C 380.730469 224.4375 381.078125 224.84375 381.363281 225.164062 C 381.65625 225.480469 381.804688 225.96875 381.804688 226.617188 C 381.804688 227.492188 381.46875 228.078125 380.796875 228.371094 C 380.125 228.664062 379.289062 228.8125 378.296875 228.8125 C 377.1875 228.8125 376.03125 228.722656 374.824219 228.546875 C 373.628906 228.371094 372.597656 228.28125 371.722656 228.28125 Z M 371.722656 228.28125 " fill-opacity="1" fill-rule="nonzero"/><path fill="#e12c2c" d="M 444.117188 228.8125 C 438.269531 228.8125 433.632812 227.21875 430.207031 224.027344 C 426.777344 220.839844 425.070312 216.410156 425.070312 210.738281 C 425.070312 205 426.777344 200.550781 430.207031 197.398438 C 433.632812 194.234375 438.269531 192.648438 444.117188 192.648438 C 449.964844 192.648438 454.59375 194.234375 458.007812 197.398438 C 461.433594 200.550781 463.148438 205 463.148438 210.738281 C 463.148438 216.410156 461.433594 220.839844 458.007812 224.027344 C 454.59375 227.21875 449.964844 228.8125 444.117188 228.8125 Z M 439.546875 210.738281 C 439.546875 213.140625 439.675781 215.347656 439.933594 217.367188 C 440.207031 219.378906 440.679688 220.964844 441.351562 222.132812 C 442.027344 223.300781 442.949219 223.886719 444.117188 223.886719 C 445.34375 223.886719 446.296875 223.300781 446.96875 222.132812 C 447.644531 220.964844 448.089844 219.378906 448.316406 217.367188 C 448.550781 215.347656 448.671875 213.140625 448.671875 210.738281 C 448.671875 208.285156 448.550781 206.0625 448.316406 204.078125 C 448.089844 202.085938 447.644531 200.5 446.96875 199.328125 C 446.296875 198.160156 445.34375 197.574219 444.117188 197.574219 C 442.949219 197.574219 442.027344 198.160156 441.351562 199.328125 C 440.679688 200.5 440.207031 202.085938 439.933594 204.078125 C 439.675781 206.0625 439.546875 208.285156 439.546875 210.738281 Z M 436.746094 189.496094 C 436.449219 189.203125 436.328125 188.890625 436.390625 188.574219 C 436.449219 188.253906 436.683594 188.09375 437.101562 188.09375 C 439.378906 188.039062 441.378906 187.527344 443.105469 186.570312 C 444.832031 185.605469 446.214844 184.445312 447.269531 183.097656 C 447.800781 182.390625 448.269531 182.035156 448.671875 182.035156 C 448.964844 182.035156 449.3125 182.273438 449.714844 182.742188 C 450.128906 183.21875 450.511719 183.71875 450.867188 184.25 C 451.222656 184.773438 451.457031 185.144531 451.578125 185.367188 C 452.039062 186.195312 451.796875 187.046875 450.867188 187.917969 C 449.933594 188.796875 448.6875 189.527344 447.128906 190.113281 C 445.578125 190.695312 444.050781 190.984375 442.539062 190.984375 C 441.429688 190.984375 440.34375 190.886719 439.28125 190.683594 C 438.226562 190.484375 437.382812 190.089844 436.746094 189.496094 Z M 436.746094 189.496094 " fill-opacity="1" fill-rule="nonzero"/><path fill="#e12c2c" d="M 460.621094 226.617188 C 460.621094 225.96875 460.761719 225.480469 461.046875 225.164062 C 461.339844 224.84375 461.6875 224.4375 462.09375 223.941406 C 462.503906 223.445312 462.859375 222.671875 463.15625 221.617188 C 463.449219 220.570312 463.597656 219.015625 463.597656 216.957031 C 463.597656 214.265625 463.605469 212.324219 463.632812 211.128906 C 463.667969 209.925781 463.6875 209.046875 463.6875 208.488281 C 463.6875 207.9375 463.6875 207.3125 463.6875 206.609375 C 463.6875 205.03125 463.4375 203.929688 462.941406 203.316406 C 462.445312 202.703125 461.941406 202.226562 461.4375 201.878906 C 460.941406 201.527344 460.691406 200.96875 460.691406 200.195312 C 460.691406 199.324219 460.984375 198.726562 461.578125 198.40625 C 462.167969 198.089844 463 197.8125 464.078125 197.574219 C 465.164062 197.339844 466.460938 196.953125 467.976562 196.421875 C 469.851562 195.726562 471.136719 195.101562 471.835938 194.542969 C 472.546875 193.992188 473.070312 193.535156 473.414062 193.179688 C 473.769531 192.824219 474.328125 192.648438 475.097656 192.648438 C 476.148438 192.648438 476.84375 193.121094 477.1875 194.066406 C 477.542969 195 477.71875 196.113281 477.71875 197.398438 L 477.71875 197.75 C 477.71875 199.21875 477.746094 199.941406 477.808594 199.914062 C 477.867188 199.878906 478.273438 199.21875 479.03125 197.929688 C 480.03125 196.226562 481.429688 194.925781 483.214844 194.011719 C 484.992188 193.105469 486.703125 192.648438 488.332031 192.648438 C 491.558594 192.648438 493.636719 193.339844 494.570312 194.722656 C 495.5 196.09375 495.53125 198.097656 494.660156 200.726562 C 493.949219 202.832031 493.316406 204.28125 492.761719 205.070312 C 492.207031 205.863281 491.667969 206.257812 491.152344 206.257812 C 490.558594 206.257812 489.910156 205.910156 489.203125 205.210938 C 488.503906 204.503906 487.730469 203.8125 486.882812 203.136719 C 486.039062 202.464844 485.007812 202.128906 483.78125 202.128906 C 483.070312 202.128906 482.230469 202.367188 481.265625 202.835938 C 480.308594 203.3125 479.472656 204.160156 478.765625 205.386719 C 478.066406 206.621094 477.71875 208.34375 477.71875 210.5625 L 477.71875 216.957031 C 477.71875 219.015625 477.867188 220.570312 478.164062 221.617188 C 478.457031 222.671875 478.804688 223.445312 479.207031 223.941406 C 479.621094 224.4375 479.976562 224.84375 480.273438 225.164062 C 480.5625 225.480469 480.714844 225.96875 480.714844 226.617188 C 480.714844 227.492188 480.378906 228.078125 479.703125 228.371094 C 479.03125 228.664062 478.191406 228.8125 477.1875 228.8125 C 476.078125 228.8125 474.921875 228.722656 473.714844 228.546875 C 472.519531 228.371094 471.488281 228.28125 470.613281 228.28125 C 469.738281 228.28125 468.703125 228.371094 467.496094 228.546875 C 466.300781 228.722656 465.179688 228.8125 464.128906 228.8125 C 463.125 228.8125 462.289062 228.664062 461.613281 228.371094 C 460.949219 228.078125 460.621094 227.492188 460.621094 226.617188 Z M 460.621094 226.617188 " fill-opacity="1" fill-rule="nonzero"/><path fill="#e12c2c" d="M 502.996094 228.28125 C 502.121094 228.28125 501.082031 228.371094 499.878906 228.546875 C 498.683594 228.722656 497.558594 228.8125 496.496094 228.8125 C 495.503906 228.8125 494.667969 228.664062 493.996094 228.371094 C 493.324219 228.078125 492.988281 227.492188 492.988281 226.617188 C 492.988281 225.96875 493.132812 225.480469 493.429688 225.164062 C 493.722656 224.84375 494.070312 224.4375 494.476562 223.941406 C 494.886719 223.445312 495.242188 222.671875 495.539062 221.617188 C 495.832031 220.570312 495.980469 219.015625 495.980469 216.957031 C 495.980469 214.265625 495.988281 212.324219 496.015625 211.128906 C 496.050781 209.925781 496.070312 209.046875 496.070312 208.488281 C 496.070312 207.9375 496.070312 207.3125 496.070312 206.609375 C 496.070312 205.03125 495.820312 203.929688 495.324219 203.316406 C 494.828125 202.703125 494.324219 202.226562 493.820312 201.878906 C 493.324219 201.527344 493.074219 200.96875 493.074219 200.195312 C 493.074219 199.324219 493.363281 198.726562 493.941406 198.40625 C 494.53125 198.089844 495.371094 197.8125 496.460938 197.574219 C 497.542969 197.339844 498.84375 196.953125 500.359375 196.421875 C 502.234375 195.726562 503.519531 195.101562 504.21875 194.542969 C 504.929688 193.992188 505.453125 193.535156 505.796875 193.179688 C 506.152344 192.824219 506.707031 192.648438 507.460938 192.648438 C 508.527344 192.648438 509.226562 193.121094 509.570312 194.066406 C 509.925781 195 510.101562 196.113281 510.101562 197.398438 L 510.101562 216.957031 C 510.101562 219.015625 510.25 220.570312 510.546875 221.617188 C 510.839844 222.671875 511.1875 223.445312 511.589844 223.941406 C 512.003906 224.4375 512.351562 224.84375 512.636719 225.164062 C 512.929688 225.480469 513.078125 225.96875 513.078125 226.617188 C 513.078125 227.492188 512.742188 228.078125 512.070312 228.371094 C 511.394531 228.664062 510.5625 228.8125 509.570312 228.8125 C 508.460938 228.8125 507.304688 228.722656 506.097656 228.546875 C 504.902344 228.371094 503.871094 228.28125 502.996094 228.28125 Z M 492.988281 190.203125 C 492.40625 188.445312 492.710938 186.542969 493.90625 184.5 C 495.113281 182.457031 496.941406 180.789062 499.402344 179.5 C 501.441406 178.453125 503.316406 177.925781 505.015625 177.925781 C 507.589844 177.925781 509.257812 178.980469 510.015625 181.078125 C 510.660156 182.886719 510.386719 184.789062 509.179688 186.785156 C 507.984375 188.769531 506.160156 190.433594 503.707031 191.78125 C 501.589844 192.835938 499.6875 193.359375 498 193.359375 C 495.484375 193.359375 493.808594 192.308594 492.988281 190.203125 Z M 492.988281 190.203125 " fill-opacity="1" fill-rule="nonzero"/><path fill="#e12c2c" d="M 520.550781 228.8125 C 517.261719 228.8125 514.832031 227.851562 513.25 225.925781 C 511.675781 223.988281 510.894531 221.671875 510.894531 218.980469 C 510.894531 215.058594 512.351562 211.976562 515.269531 209.730469 C 518.199219 207.476562 522.003906 205.847656 526.679688 204.855469 C 531.132812 203.925781 533.359375 202.460938 533.359375 200.460938 C 533.359375 199.710938 533.03125 198.964844 532.386719 198.230469 C 531.75 197.5 530.636719 197.132812 529.054688 197.132812 C 527.46875 197.132812 526.183594 197.558594 525.191406 198.40625 C 524.199219 199.257812 523.320312 200.226562 522.550781 201.3125 C 521.792969 202.390625 520.960938 203.351562 520.054688 204.203125 C 519.15625 205.042969 517.945312 205.460938 516.421875 205.460938 C 515.429688 205.460938 514.566406 205.113281 513.835938 204.414062 C 513.097656 203.71875 512.734375 202.867188 512.734375 201.863281 C 512.734375 199.878906 513.519531 198.203125 515.09375 196.832031 C 516.675781 195.449219 518.734375 194.410156 521.277344 193.710938 C 523.828125 193.003906 526.597656 192.648438 529.585938 192.648438 C 532.796875 192.648438 535.722656 193.164062 538.355469 194.191406 C 540.988281 195.21875 543.09375 196.933594 544.664062 199.328125 C 546.246094 201.730469 547.039062 205 547.039062 209.144531 L 547.039062 216.957031 C 547.039062 219.015625 547.1875 220.570312 547.484375 221.617188 C 547.773438 222.671875 548.125 223.445312 548.527344 223.941406 C 548.941406 224.4375 549.292969 224.84375 549.589844 225.164062 C 549.882812 225.480469 550.035156 225.96875 550.035156 226.617188 C 550.035156 227.492188 549.769531 228.078125 549.238281 228.371094 C 548.707031 228.664062 548.03125 228.8125 547.214844 228.8125 C 546.339844 228.8125 545.378906 228.722656 544.328125 228.546875 C 543.273438 228.371094 542.308594 228.28125 541.421875 228.28125 C 540.488281 228.28125 539.667969 228.320312 538.960938 228.40625 C 538.261719 228.5 537.535156 228.605469 536.78125 228.722656 C 535.847656 228.839844 535.011719 228.722656 534.28125 228.371094 C 533.546875 228.015625 533.121094 227.375 533.007812 226.4375 C 532.945312 225.507812 532.796875 224.878906 532.5625 224.558594 C 532.324219 224.234375 532.035156 224.0625 531.695312 224.0625 C 531.042969 224.0625 530.207031 224.460938 529.179688 225.25 C 528.160156 226.042969 526.933594 226.835938 525.492188 227.625 C 524.0625 228.414062 522.414062 228.8125 520.550781 228.8125 Z M 524.5 215.382812 C 524.5 217.082031 524.917969 218.300781 525.757812 219.03125 C 526.609375 219.753906 527.621094 220.113281 528.789062 220.113281 C 530.25 220.113281 531.363281 219.488281 532.121094 218.234375 C 532.886719 216.984375 533.273438 215.507812 533.273438 213.804688 L 533.273438 209.585938 C 533.273438 208.019531 532.535156 207.613281 531.074219 208.367188 C 530.140625 208.839844 529.160156 209.351562 528.132812 209.90625 C 527.105469 210.464844 526.242188 211.148438 525.546875 211.960938 C 524.847656 212.777344 524.5 213.921875 524.5 215.382812 Z M 524.5 215.382812 " fill-opacity="1" fill-rule="nonzero"/><path fill="#e12c2c" d="M 547.925781 219.863281 C 547.925781 218.695312 548.261719 217.765625 548.933594 217.066406 C 549.605469 216.355469 550.585938 216.003906 551.875 216.003906 C 552.984375 216.003906 553.886719 216.410156 554.585938 217.226562 C 555.296875 218.039062 556.027344 218.980469 556.785156 220.042969 C 557.550781 221.097656 558.519531 222.027344 559.6875 222.839844 C 560.859375 223.65625 562.4375 224.0625 564.421875 224.0625 C 565.945312 224.0625 567.140625 223.90625 568.015625 223.585938 C 568.890625 223.265625 569.328125 222.523438 569.328125 221.351562 C 569.328125 220.421875 568.8125 219.664062 567.785156 219.085938 C 566.769531 218.496094 565.46875 217.949219 563.886719 217.453125 C 562.316406 216.949219 560.636719 216.386719 558.855469 215.773438 C 557.070312 215.160156 555.386719 214.386719 553.804688 213.449219 C 552.222656 212.519531 550.917969 211.304688 549.890625 209.816406 C 548.871094 208.320312 548.367188 206.429688 548.367188 204.148438 C 548.367188 201.574219 548.953125 199.515625 550.121094 197.964844 C 551.289062 196.417969 552.746094 195.265625 554.496094 194.507812 C 556.257812 193.742188 557.996094 193.242188 559.726562 193.003906 C 561.449219 192.769531 562.867188 192.648438 563.976562 192.648438 C 566.960938 192.648438 569.746094 193.003906 572.324219 193.710938 C 574.894531 194.410156 576.96875 195.449219 578.542969 196.832031 C 580.125 198.203125 580.917969 199.878906 580.917969 201.863281 C 580.917969 202.867188 580.546875 203.71875 579.816406 204.414062 C 579.082031 205.113281 578.222656 205.460938 577.230469 205.460938 C 575.707031 205.460938 574.476562 205.042969 573.546875 204.203125 C 572.609375 203.351562 571.761719 202.390625 570.992188 201.3125 C 570.234375 200.226562 569.363281 199.257812 568.371094 198.40625 C 567.378906 197.558594 566.089844 197.132812 564.507812 197.132812 C 562.921875 197.132812 561.886719 197.5 561.390625 198.230469 C 560.894531 198.964844 560.644531 199.710938 560.644531 200.460938 C 560.644531 201.574219 561.140625 202.425781 562.132812 203.015625 C 563.125 203.59375 564.410156 204.078125 565.996094 204.46875 C 567.578125 204.847656 569.242188 205.273438 570.992188 205.742188 C 572.753906 206.203125 574.417969 206.832031 575.992188 207.621094 C 577.570312 208.414062 578.859375 209.527344 579.851562 210.953125 C 580.855469 212.382812 581.359375 214.265625 581.359375 216.605469 C 581.359375 219.59375 580.496094 221.980469 578.773438 223.761719 C 577.042969 225.546875 574.839844 226.835938 572.144531 227.625 C 569.453125 228.414062 566.609375 228.8125 563.621094 228.8125 C 562.390625 228.8125 560.898438 228.664062 559.140625 228.371094 C 557.390625 228.078125 555.652344 227.589844 553.929688 226.917969 C 552.203125 226.242188 550.769531 225.339844 549.625 224.207031 C 548.492188 223.0625 547.925781 221.613281 547.925781 219.863281 Z M 547.925781 219.863281 " fill-opacity="1" fill-rule="nonzero"/><path fill="#e12c2c" d="M 296.976562 281.246094 C 293.703125 281.246094 291.273438 280.285156 289.691406 278.359375 C 288.105469 276.421875 287.320312 274.105469 287.320312 271.410156 C 287.320312 267.492188 288.777344 264.410156 291.695312 262.164062 C 294.625 259.90625 298.433594 258.28125 303.125 257.289062 C 307.5625 256.359375 309.785156 254.894531 309.785156 252.894531 C 309.785156 252.144531 309.457031 251.398438 308.8125 250.664062 C 308.175781 249.933594 307.0625 249.566406 305.480469 249.566406 C 303.90625 249.566406 302.617188 249.988281 301.617188 250.839844 C 300.625 251.691406 299.75 252.660156 298.996094 253.746094 C 298.238281 254.824219 297.40625 255.785156 296.496094 256.632812 C 295.585938 257.476562 294.371094 257.890625 292.847656 257.890625 C 291.855469 257.890625 290.992188 257.546875 290.261719 256.847656 C 289.523438 256.152344 289.160156 255.300781 289.160156 254.296875 C 289.160156 252.3125 289.949219 250.636719 291.535156 249.261719 C 293.117188 247.882812 295.175781 246.84375 297.71875 246.144531 C 300.269531 245.4375 303.035156 245.082031 306.011719 245.082031 C 309.222656 245.082031 312.148438 245.597656 314.78125 246.625 C 317.414062 247.652344 319.523438 249.367188 321.109375 251.761719 C 322.691406 254.164062 323.484375 257.433594 323.484375 261.578125 L 323.484375 269.390625 C 323.484375 271.449219 323.625 273.003906 323.90625 274.050781 C 324.199219 275.105469 324.550781 275.878906 324.953125 276.375 C 325.367188 276.871094 325.71875 277.277344 326.015625 277.597656 C 326.308594 277.914062 326.460938 278.402344 326.460938 279.046875 C 326.460938 279.925781 326.195312 280.511719 325.664062 280.804688 C 325.140625 281.09375 324.464844 281.246094 323.640625 281.246094 C 322.765625 281.246094 321.804688 281.15625 320.753906 280.980469 C 319.699219 280.804688 318.738281 280.714844 317.867188 280.714844 C 316.917969 280.714844 316.09375 280.753906 315.386719 280.839844 C 314.683594 280.929688 313.960938 281.039062 313.207031 281.15625 C 312.269531 281.273438 311.4375 281.15625 310.707031 280.804688 C 309.972656 280.449219 309.546875 279.804688 309.433594 278.871094 C 309.371094 277.941406 309.222656 277.3125 308.988281 276.992188 C 308.761719 276.664062 308.476562 276.496094 308.121094 276.496094 C 307.46875 276.496094 306.632812 276.894531 305.605469 277.683594 C 304.585938 278.476562 303.359375 279.269531 301.917969 280.058594 C 300.488281 280.847656 298.839844 281.246094 296.976562 281.246094 Z M 300.925781 267.816406 C 300.925781 269.515625 301.34375 270.734375 302.183594 271.464844 C 303.035156 272.1875 304.046875 272.546875 305.214844 272.546875 C 306.675781 272.546875 307.789062 271.921875 308.546875 270.667969 C 309.3125 269.417969 309.699219 267.9375 309.699219 266.238281 L 309.699219 262.019531 C 309.699219 260.453125 308.960938 260.046875 307.5 260.796875 C 306.566406 261.273438 305.585938 261.785156 304.558594 262.339844 C 303.539062 262.898438 302.679688 263.582031 301.972656 264.394531 C 301.273438 265.210938 300.925781 266.351562 300.925781 267.816406 Z M 308.476562 243.417969 C 307.007812 243.417969 305.472656 243.109375 303.867188 242.496094 C 302.261719 241.882812 301.003906 241.140625 300.09375 240.261719 C 299.179688 239.390625 298.964844 238.570312 299.4375 237.800781 C 299.722656 237.339844 299.960938 236.960938 300.164062 236.664062 C 300.378906 236.375 300.777344 235.847656 301.371094 235.089844 C 301.710938 234.675781 302.03125 234.46875 302.328125 234.46875 C 302.738281 234.46875 303.203125 234.824219 303.726562 235.53125 C 304.71875 236.878906 306.09375 238.039062 307.855469 239.003906 C 309.613281 239.960938 311.632812 240.46875 313.914062 240.527344 C 314.375 240.527344 314.613281 240.6875 314.640625 241.007812 C 314.675781 241.324219 314.550781 241.636719 314.269531 241.929688 C 313.617188 242.523438 312.78125 242.914062 311.753906 243.113281 C 310.734375 243.320312 309.644531 243.417969 308.476562 243.417969 Z M 308.476562 243.417969 " fill-opacity="1" fill-rule="nonzero"/><path fill="#e12c2c" d="M 342.785156 280.714844 C 341.90625 280.714844 340.871094 280.804688 339.667969 280.980469 C 338.460938 281.15625 337.332031 281.246094 336.28125 281.246094 C 335.289062 281.246094 334.457031 281.09375 333.785156 280.804688 C 333.109375 280.511719 332.773438 279.925781 332.773438 279.046875 C 332.773438 278.402344 332.917969 277.914062 333.214844 277.597656 C 333.507812 277.277344 333.859375 276.871094 334.261719 276.375 C 334.675781 275.878906 335.027344 275.105469 335.324219 274.050781 C 335.617188 273.003906 335.769531 271.449219 335.769531 269.390625 C 335.769531 266.699219 335.777344 264.757812 335.804688 263.5625 C 335.839844 262.359375 335.855469 261.480469 335.855469 260.921875 C 335.855469 260.367188 335.855469 259.746094 335.855469 259.042969 C 335.855469 257.460938 335.601562 256.363281 335.09375 255.75 C 334.597656 255.136719 334.101562 254.660156 333.605469 254.3125 C 333.109375 253.960938 332.863281 253.402344 332.863281 252.628906 C 332.863281 251.757812 333.148438 251.160156 333.730469 250.839844 C 334.320312 250.523438 335.152344 250.246094 336.230469 250.007812 C 337.3125 249.773438 338.621094 249.386719 340.144531 248.855469 C 342.023438 248.160156 343.308594 247.535156 344.007812 246.976562 C 344.714844 246.425781 345.238281 245.96875 345.585938 245.613281 C 345.9375 245.257812 346.492188 245.082031 347.25 245.082031 C 348.300781 245.082031 349.003906 245.554688 349.359375 246.5 C 349.710938 247.433594 349.890625 248.546875 349.890625 249.832031 L 349.890625 250.539062 C 349.890625 251.355469 350.035156 251.761719 350.332031 251.761719 C 350.617188 251.761719 351.078125 251.425781 351.714844 250.75 C 352.363281 250.078125 353.203125 249.308594 354.230469 248.429688 C 355.257812 247.542969 356.484375 246.765625 357.917969 246.09375 C 359.34375 245.417969 360.96875 245.082031 362.789062 245.082031 C 364.597656 245.082031 366.085938 245.417969 367.253906 246.09375 C 368.421875 246.765625 369.34375 247.542969 370.019531 248.429688 C 370.691406 249.308594 371.230469 250.078125 371.648438 250.75 C 372.058594 251.425781 372.378906 251.761719 372.605469 251.761719 C 373.015625 251.761719 373.542969 251.441406 374.183594 250.804688 C 374.828125 250.160156 375.652344 249.378906 376.644531 248.464844 C 377.636719 247.558594 378.847656 246.765625 380.277344 246.09375 C 381.71875 245.417969 383.429688 245.082031 385.414062 245.082031 C 388.167969 245.082031 390.246094 245.675781 391.652344 246.855469 C 393.058594 248.023438 394.007812 249.488281 394.503906 251.246094 C 395 252.996094 395.25 254.773438 395.25 256.582031 L 395.25 269.390625 C 395.25 271.449219 395.394531 273.003906 395.691406 274.050781 C 395.984375 275.105469 396.320312 275.878906 396.703125 276.375 C 397.078125 276.871094 397.429688 277.277344 397.75 277.597656 C 398.066406 277.914062 398.226562 278.402344 398.226562 279.046875 C 398.226562 279.925781 397.976562 280.511719 397.480469 280.804688 C 396.984375 281.09375 396.332031 281.246094 395.515625 281.246094 C 394.699219 281.246094 393.75 281.15625 392.664062 280.980469 C 391.574219 280.804688 390.535156 280.714844 389.542969 280.714844 C 388.609375 280.714844 387.808594 280.753906 387.132812 280.839844 C 386.460938 280.929688 385.742188 281.039062 384.992188 281.15625 C 383.820312 281.273438 382.867188 281.015625 382.136719 280.378906 C 381.402344 279.730469 381.039062 278.820312 381.039062 277.648438 L 381.039062 263.261719 C 381.039062 260.453125 380.761719 258.3125 380.207031 256.847656 C 379.648438 255.386719 378.613281 254.648438 377.089844 254.648438 C 375.855469 254.648438 374.800781 255.195312 373.917969 256.28125 C 373.039062 257.355469 372.605469 259.535156 372.605469 262.820312 L 372.605469 269.390625 C 372.605469 271.449219 372.75 273.003906 373.046875 274.050781 C 373.339844 275.105469 373.691406 275.878906 374.09375 276.375 C 374.503906 276.871094 374.859375 277.277344 375.15625 277.597656 C 375.449219 277.914062 375.601562 278.402344 375.601562 279.046875 C 375.601562 279.925781 375.351562 280.511719 374.855469 280.804688 C 374.359375 281.09375 373.695312 281.246094 372.871094 281.246094 C 372.054688 281.246094 371.105469 281.15625 370.019531 280.980469 C 368.941406 280.804688 367.910156 280.714844 366.917969 280.714844 C 365.96875 280.714844 365.164062 280.753906 364.488281 280.839844 C 363.816406 280.929688 363.097656 281.039062 362.347656 281.15625 C 361.175781 281.273438 360.222656 281.015625 359.492188 280.378906 C 358.757812 279.730469 358.394531 278.820312 358.394531 277.648438 L 358.394531 263.261719 C 358.394531 260.453125 358.097656 258.3125 357.507812 256.847656 C 356.929688 255.386719 355.878906 254.648438 354.355469 254.648438 C 353.015625 254.648438 351.9375 255.339844 351.113281 256.722656 C 350.296875 258.097656 349.890625 260.914062 349.890625 265.175781 L 349.890625 269.390625 C 349.890625 271.449219 350.03125 273.003906 350.316406 274.050781 C 350.609375 275.105469 350.960938 275.878906 351.378906 276.375 C 351.789062 276.871094 352.140625 277.277344 352.421875 277.597656 C 352.714844 277.914062 352.867188 278.402344 352.867188 279.046875 C 352.867188 279.925781 352.53125 280.511719 351.855469 280.804688 C 351.183594 281.09375 350.351562 281.246094 349.359375 281.246094 C 348.246094 281.246094 347.089844 281.15625 345.886719 280.980469 C 344.6875 280.804688 343.65625 280.714844 342.785156 280.714844 Z M 342.785156 280.714844 " fill-opacity="1" fill-rule="nonzero"/><path fill="#e12c2c" d="M 415.957031 281.246094 C 412.859375 281.246094 409.816406 280.632812 406.832031 279.402344 C 403.855469 278.175781 401.394531 276.246094 399.460938 273.609375 C 397.535156 270.976562 396.574219 267.527344 396.574219 263.261719 C 396.574219 259.636719 397.355469 256.464844 398.929688 253.746094 C 400.511719 251.019531 402.707031 248.890625 405.519531 247.367188 C 408.328125 245.84375 411.582031 245.082031 415.265625 245.082031 C 418.890625 245.082031 421.84375 245.523438 424.125 246.410156 C 426.402344 247.289062 428.167969 248.414062 429.421875 249.796875 C 430.683594 251.167969 431.550781 252.566406 432.011719 253.996094 C 432.480469 255.425781 432.71875 256.671875 432.71875 257.734375 C 432.71875 260.652344 431.804688 263.03125 429.988281 264.875 C 428.183594 266.714844 425.871094 268.0625 423.0625 268.914062 C 420.261719 269.765625 417.394531 270.1875 414.46875 270.1875 C 413.652344 270.1875 413.054688 270.484375 412.679688 271.074219 C 412.296875 271.65625 412.183594 272.328125 412.324219 273.09375 C 412.464844 273.851562 412.929688 274.527344 413.722656 275.113281 C 414.511719 275.695312 415.640625 275.984375 417.109375 275.984375 C 419.207031 275.984375 420.875 275.605469 422.105469 274.847656 C 423.332031 274.082031 424.3125 273.203125 425.046875 272.210938 C 425.777344 271.207031 426.480469 270.328125 427.15625 269.570312 C 427.828125 268.816406 428.71875 268.433594 429.832031 268.433594 C 430.824219 268.433594 431.566406 268.746094 432.0625 269.355469 C 432.558594 269.972656 432.808594 270.660156 432.808594 271.410156 C 432.808594 273.394531 432.03125 275.125 430.484375 276.585938 C 428.9375 278.050781 426.875 279.199219 424.300781 280.023438 C 421.722656 280.839844 418.941406 281.246094 415.957031 281.246094 Z M 415.265625 249.566406 C 414.035156 249.566406 413.054688 250.300781 412.324219 251.761719 C 411.589844 253.226562 411.226562 255.191406 411.226562 257.644531 C 411.226562 260.101562 411.589844 262.066406 412.324219 263.527344 C 413.054688 264.980469 414.035156 265.707031 415.265625 265.707031 C 416.492188 265.707031 417.472656 264.980469 418.207031 263.527344 C 418.9375 262.066406 419.304688 260.101562 419.304688 257.644531 C 419.304688 255.191406 418.9375 253.226562 418.207031 251.761719 C 417.472656 250.300781 416.492188 249.566406 415.265625 249.566406 Z M 415.265625 249.566406 " fill-opacity="1" fill-rule="nonzero"/><path fill="#e12c2c" d="M 431.585938 272.296875 C 431.585938 271.128906 431.921875 270.199219 432.59375 269.5 C 433.269531 268.789062 434.246094 268.433594 435.535156 268.433594 C 436.644531 268.433594 437.546875 268.84375 438.246094 269.65625 C 438.957031 270.472656 439.6875 271.410156 440.445312 272.476562 C 441.210938 273.53125 442.179688 274.460938 443.351562 275.273438 C 444.519531 276.089844 446.097656 276.496094 448.082031 276.496094 C 449.605469 276.496094 450.800781 276.335938 451.679688 276.019531 C 452.550781 275.699219 452.988281 274.957031 452.988281 273.785156 C 452.988281 272.855469 452.476562 272.097656 451.449219 271.519531 C 450.429688 270.929688 449.128906 270.382812 447.550781 269.886719 C 445.976562 269.382812 444.296875 268.820312 442.515625 268.203125 C 440.730469 267.59375 439.046875 266.820312 437.46875 265.882812 C 435.882812 264.953125 434.578125 263.738281 433.550781 262.25 C 432.53125 260.753906 432.027344 258.863281 432.027344 256.582031 C 432.027344 254.007812 432.613281 251.949219 433.78125 250.398438 C 434.953125 248.851562 436.410156 247.699219 438.160156 246.941406 C 439.917969 246.175781 441.65625 245.675781 443.386719 245.4375 C 445.109375 245.203125 446.527344 245.082031 447.636719 245.082031 C 450.625 245.082031 453.40625 245.4375 455.984375 246.144531 C 458.558594 246.84375 460.628906 247.882812 462.203125 249.261719 C 463.785156 250.636719 464.578125 252.3125 464.578125 254.296875 C 464.578125 255.300781 464.210938 256.152344 463.476562 256.847656 C 462.742188 257.546875 461.882812 257.890625 460.890625 257.890625 C 459.367188 257.890625 458.136719 257.476562 457.207031 256.632812 C 456.269531 255.785156 455.421875 254.824219 454.65625 253.746094 C 453.898438 252.660156 453.023438 251.691406 452.03125 250.839844 C 451.039062 249.988281 449.75 249.566406 448.167969 249.566406 C 446.582031 249.566406 445.546875 249.933594 445.050781 250.664062 C 444.554688 251.398438 444.308594 252.144531 444.308594 252.894531 C 444.308594 254.007812 444.804688 254.859375 445.796875 255.449219 C 446.789062 256.027344 448.070312 256.511719 449.65625 256.898438 C 451.238281 257.28125 452.90625 257.707031 454.65625 258.175781 C 456.414062 258.636719 458.078125 259.265625 459.652344 260.054688 C 461.234375 260.847656 462.523438 261.960938 463.515625 263.386719 C 464.515625 264.816406 465.019531 266.699219 465.019531 269.039062 C 465.019531 272.027344 464.15625 274.414062 462.433594 276.195312 C 460.707031 277.980469 458.5 279.269531 455.804688 280.058594 C 453.113281 280.847656 450.269531 281.246094 447.285156 281.246094 C 446.050781 281.246094 444.558594 281.09375 442.800781 280.804688 C 441.050781 280.511719 439.316406 280.023438 437.589844 279.351562 C 435.863281 278.675781 434.429688 277.773438 433.285156 276.640625 C 432.152344 275.496094 431.585938 274.046875 431.585938 272.296875 Z M 431.585938 272.296875 " fill-opacity="1" fill-rule="nonzero"/><path fill="#e12c2c" d="M 473.445312 281.246094 C 470.160156 281.246094 467.726562 280.285156 466.144531 278.359375 C 464.574219 276.421875 463.789062 274.105469 463.789062 271.410156 C 463.789062 267.492188 465.246094 264.410156 468.164062 262.164062 C 471.09375 259.90625 474.898438 258.28125 479.578125 257.289062 C 484.027344 256.359375 486.257812 254.894531 486.257812 252.894531 C 486.257812 252.144531 485.929688 251.398438 485.28125 250.664062 C 484.644531 249.933594 483.53125 249.566406 481.949219 249.566406 C 480.363281 249.566406 479.082031 249.988281 478.089844 250.839844 C 477.097656 251.691406 476.214844 252.660156 475.449219 253.746094 C 474.691406 254.824219 473.859375 255.785156 472.949219 256.632812 C 472.050781 257.476562 470.839844 257.890625 469.316406 257.890625 C 468.324219 257.890625 467.460938 257.546875 466.730469 256.847656 C 465.996094 256.152344 465.632812 255.300781 465.632812 254.296875 C 465.632812 252.3125 466.414062 250.636719 467.988281 249.261719 C 469.570312 247.882812 471.628906 246.84375 474.171875 246.144531 C 476.722656 245.4375 479.492188 245.082031 482.480469 245.082031 C 485.695312 245.082031 488.617188 245.597656 491.253906 246.625 C 493.882812 247.652344 495.988281 249.367188 497.5625 251.761719 C 499.140625 254.164062 499.933594 257.433594 499.933594 261.578125 L 499.933594 269.390625 C 499.933594 271.449219 500.082031 273.003906 500.378906 274.050781 C 500.671875 275.105469 501.019531 275.878906 501.421875 276.375 C 501.835938 276.871094 502.191406 277.277344 502.488281 277.597656 C 502.777344 277.914062 502.929688 278.402344 502.929688 279.046875 C 502.929688 279.925781 502.664062 280.511719 502.132812 280.804688 C 501.601562 281.09375 500.925781 281.246094 500.113281 281.246094 C 499.234375 281.246094 498.273438 281.15625 497.222656 280.980469 C 496.171875 280.804688 495.203125 280.714844 494.320312 280.714844 C 493.382812 280.714844 492.5625 280.753906 491.855469 280.839844 C 491.15625 280.929688 490.429688 281.039062 489.675781 281.15625 C 488.742188 281.273438 487.910156 281.15625 487.179688 280.804688 C 486.441406 280.449219 486.015625 279.804688 485.902344 278.871094 C 485.839844 277.941406 485.695312 277.3125 485.460938 276.992188 C 485.21875 276.664062 484.933594 276.496094 484.589844 276.496094 C 483.941406 276.496094 483.101562 276.894531 482.074219 277.683594 C 481.054688 278.476562 479.828125 279.269531 478.390625 280.058594 C 476.957031 280.847656 475.3125 281.246094 473.445312 281.246094 Z M 477.398438 267.816406 C 477.398438 269.515625 477.8125 270.734375 478.65625 271.464844 C 479.503906 272.1875 480.515625 272.546875 481.683594 272.546875 C 483.148438 272.546875 484.257812 271.921875 485.015625 270.667969 C 485.78125 269.417969 486.167969 267.9375 486.167969 266.238281 L 486.167969 262.019531 C 486.167969 260.453125 485.433594 260.046875 483.972656 260.796875 C 483.035156 261.273438 482.058594 261.785156 481.03125 262.339844 C 480 262.898438 479.136719 263.582031 478.441406 264.394531 C 477.742188 265.210938 477.398438 266.351562 477.398438 267.816406 Z M 477.398438 267.816406 " fill-opacity="1" fill-rule="nonzero"/><g clip-path="url(#f1e93592b3)"><g clip-path="url(#00370d8998)"><g clip-path="url(#837e053814)"><path fill="#e12c2c" d="M 530.113281 258.117188 C 530.09375 258.117188 530.070312 258.109375 530.046875 258.105469 C 529.5 258.011719 524.652344 257.113281 523.449219 254.460938 C 523.023438 253.527344 523.019531 252.574219 523.433594 251.777344 C 523.878906 250.949219 524.5625 250.457031 525.488281 250.296875 C 525.699219 250.261719 525.894531 250.300781 526.070312 250.425781 C 526.246094 250.546875 526.359375 250.714844 526.394531 250.925781 C 526.433594 251.136719 526.394531 251.328125 526.269531 251.507812 C 526.144531 251.683594 525.980469 251.792969 525.769531 251.828125 C 525.34375 251.902344 525.023438 252.121094 524.816406 252.5 C 524.625 252.867188 524.640625 253.324219 524.863281 253.8125 C 525.511719 255.246094 528.273438 256.125 529.78125 256.46875 C 530.515625 255.109375 531.664062 252.449219 531.011719 251.019531 C 530.699219 250.332031 530.171875 249.996094 529.558594 250.105469 C 529.207031 250.183594 528.910156 250.359375 528.679688 250.636719 C 528.449219 250.917969 528.324219 251.234375 528.316406 251.597656 C 528.300781 251.816406 528.210938 251.992188 528.050781 252.128906 C 527.886719 252.273438 527.695312 252.335938 527.484375 252.316406 L 527.480469 252.316406 C 527.265625 252.300781 527.089844 252.210938 526.945312 252.046875 C 526.808594 251.882812 526.746094 251.695312 526.765625 251.480469 C 526.78125 251.132812 526.859375 250.796875 526.992188 250.472656 C 527.121094 250.152344 527.300781 249.859375 527.527344 249.59375 C 527.757812 249.332031 528.023438 249.109375 528.324219 248.9375 C 528.625 248.761719 528.949219 248.640625 529.289062 248.570312 C 530.613281 248.335938 531.820312 249.027344 532.433594 250.371094 C 533.640625 253.03125 531.132812 257.269531 530.839844 257.742188 C 530.675781 258.019531 530.433594 258.140625 530.113281 258.117188 Z M 530.113281 258.117188 " fill-opacity="1" fill-rule="nonzero"/></g></g></g><g clip-path="url(#ef5513a2bd)"><g clip-path="url(#2eb82467ec)"><g clip-path="url(#ea58d17ef7)"><path fill="#e12c2c" d="M 540.628906 253.859375 C 540.441406 253.84375 540.273438 253.769531 540.136719 253.628906 C 539.660156 253.136719 535.480469 248.742188 536.1875 245.265625 C 536.542969 243.542969 537.746094 242.421875 539.335938 242.339844 C 540.988281 242.261719 542.507812 243.375 543.03125 245.046875 C 543.09375 245.257812 543.074219 245.449219 542.976562 245.640625 C 542.875 245.832031 542.722656 245.960938 542.515625 246.023438 C 542.3125 246.089844 542.113281 246.070312 541.921875 245.96875 C 541.734375 245.871094 541.605469 245.714844 541.542969 245.511719 C 541.179688 244.34375 540.210938 243.859375 539.414062 243.902344 C 538.542969 243.945312 537.921875 244.554688 537.714844 245.574219 C 537.292969 247.628906 539.597656 250.714844 540.882812 252.148438 C 542.628906 251.332031 545.960938 249.394531 546.375 247.34375 C 546.515625 246.648438 546.410156 246.050781 546.066406 245.609375 C 545.707031 245.171875 545.25 244.949219 544.6875 244.941406 C 544.472656 244.9375 544.289062 244.851562 544.136719 244.699219 C 543.992188 244.539062 543.921875 244.351562 543.929688 244.136719 C 543.933594 243.917969 544.019531 243.738281 544.179688 243.589844 C 544.339844 243.445312 544.523438 243.378906 544.742188 243.386719 C 545.785156 243.414062 546.636719 243.828125 547.289062 244.644531 C 547.917969 245.441406 548.136719 246.515625 547.902344 247.652344 C 547.195312 251.128906 541.628906 253.539062 540.992188 253.800781 C 540.878906 253.847656 540.757812 253.871094 540.628906 253.859375 Z M 540.628906 253.859375 " fill-opacity="1" fill-rule="nonzero"/></g></g></g><g clip-path="url(#dfad9d2c15)"><g clip-path="url(#2b09944c03)"><g clip-path="url(#b00dd17db4)"><path fill="#e12c2c" d="M 541.855469 272.960938 C 530.640625 272.0625 518.921875 268.65625 519.285156 264.105469 C 519.648438 259.550781 531.761719 258.042969 542.976562 258.9375 C 554.191406 259.839844 565.914062 263.246094 565.546875 267.796875 C 565.183594 272.351562 553.070312 273.859375 541.855469 272.960938 Z M 542.855469 260.492188 C 529.480469 259.425781 521.019531 261.953125 520.839844 264.226562 C 520.652344 266.503906 528.609375 270.339844 541.980469 271.410156 C 555.351562 272.476562 563.816406 269.953125 563.996094 267.675781 C 564.179688 265.398438 556.222656 261.5625 542.855469 260.492188 Z M 542.855469 260.492188 " fill-opacity="1" fill-rule="nonzero"/></g></g></g><g clip-path="url(#6bf5b77529)"><g clip-path="url(#62b026cf27)"><g clip-path="url(#e0ec39640d)"><path fill="#e12c2c" d="M 539.066406 270.492188 C 538.929688 270.484375 538.804688 270.4375 538.695312 270.363281 C 538.582031 270.289062 538.496094 270.191406 538.433594 270.070312 C 538.371094 269.953125 538.34375 269.828125 538.347656 269.691406 C 538.351562 269.558594 538.390625 269.429688 538.460938 269.3125 C 540.226562 266.433594 542.496094 264.019531 545.257812 262.070312 C 546.230469 261.398438 549.523438 259.265625 551.230469 260.160156 C 553.175781 261.179688 553.453125 266.324219 552.605469 270.703125 C 552.5625 270.917969 552.453125 271.082031 552.273438 271.203125 C 552.09375 271.324219 551.898438 271.363281 551.6875 271.324219 C 551.472656 271.285156 551.308594 271.175781 551.191406 270.992188 C 551.066406 270.8125 551.03125 270.617188 551.070312 270.402344 C 551.996094 265.660156 551.222656 261.914062 550.507812 261.542969 C 550.195312 261.378906 548.660156 261.605469 546.148438 263.351562 C 543.566406 265.167969 541.449219 267.425781 539.792969 270.121094 C 539.628906 270.394531 539.386719 270.519531 539.066406 270.492188 Z M 539.066406 270.492188 " fill-opacity="1" fill-rule="nonzero"/></g></g></g><g clip-path="url(#93d2daec70)"><g clip-path="url(#086a334348)"><g clip-path="url(#c552d8fe2d)"><path fill="#e12c2c" d="M 543.242188 270.9375 C 543.109375 270.929688 542.988281 270.886719 542.875 270.8125 C 542.765625 270.734375 542.675781 270.640625 542.613281 270.523438 C 542.554688 270.402344 542.527344 270.273438 542.527344 270.140625 C 542.53125 270.007812 542.566406 269.878906 542.636719 269.765625 C 544.0625 267.328125 545.675781 265.019531 547.46875 262.839844 C 549.96875 259.859375 550.695312 259.882812 551.230469 260.160156 C 551.847656 260.484375 552.0625 261.230469 551.351562 264.078125 C 550.753906 266.355469 549.996094 268.582031 549.078125 270.753906 C 548.992188 270.953125 548.855469 271.09375 548.65625 271.175781 C 548.457031 271.257812 548.257812 271.257812 548.058594 271.175781 C 547.859375 271.089844 547.71875 270.953125 547.636719 270.753906 C 547.554688 270.554688 547.554688 270.355469 547.636719 270.15625 C 549.113281 266.613281 549.914062 263.691406 550.160156 262.203125 C 548.890625 263.429688 546.441406 266.390625 543.980469 270.558594 C 543.8125 270.835938 543.566406 270.964844 543.242188 270.9375 Z M 543.242188 270.9375 " fill-opacity="1" fill-rule="nonzero"/></g></g></g><g clip-path="url(#6dbc9a1027)"><g clip-path="url(#d6e66b3992)"><g clip-path="url(#f9619daeac)"><path fill="#e12c2c" d="M 551.640625 262.738281 C 551.515625 262.730469 551.390625 262.6875 551.277344 262.617188 C 551.167969 262.546875 551.078125 262.449219 551.019531 262.332031 C 550.957031 262.210938 550.925781 262.089844 550.929688 261.957031 C 550.929688 261.824219 550.960938 261.699219 551.027344 261.582031 L 559.589844 246.277344 C 559.714844 246.039062 559.734375 245.796875 559.65625 245.542969 C 559.574219 245.285156 559.417969 245.101562 559.183594 244.976562 C 558.945312 244.851562 558.699219 244.832031 558.445312 244.910156 C 558.195312 244.988281 558.003906 245.144531 557.878906 245.382812 L 550.175781 261.136719 C 550.078125 261.328125 549.933594 261.460938 549.730469 261.527344 C 549.523438 261.597656 549.332031 261.582031 549.136719 261.492188 C 548.945312 261.394531 548.8125 261.246094 548.746094 261.042969 C 548.675781 260.84375 548.683594 260.644531 548.777344 260.453125 L 556.488281 244.683594 C 556.488281 244.679688 556.492188 244.671875 556.496094 244.667969 C 556.652344 244.371094 556.855469 244.117188 557.113281 243.902344 C 557.371094 243.6875 557.65625 243.527344 557.976562 243.429688 C 558.296875 243.328125 558.625 243.296875 558.957031 243.324219 C 559.289062 243.355469 559.601562 243.449219 559.898438 243.605469 C 560.195312 243.757812 560.453125 243.96875 560.664062 244.21875 C 560.878906 244.476562 561.039062 244.765625 561.136719 245.082031 C 561.238281 245.402344 561.273438 245.730469 561.242188 246.0625 C 561.210938 246.394531 561.121094 246.707031 560.96875 247.003906 C 560.960938 247.015625 560.957031 247.019531 560.953125 247.027344 L 552.386719 262.34375 C 552.222656 262.632812 551.976562 262.765625 551.640625 262.738281 Z M 551.640625 262.738281 " fill-opacity="1" fill-rule="nonzero"/></g></g></g><g clip-path="url(#9ba27f356c)"><g clip-path="url(#77d486ac85)"><g clip-path="url(#9bee9be87e)"><path fill="#e12c2c" d="M 540.566406 289.082031 C 539.8125 289.019531 539.058594 288.921875 538.3125 288.789062 C 537.566406 288.652344 536.824219 288.484375 536.09375 288.277344 C 535.363281 288.070312 534.644531 287.824219 533.9375 287.546875 C 533.226562 287.265625 532.539062 286.957031 531.859375 286.613281 C 531.1875 286.265625 530.527344 285.886719 529.886719 285.472656 C 529.25 285.066406 528.628906 284.621094 528.035156 284.152344 C 527.4375 283.679688 526.867188 283.183594 526.324219 282.65625 C 525.773438 282.128906 525.253906 281.574219 524.757812 280.996094 C 524.265625 280.417969 523.804688 279.816406 523.371094 279.191406 C 522.9375 278.566406 522.535156 277.925781 522.164062 277.261719 C 521.796875 276.601562 521.453125 275.917969 521.152344 275.222656 C 520.847656 274.527344 520.578125 273.820312 520.34375 273.09375 C 520.113281 272.371094 519.914062 271.640625 519.75 270.894531 C 519.585938 270.15625 519.460938 269.40625 519.371094 268.648438 C 519.285156 267.894531 519.230469 267.136719 519.21875 266.382812 C 519.199219 265.621094 519.222656 264.863281 519.285156 264.105469 C 519.300781 263.890625 519.390625 263.714844 519.554688 263.574219 C 519.71875 263.433594 519.910156 263.375 520.121094 263.390625 C 520.339844 263.410156 520.515625 263.496094 520.652344 263.660156 C 520.792969 263.824219 520.851562 264.015625 520.839844 264.226562 C 520.652344 266.503906 528.609375 270.339844 541.980469 271.410156 C 555.351562 272.476562 563.816406 269.953125 563.996094 267.675781 C 564.015625 267.460938 564.101562 267.285156 564.265625 267.144531 C 564.429688 267.003906 564.621094 266.945312 564.835938 266.960938 C 565.050781 266.980469 565.226562 267.066406 565.367188 267.230469 C 565.503906 267.394531 565.566406 267.585938 565.546875 267.796875 C 565.488281 268.554688 565.386719 269.308594 565.253906 270.058594 C 565.117188 270.800781 564.949219 271.542969 564.742188 272.273438 C 564.53125 273.003906 564.289062 273.726562 564.011719 274.429688 C 563.730469 275.136719 563.421875 275.828125 563.074219 276.507812 C 562.730469 277.179688 562.347656 277.839844 561.941406 278.480469 C 561.53125 279.121094 561.085938 279.738281 560.617188 280.335938 C 560.148438 280.929688 559.648438 281.5 559.121094 282.050781 C 558.59375 282.59375 558.039062 283.113281 557.457031 283.609375 C 556.882812 284.101562 556.28125 284.566406 555.65625 285 C 555.035156 285.429688 554.390625 285.832031 553.730469 286.203125 C 553.0625 286.574219 552.382812 286.914062 551.6875 287.214844 C 550.992188 287.519531 550.28125 287.789062 549.5625 288.023438 C 548.835938 288.257812 548.101562 288.453125 547.363281 288.617188 C 546.621094 288.78125 545.871094 288.90625 545.117188 288.996094 C 544.359375 289.082031 543.601562 289.136719 542.84375 289.148438 C 542.082031 289.167969 541.324219 289.144531 540.566406 289.082031 Z M 520.792969 267.046875 C 520.859375 268.34375 521.042969 269.632812 521.339844 270.898438 C 521.636719 272.167969 522.046875 273.398438 522.566406 274.59375 C 523.089844 275.789062 523.707031 276.929688 524.433594 278.007812 C 525.160156 279.089844 525.976562 280.101562 526.886719 281.035156 C 527.792969 281.96875 528.777344 282.816406 529.839844 283.574219 C 530.898438 284.332031 532.019531 284.984375 533.199219 285.539062 C 534.375 286.09375 535.597656 286.539062 536.855469 286.871094 C 538.113281 287.210938 539.394531 287.425781 540.691406 287.53125 C 541.992188 287.632812 543.289062 287.621094 544.585938 287.492188 C 545.882812 287.359375 547.15625 287.117188 548.410156 286.753906 C 549.664062 286.394531 550.871094 285.925781 552.035156 285.34375 C 553.207031 284.765625 554.3125 284.085938 555.355469 283.308594 C 556.398438 282.527344 557.367188 281.664062 558.257812 280.710938 C 559.140625 279.753906 559.9375 278.730469 560.644531 277.632812 C 561.347656 276.539062 561.945312 275.386719 562.441406 274.183594 C 562.9375 272.976562 563.320312 271.738281 563.59375 270.460938 C 559.667969 272.914062 550.496094 273.648438 541.855469 272.960938 C 533.21875 272.273438 524.28125 270.089844 520.792969 267.046875 Z M 520.792969 267.046875 " fill-opacity="1" fill-rule="nonzero"/></g></g></g></svg>